%TF.GenerationSoftware,KiCad,Pcbnew,8.0.3*%
%TF.CreationDate,2024-09-30T04:18:30-05:00*%
%TF.ProjectId,Project Lab 4,50726f6a-6563-4742-904c-616220342e6b,rev?*%
%TF.SameCoordinates,Original*%
%TF.FileFunction,Soldermask,Top*%
%TF.FilePolarity,Negative*%
%FSLAX46Y46*%
G04 Gerber Fmt 4.6, Leading zero omitted, Abs format (unit mm)*
G04 Created by KiCad (PCBNEW 8.0.3) date 2024-09-30 04:18:30*
%MOMM*%
%LPD*%
G01*
G04 APERTURE LIST*
G04 Aperture macros list*
%AMRoundRect*
0 Rectangle with rounded corners*
0 $1 Rounding radius*
0 $2 $3 $4 $5 $6 $7 $8 $9 X,Y pos of 4 corners*
0 Add a 4 corners polygon primitive as box body*
4,1,4,$2,$3,$4,$5,$6,$7,$8,$9,$2,$3,0*
0 Add four circle primitives for the rounded corners*
1,1,$1+$1,$2,$3*
1,1,$1+$1,$4,$5*
1,1,$1+$1,$6,$7*
1,1,$1+$1,$8,$9*
0 Add four rect primitives between the rounded corners*
20,1,$1+$1,$2,$3,$4,$5,0*
20,1,$1+$1,$4,$5,$6,$7,0*
20,1,$1+$1,$6,$7,$8,$9,0*
20,1,$1+$1,$8,$9,$2,$3,0*%
%AMFreePoly0*
4,1,30,0.400000,-4.000000,-0.400000,-4.000000,-2.400000,-4.000000,-2.400000,-3.200000,-0.400000,-3.200000,-0.400000,-2.800000,-2.400000,-2.800000,-2.400000,-2.000000,-0.400000,-2.000000,-0.400000,-1.600000,-2.400000,-1.600000,-2.400000,-0.800000,-0.400000,-0.800000,-0.400000,-0.400000,-2.400000,-0.400000,-2.400000,0.400000,-0.400000,0.400000,-0.400000,0.800000,-2.400000,0.800000,-2.400000,1.600000,
-0.400000,1.600000,-0.400000,2.000000,-2.400000,2.000000,-2.400000,2.800000,-0.400000,2.800000,-0.400000,3.200000,-2.400000,3.200000,-2.400000,4.000000,0.400000,4.000000,0.400000,-4.000000,0.400000,-4.000000,$1*%
G04 Aperture macros list end*
%ADD10C,0.010000*%
%ADD11R,3.150000X3.150000*%
%ADD12C,3.150000*%
%ADD13C,5.100000*%
%ADD14R,35.000000X18.000000*%
%ADD15R,1.600000X2.400000*%
%ADD16O,1.600000X2.400000*%
%ADD17RoundRect,0.250000X-0.412500X-0.650000X0.412500X-0.650000X0.412500X0.650000X-0.412500X0.650000X0*%
%ADD18RoundRect,0.317500X0.382500X0.317500X-0.382500X0.317500X-0.382500X-0.317500X0.382500X-0.317500X0*%
%ADD19R,4.800000X4.720000*%
%ADD20RoundRect,0.250000X-0.475000X0.337500X-0.475000X-0.337500X0.475000X-0.337500X0.475000X0.337500X0*%
%ADD21RoundRect,0.250000X-0.450000X0.350000X-0.450000X-0.350000X0.450000X-0.350000X0.450000X0.350000X0*%
%ADD22R,1.600000X1.600000*%
%ADD23C,1.600000*%
%ADD24RoundRect,0.250000X0.412500X0.650000X-0.412500X0.650000X-0.412500X-0.650000X0.412500X-0.650000X0*%
%ADD25R,2.100000X1.000000*%
%ADD26C,10.200000*%
%ADD27R,1.800000X1.800000*%
%ADD28C,1.800000*%
%ADD29RoundRect,0.250001X1.399999X-1.099999X1.399999X1.099999X-1.399999X1.099999X-1.399999X-1.099999X0*%
%ADD30O,3.300000X2.700000*%
%ADD31R,1.425000X0.300000*%
%ADD32R,1.680000X1.880000*%
%ADD33R,28.000000X155.000000*%
%ADD34RoundRect,0.250000X0.350000X0.450000X-0.350000X0.450000X-0.350000X-0.450000X0.350000X-0.450000X0*%
%ADD35RoundRect,0.250000X0.650000X-0.412500X0.650000X0.412500X-0.650000X0.412500X-0.650000X-0.412500X0*%
%ADD36RoundRect,0.250000X2.125000X-0.362500X2.125000X0.362500X-2.125000X0.362500X-2.125000X-0.362500X0*%
%ADD37RoundRect,0.250000X-0.650000X0.412500X-0.650000X-0.412500X0.650000X-0.412500X0.650000X0.412500X0*%
%ADD38R,1.700000X1.700000*%
%ADD39O,1.700000X1.700000*%
%ADD40C,4.000000*%
%ADD41R,5.600000X2.550000*%
%ADD42R,0.900000X2.550000*%
%ADD43RoundRect,0.150000X-0.150000X0.875000X-0.150000X-0.875000X0.150000X-0.875000X0.150000X0.875000X0*%
%ADD44RoundRect,0.150000X0.150000X-0.512500X0.150000X0.512500X-0.150000X0.512500X-0.150000X-0.512500X0*%
%ADD45RoundRect,0.102000X-0.450000X1.400000X-0.450000X-1.400000X0.450000X-1.400000X0.450000X1.400000X0*%
%ADD46FreePoly0,270.000000*%
%ADD47RoundRect,0.317500X-0.382500X-0.317500X0.382500X-0.317500X0.382500X0.317500X-0.382500X0.317500X0*%
%ADD48O,1.600000X1.600000*%
%ADD49R,0.750000X0.300000*%
%ADD50RoundRect,0.250000X-0.350000X-0.450000X0.350000X-0.450000X0.350000X0.450000X-0.350000X0.450000X0*%
%ADD51RoundRect,0.250000X0.700000X-0.362500X0.700000X0.362500X-0.700000X0.362500X-0.700000X-0.362500X0*%
%ADD52RoundRect,0.250001X-0.624999X0.462499X-0.624999X-0.462499X0.624999X-0.462499X0.624999X0.462499X0*%
%ADD53RoundRect,0.150000X0.512500X0.150000X-0.512500X0.150000X-0.512500X-0.150000X0.512500X-0.150000X0*%
%ADD54RoundRect,0.075000X0.075000X-0.662500X0.075000X0.662500X-0.075000X0.662500X-0.075000X-0.662500X0*%
%ADD55RoundRect,0.250000X0.740000X-0.615000X0.740000X0.615000X-0.740000X0.615000X-0.740000X-0.615000X0*%
%ADD56C,8.600000*%
%ADD57RoundRect,0.250000X0.450000X-0.350000X0.450000X0.350000X-0.450000X0.350000X-0.450000X-0.350000X0*%
%ADD58RoundRect,0.150000X-0.725000X-0.150000X0.725000X-0.150000X0.725000X0.150000X-0.725000X0.150000X0*%
%ADD59RoundRect,0.100000X-0.712500X-0.100000X0.712500X-0.100000X0.712500X0.100000X-0.712500X0.100000X0*%
G04 APERTURE END LIST*
D10*
%TO.C,Q1*%
X410850000Y-7795000D02*
X410350000Y-7795000D01*
X410350000Y-10545000D01*
X411050000Y-10545000D01*
X411050000Y-12095000D01*
X400950000Y-12095000D01*
X400950000Y-10545000D01*
X401650000Y-10545000D01*
X401650000Y-7795000D01*
X401150000Y-7795000D01*
X401150000Y-4095000D01*
X410850000Y-4095000D01*
X410850000Y-7795000D01*
G36*
X410850000Y-7795000D02*
G01*
X410350000Y-7795000D01*
X410350000Y-10545000D01*
X411050000Y-10545000D01*
X411050000Y-12095000D01*
X400950000Y-12095000D01*
X400950000Y-10545000D01*
X401650000Y-10545000D01*
X401650000Y-7795000D01*
X401150000Y-7795000D01*
X401150000Y-4095000D01*
X410850000Y-4095000D01*
X410850000Y-7795000D01*
G37*
%TO.C,Q3*%
X386450000Y-7795000D02*
X385950000Y-7795000D01*
X385950000Y-10545000D01*
X386650000Y-10545000D01*
X386650000Y-12095000D01*
X376550000Y-12095000D01*
X376550000Y-10545000D01*
X377250000Y-10545000D01*
X377250000Y-7795000D01*
X376750000Y-7795000D01*
X376750000Y-4095000D01*
X386450000Y-4095000D01*
X386450000Y-7795000D01*
G36*
X386450000Y-7795000D02*
G01*
X385950000Y-7795000D01*
X385950000Y-10545000D01*
X386650000Y-10545000D01*
X386650000Y-12095000D01*
X376550000Y-12095000D01*
X376550000Y-10545000D01*
X377250000Y-10545000D01*
X377250000Y-7795000D01*
X376750000Y-7795000D01*
X376750000Y-4095000D01*
X386450000Y-4095000D01*
X386450000Y-7795000D01*
G37*
%TO.C,Q2*%
X398850000Y-7795000D02*
X398350000Y-7795000D01*
X398350000Y-10545000D01*
X399050000Y-10545000D01*
X399050000Y-12095000D01*
X388950000Y-12095000D01*
X388950000Y-10545000D01*
X389650000Y-10545000D01*
X389650000Y-7795000D01*
X389150000Y-7795000D01*
X389150000Y-4095000D01*
X398850000Y-4095000D01*
X398850000Y-7795000D01*
G36*
X398850000Y-7795000D02*
G01*
X398350000Y-7795000D01*
X398350000Y-10545000D01*
X399050000Y-10545000D01*
X399050000Y-12095000D01*
X388950000Y-12095000D01*
X388950000Y-10545000D01*
X389650000Y-10545000D01*
X389650000Y-7795000D01*
X389150000Y-7795000D01*
X389150000Y-4095000D01*
X398850000Y-4095000D01*
X398850000Y-7795000D01*
G37*
%TD*%
D11*
%TO.C,C6*%
X326500000Y-42000000D03*
D12*
X326500000Y-52000000D03*
%TD*%
D11*
%TO.C,C20*%
X461000000Y-42000000D03*
D12*
X461000000Y-52000000D03*
%TD*%
D13*
%TO.C,H8*%
X381500000Y-22500000D03*
D14*
X394000000Y-22500000D03*
D13*
X406500000Y-22500000D03*
%TD*%
D15*
%TO.C,OC4*%
X423075000Y26625000D03*
D16*
X420535000Y26625000D03*
X420535000Y19005000D03*
X423075000Y19005000D03*
%TD*%
D11*
%TO.C,C22*%
X326500000Y-188800000D03*
D12*
X326500000Y-198800000D03*
%TD*%
D17*
%TO.C,C32*%
X449837500Y-3600000D03*
X452962500Y-3600000D03*
%TD*%
D18*
%TO.C,D3*%
X372640000Y-5315000D03*
X370560000Y-5315000D03*
D19*
X371600000Y-1510000D03*
%TD*%
D20*
%TO.C,C26*%
X417202437Y337500D03*
X417202437Y-1737500D03*
%TD*%
D11*
%TO.C,C18*%
X326500000Y-152100000D03*
D12*
X326500000Y-162100000D03*
%TD*%
D21*
%TO.C,R11*%
X423200000Y32800000D03*
X423200000Y30800000D03*
%TD*%
D22*
%TO.C,SW2*%
X336850000Y17907500D03*
D23*
X336850000Y15407500D03*
X336850000Y12907500D03*
X333650000Y17907500D03*
X333650000Y15407500D03*
X333650000Y12907500D03*
%TD*%
D24*
%TO.C,C2*%
X439262500Y-2900000D03*
X436137500Y-2900000D03*
%TD*%
D25*
%TO.C,U4*%
X369850000Y18790000D03*
X369850000Y21330000D03*
X369850000Y26410000D03*
X359750000Y26410000D03*
X359750000Y18790000D03*
%TD*%
D15*
%TO.C,OC1*%
X346675000Y27025000D03*
D16*
X344135000Y27025000D03*
X344135000Y19405000D03*
X346675000Y19405000D03*
%TD*%
D11*
%TO.C,C21*%
X360000000Y-59600000D03*
D12*
X360000000Y-69600000D03*
%TD*%
D11*
%TO.C,C13*%
X360000000Y-133000000D03*
D12*
X360000000Y-143000000D03*
%TD*%
D26*
%TO.C,R24*%
X393800000Y-76800000D03*
D27*
X393800000Y-54700000D03*
D28*
X393800000Y-46900000D03*
D26*
X393800000Y-24800000D03*
%TD*%
D29*
%TO.C,J2*%
X340625000Y-16900000D03*
D30*
X340625000Y-12700000D03*
X340625000Y-8500000D03*
X340625000Y-4300000D03*
X340625000Y-100000D03*
X346125000Y-16900000D03*
X346125000Y-12700000D03*
X346125000Y-8500000D03*
X346125000Y-4300000D03*
X346125000Y-100000D03*
%TD*%
D11*
%TO.C,C5*%
X360000000Y-206400000D03*
D12*
X360000000Y-216400000D03*
%TD*%
D31*
%TO.C,IC1*%
X429826437Y-1700000D03*
X429826437Y-1200000D03*
X429826437Y-700000D03*
X429826437Y-200000D03*
X429826437Y300000D03*
X425402437Y300000D03*
X425402437Y-200000D03*
X425402437Y-700000D03*
X425402437Y-1200000D03*
X425402437Y-1700000D03*
D32*
X427614437Y-700000D03*
%TD*%
D26*
%TO.C,H7*%
X393800000Y-108575000D03*
X393800000Y-148575000D03*
D33*
X393800000Y-148575000D03*
D26*
X393800000Y-188575000D03*
%TD*%
D23*
%TO.C,C29*%
X351800000Y20900000D03*
X351800000Y25900000D03*
%TD*%
D34*
%TO.C,R14*%
X348600000Y16100000D03*
X346600000Y16100000D03*
%TD*%
D35*
%TO.C,C24*%
X432700000Y-2362500D03*
X432700000Y762500D03*
%TD*%
D11*
%TO.C,C11*%
X427500000Y-133000000D03*
D12*
X427500000Y-143000000D03*
%TD*%
D36*
%TO.C,R21*%
X439000000Y-19562500D03*
X439000000Y-16437500D03*
%TD*%
D37*
%TO.C,C33*%
X451300000Y27812500D03*
X451300000Y24687500D03*
%TD*%
D38*
%TO.C,J4*%
X384925000Y38260000D03*
D39*
X384925000Y40800000D03*
X387465000Y38260000D03*
X387465000Y40800000D03*
X390005000Y38260000D03*
X390005000Y40800000D03*
X392545000Y38260000D03*
X392545000Y40800000D03*
X395085000Y38260000D03*
X395085000Y40800000D03*
X397625000Y38260000D03*
X397625000Y40800000D03*
X400165000Y38260000D03*
X400165000Y40800000D03*
X402705000Y38260000D03*
X402705000Y40800000D03*
%TD*%
D40*
%TO.C,H6*%
X455000000Y-218800000D03*
%TD*%
D11*
%TO.C,C14*%
X326500000Y-115400000D03*
D12*
X326500000Y-125400000D03*
%TD*%
D41*
%TO.C,R1*%
X394600000Y-41825000D03*
D42*
X390550000Y-41825000D03*
X390550000Y-33775000D03*
D41*
X394600000Y-33775000D03*
%TD*%
D43*
%TO.C,U2*%
X448245000Y27450000D03*
X446975000Y27450000D03*
X445705000Y27450000D03*
X444435000Y27450000D03*
X443165000Y27450000D03*
X441895000Y27450000D03*
X440625000Y27450000D03*
X439355000Y27450000D03*
X439355000Y18150000D03*
X440625000Y18150000D03*
X441895000Y18150000D03*
X443165000Y18150000D03*
X444435000Y18150000D03*
X445705000Y18150000D03*
X446975000Y18150000D03*
X448245000Y18150000D03*
%TD*%
D36*
%TO.C,R19*%
X455500000Y-19562500D03*
X455500000Y-16437500D03*
%TD*%
D11*
%TO.C,C12*%
X461000000Y-115400000D03*
D12*
X461000000Y-125400000D03*
%TD*%
D37*
%TO.C,C28*%
X373950000Y21362500D03*
X373950000Y18237500D03*
%TD*%
D11*
%TO.C,C19*%
X427500000Y-59600000D03*
D12*
X427500000Y-69600000D03*
%TD*%
D21*
%TO.C,R23*%
X451400000Y4732500D03*
X451400000Y2732500D03*
%TD*%
D11*
%TO.C,C15*%
X427500000Y-96300000D03*
D12*
X427500000Y-106300000D03*
%TD*%
D24*
%TO.C,C31*%
X439262500Y4700000D03*
X436137500Y4700000D03*
%TD*%
D35*
%TO.C,C25*%
X422200000Y-2173573D03*
X422200000Y951427D03*
%TD*%
D44*
%TO.C,Q5*%
X429250000Y-14337500D03*
X431150000Y-14337500D03*
X430200000Y-12062500D03*
%TD*%
D34*
%TO.C,R17*%
X431200000Y-22400000D03*
X429200000Y-22400000D03*
%TD*%
D45*
%TO.C,Q1*%
X410200000Y-470000D03*
X409000000Y-470000D03*
X407800000Y-470000D03*
X406600000Y-470000D03*
X405400000Y-470000D03*
X404200000Y-470000D03*
X403000000Y-470000D03*
X401800000Y-470000D03*
D46*
X405400000Y-1470000D03*
%TD*%
D35*
%TO.C,C34*%
X451300000Y17637500D03*
X451300000Y20762500D03*
%TD*%
D11*
%TO.C,C3*%
X427500000Y-206400000D03*
D12*
X427500000Y-216400000D03*
%TD*%
D36*
%TO.C,R20*%
X444500000Y-19562500D03*
X444500000Y-16437500D03*
%TD*%
D47*
%TO.C,D4*%
X407360000Y-35285000D03*
X409440000Y-35285000D03*
D19*
X408400000Y-39090000D03*
%TD*%
D23*
%TO.C,R8*%
X355550000Y15580000D03*
D48*
X355550000Y30820000D03*
%TD*%
D15*
%TO.C,OC2*%
X430475000Y26625000D03*
D16*
X427935000Y26625000D03*
X427935000Y19005000D03*
X430475000Y19005000D03*
%TD*%
D49*
%TO.C,U1*%
X368750000Y-31500000D03*
X368750000Y-31000000D03*
X368750000Y-30500000D03*
X368750000Y-30000000D03*
X368750000Y-29500000D03*
X365750000Y-29500000D03*
X365750000Y-30000000D03*
X365750000Y-30500000D03*
X365750000Y-31000000D03*
X365750000Y-31500000D03*
D15*
X367250000Y-30500000D03*
%TD*%
D45*
%TO.C,Q3*%
X385800000Y-470000D03*
X384600000Y-470000D03*
X383400000Y-470000D03*
X382200000Y-470000D03*
X381000000Y-470000D03*
X379800000Y-470000D03*
X378600000Y-470000D03*
X377400000Y-470000D03*
D46*
X381000000Y-1470000D03*
%TD*%
D34*
%TO.C,R10*%
X463800000Y-24200000D03*
X461800000Y-24200000D03*
%TD*%
D50*
%TO.C,R9*%
X457200000Y-24200000D03*
X459200000Y-24200000D03*
%TD*%
D51*
%TO.C,L1*%
X439000000Y-762500D03*
X439000000Y2562500D03*
%TD*%
D21*
%TO.C,R13*%
X448200000Y4732500D03*
X448200000Y2732500D03*
%TD*%
%TO.C,R12*%
X420400000Y15000000D03*
X420400000Y13000000D03*
%TD*%
D17*
%TO.C,C27*%
X354037500Y-12800000D03*
X357162500Y-12800000D03*
%TD*%
D21*
%TO.C,R2*%
X417202437Y-4000000D03*
X417202437Y-6000000D03*
%TD*%
D52*
%TO.C,D5*%
X325900000Y-812500D03*
X325900000Y-3787500D03*
%TD*%
D36*
%TO.C,R22*%
X433500000Y-19562500D03*
X433500000Y-16437500D03*
%TD*%
D53*
%TO.C,D1*%
X428751937Y-6261073D03*
X428751937Y-4361073D03*
X426476937Y-5311073D03*
%TD*%
D54*
%TO.C,U5*%
X443505000Y400000D03*
X444005000Y400000D03*
X444505000Y400000D03*
X445005000Y400000D03*
X445505000Y400000D03*
X445505000Y4725000D03*
X445005000Y4725000D03*
X444505000Y4725000D03*
X444005000Y4725000D03*
X443505000Y4725000D03*
D55*
X444505000Y2562500D03*
%TD*%
D17*
%TO.C,C23*%
X354037500Y-22600000D03*
X357162500Y-22600000D03*
%TD*%
D56*
%TO.C,H1*%
X393800000Y7000000D03*
%TD*%
D11*
%TO.C,C9*%
X360000000Y-169700000D03*
D12*
X360000000Y-179700000D03*
%TD*%
D11*
%TO.C,C10*%
X326500000Y-78700000D03*
D12*
X326500000Y-88700000D03*
%TD*%
D57*
%TO.C,R4*%
X325900000Y1487500D03*
X325900000Y3487500D03*
%TD*%
D11*
%TO.C,C8*%
X461000000Y-152100000D03*
D12*
X461000000Y-162100000D03*
%TD*%
D11*
%TO.C,C7*%
X427500000Y-169700000D03*
D12*
X427500000Y-179700000D03*
%TD*%
D57*
%TO.C,R3*%
X332004000Y1387500D03*
X332004000Y3387500D03*
%TD*%
D17*
%TO.C,C30*%
X363237500Y33200000D03*
X366362500Y33200000D03*
%TD*%
D56*
%TO.C,H2*%
X393800000Y17600000D03*
%TD*%
D40*
%TO.C,H4*%
X455000000Y35000000D03*
%TD*%
D21*
%TO.C,R15*%
X346600000Y32400000D03*
X346600000Y30400000D03*
%TD*%
D57*
%TO.C,R5*%
X419502437Y-1700000D03*
X419502437Y300000D03*
%TD*%
D34*
%TO.C,R7*%
X360000000Y-29500000D03*
X358000000Y-29500000D03*
%TD*%
D11*
%TO.C,C4*%
X461000000Y-188800000D03*
D12*
X461000000Y-198800000D03*
%TD*%
D58*
%TO.C,U6*%
X441930000Y-3495000D03*
X441930000Y-4765000D03*
X441930000Y-6035000D03*
X441930000Y-7305000D03*
X447080000Y-7305000D03*
X447080000Y-6035000D03*
X447080000Y-4765000D03*
X447080000Y-3495000D03*
%TD*%
D17*
%TO.C,C1*%
X365687500Y-26500000D03*
X368812500Y-26500000D03*
%TD*%
D36*
%TO.C,R18*%
X450000000Y-19562500D03*
X450000000Y-16437500D03*
%TD*%
D40*
%TO.C,H3*%
X333000000Y35000000D03*
%TD*%
D11*
%TO.C,C17*%
X360000000Y-96300000D03*
D12*
X360000000Y-106300000D03*
%TD*%
D40*
%TO.C,H5*%
X333000000Y-218800000D03*
%TD*%
D59*
%TO.C,U3*%
X353887500Y-16825000D03*
X353887500Y-17475000D03*
X353887500Y-18125000D03*
X353887500Y-18775000D03*
X358112500Y-18775000D03*
X358112500Y-18125000D03*
X358112500Y-17475000D03*
X358112500Y-16825000D03*
%TD*%
D22*
%TO.C,SW1*%
X328950000Y17907500D03*
D23*
X328950000Y15407500D03*
X328950000Y12907500D03*
X325750000Y17907500D03*
X325750000Y15407500D03*
X325750000Y12907500D03*
%TD*%
D45*
%TO.C,Q2*%
X398200000Y-470000D03*
X397000000Y-470000D03*
X395800000Y-470000D03*
X394600000Y-470000D03*
X393400000Y-470000D03*
X392200000Y-470000D03*
X391000000Y-470000D03*
X389800000Y-470000D03*
D46*
X393400000Y-1470000D03*
%TD*%
D11*
%TO.C,C16*%
X461000000Y-78700000D03*
D12*
X461000000Y-88700000D03*
%TD*%
D34*
%TO.C,R6*%
X360000000Y-31700000D03*
X358000000Y-31700000D03*
%TD*%
D52*
%TO.C,D2*%
X332004000Y-912500D03*
X332004000Y-3887500D03*
%TD*%
D21*
%TO.C,R16*%
X430800000Y32800000D03*
X430800000Y30800000D03*
%TD*%
M02*
