%TF.GenerationSoftware,KiCad,Pcbnew,8.0.3*%
%TF.CreationDate,2024-09-30T04:18:30-05:00*%
%TF.ProjectId,Project Lab 4,50726f6a-6563-4742-904c-616220342e6b,rev?*%
%TF.SameCoordinates,Original*%
%TF.FileFunction,Copper,L2,Inr*%
%TF.FilePolarity,Positive*%
%FSLAX46Y46*%
G04 Gerber Fmt 4.6, Leading zero omitted, Abs format (unit mm)*
G04 Created by KiCad (PCBNEW 8.0.3) date 2024-09-30 04:18:30*
%MOMM*%
%LPD*%
G01*
G04 APERTURE LIST*
G04 Aperture macros list*
%AMRoundRect*
0 Rectangle with rounded corners*
0 $1 Rounding radius*
0 $2 $3 $4 $5 $6 $7 $8 $9 X,Y pos of 4 corners*
0 Add a 4 corners polygon primitive as box body*
4,1,4,$2,$3,$4,$5,$6,$7,$8,$9,$2,$3,0*
0 Add four circle primitives for the rounded corners*
1,1,$1+$1,$2,$3*
1,1,$1+$1,$4,$5*
1,1,$1+$1,$6,$7*
1,1,$1+$1,$8,$9*
0 Add four rect primitives between the rounded corners*
20,1,$1+$1,$2,$3,$4,$5,0*
20,1,$1+$1,$4,$5,$6,$7,0*
20,1,$1+$1,$6,$7,$8,$9,0*
20,1,$1+$1,$8,$9,$2,$3,0*%
G04 Aperture macros list end*
%TA.AperFunction,ComponentPad*%
%ADD10R,3.150000X3.150000*%
%TD*%
%TA.AperFunction,ComponentPad*%
%ADD11C,3.150000*%
%TD*%
%TA.AperFunction,ComponentPad*%
%ADD12C,5.100000*%
%TD*%
%TA.AperFunction,ComponentPad*%
%ADD13R,1.600000X2.400000*%
%TD*%
%TA.AperFunction,ComponentPad*%
%ADD14O,1.600000X2.400000*%
%TD*%
%TA.AperFunction,ComponentPad*%
%ADD15R,1.600000X1.600000*%
%TD*%
%TA.AperFunction,ComponentPad*%
%ADD16C,1.600000*%
%TD*%
%TA.AperFunction,ComponentPad*%
%ADD17C,10.200000*%
%TD*%
%TA.AperFunction,ComponentPad*%
%ADD18R,1.800000X1.800000*%
%TD*%
%TA.AperFunction,ComponentPad*%
%ADD19C,1.800000*%
%TD*%
%TA.AperFunction,ComponentPad*%
%ADD20RoundRect,0.250001X1.399999X-1.099999X1.399999X1.099999X-1.399999X1.099999X-1.399999X-1.099999X0*%
%TD*%
%TA.AperFunction,ComponentPad*%
%ADD21O,3.300000X2.700000*%
%TD*%
%TA.AperFunction,ComponentPad*%
%ADD22R,1.700000X1.700000*%
%TD*%
%TA.AperFunction,ComponentPad*%
%ADD23O,1.700000X1.700000*%
%TD*%
%TA.AperFunction,ComponentPad*%
%ADD24C,0.600000*%
%TD*%
%TA.AperFunction,ComponentPad*%
%ADD25O,1.600000X1.600000*%
%TD*%
%TA.AperFunction,ComponentPad*%
%ADD26C,8.600000*%
%TD*%
%TA.AperFunction,ViaPad*%
%ADD27C,0.500000*%
%TD*%
G04 APERTURE END LIST*
D10*
%TO.N,+40V*%
%TO.C,C6*%
X326500000Y-42000000D03*
D11*
%TO.N,GNDPWR*%
X326500000Y-52000000D03*
%TD*%
D10*
%TO.N,+40V*%
%TO.C,C20*%
X461000000Y-42000000D03*
D11*
%TO.N,GNDPWR*%
X461000000Y-52000000D03*
%TD*%
D12*
%TO.N,/-SHUNT*%
%TO.C,H8*%
X381500000Y-22500000D03*
X406500000Y-22500000D03*
%TD*%
D13*
%TO.N,Net-(OC4-Pad1)*%
%TO.C,OC4*%
X423075000Y26625000D03*
D14*
%TO.N,GND*%
X420535000Y26625000D03*
%TO.N,/DISCHARGE*%
X420535000Y19005000D03*
%TO.N,+12V*%
X423075000Y19005000D03*
%TD*%
D10*
%TO.N,+40V*%
%TO.C,C22*%
X326500000Y-188800000D03*
D11*
%TO.N,GNDPWR*%
X326500000Y-198800000D03*
%TD*%
D10*
%TO.N,+40V*%
%TO.C,C18*%
X326500000Y-152100000D03*
D11*
%TO.N,GNDPWR*%
X326500000Y-162100000D03*
%TD*%
D15*
%TO.N,GNDPWR*%
%TO.C,SW2*%
X336850000Y17907500D03*
D16*
%TO.N,/GAIN2*%
X336850000Y15407500D03*
%TO.N,+5V*%
X336850000Y12907500D03*
%TO.N,N/C*%
X333650000Y17907500D03*
X333650000Y15407500D03*
X333650000Y12907500D03*
%TD*%
D13*
%TO.N,Net-(OC1-Pad1)*%
%TO.C,OC1*%
X346675000Y27025000D03*
D14*
%TO.N,GND*%
X344135000Y27025000D03*
%TO.N,GNDPWR*%
X344135000Y19405000D03*
%TO.N,HV_RELAY*%
X346675000Y19405000D03*
%TD*%
D10*
%TO.N,+40V*%
%TO.C,C21*%
X360000000Y-59600000D03*
D11*
%TO.N,GNDPWR*%
X360000000Y-69600000D03*
%TD*%
D10*
%TO.N,+40V*%
%TO.C,C13*%
X360000000Y-133000000D03*
D11*
%TO.N,GNDPWR*%
X360000000Y-143000000D03*
%TD*%
D17*
%TO.N,+40V*%
%TO.C,R24*%
X393800000Y-76800000D03*
D18*
%TO.N,/+RS*%
X393800000Y-54700000D03*
D19*
%TO.N,/-RS*%
X393800000Y-46900000D03*
D17*
%TO.N,/-SHUNT*%
X393800000Y-24800000D03*
%TD*%
D20*
%TO.N,+40V*%
%TO.C,J2*%
X340625000Y-16900000D03*
D21*
%TO.N,GNDPWR*%
X340625000Y-12700000D03*
%TO.N,-13.8V*%
X340625000Y-8500000D03*
%TO.N,GNDPWR*%
X340625000Y-4300000D03*
%TO.N,+13.8V*%
X340625000Y-100000D03*
%TO.N,GNDPWR*%
X346125000Y-16900000D03*
X346125000Y-12700000D03*
%TO.N,HV_RELAY*%
X346125000Y-8500000D03*
%TO.N,GNDPWR*%
X346125000Y-4300000D03*
%TO.N,+12V*%
X346125000Y-100000D03*
%TD*%
D10*
%TO.N,+40V*%
%TO.C,C5*%
X360000000Y-206400000D03*
D11*
%TO.N,GNDPWR*%
X360000000Y-216400000D03*
%TD*%
D17*
%TO.N,+40V*%
%TO.C,H7*%
X393800000Y-108575000D03*
X393800000Y-148575000D03*
X393800000Y-188575000D03*
%TD*%
D16*
%TO.N,+12V*%
%TO.C,C29*%
X351800000Y20900000D03*
%TO.N,GND*%
X351800000Y25900000D03*
%TD*%
D10*
%TO.N,+40V*%
%TO.C,C11*%
X427500000Y-133000000D03*
D11*
%TO.N,GNDPWR*%
X427500000Y-143000000D03*
%TD*%
D22*
%TO.N,+5V_ISO*%
%TO.C,J4*%
X384925000Y38260000D03*
D23*
X384925000Y40800000D03*
%TO.N,GND*%
X387465000Y38260000D03*
X387465000Y40800000D03*
%TO.N,+5V_ISO*%
X390005000Y38260000D03*
X390005000Y40800000D03*
%TO.N,GND*%
X392545000Y38260000D03*
X392545000Y40800000D03*
%TO.N,unconnected-(J4-Pin_9-Pad9)*%
X395085000Y38260000D03*
%TO.N,/~CS*%
X395085000Y40800000D03*
%TO.N,~BLEED*%
X397625000Y38260000D03*
%TO.N,/SCLK*%
X397625000Y40800000D03*
%TO.N,HV_EN*%
X400165000Y38260000D03*
%TO.N,/MOSI*%
X400165000Y40800000D03*
%TO.N,TRIG*%
X402705000Y38260000D03*
%TO.N,/MISO*%
X402705000Y40800000D03*
%TD*%
D10*
%TO.N,+40V*%
%TO.C,C14*%
X326500000Y-115400000D03*
D11*
%TO.N,GNDPWR*%
X326500000Y-125400000D03*
%TD*%
D10*
%TO.N,+40V*%
%TO.C,C12*%
X461000000Y-115400000D03*
D11*
%TO.N,GNDPWR*%
X461000000Y-125400000D03*
%TD*%
D10*
%TO.N,+40V*%
%TO.C,C19*%
X427500000Y-59600000D03*
D11*
%TO.N,GNDPWR*%
X427500000Y-69600000D03*
%TD*%
D10*
%TO.N,+40V*%
%TO.C,C15*%
X427500000Y-96300000D03*
D11*
%TO.N,GNDPWR*%
X427500000Y-106300000D03*
%TD*%
D24*
%TO.N,/-SHUNT*%
%TO.C,Q1*%
X409600000Y-5170000D03*
X408400000Y-5170000D03*
X407200000Y-5170000D03*
X406000000Y-5170000D03*
X404800000Y-5170000D03*
X403600000Y-5170000D03*
X402400000Y-5170000D03*
X409600000Y-6370000D03*
X408400000Y-6370000D03*
X407200000Y-6370000D03*
X406000000Y-6370000D03*
X404800000Y-6370000D03*
X403600000Y-6370000D03*
X402400000Y-6370000D03*
X409600000Y-7570000D03*
X408400000Y-7570000D03*
X407200000Y-7570000D03*
X406000000Y-7570000D03*
X404800000Y-7570000D03*
X403600000Y-7570000D03*
X402400000Y-7570000D03*
X409600000Y-8770000D03*
X408400000Y-8770000D03*
X407200000Y-8770000D03*
X406000000Y-8770000D03*
X404800000Y-8770000D03*
X403600000Y-8770000D03*
X402400000Y-8770000D03*
X409600000Y-9970000D03*
X408400000Y-9970000D03*
X407200000Y-9970000D03*
X406000000Y-9970000D03*
X404800000Y-9970000D03*
X403600000Y-9970000D03*
X402400000Y-9970000D03*
X409600000Y-11170000D03*
X408400000Y-11170000D03*
X407200000Y-11170000D03*
X406000000Y-11170000D03*
X404800000Y-11170000D03*
X403600000Y-11170000D03*
X402400000Y-11170000D03*
%TD*%
D10*
%TO.N,+40V*%
%TO.C,C3*%
X427500000Y-206400000D03*
D11*
%TO.N,GNDPWR*%
X427500000Y-216400000D03*
%TD*%
D16*
%TO.N,+12V*%
%TO.C,R8*%
X355550000Y15580000D03*
D25*
%TO.N,GND*%
X355550000Y30820000D03*
%TD*%
D13*
%TO.N,Net-(OC2-Pad1)*%
%TO.C,OC2*%
X430475000Y26625000D03*
D14*
%TO.N,GND*%
X427935000Y26625000D03*
%TO.N,GNDPWR*%
X427935000Y19005000D03*
%TO.N,/cap_bank/bleed_gate*%
X430475000Y19005000D03*
%TD*%
D24*
%TO.N,/-SHUNT*%
%TO.C,Q3*%
X385200000Y-5170000D03*
X384000000Y-5170000D03*
X382800000Y-5170000D03*
X381600000Y-5170000D03*
X380400000Y-5170000D03*
X379200000Y-5170000D03*
X378000000Y-5170000D03*
X385200000Y-6370000D03*
X384000000Y-6370000D03*
X382800000Y-6370000D03*
X381600000Y-6370000D03*
X380400000Y-6370000D03*
X379200000Y-6370000D03*
X378000000Y-6370000D03*
X385200000Y-7570000D03*
X384000000Y-7570000D03*
X382800000Y-7570000D03*
X381600000Y-7570000D03*
X380400000Y-7570000D03*
X379200000Y-7570000D03*
X378000000Y-7570000D03*
X385200000Y-8770000D03*
X384000000Y-8770000D03*
X382800000Y-8770000D03*
X381600000Y-8770000D03*
X380400000Y-8770000D03*
X379200000Y-8770000D03*
X378000000Y-8770000D03*
X385200000Y-9970000D03*
X384000000Y-9970000D03*
X382800000Y-9970000D03*
X381600000Y-9970000D03*
X380400000Y-9970000D03*
X379200000Y-9970000D03*
X378000000Y-9970000D03*
X385200000Y-11170000D03*
X384000000Y-11170000D03*
X382800000Y-11170000D03*
X381600000Y-11170000D03*
X380400000Y-11170000D03*
X379200000Y-11170000D03*
X378000000Y-11170000D03*
%TD*%
D26*
%TO.N,/power_stage/+TWEEZER*%
%TO.C,H1*%
X393800000Y7000000D03*
%TD*%
D10*
%TO.N,+40V*%
%TO.C,C9*%
X360000000Y-169700000D03*
D11*
%TO.N,GNDPWR*%
X360000000Y-179700000D03*
%TD*%
D10*
%TO.N,+40V*%
%TO.C,C10*%
X326500000Y-78700000D03*
D11*
%TO.N,GNDPWR*%
X326500000Y-88700000D03*
%TD*%
D10*
%TO.N,+40V*%
%TO.C,C8*%
X461000000Y-152100000D03*
D11*
%TO.N,GNDPWR*%
X461000000Y-162100000D03*
%TD*%
D10*
%TO.N,+40V*%
%TO.C,C7*%
X427500000Y-169700000D03*
D11*
%TO.N,GNDPWR*%
X427500000Y-179700000D03*
%TD*%
D26*
%TO.N,GNDPWR*%
%TO.C,H2*%
X393800000Y17600000D03*
%TD*%
D10*
%TO.N,+40V*%
%TO.C,C4*%
X461000000Y-188800000D03*
D11*
%TO.N,GNDPWR*%
X461000000Y-198800000D03*
%TD*%
D10*
%TO.N,+40V*%
%TO.C,C17*%
X360000000Y-96300000D03*
D11*
%TO.N,GNDPWR*%
X360000000Y-106300000D03*
%TD*%
D15*
%TO.N,GNDPWR*%
%TO.C,SW1*%
X328950000Y17907500D03*
D16*
%TO.N,/GAIN1*%
X328950000Y15407500D03*
%TO.N,+5V*%
X328950000Y12907500D03*
%TO.N,N/C*%
X325750000Y17907500D03*
X325750000Y15407500D03*
X325750000Y12907500D03*
%TD*%
D24*
%TO.N,/-SHUNT*%
%TO.C,Q2*%
X397600000Y-5170000D03*
X396400000Y-5170000D03*
X395200000Y-5170000D03*
X394000000Y-5170000D03*
X392800000Y-5170000D03*
X391600000Y-5170000D03*
X390400000Y-5170000D03*
X397600000Y-6370000D03*
X396400000Y-6370000D03*
X395200000Y-6370000D03*
X394000000Y-6370000D03*
X392800000Y-6370000D03*
X391600000Y-6370000D03*
X390400000Y-6370000D03*
X397600000Y-7570000D03*
X396400000Y-7570000D03*
X395200000Y-7570000D03*
X394000000Y-7570000D03*
X392800000Y-7570000D03*
X391600000Y-7570000D03*
X390400000Y-7570000D03*
X397600000Y-8770000D03*
X396400000Y-8770000D03*
X395200000Y-8770000D03*
X394000000Y-8770000D03*
X392800000Y-8770000D03*
X391600000Y-8770000D03*
X390400000Y-8770000D03*
X397600000Y-9970000D03*
X396400000Y-9970000D03*
X395200000Y-9970000D03*
X394000000Y-9970000D03*
X392800000Y-9970000D03*
X391600000Y-9970000D03*
X390400000Y-9970000D03*
X397600000Y-11170000D03*
X396400000Y-11170000D03*
X395200000Y-11170000D03*
X394000000Y-11170000D03*
X392800000Y-11170000D03*
X391600000Y-11170000D03*
X390400000Y-11170000D03*
%TD*%
D10*
%TO.N,+40V*%
%TO.C,C16*%
X461000000Y-78700000D03*
D11*
%TO.N,GNDPWR*%
X461000000Y-88700000D03*
%TD*%
D27*
%TO.N,GND*%
X447000000Y27500000D03*
%TO.N,GNDPWR*%
X420400000Y13000000D03*
X463800000Y-24200000D03*
X374000000Y18200000D03*
X369800000Y18800000D03*
%TO.N,Net-(U2-OUTB)*%
X443455000Y6600000D03*
X445200000Y7800000D03*
%TO.N,Net-(U2-OUTA)*%
X445900000Y9000000D03*
%TO.N,/+i_sens*%
X441900000Y-6000000D03*
%TO.N,/GAIN1*%
X364100000Y-31800000D03*
%TO.N,/GAIN2*%
X364300000Y-31000000D03*
%TO.N,GNDPWR*%
X444000000Y-1700000D03*
%TO.N,Net-(U2-OUTA)*%
X442400000Y1100000D03*
%TO.N,GND*%
X366400000Y33200000D03*
%TO.N,HV_EN*%
X346600000Y32400000D03*
%TO.N,GNDPWR*%
X326000000Y3500000D03*
X331900000Y3400000D03*
%TO.N,+12V*%
X332000000Y-3900000D03*
%TO.N,GNDPWR*%
X357200000Y-12800000D03*
%TO.N,THERM1*%
X448200000Y4800000D03*
%TO.N,THERM2*%
X451300000Y4800000D03*
%TO.N,+5V*%
X371800000Y-34900000D03*
%TO.N,/+RS*%
X370000000Y-31500000D03*
%TO.N,/-RS*%
X372000000Y-31000000D03*
%TO.N,/+i_sens*%
X370800000Y-30000000D03*
%TO.N,/-RS*%
X390500000Y-33900000D03*
%TO.N,/+RS*%
X390600000Y-41700000D03*
%TO.N,GND*%
X369800000Y26400000D03*
X439400000Y27500000D03*
X451300000Y24700000D03*
%TO.N,GNDPWR*%
X451300000Y20700000D03*
X447000000Y18100000D03*
X439300000Y18100000D03*
X427700000Y-700000D03*
X417200000Y-6000000D03*
X430200000Y-10700000D03*
X448600000Y2400000D03*
X451400000Y2700000D03*
X453000000Y-3600000D03*
X441900000Y-7300000D03*
X436200000Y-3000000D03*
X432700000Y800000D03*
X436100000Y4700000D03*
%TO.N,+12V*%
X432700000Y-2400000D03*
%TO.N,GNDPWR*%
X370600000Y-6700000D03*
X372700000Y-6600000D03*
%TO.N,+5V*%
X373200000Y-14300000D03*
%TO.N,GNDPWR*%
X357200000Y-22600000D03*
X358000000Y-31700000D03*
X358000000Y-29500000D03*
X370000000Y-29300000D03*
X370200000Y-26500000D03*
X359600000Y-18600000D03*
X359600000Y-17800000D03*
X359600000Y-17000000D03*
%TD*%
%TA.AperFunction,Conductor*%
%TO.N,GNDPWR*%
G36*
X465742539Y22474815D02*
G01*
X465788294Y22422011D01*
X465799500Y22370500D01*
X465799500Y-219198046D01*
X465799439Y-219201941D01*
X465780877Y-219792582D01*
X465780388Y-219800356D01*
X465724959Y-220386732D01*
X465723982Y-220394461D01*
X465631849Y-220976169D01*
X465630390Y-220983821D01*
X465501903Y-221558638D01*
X465499965Y-221566183D01*
X465335648Y-222131765D01*
X465333241Y-222139174D01*
X465133735Y-222693323D01*
X465130868Y-222700565D01*
X464896952Y-223241113D01*
X464893635Y-223248162D01*
X464626241Y-223772951D01*
X464622488Y-223779777D01*
X464322675Y-224286734D01*
X464318501Y-224293311D01*
X463987444Y-224780446D01*
X463982865Y-224786748D01*
X463621887Y-225252118D01*
X463616922Y-225258121D01*
X463227406Y-225699940D01*
X463222073Y-225705618D01*
X462805618Y-226122073D01*
X462799940Y-226127406D01*
X462358121Y-226516922D01*
X462352118Y-226521887D01*
X461886748Y-226882865D01*
X461880446Y-226887444D01*
X461393311Y-227218501D01*
X461386734Y-227222675D01*
X460879777Y-227522488D01*
X460872951Y-227526241D01*
X460348162Y-227793635D01*
X460341113Y-227796952D01*
X459800565Y-228030868D01*
X459793323Y-228033735D01*
X459411504Y-228171198D01*
X459239168Y-228233242D01*
X459231765Y-228235648D01*
X458666183Y-228399965D01*
X458658638Y-228401903D01*
X458083821Y-228530390D01*
X458076169Y-228531849D01*
X457494461Y-228623982D01*
X457486732Y-228624959D01*
X456900356Y-228680388D01*
X456892582Y-228680877D01*
X456301941Y-228699439D01*
X456298046Y-228699500D01*
X331301954Y-228699500D01*
X331298059Y-228699439D01*
X330707417Y-228680877D01*
X330699643Y-228680388D01*
X330113267Y-228624959D01*
X330105538Y-228623982D01*
X329523830Y-228531849D01*
X329516178Y-228530390D01*
X328941361Y-228401903D01*
X328933816Y-228399965D01*
X328368234Y-228235648D01*
X328360840Y-228233246D01*
X327806676Y-228033735D01*
X327799434Y-228030868D01*
X327258886Y-227796952D01*
X327251837Y-227793635D01*
X326727048Y-227526241D01*
X326720222Y-227522488D01*
X326213265Y-227222675D01*
X326206688Y-227218501D01*
X325719553Y-226887444D01*
X325713251Y-226882865D01*
X325247881Y-226521887D01*
X325241878Y-226516922D01*
X324800059Y-226127406D01*
X324794381Y-226122073D01*
X324377926Y-225705618D01*
X324372593Y-225699940D01*
X323983077Y-225258121D01*
X323978112Y-225252118D01*
X323617134Y-224786748D01*
X323612555Y-224780446D01*
X323281498Y-224293311D01*
X323277324Y-224286734D01*
X322977511Y-223779777D01*
X322973758Y-223772951D01*
X322706364Y-223248162D01*
X322703047Y-223241113D01*
X322469131Y-222700565D01*
X322466270Y-222693338D01*
X322266746Y-222139139D01*
X322264358Y-222131789D01*
X322100031Y-221566172D01*
X322098096Y-221558638D01*
X321984514Y-221050500D01*
X321969605Y-220983802D01*
X321968153Y-220976188D01*
X321876016Y-220394459D01*
X321875040Y-220386732D01*
X321865617Y-220287047D01*
X321819610Y-219800340D01*
X321819123Y-219792598D01*
X321800561Y-219201941D01*
X321800500Y-219198046D01*
X321800500Y-218652486D01*
X330749500Y-218652486D01*
X330749500Y-218947513D01*
X330774067Y-219134108D01*
X330788007Y-219239993D01*
X330788008Y-219239995D01*
X330864361Y-219524951D01*
X330864364Y-219524961D01*
X330977254Y-219797500D01*
X330977258Y-219797510D01*
X331124761Y-220052993D01*
X331304352Y-220287040D01*
X331304358Y-220287047D01*
X331512952Y-220495641D01*
X331512959Y-220495647D01*
X331747006Y-220675238D01*
X332002489Y-220822741D01*
X332002490Y-220822741D01*
X332002493Y-220822743D01*
X332275048Y-220935639D01*
X332560007Y-221011993D01*
X332852494Y-221050500D01*
X332852501Y-221050500D01*
X333147499Y-221050500D01*
X333147506Y-221050500D01*
X333439993Y-221011993D01*
X333724952Y-220935639D01*
X333997507Y-220822743D01*
X334252994Y-220675238D01*
X334487042Y-220495646D01*
X334695646Y-220287042D01*
X334875238Y-220052994D01*
X335022743Y-219797507D01*
X335135639Y-219524952D01*
X335211993Y-219239993D01*
X335250500Y-218947506D01*
X335250500Y-218652494D01*
X335250499Y-218652486D01*
X452749500Y-218652486D01*
X452749500Y-218947513D01*
X452774067Y-219134108D01*
X452788007Y-219239993D01*
X452788008Y-219239995D01*
X452864361Y-219524951D01*
X452864364Y-219524961D01*
X452977254Y-219797500D01*
X452977258Y-219797510D01*
X453124761Y-220052993D01*
X453304352Y-220287040D01*
X453304358Y-220287047D01*
X453512952Y-220495641D01*
X453512959Y-220495647D01*
X453747006Y-220675238D01*
X454002489Y-220822741D01*
X454002490Y-220822741D01*
X454002493Y-220822743D01*
X454275048Y-220935639D01*
X454560007Y-221011993D01*
X454852494Y-221050500D01*
X454852501Y-221050500D01*
X455147499Y-221050500D01*
X455147506Y-221050500D01*
X455439993Y-221011993D01*
X455724952Y-220935639D01*
X455997507Y-220822743D01*
X456252994Y-220675238D01*
X456487042Y-220495646D01*
X456695646Y-220287042D01*
X456875238Y-220052994D01*
X457022743Y-219797507D01*
X457135639Y-219524952D01*
X457211993Y-219239993D01*
X457250500Y-218947506D01*
X457250500Y-218652494D01*
X457211993Y-218360007D01*
X457135639Y-218075048D01*
X457022743Y-217802493D01*
X456875238Y-217547006D01*
X456695646Y-217312958D01*
X456695641Y-217312952D01*
X456487047Y-217104358D01*
X456487040Y-217104352D01*
X456252993Y-216924761D01*
X455997510Y-216777258D01*
X455997500Y-216777254D01*
X455724961Y-216664364D01*
X455724954Y-216664362D01*
X455724952Y-216664361D01*
X455439993Y-216588007D01*
X455391113Y-216581571D01*
X455147513Y-216549500D01*
X455147506Y-216549500D01*
X454852494Y-216549500D01*
X454852486Y-216549500D01*
X454574085Y-216586153D01*
X454560007Y-216588007D01*
X454275048Y-216664361D01*
X454275038Y-216664364D01*
X454002499Y-216777254D01*
X454002489Y-216777258D01*
X453747006Y-216924761D01*
X453512959Y-217104352D01*
X453512952Y-217104358D01*
X453304358Y-217312952D01*
X453304352Y-217312959D01*
X453124761Y-217547006D01*
X452977258Y-217802489D01*
X452977254Y-217802499D01*
X452864364Y-218075038D01*
X452864361Y-218075048D01*
X452788008Y-218360004D01*
X452788006Y-218360015D01*
X452749500Y-218652486D01*
X335250499Y-218652486D01*
X335211993Y-218360007D01*
X335135639Y-218075048D01*
X335022743Y-217802493D01*
X334875238Y-217547006D01*
X334695646Y-217312958D01*
X334695641Y-217312952D01*
X334487047Y-217104358D01*
X334487040Y-217104352D01*
X334252993Y-216924761D01*
X333997510Y-216777258D01*
X333997500Y-216777254D01*
X333724961Y-216664364D01*
X333724954Y-216664362D01*
X333724952Y-216664361D01*
X333439993Y-216588007D01*
X333391113Y-216581571D01*
X333147513Y-216549500D01*
X333147506Y-216549500D01*
X332852494Y-216549500D01*
X332852486Y-216549500D01*
X332574085Y-216586153D01*
X332560007Y-216588007D01*
X332275048Y-216664361D01*
X332275038Y-216664364D01*
X332002499Y-216777254D01*
X332002489Y-216777258D01*
X331747006Y-216924761D01*
X331512959Y-217104352D01*
X331512952Y-217104358D01*
X331304358Y-217312952D01*
X331304352Y-217312959D01*
X331124761Y-217547006D01*
X330977258Y-217802489D01*
X330977254Y-217802499D01*
X330864364Y-218075038D01*
X330864361Y-218075048D01*
X330788008Y-218360004D01*
X330788006Y-218360015D01*
X330749500Y-218652486D01*
X321800500Y-218652486D01*
X321800500Y-204777135D01*
X357924500Y-204777135D01*
X357924500Y-208022870D01*
X357924501Y-208022876D01*
X357930908Y-208082483D01*
X357981202Y-208217328D01*
X357981206Y-208217335D01*
X358067452Y-208332544D01*
X358067455Y-208332547D01*
X358182664Y-208418793D01*
X358182671Y-208418797D01*
X358317517Y-208469091D01*
X358317516Y-208469091D01*
X358324444Y-208469835D01*
X358377127Y-208475500D01*
X361622872Y-208475499D01*
X361682483Y-208469091D01*
X361817331Y-208418796D01*
X361932546Y-208332546D01*
X362018796Y-208217331D01*
X362069091Y-208082483D01*
X362075500Y-208022873D01*
X362075499Y-204777135D01*
X425424500Y-204777135D01*
X425424500Y-208022870D01*
X425424501Y-208022876D01*
X425430908Y-208082483D01*
X425481202Y-208217328D01*
X425481206Y-208217335D01*
X425567452Y-208332544D01*
X425567455Y-208332547D01*
X425682664Y-208418793D01*
X425682671Y-208418797D01*
X425817517Y-208469091D01*
X425817516Y-208469091D01*
X425824444Y-208469835D01*
X425877127Y-208475500D01*
X429122872Y-208475499D01*
X429182483Y-208469091D01*
X429317331Y-208418796D01*
X429432546Y-208332546D01*
X429518796Y-208217331D01*
X429569091Y-208082483D01*
X429575500Y-208022873D01*
X429575499Y-204777128D01*
X429569091Y-204717517D01*
X429518796Y-204582669D01*
X429518795Y-204582668D01*
X429518793Y-204582664D01*
X429432547Y-204467455D01*
X429432544Y-204467452D01*
X429317335Y-204381206D01*
X429317328Y-204381202D01*
X429182482Y-204330908D01*
X429182483Y-204330908D01*
X429122883Y-204324501D01*
X429122881Y-204324500D01*
X429122873Y-204324500D01*
X429122864Y-204324500D01*
X425877129Y-204324500D01*
X425877123Y-204324501D01*
X425817516Y-204330908D01*
X425682671Y-204381202D01*
X425682664Y-204381206D01*
X425567455Y-204467452D01*
X425567452Y-204467455D01*
X425481206Y-204582664D01*
X425481202Y-204582671D01*
X425430908Y-204717517D01*
X425424501Y-204777116D01*
X425424501Y-204777123D01*
X425424500Y-204777135D01*
X362075499Y-204777135D01*
X362075499Y-204777128D01*
X362069091Y-204717517D01*
X362018796Y-204582669D01*
X362018795Y-204582668D01*
X362018793Y-204582664D01*
X361932547Y-204467455D01*
X361932544Y-204467452D01*
X361817335Y-204381206D01*
X361817328Y-204381202D01*
X361682482Y-204330908D01*
X361682483Y-204330908D01*
X361622883Y-204324501D01*
X361622881Y-204324500D01*
X361622873Y-204324500D01*
X361622864Y-204324500D01*
X358377129Y-204324500D01*
X358377123Y-204324501D01*
X358317516Y-204330908D01*
X358182671Y-204381202D01*
X358182664Y-204381206D01*
X358067455Y-204467452D01*
X358067452Y-204467455D01*
X357981206Y-204582664D01*
X357981202Y-204582671D01*
X357930908Y-204717517D01*
X357924501Y-204777116D01*
X357924501Y-204777123D01*
X357924500Y-204777135D01*
X321800500Y-204777135D01*
X321800500Y-187177135D01*
X324424500Y-187177135D01*
X324424500Y-190422870D01*
X324424501Y-190422876D01*
X324430908Y-190482483D01*
X324481202Y-190617328D01*
X324481206Y-190617335D01*
X324567452Y-190732544D01*
X324567455Y-190732547D01*
X324682664Y-190818793D01*
X324682671Y-190818797D01*
X324817517Y-190869091D01*
X324817516Y-190869091D01*
X324824444Y-190869835D01*
X324877127Y-190875500D01*
X328122872Y-190875499D01*
X328182483Y-190869091D01*
X328317331Y-190818796D01*
X328432546Y-190732546D01*
X328518796Y-190617331D01*
X328569091Y-190482483D01*
X328575500Y-190422873D01*
X328575499Y-188574993D01*
X388194449Y-188574993D01*
X388194449Y-188575006D01*
X388214641Y-189050371D01*
X388275080Y-189522344D01*
X388375324Y-189987476D01*
X388375326Y-189987484D01*
X388514652Y-190442434D01*
X388514657Y-190442448D01*
X388692057Y-190883922D01*
X388692061Y-190883933D01*
X388891245Y-191278989D01*
X388906275Y-191308799D01*
X389155747Y-191713967D01*
X389438681Y-192096519D01*
X389438686Y-192096524D01*
X389438687Y-192096526D01*
X389753037Y-192453698D01*
X390096553Y-192782931D01*
X390096563Y-192782940D01*
X390466750Y-193081845D01*
X390466751Y-193081846D01*
X390617956Y-193184042D01*
X390860969Y-193348290D01*
X391045587Y-193451423D01*
X391276350Y-193580336D01*
X391276372Y-193580347D01*
X391709927Y-193776326D01*
X391709934Y-193776329D01*
X392158567Y-193934841D01*
X392619027Y-194054736D01*
X393087995Y-194135148D01*
X393234760Y-194147639D01*
X393562075Y-194175499D01*
X393562092Y-194175499D01*
X393562094Y-194175500D01*
X393562095Y-194175500D01*
X394037905Y-194175500D01*
X394037906Y-194175500D01*
X394037907Y-194175499D01*
X394037924Y-194175499D01*
X394320097Y-194151481D01*
X394512005Y-194135148D01*
X394980973Y-194054736D01*
X395441433Y-193934841D01*
X395890066Y-193776329D01*
X396323640Y-193580341D01*
X396739031Y-193348290D01*
X397133247Y-193081847D01*
X397503446Y-192782932D01*
X397846962Y-192453699D01*
X398161319Y-192096519D01*
X398444253Y-191713967D01*
X398693725Y-191308799D01*
X398907938Y-190883933D01*
X399015069Y-190617328D01*
X399085342Y-190442448D01*
X399085347Y-190442434D01*
X399085348Y-190442432D01*
X399224676Y-189987476D01*
X399324920Y-189522343D01*
X399385357Y-189050384D01*
X399405551Y-188575000D01*
X399385357Y-188099616D01*
X399324920Y-187627657D01*
X399227825Y-187177135D01*
X458924500Y-187177135D01*
X458924500Y-190422870D01*
X458924501Y-190422876D01*
X458930908Y-190482483D01*
X458981202Y-190617328D01*
X458981206Y-190617335D01*
X459067452Y-190732544D01*
X459067455Y-190732547D01*
X459182664Y-190818793D01*
X459182671Y-190818797D01*
X459317517Y-190869091D01*
X459317516Y-190869091D01*
X459324444Y-190869835D01*
X459377127Y-190875500D01*
X462622872Y-190875499D01*
X462682483Y-190869091D01*
X462817331Y-190818796D01*
X462932546Y-190732546D01*
X463018796Y-190617331D01*
X463069091Y-190482483D01*
X463075500Y-190422873D01*
X463075499Y-187177128D01*
X463069091Y-187117517D01*
X463018796Y-186982669D01*
X463018795Y-186982668D01*
X463018793Y-186982664D01*
X462932547Y-186867455D01*
X462932544Y-186867452D01*
X462817335Y-186781206D01*
X462817328Y-186781202D01*
X462682482Y-186730908D01*
X462682483Y-186730908D01*
X462622883Y-186724501D01*
X462622881Y-186724500D01*
X462622873Y-186724500D01*
X462622864Y-186724500D01*
X459377129Y-186724500D01*
X459377123Y-186724501D01*
X459317516Y-186730908D01*
X459182671Y-186781202D01*
X459182664Y-186781206D01*
X459067455Y-186867452D01*
X459067452Y-186867455D01*
X458981206Y-186982664D01*
X458981202Y-186982671D01*
X458930908Y-187117517D01*
X458926071Y-187162515D01*
X458924501Y-187177123D01*
X458924500Y-187177135D01*
X399227825Y-187177135D01*
X399224676Y-187162524D01*
X399085348Y-186707568D01*
X399085347Y-186707565D01*
X399085342Y-186707551D01*
X398907942Y-186266077D01*
X398907938Y-186266066D01*
X398807511Y-186066882D01*
X398693725Y-185841201D01*
X398444253Y-185436033D01*
X398161319Y-185053481D01*
X397846962Y-184696301D01*
X397503446Y-184367068D01*
X397503436Y-184367059D01*
X397133249Y-184068154D01*
X397133248Y-184068153D01*
X396739041Y-183801717D01*
X396739031Y-183801710D01*
X396728122Y-183795616D01*
X396323649Y-183569663D01*
X396323627Y-183569652D01*
X395890072Y-183373673D01*
X395441428Y-183215157D01*
X394980971Y-183095263D01*
X394512015Y-183014853D01*
X394511989Y-183014850D01*
X394037924Y-182974500D01*
X394037906Y-182974500D01*
X393562094Y-182974500D01*
X393562075Y-182974500D01*
X393088010Y-183014850D01*
X393087984Y-183014853D01*
X392619028Y-183095263D01*
X392158571Y-183215157D01*
X391709927Y-183373673D01*
X391276372Y-183569652D01*
X391276350Y-183569663D01*
X390860977Y-183801705D01*
X390860958Y-183801717D01*
X390466751Y-184068153D01*
X390466750Y-184068154D01*
X390096563Y-184367059D01*
X390096553Y-184367068D01*
X389753037Y-184696301D01*
X389438687Y-185053473D01*
X389155746Y-185436034D01*
X388906276Y-185841198D01*
X388906266Y-185841218D01*
X388692061Y-186266066D01*
X388692057Y-186266077D01*
X388514657Y-186707551D01*
X388514652Y-186707565D01*
X388375326Y-187162515D01*
X388375324Y-187162523D01*
X388275080Y-187627655D01*
X388214641Y-188099628D01*
X388194449Y-188574993D01*
X328575499Y-188574993D01*
X328575499Y-187177128D01*
X328569091Y-187117517D01*
X328518796Y-186982669D01*
X328518795Y-186982668D01*
X328518793Y-186982664D01*
X328432547Y-186867455D01*
X328432544Y-186867452D01*
X328317335Y-186781206D01*
X328317328Y-186781202D01*
X328182482Y-186730908D01*
X328182483Y-186730908D01*
X328122883Y-186724501D01*
X328122881Y-186724500D01*
X328122873Y-186724500D01*
X328122864Y-186724500D01*
X324877129Y-186724500D01*
X324877123Y-186724501D01*
X324817516Y-186730908D01*
X324682671Y-186781202D01*
X324682664Y-186781206D01*
X324567455Y-186867452D01*
X324567452Y-186867455D01*
X324481206Y-186982664D01*
X324481202Y-186982671D01*
X324430908Y-187117517D01*
X324426071Y-187162515D01*
X324424501Y-187177123D01*
X324424500Y-187177135D01*
X321800500Y-187177135D01*
X321800500Y-168077135D01*
X357924500Y-168077135D01*
X357924500Y-171322870D01*
X357924501Y-171322876D01*
X357930908Y-171382483D01*
X357981202Y-171517328D01*
X357981206Y-171517335D01*
X358067452Y-171632544D01*
X358067455Y-171632547D01*
X358182664Y-171718793D01*
X358182671Y-171718797D01*
X358317517Y-171769091D01*
X358317516Y-171769091D01*
X358324444Y-171769835D01*
X358377127Y-171775500D01*
X361622872Y-171775499D01*
X361682483Y-171769091D01*
X361817331Y-171718796D01*
X361932546Y-171632546D01*
X362018796Y-171517331D01*
X362069091Y-171382483D01*
X362075500Y-171322873D01*
X362075499Y-168077135D01*
X425424500Y-168077135D01*
X425424500Y-171322870D01*
X425424501Y-171322876D01*
X425430908Y-171382483D01*
X425481202Y-171517328D01*
X425481206Y-171517335D01*
X425567452Y-171632544D01*
X425567455Y-171632547D01*
X425682664Y-171718793D01*
X425682671Y-171718797D01*
X425817517Y-171769091D01*
X425817516Y-171769091D01*
X425824444Y-171769835D01*
X425877127Y-171775500D01*
X429122872Y-171775499D01*
X429182483Y-171769091D01*
X429317331Y-171718796D01*
X429432546Y-171632546D01*
X429518796Y-171517331D01*
X429569091Y-171382483D01*
X429575500Y-171322873D01*
X429575499Y-168077128D01*
X429569091Y-168017517D01*
X429518796Y-167882669D01*
X429518795Y-167882668D01*
X429518793Y-167882664D01*
X429432547Y-167767455D01*
X429432544Y-167767452D01*
X429317335Y-167681206D01*
X429317328Y-167681202D01*
X429182482Y-167630908D01*
X429182483Y-167630908D01*
X429122883Y-167624501D01*
X429122881Y-167624500D01*
X429122873Y-167624500D01*
X429122864Y-167624500D01*
X425877129Y-167624500D01*
X425877123Y-167624501D01*
X425817516Y-167630908D01*
X425682671Y-167681202D01*
X425682664Y-167681206D01*
X425567455Y-167767452D01*
X425567452Y-167767455D01*
X425481206Y-167882664D01*
X425481202Y-167882671D01*
X425430908Y-168017517D01*
X425424501Y-168077116D01*
X425424501Y-168077123D01*
X425424500Y-168077135D01*
X362075499Y-168077135D01*
X362075499Y-168077128D01*
X362069091Y-168017517D01*
X362018796Y-167882669D01*
X362018795Y-167882668D01*
X362018793Y-167882664D01*
X361932547Y-167767455D01*
X361932544Y-167767452D01*
X361817335Y-167681206D01*
X361817328Y-167681202D01*
X361682482Y-167630908D01*
X361682483Y-167630908D01*
X361622883Y-167624501D01*
X361622881Y-167624500D01*
X361622873Y-167624500D01*
X361622864Y-167624500D01*
X358377129Y-167624500D01*
X358377123Y-167624501D01*
X358317516Y-167630908D01*
X358182671Y-167681202D01*
X358182664Y-167681206D01*
X358067455Y-167767452D01*
X358067452Y-167767455D01*
X357981206Y-167882664D01*
X357981202Y-167882671D01*
X357930908Y-168017517D01*
X357924501Y-168077116D01*
X357924501Y-168077123D01*
X357924500Y-168077135D01*
X321800500Y-168077135D01*
X321800500Y-150477135D01*
X324424500Y-150477135D01*
X324424500Y-153722870D01*
X324424501Y-153722876D01*
X324430908Y-153782483D01*
X324481202Y-153917328D01*
X324481206Y-153917335D01*
X324567452Y-154032544D01*
X324567455Y-154032547D01*
X324682664Y-154118793D01*
X324682671Y-154118797D01*
X324817517Y-154169091D01*
X324817516Y-154169091D01*
X324824444Y-154169835D01*
X324877127Y-154175500D01*
X328122872Y-154175499D01*
X328182483Y-154169091D01*
X328317331Y-154118796D01*
X328432546Y-154032546D01*
X328518796Y-153917331D01*
X328569091Y-153782483D01*
X328575500Y-153722873D01*
X328575499Y-150477128D01*
X328569091Y-150417517D01*
X328518796Y-150282669D01*
X328518795Y-150282668D01*
X328518793Y-150282664D01*
X328432547Y-150167455D01*
X328432544Y-150167452D01*
X328317335Y-150081206D01*
X328317328Y-150081202D01*
X328182482Y-150030908D01*
X328182483Y-150030908D01*
X328122883Y-150024501D01*
X328122881Y-150024500D01*
X328122873Y-150024500D01*
X328122864Y-150024500D01*
X324877129Y-150024500D01*
X324877123Y-150024501D01*
X324817516Y-150030908D01*
X324682671Y-150081202D01*
X324682664Y-150081206D01*
X324567455Y-150167452D01*
X324567452Y-150167455D01*
X324481206Y-150282664D01*
X324481202Y-150282671D01*
X324430908Y-150417517D01*
X324424501Y-150477116D01*
X324424501Y-150477123D01*
X324424500Y-150477135D01*
X321800500Y-150477135D01*
X321800500Y-148574993D01*
X388194449Y-148574993D01*
X388194449Y-148575006D01*
X388214641Y-149050371D01*
X388275080Y-149522344D01*
X388375324Y-149987476D01*
X388375326Y-149987484D01*
X388514652Y-150442434D01*
X388514657Y-150442448D01*
X388692057Y-150883922D01*
X388692061Y-150883933D01*
X388891245Y-151278989D01*
X388906275Y-151308799D01*
X389155747Y-151713967D01*
X389438681Y-152096519D01*
X389438686Y-152096524D01*
X389438687Y-152096526D01*
X389753037Y-152453698D01*
X390096553Y-152782931D01*
X390096563Y-152782940D01*
X390466750Y-153081845D01*
X390466751Y-153081846D01*
X390617956Y-153184042D01*
X390860969Y-153348290D01*
X391045587Y-153451423D01*
X391276350Y-153580336D01*
X391276372Y-153580347D01*
X391591698Y-153722883D01*
X391709934Y-153776329D01*
X392158567Y-153934841D01*
X392619027Y-154054736D01*
X393087995Y-154135148D01*
X393234760Y-154147639D01*
X393562075Y-154175499D01*
X393562092Y-154175499D01*
X393562094Y-154175500D01*
X393562095Y-154175500D01*
X394037905Y-154175500D01*
X394037906Y-154175500D01*
X394037907Y-154175499D01*
X394037924Y-154175499D01*
X394320097Y-154151481D01*
X394512005Y-154135148D01*
X394980973Y-154054736D01*
X395441433Y-153934841D01*
X395890066Y-153776329D01*
X396323640Y-153580341D01*
X396739031Y-153348290D01*
X397133247Y-153081847D01*
X397503446Y-152782932D01*
X397846962Y-152453699D01*
X398161319Y-152096519D01*
X398444253Y-151713967D01*
X398693725Y-151308799D01*
X398907938Y-150883933D01*
X398995684Y-150665567D01*
X399071403Y-150477135D01*
X458924500Y-150477135D01*
X458924500Y-153722870D01*
X458924501Y-153722876D01*
X458930908Y-153782483D01*
X458981202Y-153917328D01*
X458981206Y-153917335D01*
X459067452Y-154032544D01*
X459067455Y-154032547D01*
X459182664Y-154118793D01*
X459182671Y-154118797D01*
X459317517Y-154169091D01*
X459317516Y-154169091D01*
X459324444Y-154169835D01*
X459377127Y-154175500D01*
X462622872Y-154175499D01*
X462682483Y-154169091D01*
X462817331Y-154118796D01*
X462932546Y-154032546D01*
X463018796Y-153917331D01*
X463069091Y-153782483D01*
X463075500Y-153722873D01*
X463075499Y-150477128D01*
X463069091Y-150417517D01*
X463018796Y-150282669D01*
X463018795Y-150282668D01*
X463018793Y-150282664D01*
X462932547Y-150167455D01*
X462932544Y-150167452D01*
X462817335Y-150081206D01*
X462817328Y-150081202D01*
X462682482Y-150030908D01*
X462682483Y-150030908D01*
X462622883Y-150024501D01*
X462622881Y-150024500D01*
X462622873Y-150024500D01*
X462622864Y-150024500D01*
X459377129Y-150024500D01*
X459377123Y-150024501D01*
X459317516Y-150030908D01*
X459182671Y-150081202D01*
X459182664Y-150081206D01*
X459067455Y-150167452D01*
X459067452Y-150167455D01*
X458981206Y-150282664D01*
X458981202Y-150282671D01*
X458930908Y-150417517D01*
X458924501Y-150477116D01*
X458924501Y-150477123D01*
X458924500Y-150477135D01*
X399071403Y-150477135D01*
X399085342Y-150442448D01*
X399085347Y-150442434D01*
X399134274Y-150282671D01*
X399224676Y-149987476D01*
X399324920Y-149522343D01*
X399385357Y-149050384D01*
X399405551Y-148575000D01*
X399385357Y-148099616D01*
X399324920Y-147627657D01*
X399224676Y-147162524D01*
X399085348Y-146707568D01*
X399085347Y-146707565D01*
X399085342Y-146707551D01*
X398907942Y-146266077D01*
X398907938Y-146266066D01*
X398807511Y-146066882D01*
X398693725Y-145841201D01*
X398444253Y-145436033D01*
X398161319Y-145053481D01*
X397846962Y-144696301D01*
X397503446Y-144367068D01*
X397503436Y-144367059D01*
X397133249Y-144068154D01*
X397133248Y-144068153D01*
X396739041Y-143801717D01*
X396739031Y-143801710D01*
X396728122Y-143795616D01*
X396323649Y-143569663D01*
X396323627Y-143569652D01*
X395890072Y-143373673D01*
X395441428Y-143215157D01*
X394980971Y-143095263D01*
X394512015Y-143014853D01*
X394511989Y-143014850D01*
X394037924Y-142974500D01*
X394037906Y-142974500D01*
X393562094Y-142974500D01*
X393562075Y-142974500D01*
X393088010Y-143014850D01*
X393087984Y-143014853D01*
X392619028Y-143095263D01*
X392158571Y-143215157D01*
X391709927Y-143373673D01*
X391276372Y-143569652D01*
X391276350Y-143569663D01*
X390860977Y-143801705D01*
X390860958Y-143801717D01*
X390466751Y-144068153D01*
X390466750Y-144068154D01*
X390096563Y-144367059D01*
X390096553Y-144367068D01*
X389753037Y-144696301D01*
X389438687Y-145053473D01*
X389155746Y-145436034D01*
X388906276Y-145841198D01*
X388906266Y-145841218D01*
X388692061Y-146266066D01*
X388692057Y-146266077D01*
X388514657Y-146707551D01*
X388514652Y-146707565D01*
X388375326Y-147162515D01*
X388375324Y-147162523D01*
X388275080Y-147627655D01*
X388214641Y-148099628D01*
X388194449Y-148574993D01*
X321800500Y-148574993D01*
X321800500Y-131377135D01*
X357924500Y-131377135D01*
X357924500Y-134622870D01*
X357924501Y-134622876D01*
X357930908Y-134682483D01*
X357981202Y-134817328D01*
X357981206Y-134817335D01*
X358067452Y-134932544D01*
X358067455Y-134932547D01*
X358182664Y-135018793D01*
X358182671Y-135018797D01*
X358317517Y-135069091D01*
X358317516Y-135069091D01*
X358324444Y-135069835D01*
X358377127Y-135075500D01*
X361622872Y-135075499D01*
X361682483Y-135069091D01*
X361817331Y-135018796D01*
X361932546Y-134932546D01*
X362018796Y-134817331D01*
X362069091Y-134682483D01*
X362075500Y-134622873D01*
X362075499Y-131377135D01*
X425424500Y-131377135D01*
X425424500Y-134622870D01*
X425424501Y-134622876D01*
X425430908Y-134682483D01*
X425481202Y-134817328D01*
X425481206Y-134817335D01*
X425567452Y-134932544D01*
X425567455Y-134932547D01*
X425682664Y-135018793D01*
X425682671Y-135018797D01*
X425817517Y-135069091D01*
X425817516Y-135069091D01*
X425824444Y-135069835D01*
X425877127Y-135075500D01*
X429122872Y-135075499D01*
X429182483Y-135069091D01*
X429317331Y-135018796D01*
X429432546Y-134932546D01*
X429518796Y-134817331D01*
X429569091Y-134682483D01*
X429575500Y-134622873D01*
X429575499Y-131377128D01*
X429569091Y-131317517D01*
X429518796Y-131182669D01*
X429518795Y-131182668D01*
X429518793Y-131182664D01*
X429432547Y-131067455D01*
X429432544Y-131067452D01*
X429317335Y-130981206D01*
X429317328Y-130981202D01*
X429182482Y-130930908D01*
X429182483Y-130930908D01*
X429122883Y-130924501D01*
X429122881Y-130924500D01*
X429122873Y-130924500D01*
X429122864Y-130924500D01*
X425877129Y-130924500D01*
X425877123Y-130924501D01*
X425817516Y-130930908D01*
X425682671Y-130981202D01*
X425682664Y-130981206D01*
X425567455Y-131067452D01*
X425567452Y-131067455D01*
X425481206Y-131182664D01*
X425481202Y-131182671D01*
X425430908Y-131317517D01*
X425424501Y-131377116D01*
X425424501Y-131377123D01*
X425424500Y-131377135D01*
X362075499Y-131377135D01*
X362075499Y-131377128D01*
X362069091Y-131317517D01*
X362018796Y-131182669D01*
X362018795Y-131182668D01*
X362018793Y-131182664D01*
X361932547Y-131067455D01*
X361932544Y-131067452D01*
X361817335Y-130981206D01*
X361817328Y-130981202D01*
X361682482Y-130930908D01*
X361682483Y-130930908D01*
X361622883Y-130924501D01*
X361622881Y-130924500D01*
X361622873Y-130924500D01*
X361622864Y-130924500D01*
X358377129Y-130924500D01*
X358377123Y-130924501D01*
X358317516Y-130930908D01*
X358182671Y-130981202D01*
X358182664Y-130981206D01*
X358067455Y-131067452D01*
X358067452Y-131067455D01*
X357981206Y-131182664D01*
X357981202Y-131182671D01*
X357930908Y-131317517D01*
X357924501Y-131377116D01*
X357924501Y-131377123D01*
X357924500Y-131377135D01*
X321800500Y-131377135D01*
X321800500Y-113777135D01*
X324424500Y-113777135D01*
X324424500Y-117022870D01*
X324424501Y-117022876D01*
X324430908Y-117082483D01*
X324481202Y-117217328D01*
X324481206Y-117217335D01*
X324567452Y-117332544D01*
X324567455Y-117332547D01*
X324682664Y-117418793D01*
X324682671Y-117418797D01*
X324817517Y-117469091D01*
X324817516Y-117469091D01*
X324824444Y-117469835D01*
X324877127Y-117475500D01*
X328122872Y-117475499D01*
X328182483Y-117469091D01*
X328317331Y-117418796D01*
X328432546Y-117332546D01*
X328518796Y-117217331D01*
X328569091Y-117082483D01*
X328575500Y-117022873D01*
X328575499Y-113777128D01*
X328569091Y-113717517D01*
X328518796Y-113582669D01*
X328518795Y-113582668D01*
X328518793Y-113582664D01*
X328432547Y-113467455D01*
X328432544Y-113467452D01*
X328317335Y-113381206D01*
X328317328Y-113381202D01*
X328182482Y-113330908D01*
X328182483Y-113330908D01*
X328122883Y-113324501D01*
X328122881Y-113324500D01*
X328122873Y-113324500D01*
X328122864Y-113324500D01*
X324877129Y-113324500D01*
X324877123Y-113324501D01*
X324817516Y-113330908D01*
X324682671Y-113381202D01*
X324682664Y-113381206D01*
X324567455Y-113467452D01*
X324567452Y-113467455D01*
X324481206Y-113582664D01*
X324481202Y-113582671D01*
X324430908Y-113717517D01*
X324424586Y-113776326D01*
X324424501Y-113777123D01*
X324424500Y-113777135D01*
X321800500Y-113777135D01*
X321800500Y-108574993D01*
X388194449Y-108574993D01*
X388194449Y-108575006D01*
X388214641Y-109050371D01*
X388275080Y-109522344D01*
X388375324Y-109987476D01*
X388375326Y-109987484D01*
X388514652Y-110442434D01*
X388514657Y-110442448D01*
X388692057Y-110883922D01*
X388692061Y-110883933D01*
X388891245Y-111278989D01*
X388906275Y-111308799D01*
X389155747Y-111713967D01*
X389438681Y-112096519D01*
X389438686Y-112096524D01*
X389438687Y-112096526D01*
X389753037Y-112453698D01*
X390096553Y-112782931D01*
X390096563Y-112782940D01*
X390466750Y-113081845D01*
X390466751Y-113081846D01*
X390617956Y-113184042D01*
X390860969Y-113348290D01*
X391045587Y-113451423D01*
X391276350Y-113580336D01*
X391276372Y-113580347D01*
X391579827Y-113717517D01*
X391709934Y-113776329D01*
X392158567Y-113934841D01*
X392619027Y-114054736D01*
X393087995Y-114135148D01*
X393234760Y-114147639D01*
X393562075Y-114175499D01*
X393562092Y-114175499D01*
X393562094Y-114175500D01*
X393562095Y-114175500D01*
X394037905Y-114175500D01*
X394037906Y-114175500D01*
X394037907Y-114175499D01*
X394037924Y-114175499D01*
X394320097Y-114151481D01*
X394512005Y-114135148D01*
X394980973Y-114054736D01*
X395441433Y-113934841D01*
X395887785Y-113777135D01*
X458924500Y-113777135D01*
X458924500Y-117022870D01*
X458924501Y-117022876D01*
X458930908Y-117082483D01*
X458981202Y-117217328D01*
X458981206Y-117217335D01*
X459067452Y-117332544D01*
X459067455Y-117332547D01*
X459182664Y-117418793D01*
X459182671Y-117418797D01*
X459317517Y-117469091D01*
X459317516Y-117469091D01*
X459324444Y-117469835D01*
X459377127Y-117475500D01*
X462622872Y-117475499D01*
X462682483Y-117469091D01*
X462817331Y-117418796D01*
X462932546Y-117332546D01*
X463018796Y-117217331D01*
X463069091Y-117082483D01*
X463075500Y-117022873D01*
X463075499Y-113777128D01*
X463069091Y-113717517D01*
X463018796Y-113582669D01*
X463018795Y-113582668D01*
X463018793Y-113582664D01*
X462932547Y-113467455D01*
X462932544Y-113467452D01*
X462817335Y-113381206D01*
X462817328Y-113381202D01*
X462682482Y-113330908D01*
X462682483Y-113330908D01*
X462622883Y-113324501D01*
X462622881Y-113324500D01*
X462622873Y-113324500D01*
X462622864Y-113324500D01*
X459377129Y-113324500D01*
X459377123Y-113324501D01*
X459317516Y-113330908D01*
X459182671Y-113381202D01*
X459182664Y-113381206D01*
X459067455Y-113467452D01*
X459067452Y-113467455D01*
X458981206Y-113582664D01*
X458981202Y-113582671D01*
X458930908Y-113717517D01*
X458924586Y-113776326D01*
X458924501Y-113777123D01*
X458924500Y-113777135D01*
X395887785Y-113777135D01*
X395890066Y-113776329D01*
X396193361Y-113639230D01*
X396323627Y-113580347D01*
X396323629Y-113580345D01*
X396323640Y-113580341D01*
X396739031Y-113348290D01*
X397133247Y-113081847D01*
X397503446Y-112782932D01*
X397846962Y-112453699D01*
X398161319Y-112096519D01*
X398444253Y-111713967D01*
X398693725Y-111308799D01*
X398907938Y-110883933D01*
X399085348Y-110442432D01*
X399224676Y-109987476D01*
X399324920Y-109522343D01*
X399385357Y-109050384D01*
X399405551Y-108575000D01*
X399385357Y-108099616D01*
X399324920Y-107627657D01*
X399224676Y-107162524D01*
X399085348Y-106707568D01*
X399085347Y-106707565D01*
X399085342Y-106707551D01*
X398907942Y-106266077D01*
X398907938Y-106266066D01*
X398807511Y-106066882D01*
X398693725Y-105841201D01*
X398444253Y-105436033D01*
X398161319Y-105053481D01*
X397846962Y-104696301D01*
X397503446Y-104367068D01*
X397503436Y-104367059D01*
X397133249Y-104068154D01*
X397133248Y-104068153D01*
X396739041Y-103801717D01*
X396739031Y-103801710D01*
X396728122Y-103795616D01*
X396323649Y-103569663D01*
X396323627Y-103569652D01*
X395890072Y-103373673D01*
X395441428Y-103215157D01*
X394980971Y-103095263D01*
X394512015Y-103014853D01*
X394511989Y-103014850D01*
X394037924Y-102974500D01*
X394037906Y-102974500D01*
X393562094Y-102974500D01*
X393562075Y-102974500D01*
X393088010Y-103014850D01*
X393087984Y-103014853D01*
X392619028Y-103095263D01*
X392158571Y-103215157D01*
X391709927Y-103373673D01*
X391276372Y-103569652D01*
X391276350Y-103569663D01*
X390860977Y-103801705D01*
X390860958Y-103801717D01*
X390466751Y-104068153D01*
X390466750Y-104068154D01*
X390096563Y-104367059D01*
X390096553Y-104367068D01*
X389753037Y-104696301D01*
X389438687Y-105053473D01*
X389155746Y-105436034D01*
X388906276Y-105841198D01*
X388906266Y-105841218D01*
X388692061Y-106266066D01*
X388692057Y-106266077D01*
X388514657Y-106707551D01*
X388514652Y-106707565D01*
X388375326Y-107162515D01*
X388375324Y-107162523D01*
X388275080Y-107627655D01*
X388214641Y-108099628D01*
X388194449Y-108574993D01*
X321800500Y-108574993D01*
X321800500Y-94677135D01*
X357924500Y-94677135D01*
X357924500Y-97922870D01*
X357924501Y-97922876D01*
X357930908Y-97982483D01*
X357981202Y-98117328D01*
X357981206Y-98117335D01*
X358067452Y-98232544D01*
X358067455Y-98232547D01*
X358182664Y-98318793D01*
X358182671Y-98318797D01*
X358317517Y-98369091D01*
X358317516Y-98369091D01*
X358324444Y-98369835D01*
X358377127Y-98375500D01*
X361622872Y-98375499D01*
X361682483Y-98369091D01*
X361817331Y-98318796D01*
X361932546Y-98232546D01*
X362018796Y-98117331D01*
X362069091Y-97982483D01*
X362075500Y-97922873D01*
X362075499Y-94677135D01*
X425424500Y-94677135D01*
X425424500Y-97922870D01*
X425424501Y-97922876D01*
X425430908Y-97982483D01*
X425481202Y-98117328D01*
X425481206Y-98117335D01*
X425567452Y-98232544D01*
X425567455Y-98232547D01*
X425682664Y-98318793D01*
X425682671Y-98318797D01*
X425817517Y-98369091D01*
X425817516Y-98369091D01*
X425824444Y-98369835D01*
X425877127Y-98375500D01*
X429122872Y-98375499D01*
X429182483Y-98369091D01*
X429317331Y-98318796D01*
X429432546Y-98232546D01*
X429518796Y-98117331D01*
X429569091Y-97982483D01*
X429575500Y-97922873D01*
X429575499Y-94677128D01*
X429569091Y-94617517D01*
X429518796Y-94482669D01*
X429518795Y-94482668D01*
X429518793Y-94482664D01*
X429432547Y-94367455D01*
X429432544Y-94367452D01*
X429317335Y-94281206D01*
X429317328Y-94281202D01*
X429182482Y-94230908D01*
X429182483Y-94230908D01*
X429122883Y-94224501D01*
X429122881Y-94224500D01*
X429122873Y-94224500D01*
X429122864Y-94224500D01*
X425877129Y-94224500D01*
X425877123Y-94224501D01*
X425817516Y-94230908D01*
X425682671Y-94281202D01*
X425682664Y-94281206D01*
X425567455Y-94367452D01*
X425567452Y-94367455D01*
X425481206Y-94482664D01*
X425481202Y-94482671D01*
X425430908Y-94617517D01*
X425424501Y-94677116D01*
X425424501Y-94677123D01*
X425424500Y-94677135D01*
X362075499Y-94677135D01*
X362075499Y-94677128D01*
X362069091Y-94617517D01*
X362018796Y-94482669D01*
X362018795Y-94482668D01*
X362018793Y-94482664D01*
X361932547Y-94367455D01*
X361932544Y-94367452D01*
X361817335Y-94281206D01*
X361817328Y-94281202D01*
X361682482Y-94230908D01*
X361682483Y-94230908D01*
X361622883Y-94224501D01*
X361622881Y-94224500D01*
X361622873Y-94224500D01*
X361622864Y-94224500D01*
X358377129Y-94224500D01*
X358377123Y-94224501D01*
X358317516Y-94230908D01*
X358182671Y-94281202D01*
X358182664Y-94281206D01*
X358067455Y-94367452D01*
X358067452Y-94367455D01*
X357981206Y-94482664D01*
X357981202Y-94482671D01*
X357930908Y-94617517D01*
X357924501Y-94677116D01*
X357924501Y-94677123D01*
X357924500Y-94677135D01*
X321800500Y-94677135D01*
X321800500Y-77077135D01*
X324424500Y-77077135D01*
X324424500Y-80322870D01*
X324424501Y-80322876D01*
X324430908Y-80382483D01*
X324481202Y-80517328D01*
X324481206Y-80517335D01*
X324567452Y-80632544D01*
X324567455Y-80632547D01*
X324682664Y-80718793D01*
X324682671Y-80718797D01*
X324817517Y-80769091D01*
X324817516Y-80769091D01*
X324824444Y-80769835D01*
X324877127Y-80775500D01*
X328122872Y-80775499D01*
X328182483Y-80769091D01*
X328317331Y-80718796D01*
X328432546Y-80632546D01*
X328518796Y-80517331D01*
X328569091Y-80382483D01*
X328575500Y-80322873D01*
X328575499Y-77077128D01*
X328569091Y-77017517D01*
X328518796Y-76882669D01*
X328518795Y-76882668D01*
X328518793Y-76882664D01*
X328456905Y-76799993D01*
X388194449Y-76799993D01*
X388194449Y-76800006D01*
X388214641Y-77275371D01*
X388275080Y-77747344D01*
X388375324Y-78212476D01*
X388375326Y-78212484D01*
X388514652Y-78667434D01*
X388514657Y-78667448D01*
X388692057Y-79108922D01*
X388692061Y-79108933D01*
X388891245Y-79503989D01*
X388906275Y-79533799D01*
X389155747Y-79938967D01*
X389438681Y-80321519D01*
X389438686Y-80321524D01*
X389438687Y-80321526D01*
X389712418Y-80632546D01*
X389753038Y-80678699D01*
X389854039Y-80775500D01*
X390096553Y-81007931D01*
X390096563Y-81007940D01*
X390466750Y-81306845D01*
X390466751Y-81306846D01*
X390617956Y-81409042D01*
X390860969Y-81573290D01*
X391045587Y-81676423D01*
X391276350Y-81805336D01*
X391276372Y-81805347D01*
X391709927Y-82001326D01*
X391709934Y-82001329D01*
X392158567Y-82159841D01*
X392619027Y-82279736D01*
X393087995Y-82360148D01*
X393234760Y-82372639D01*
X393562075Y-82400499D01*
X393562092Y-82400499D01*
X393562094Y-82400500D01*
X393562095Y-82400500D01*
X394037905Y-82400500D01*
X394037906Y-82400500D01*
X394037907Y-82400499D01*
X394037924Y-82400499D01*
X394320097Y-82376481D01*
X394512005Y-82360148D01*
X394980973Y-82279736D01*
X395441433Y-82159841D01*
X395890066Y-82001329D01*
X396323640Y-81805341D01*
X396739031Y-81573290D01*
X397133247Y-81306847D01*
X397503446Y-81007932D01*
X397846962Y-80678699D01*
X398161319Y-80321519D01*
X398444253Y-79938967D01*
X398693725Y-79533799D01*
X398907938Y-79108933D01*
X399085348Y-78667432D01*
X399224676Y-78212476D01*
X399324920Y-77747343D01*
X399385357Y-77275384D01*
X399393779Y-77077135D01*
X458924500Y-77077135D01*
X458924500Y-80322870D01*
X458924501Y-80322876D01*
X458930908Y-80382483D01*
X458981202Y-80517328D01*
X458981206Y-80517335D01*
X459067452Y-80632544D01*
X459067455Y-80632547D01*
X459182664Y-80718793D01*
X459182671Y-80718797D01*
X459317517Y-80769091D01*
X459317516Y-80769091D01*
X459324444Y-80769835D01*
X459377127Y-80775500D01*
X462622872Y-80775499D01*
X462682483Y-80769091D01*
X462817331Y-80718796D01*
X462932546Y-80632546D01*
X463018796Y-80517331D01*
X463069091Y-80382483D01*
X463075500Y-80322873D01*
X463075499Y-77077128D01*
X463069091Y-77017517D01*
X463018796Y-76882669D01*
X463018795Y-76882668D01*
X463018793Y-76882664D01*
X462932547Y-76767455D01*
X462932544Y-76767452D01*
X462817335Y-76681206D01*
X462817328Y-76681202D01*
X462682482Y-76630908D01*
X462682483Y-76630908D01*
X462622883Y-76624501D01*
X462622881Y-76624500D01*
X462622873Y-76624500D01*
X462622864Y-76624500D01*
X459377129Y-76624500D01*
X459377123Y-76624501D01*
X459317516Y-76630908D01*
X459182671Y-76681202D01*
X459182664Y-76681206D01*
X459067455Y-76767452D01*
X459067452Y-76767455D01*
X458981206Y-76882664D01*
X458981202Y-76882671D01*
X458930908Y-77017517D01*
X458924501Y-77077116D01*
X458924501Y-77077123D01*
X458924500Y-77077135D01*
X399393779Y-77077135D01*
X399405551Y-76800006D01*
X399405551Y-76799993D01*
X399385358Y-76324628D01*
X399385357Y-76324622D01*
X399385357Y-76324616D01*
X399324920Y-75852657D01*
X399224676Y-75387524D01*
X399085348Y-74932568D01*
X399085347Y-74932565D01*
X399085342Y-74932551D01*
X398907942Y-74491077D01*
X398907938Y-74491066D01*
X398807511Y-74291882D01*
X398693725Y-74066201D01*
X398444253Y-73661033D01*
X398161319Y-73278481D01*
X397846962Y-72921301D01*
X397503446Y-72592068D01*
X397503436Y-72592059D01*
X397133249Y-72293154D01*
X397133248Y-72293153D01*
X396739041Y-72026717D01*
X396739031Y-72026710D01*
X396728122Y-72020616D01*
X396323649Y-71794663D01*
X396323627Y-71794652D01*
X395890072Y-71598673D01*
X395441428Y-71440157D01*
X394980971Y-71320263D01*
X394512015Y-71239853D01*
X394511989Y-71239850D01*
X394037924Y-71199500D01*
X394037906Y-71199500D01*
X393562094Y-71199500D01*
X393562075Y-71199500D01*
X393088010Y-71239850D01*
X393087984Y-71239853D01*
X392619028Y-71320263D01*
X392158571Y-71440157D01*
X391709927Y-71598673D01*
X391276372Y-71794652D01*
X391276350Y-71794663D01*
X390860977Y-72026705D01*
X390860958Y-72026717D01*
X390466751Y-72293153D01*
X390466750Y-72293154D01*
X390096563Y-72592059D01*
X390096553Y-72592068D01*
X389753037Y-72921301D01*
X389438687Y-73278473D01*
X389155746Y-73661034D01*
X388906276Y-74066198D01*
X388906266Y-74066218D01*
X388692061Y-74491066D01*
X388692057Y-74491077D01*
X388514657Y-74932551D01*
X388514652Y-74932565D01*
X388375326Y-75387515D01*
X388375324Y-75387523D01*
X388275080Y-75852655D01*
X388214641Y-76324628D01*
X388194449Y-76799993D01*
X328456905Y-76799993D01*
X328432547Y-76767455D01*
X328432544Y-76767452D01*
X328317335Y-76681206D01*
X328317328Y-76681202D01*
X328182482Y-76630908D01*
X328182483Y-76630908D01*
X328122883Y-76624501D01*
X328122881Y-76624500D01*
X328122873Y-76624500D01*
X328122864Y-76624500D01*
X324877129Y-76624500D01*
X324877123Y-76624501D01*
X324817516Y-76630908D01*
X324682671Y-76681202D01*
X324682664Y-76681206D01*
X324567455Y-76767452D01*
X324567452Y-76767455D01*
X324481206Y-76882664D01*
X324481202Y-76882671D01*
X324430908Y-77017517D01*
X324424501Y-77077116D01*
X324424501Y-77077123D01*
X324424500Y-77077135D01*
X321800500Y-77077135D01*
X321800500Y-57977135D01*
X357924500Y-57977135D01*
X357924500Y-61222870D01*
X357924501Y-61222876D01*
X357930908Y-61282483D01*
X357981202Y-61417328D01*
X357981206Y-61417335D01*
X358067452Y-61532544D01*
X358067455Y-61532547D01*
X358182664Y-61618793D01*
X358182671Y-61618797D01*
X358317517Y-61669091D01*
X358317516Y-61669091D01*
X358324444Y-61669835D01*
X358377127Y-61675500D01*
X361622872Y-61675499D01*
X361682483Y-61669091D01*
X361817331Y-61618796D01*
X361932546Y-61532546D01*
X362018796Y-61417331D01*
X362069091Y-61282483D01*
X362075500Y-61222873D01*
X362075499Y-57977135D01*
X425424500Y-57977135D01*
X425424500Y-61222870D01*
X425424501Y-61222876D01*
X425430908Y-61282483D01*
X425481202Y-61417328D01*
X425481206Y-61417335D01*
X425567452Y-61532544D01*
X425567455Y-61532547D01*
X425682664Y-61618793D01*
X425682671Y-61618797D01*
X425817517Y-61669091D01*
X425817516Y-61669091D01*
X425824444Y-61669835D01*
X425877127Y-61675500D01*
X429122872Y-61675499D01*
X429182483Y-61669091D01*
X429317331Y-61618796D01*
X429432546Y-61532546D01*
X429518796Y-61417331D01*
X429569091Y-61282483D01*
X429575500Y-61222873D01*
X429575499Y-57977128D01*
X429569091Y-57917517D01*
X429518796Y-57782669D01*
X429518795Y-57782668D01*
X429518793Y-57782664D01*
X429432547Y-57667455D01*
X429432544Y-57667452D01*
X429317335Y-57581206D01*
X429317328Y-57581202D01*
X429182482Y-57530908D01*
X429182483Y-57530908D01*
X429122883Y-57524501D01*
X429122881Y-57524500D01*
X429122873Y-57524500D01*
X429122864Y-57524500D01*
X425877129Y-57524500D01*
X425877123Y-57524501D01*
X425817516Y-57530908D01*
X425682671Y-57581202D01*
X425682664Y-57581206D01*
X425567455Y-57667452D01*
X425567452Y-57667455D01*
X425481206Y-57782664D01*
X425481202Y-57782671D01*
X425430908Y-57917517D01*
X425424501Y-57977116D01*
X425424501Y-57977123D01*
X425424500Y-57977135D01*
X362075499Y-57977135D01*
X362075499Y-57977128D01*
X362069091Y-57917517D01*
X362018796Y-57782669D01*
X362018795Y-57782668D01*
X362018793Y-57782664D01*
X361932547Y-57667455D01*
X361932544Y-57667452D01*
X361817335Y-57581206D01*
X361817328Y-57581202D01*
X361682482Y-57530908D01*
X361682483Y-57530908D01*
X361622883Y-57524501D01*
X361622881Y-57524500D01*
X361622873Y-57524500D01*
X361622864Y-57524500D01*
X358377129Y-57524500D01*
X358377123Y-57524501D01*
X358317516Y-57530908D01*
X358182671Y-57581202D01*
X358182664Y-57581206D01*
X358067455Y-57667452D01*
X358067452Y-57667455D01*
X357981206Y-57782664D01*
X357981202Y-57782671D01*
X357930908Y-57917517D01*
X357924501Y-57977116D01*
X357924501Y-57977123D01*
X357924500Y-57977135D01*
X321800500Y-57977135D01*
X321800500Y-53752135D01*
X392399500Y-53752135D01*
X392399500Y-55647870D01*
X392399501Y-55647876D01*
X392405908Y-55707483D01*
X392456202Y-55842328D01*
X392456206Y-55842335D01*
X392542452Y-55957544D01*
X392542455Y-55957547D01*
X392657664Y-56043793D01*
X392657671Y-56043797D01*
X392792517Y-56094091D01*
X392792516Y-56094091D01*
X392799444Y-56094835D01*
X392852127Y-56100500D01*
X394747872Y-56100499D01*
X394807483Y-56094091D01*
X394942331Y-56043796D01*
X395057546Y-55957546D01*
X395143796Y-55842331D01*
X395194091Y-55707483D01*
X395200500Y-55647873D01*
X395200499Y-53752128D01*
X395194091Y-53692517D01*
X395143796Y-53557669D01*
X395143795Y-53557668D01*
X395143793Y-53557664D01*
X395057547Y-53442455D01*
X395057544Y-53442452D01*
X394942335Y-53356206D01*
X394942328Y-53356202D01*
X394807482Y-53305908D01*
X394807483Y-53305908D01*
X394747883Y-53299501D01*
X394747881Y-53299500D01*
X394747873Y-53299500D01*
X394747864Y-53299500D01*
X392852129Y-53299500D01*
X392852123Y-53299501D01*
X392792516Y-53305908D01*
X392657671Y-53356202D01*
X392657664Y-53356206D01*
X392542455Y-53442452D01*
X392542452Y-53442455D01*
X392456206Y-53557664D01*
X392456202Y-53557671D01*
X392405908Y-53692517D01*
X392399501Y-53752116D01*
X392399501Y-53752123D01*
X392399500Y-53752135D01*
X321800500Y-53752135D01*
X321800500Y-46899993D01*
X392394700Y-46899993D01*
X392394700Y-46900006D01*
X392413864Y-47131297D01*
X392413866Y-47131308D01*
X392470842Y-47356300D01*
X392564075Y-47568848D01*
X392691016Y-47763147D01*
X392691019Y-47763151D01*
X392691021Y-47763153D01*
X392848216Y-47933913D01*
X392848219Y-47933915D01*
X392848222Y-47933918D01*
X393031365Y-48076464D01*
X393031371Y-48076468D01*
X393031374Y-48076470D01*
X393235497Y-48186936D01*
X393349487Y-48226068D01*
X393455015Y-48262297D01*
X393455017Y-48262297D01*
X393455019Y-48262298D01*
X393683951Y-48300500D01*
X393683952Y-48300500D01*
X393916048Y-48300500D01*
X393916049Y-48300500D01*
X394144981Y-48262298D01*
X394364503Y-48186936D01*
X394568626Y-48076470D01*
X394751784Y-47933913D01*
X394908979Y-47763153D01*
X395035924Y-47568849D01*
X395129157Y-47356300D01*
X395186134Y-47131305D01*
X395205300Y-46900000D01*
X395205300Y-46899993D01*
X395186135Y-46668702D01*
X395186133Y-46668691D01*
X395129157Y-46443699D01*
X395035924Y-46231151D01*
X394908983Y-46036852D01*
X394908980Y-46036849D01*
X394908979Y-46036847D01*
X394751784Y-45866087D01*
X394751779Y-45866083D01*
X394751777Y-45866081D01*
X394568634Y-45723535D01*
X394568628Y-45723531D01*
X394364504Y-45613064D01*
X394364495Y-45613061D01*
X394144984Y-45537702D01*
X393973282Y-45509050D01*
X393916049Y-45499500D01*
X393683951Y-45499500D01*
X393638164Y-45507140D01*
X393455015Y-45537702D01*
X393235504Y-45613061D01*
X393235495Y-45613064D01*
X393031371Y-45723531D01*
X393031365Y-45723535D01*
X392848222Y-45866081D01*
X392848219Y-45866084D01*
X392691016Y-46036852D01*
X392564075Y-46231151D01*
X392470842Y-46443699D01*
X392413866Y-46668691D01*
X392413864Y-46668702D01*
X392394700Y-46899993D01*
X321800500Y-46899993D01*
X321800500Y-40377135D01*
X324424500Y-40377135D01*
X324424500Y-43622870D01*
X324424501Y-43622876D01*
X324430908Y-43682483D01*
X324481202Y-43817328D01*
X324481206Y-43817335D01*
X324567452Y-43932544D01*
X324567455Y-43932547D01*
X324682664Y-44018793D01*
X324682671Y-44018797D01*
X324817517Y-44069091D01*
X324817516Y-44069091D01*
X324824444Y-44069835D01*
X324877127Y-44075500D01*
X328122872Y-44075499D01*
X328182483Y-44069091D01*
X328317331Y-44018796D01*
X328432546Y-43932546D01*
X328518796Y-43817331D01*
X328569091Y-43682483D01*
X328575500Y-43622873D01*
X328575499Y-41699997D01*
X389844751Y-41699997D01*
X389844751Y-41700002D01*
X389863685Y-41868056D01*
X389919545Y-42027694D01*
X389919547Y-42027697D01*
X390009518Y-42170884D01*
X390009523Y-42170890D01*
X390129109Y-42290476D01*
X390129115Y-42290481D01*
X390272302Y-42380452D01*
X390272305Y-42380454D01*
X390272309Y-42380455D01*
X390272310Y-42380456D01*
X390344913Y-42405860D01*
X390431943Y-42436314D01*
X390599997Y-42455249D01*
X390600000Y-42455249D01*
X390600003Y-42455249D01*
X390768056Y-42436314D01*
X390768059Y-42436313D01*
X390927690Y-42380456D01*
X390927692Y-42380454D01*
X390927694Y-42380454D01*
X390927697Y-42380452D01*
X391070884Y-42290481D01*
X391070885Y-42290480D01*
X391070890Y-42290477D01*
X391190477Y-42170890D01*
X391280452Y-42027697D01*
X391280454Y-42027694D01*
X391280454Y-42027692D01*
X391280456Y-42027690D01*
X391336313Y-41868059D01*
X391336313Y-41868058D01*
X391336314Y-41868056D01*
X391355249Y-41700002D01*
X391355249Y-41699997D01*
X391336314Y-41531943D01*
X391280454Y-41372305D01*
X391280452Y-41372302D01*
X391190481Y-41229115D01*
X391190476Y-41229109D01*
X391070890Y-41109523D01*
X391070884Y-41109518D01*
X390927697Y-41019547D01*
X390927694Y-41019545D01*
X390768056Y-40963685D01*
X390600003Y-40944751D01*
X390599997Y-40944751D01*
X390431943Y-40963685D01*
X390272305Y-41019545D01*
X390272302Y-41019547D01*
X390129115Y-41109518D01*
X390129109Y-41109523D01*
X390009523Y-41229109D01*
X390009518Y-41229115D01*
X389919547Y-41372302D01*
X389919545Y-41372305D01*
X389863685Y-41531943D01*
X389844751Y-41699997D01*
X328575499Y-41699997D01*
X328575499Y-40377135D01*
X458924500Y-40377135D01*
X458924500Y-43622870D01*
X458924501Y-43622876D01*
X458930908Y-43682483D01*
X458981202Y-43817328D01*
X458981206Y-43817335D01*
X459067452Y-43932544D01*
X459067455Y-43932547D01*
X459182664Y-44018793D01*
X459182671Y-44018797D01*
X459317517Y-44069091D01*
X459317516Y-44069091D01*
X459324444Y-44069835D01*
X459377127Y-44075500D01*
X462622872Y-44075499D01*
X462682483Y-44069091D01*
X462817331Y-44018796D01*
X462932546Y-43932546D01*
X463018796Y-43817331D01*
X463069091Y-43682483D01*
X463075500Y-43622873D01*
X463075499Y-40377128D01*
X463069091Y-40317517D01*
X463018796Y-40182669D01*
X463018795Y-40182668D01*
X463018793Y-40182664D01*
X462932547Y-40067455D01*
X462932544Y-40067452D01*
X462817335Y-39981206D01*
X462817328Y-39981202D01*
X462682482Y-39930908D01*
X462682483Y-39930908D01*
X462622883Y-39924501D01*
X462622881Y-39924500D01*
X462622873Y-39924500D01*
X462622864Y-39924500D01*
X459377129Y-39924500D01*
X459377123Y-39924501D01*
X459317516Y-39930908D01*
X459182671Y-39981202D01*
X459182664Y-39981206D01*
X459067455Y-40067452D01*
X459067452Y-40067455D01*
X458981206Y-40182664D01*
X458981202Y-40182671D01*
X458930908Y-40317517D01*
X458924501Y-40377116D01*
X458924501Y-40377123D01*
X458924500Y-40377135D01*
X328575499Y-40377135D01*
X328575499Y-40377128D01*
X328569091Y-40317517D01*
X328518796Y-40182669D01*
X328518795Y-40182668D01*
X328518793Y-40182664D01*
X328432547Y-40067455D01*
X328432544Y-40067452D01*
X328317335Y-39981206D01*
X328317328Y-39981202D01*
X328182482Y-39930908D01*
X328182483Y-39930908D01*
X328122883Y-39924501D01*
X328122881Y-39924500D01*
X328122873Y-39924500D01*
X328122864Y-39924500D01*
X324877129Y-39924500D01*
X324877123Y-39924501D01*
X324817516Y-39930908D01*
X324682671Y-39981202D01*
X324682664Y-39981206D01*
X324567455Y-40067452D01*
X324567452Y-40067455D01*
X324481206Y-40182664D01*
X324481202Y-40182671D01*
X324430908Y-40317517D01*
X324424501Y-40377116D01*
X324424501Y-40377123D01*
X324424500Y-40377135D01*
X321800500Y-40377135D01*
X321800500Y-34899997D01*
X371044751Y-34899997D01*
X371044751Y-34900002D01*
X371063685Y-35068056D01*
X371119545Y-35227694D01*
X371119547Y-35227697D01*
X371209518Y-35370884D01*
X371209523Y-35370890D01*
X371329109Y-35490476D01*
X371329115Y-35490481D01*
X371472302Y-35580452D01*
X371472305Y-35580454D01*
X371472309Y-35580455D01*
X371472310Y-35580456D01*
X371544913Y-35605860D01*
X371631943Y-35636314D01*
X371799997Y-35655249D01*
X371800000Y-35655249D01*
X371800003Y-35655249D01*
X371968056Y-35636314D01*
X371968059Y-35636313D01*
X372127690Y-35580456D01*
X372127692Y-35580454D01*
X372127694Y-35580454D01*
X372127697Y-35580452D01*
X372270884Y-35490481D01*
X372270885Y-35490480D01*
X372270890Y-35490477D01*
X372390477Y-35370890D01*
X372480452Y-35227697D01*
X372480454Y-35227694D01*
X372480454Y-35227692D01*
X372480456Y-35227690D01*
X372536313Y-35068059D01*
X372536313Y-35068058D01*
X372536314Y-35068056D01*
X372555249Y-34900002D01*
X372555249Y-34899997D01*
X372536314Y-34731943D01*
X372483306Y-34580456D01*
X372480456Y-34572310D01*
X372480455Y-34572309D01*
X372480454Y-34572305D01*
X372480452Y-34572302D01*
X372390481Y-34429115D01*
X372390476Y-34429109D01*
X372270890Y-34309523D01*
X372270884Y-34309518D01*
X372127697Y-34219547D01*
X372127694Y-34219545D01*
X371968056Y-34163685D01*
X371800003Y-34144751D01*
X371799997Y-34144751D01*
X371631943Y-34163685D01*
X371472305Y-34219545D01*
X371472302Y-34219547D01*
X371329115Y-34309518D01*
X371329109Y-34309523D01*
X371209523Y-34429109D01*
X371209518Y-34429115D01*
X371119547Y-34572302D01*
X371119545Y-34572305D01*
X371063685Y-34731943D01*
X371044751Y-34899997D01*
X321800500Y-34899997D01*
X321800500Y-33899997D01*
X389744751Y-33899997D01*
X389744751Y-33900002D01*
X389763685Y-34068056D01*
X389819545Y-34227694D01*
X389819547Y-34227697D01*
X389909518Y-34370884D01*
X389909523Y-34370890D01*
X390029109Y-34490476D01*
X390029115Y-34490481D01*
X390172302Y-34580452D01*
X390172305Y-34580454D01*
X390172309Y-34580455D01*
X390172310Y-34580456D01*
X390244913Y-34605860D01*
X390331943Y-34636314D01*
X390499997Y-34655249D01*
X390500000Y-34655249D01*
X390500003Y-34655249D01*
X390668056Y-34636314D01*
X390668059Y-34636313D01*
X390827690Y-34580456D01*
X390827692Y-34580454D01*
X390827694Y-34580454D01*
X390827697Y-34580452D01*
X390970884Y-34490481D01*
X390970885Y-34490480D01*
X390970890Y-34490477D01*
X391090477Y-34370890D01*
X391180452Y-34227697D01*
X391180454Y-34227694D01*
X391180454Y-34227692D01*
X391180456Y-34227690D01*
X391236313Y-34068059D01*
X391236313Y-34068058D01*
X391236314Y-34068056D01*
X391255249Y-33900002D01*
X391255249Y-33899997D01*
X391236314Y-33731943D01*
X391180454Y-33572305D01*
X391180452Y-33572302D01*
X391090481Y-33429115D01*
X391090476Y-33429109D01*
X390970890Y-33309523D01*
X390970884Y-33309518D01*
X390827697Y-33219547D01*
X390827694Y-33219545D01*
X390668056Y-33163685D01*
X390500003Y-33144751D01*
X390499997Y-33144751D01*
X390331943Y-33163685D01*
X390172305Y-33219545D01*
X390172302Y-33219547D01*
X390029115Y-33309518D01*
X390029109Y-33309523D01*
X389909523Y-33429109D01*
X389909518Y-33429115D01*
X389819547Y-33572302D01*
X389819545Y-33572305D01*
X389763685Y-33731943D01*
X389744751Y-33899997D01*
X321800500Y-33899997D01*
X321800500Y-31799997D01*
X363344751Y-31799997D01*
X363344751Y-31800002D01*
X363363685Y-31968056D01*
X363419545Y-32127694D01*
X363419547Y-32127697D01*
X363509518Y-32270884D01*
X363509523Y-32270890D01*
X363629109Y-32390476D01*
X363629115Y-32390481D01*
X363772302Y-32480452D01*
X363772305Y-32480454D01*
X363772309Y-32480455D01*
X363772310Y-32480456D01*
X363844913Y-32505860D01*
X363931943Y-32536314D01*
X364099997Y-32555249D01*
X364100000Y-32555249D01*
X364100003Y-32555249D01*
X364268056Y-32536314D01*
X364268059Y-32536313D01*
X364427690Y-32480456D01*
X364427692Y-32480454D01*
X364427694Y-32480454D01*
X364427697Y-32480452D01*
X364570884Y-32390481D01*
X364570885Y-32390480D01*
X364570890Y-32390477D01*
X364690477Y-32270890D01*
X364712203Y-32236314D01*
X364780452Y-32127697D01*
X364780454Y-32127694D01*
X364780454Y-32127692D01*
X364780456Y-32127690D01*
X364836313Y-31968059D01*
X364836313Y-31968058D01*
X364836314Y-31968056D01*
X364855249Y-31800002D01*
X364855249Y-31799997D01*
X364836314Y-31631945D01*
X364836313Y-31631941D01*
X364834339Y-31626302D01*
X364830777Y-31556525D01*
X364862396Y-31499997D01*
X369244751Y-31499997D01*
X369244751Y-31500002D01*
X369263685Y-31668056D01*
X369319545Y-31827694D01*
X369319547Y-31827697D01*
X369409518Y-31970884D01*
X369409523Y-31970890D01*
X369529109Y-32090476D01*
X369529115Y-32090481D01*
X369672302Y-32180452D01*
X369672305Y-32180454D01*
X369672309Y-32180455D01*
X369672310Y-32180456D01*
X369744913Y-32205860D01*
X369831943Y-32236314D01*
X369999997Y-32255249D01*
X370000000Y-32255249D01*
X370000003Y-32255249D01*
X370168056Y-32236314D01*
X370168059Y-32236313D01*
X370327690Y-32180456D01*
X370327692Y-32180454D01*
X370327694Y-32180454D01*
X370327697Y-32180452D01*
X370470884Y-32090481D01*
X370470885Y-32090480D01*
X370470890Y-32090477D01*
X370590477Y-31970890D01*
X370680452Y-31827697D01*
X370680454Y-31827694D01*
X370680454Y-31827692D01*
X370680456Y-31827690D01*
X370736313Y-31668059D01*
X370736313Y-31668058D01*
X370736314Y-31668056D01*
X370755249Y-31500002D01*
X370755249Y-31499997D01*
X370736314Y-31331943D01*
X370680454Y-31172305D01*
X370680452Y-31172302D01*
X370590481Y-31029115D01*
X370590476Y-31029109D01*
X370501917Y-30940550D01*
X370468432Y-30879227D01*
X370473416Y-30809535D01*
X370515288Y-30753602D01*
X370580752Y-30729185D01*
X370625074Y-30735097D01*
X370625151Y-30734764D01*
X370628776Y-30735591D01*
X370630557Y-30735829D01*
X370631172Y-30736044D01*
X370631941Y-30736313D01*
X370673955Y-30741047D01*
X370799997Y-30755249D01*
X370800000Y-30755249D01*
X370800003Y-30755249D01*
X370968059Y-30736313D01*
X370968061Y-30736313D01*
X371101296Y-30689692D01*
X371171075Y-30686130D01*
X371231702Y-30720858D01*
X371263930Y-30782852D01*
X371263287Y-30824888D01*
X371264466Y-30825021D01*
X371244751Y-30999997D01*
X371244751Y-31000002D01*
X371263685Y-31168056D01*
X371319545Y-31327694D01*
X371319547Y-31327697D01*
X371409518Y-31470884D01*
X371409523Y-31470890D01*
X371529109Y-31590476D01*
X371529115Y-31590481D01*
X371672302Y-31680452D01*
X371672305Y-31680454D01*
X371672309Y-31680455D01*
X371672310Y-31680456D01*
X371744913Y-31705860D01*
X371831943Y-31736314D01*
X371999997Y-31755249D01*
X372000000Y-31755249D01*
X372000003Y-31755249D01*
X372168056Y-31736314D01*
X372168059Y-31736313D01*
X372327690Y-31680456D01*
X372327692Y-31680454D01*
X372327694Y-31680454D01*
X372327697Y-31680452D01*
X372470884Y-31590481D01*
X372470885Y-31590480D01*
X372470890Y-31590477D01*
X372590477Y-31470890D01*
X372677785Y-31331941D01*
X372680452Y-31327697D01*
X372680454Y-31327694D01*
X372680454Y-31327692D01*
X372680456Y-31327690D01*
X372736313Y-31168059D01*
X372736313Y-31168058D01*
X372736314Y-31168056D01*
X372755249Y-31000002D01*
X372755249Y-30999997D01*
X372736314Y-30831943D01*
X372680454Y-30672305D01*
X372680452Y-30672302D01*
X372590481Y-30529115D01*
X372590476Y-30529109D01*
X372470890Y-30409523D01*
X372470884Y-30409518D01*
X372327697Y-30319547D01*
X372327694Y-30319545D01*
X372168056Y-30263685D01*
X372000003Y-30244751D01*
X371999997Y-30244751D01*
X371831942Y-30263686D01*
X371698702Y-30310308D01*
X371628923Y-30313869D01*
X371568296Y-30279140D01*
X371536069Y-30217146D01*
X371536717Y-30175112D01*
X371535534Y-30174979D01*
X371555249Y-30000002D01*
X371555249Y-29999997D01*
X371536314Y-29831943D01*
X371480454Y-29672305D01*
X371480452Y-29672302D01*
X371390481Y-29529115D01*
X371390476Y-29529109D01*
X371270890Y-29409523D01*
X371270884Y-29409518D01*
X371127697Y-29319547D01*
X371127694Y-29319545D01*
X370968056Y-29263685D01*
X370800003Y-29244751D01*
X370799997Y-29244751D01*
X370631943Y-29263685D01*
X370472305Y-29319545D01*
X370472302Y-29319547D01*
X370329115Y-29409518D01*
X370329109Y-29409523D01*
X370209523Y-29529109D01*
X370209518Y-29529115D01*
X370119547Y-29672302D01*
X370119545Y-29672305D01*
X370063685Y-29831943D01*
X370044751Y-29999997D01*
X370044751Y-30000002D01*
X370063685Y-30168056D01*
X370119545Y-30327694D01*
X370119547Y-30327697D01*
X370209518Y-30470884D01*
X370209523Y-30470890D01*
X370298082Y-30559449D01*
X370331567Y-30620772D01*
X370326583Y-30690464D01*
X370284711Y-30746397D01*
X370219247Y-30770814D01*
X370174924Y-30764903D01*
X370174849Y-30765236D01*
X370171232Y-30764410D01*
X370169451Y-30764173D01*
X370168060Y-30763686D01*
X370000003Y-30744751D01*
X369999997Y-30744751D01*
X369831943Y-30763685D01*
X369672305Y-30819545D01*
X369672302Y-30819547D01*
X369529115Y-30909518D01*
X369529109Y-30909523D01*
X369409523Y-31029109D01*
X369409518Y-31029115D01*
X369319547Y-31172302D01*
X369319545Y-31172305D01*
X369263685Y-31331943D01*
X369244751Y-31499997D01*
X364862396Y-31499997D01*
X364863700Y-31497666D01*
X364890477Y-31470890D01*
X364980456Y-31327690D01*
X365036313Y-31168059D01*
X365036313Y-31168058D01*
X365036314Y-31168056D01*
X365055249Y-31000002D01*
X365055249Y-30999997D01*
X365036314Y-30831943D01*
X364980454Y-30672305D01*
X364980452Y-30672302D01*
X364890481Y-30529115D01*
X364890476Y-30529109D01*
X364770890Y-30409523D01*
X364770884Y-30409518D01*
X364627697Y-30319547D01*
X364627694Y-30319545D01*
X364468056Y-30263685D01*
X364300003Y-30244751D01*
X364299997Y-30244751D01*
X364131943Y-30263685D01*
X363972305Y-30319545D01*
X363972302Y-30319547D01*
X363829115Y-30409518D01*
X363829109Y-30409523D01*
X363709523Y-30529109D01*
X363709518Y-30529115D01*
X363619547Y-30672302D01*
X363619545Y-30672305D01*
X363563685Y-30831943D01*
X363544751Y-30999997D01*
X363544751Y-31000002D01*
X363563685Y-31168054D01*
X363563687Y-31168062D01*
X363565661Y-31173703D01*
X363569219Y-31243482D01*
X363536301Y-31302329D01*
X363509526Y-31329104D01*
X363509520Y-31329112D01*
X363419547Y-31472302D01*
X363419545Y-31472305D01*
X363363685Y-31631943D01*
X363344751Y-31799997D01*
X321800500Y-31799997D01*
X321800500Y-22500000D01*
X378444693Y-22500000D01*
X378463903Y-22842081D01*
X378463905Y-22842093D01*
X378479277Y-22932568D01*
X378521296Y-23179870D01*
X378616147Y-23509104D01*
X378720108Y-23760087D01*
X378747263Y-23825646D01*
X378912998Y-24125521D01*
X379111269Y-24404959D01*
X379339570Y-24660426D01*
X379339573Y-24660429D01*
X379595040Y-24888730D01*
X379595046Y-24888734D01*
X379595047Y-24888735D01*
X379874479Y-25087002D01*
X380174352Y-25252736D01*
X380490896Y-25383853D01*
X380820130Y-25478704D01*
X381157914Y-25536096D01*
X381500000Y-25555307D01*
X381842086Y-25536096D01*
X382179870Y-25478704D01*
X382509104Y-25383853D01*
X382825648Y-25252736D01*
X383125521Y-25087002D01*
X383404953Y-24888735D01*
X383504255Y-24799993D01*
X388194449Y-24799993D01*
X388194449Y-24800006D01*
X388214641Y-25275371D01*
X388275080Y-25747344D01*
X388375324Y-26212476D01*
X388375326Y-26212484D01*
X388514652Y-26667434D01*
X388514657Y-26667448D01*
X388692057Y-27108922D01*
X388692061Y-27108933D01*
X388891245Y-27503989D01*
X388906275Y-27533799D01*
X389155747Y-27938967D01*
X389438681Y-28321519D01*
X389438686Y-28321524D01*
X389438687Y-28321526D01*
X389753037Y-28678698D01*
X390096553Y-29007931D01*
X390096563Y-29007940D01*
X390466750Y-29306845D01*
X390466751Y-29306846D01*
X390485540Y-29319545D01*
X390860969Y-29573290D01*
X391038209Y-29672302D01*
X391276350Y-29805336D01*
X391276372Y-29805347D01*
X391706987Y-29999997D01*
X391709934Y-30001329D01*
X392158567Y-30159841D01*
X392619027Y-30279736D01*
X393087995Y-30360148D01*
X393234760Y-30372639D01*
X393562075Y-30400499D01*
X393562092Y-30400499D01*
X393562094Y-30400500D01*
X393562095Y-30400500D01*
X394037905Y-30400500D01*
X394037906Y-30400500D01*
X394037907Y-30400499D01*
X394037924Y-30400499D01*
X394320097Y-30376481D01*
X394512005Y-30360148D01*
X394980973Y-30279736D01*
X395441433Y-30159841D01*
X395890066Y-30001329D01*
X396323640Y-29805341D01*
X396739031Y-29573290D01*
X397133247Y-29306847D01*
X397503446Y-29007932D01*
X397846962Y-28678699D01*
X398161319Y-28321519D01*
X398444253Y-27938967D01*
X398693725Y-27533799D01*
X398907938Y-27108933D01*
X399085348Y-26667432D01*
X399224676Y-26212476D01*
X399324920Y-25747343D01*
X399385357Y-25275384D01*
X399386320Y-25252736D01*
X399405551Y-24800006D01*
X399405551Y-24799993D01*
X399385358Y-24324628D01*
X399385357Y-24324622D01*
X399385357Y-24324616D01*
X399324920Y-23852657D01*
X399224676Y-23387524D01*
X399085348Y-22932568D01*
X399085347Y-22932565D01*
X399085342Y-22932551D01*
X398911528Y-22500000D01*
X403444693Y-22500000D01*
X403463903Y-22842081D01*
X403463905Y-22842093D01*
X403479277Y-22932568D01*
X403521296Y-23179870D01*
X403616147Y-23509104D01*
X403720108Y-23760087D01*
X403747263Y-23825646D01*
X403912998Y-24125521D01*
X404111269Y-24404959D01*
X404339570Y-24660426D01*
X404339573Y-24660429D01*
X404595040Y-24888730D01*
X404595046Y-24888734D01*
X404595047Y-24888735D01*
X404874479Y-25087002D01*
X405174352Y-25252736D01*
X405490896Y-25383853D01*
X405820130Y-25478704D01*
X406157914Y-25536096D01*
X406500000Y-25555307D01*
X406842086Y-25536096D01*
X407179870Y-25478704D01*
X407509104Y-25383853D01*
X407825648Y-25252736D01*
X408125521Y-25087002D01*
X408404953Y-24888735D01*
X408660428Y-24660428D01*
X408888735Y-24404953D01*
X409087002Y-24125521D01*
X409252736Y-23825648D01*
X409383853Y-23509104D01*
X409478704Y-23179870D01*
X409536096Y-22842086D01*
X409555307Y-22500000D01*
X409536096Y-22157914D01*
X409478704Y-21820130D01*
X409383853Y-21490896D01*
X409252736Y-21174352D01*
X409087002Y-20874479D01*
X408888735Y-20595047D01*
X408888734Y-20595046D01*
X408888730Y-20595040D01*
X408660429Y-20339573D01*
X408660426Y-20339570D01*
X408404959Y-20111269D01*
X408125521Y-19912998D01*
X407825646Y-19747263D01*
X407760087Y-19720108D01*
X407509104Y-19616147D01*
X407424479Y-19591766D01*
X407179875Y-19521297D01*
X407179866Y-19521295D01*
X406842093Y-19463905D01*
X406842081Y-19463903D01*
X406500000Y-19444693D01*
X406157918Y-19463903D01*
X406157906Y-19463905D01*
X405820133Y-19521295D01*
X405820124Y-19521297D01*
X405551549Y-19598673D01*
X405490896Y-19616147D01*
X405398184Y-19654549D01*
X405174353Y-19747263D01*
X404874478Y-19912998D01*
X404595040Y-20111269D01*
X404339573Y-20339570D01*
X404339570Y-20339573D01*
X404111269Y-20595040D01*
X403912998Y-20874478D01*
X403747263Y-21174353D01*
X403616146Y-21490899D01*
X403521297Y-21820124D01*
X403521295Y-21820133D01*
X403463905Y-22157906D01*
X403463903Y-22157918D01*
X403444693Y-22500000D01*
X398911528Y-22500000D01*
X398907942Y-22491077D01*
X398907938Y-22491066D01*
X398807511Y-22291882D01*
X398693725Y-22066201D01*
X398444253Y-21661033D01*
X398161319Y-21278481D01*
X397846962Y-20921301D01*
X397503446Y-20592068D01*
X397503436Y-20592059D01*
X397133249Y-20293154D01*
X397133248Y-20293153D01*
X396739041Y-20026717D01*
X396739031Y-20026710D01*
X396728122Y-20020616D01*
X396323649Y-19794663D01*
X396323627Y-19794652D01*
X395890072Y-19598673D01*
X395441428Y-19440157D01*
X394980971Y-19320263D01*
X394512015Y-19239853D01*
X394511989Y-19239850D01*
X394037924Y-19199500D01*
X394037906Y-19199500D01*
X393562094Y-19199500D01*
X393562075Y-19199500D01*
X393088010Y-19239850D01*
X393087984Y-19239853D01*
X392619028Y-19320263D01*
X392158571Y-19440157D01*
X391709927Y-19598673D01*
X391276372Y-19794652D01*
X391276350Y-19794663D01*
X390860977Y-20026705D01*
X390860958Y-20026717D01*
X390466751Y-20293153D01*
X390466750Y-20293154D01*
X390096563Y-20592059D01*
X390096553Y-20592068D01*
X389753037Y-20921301D01*
X389438687Y-21278473D01*
X389155746Y-21661034D01*
X388906276Y-22066198D01*
X388906266Y-22066218D01*
X388692061Y-22491066D01*
X388692057Y-22491077D01*
X388514657Y-22932551D01*
X388514652Y-22932565D01*
X388375326Y-23387515D01*
X388375324Y-23387523D01*
X388275080Y-23852655D01*
X388214641Y-24324628D01*
X388194449Y-24799993D01*
X383504255Y-24799993D01*
X383660428Y-24660428D01*
X383888735Y-24404953D01*
X384087002Y-24125521D01*
X384252736Y-23825648D01*
X384383853Y-23509104D01*
X384478704Y-23179870D01*
X384536096Y-22842086D01*
X384555307Y-22500000D01*
X384536096Y-22157914D01*
X384478704Y-21820130D01*
X384383853Y-21490896D01*
X384252736Y-21174352D01*
X384087002Y-20874479D01*
X383888735Y-20595047D01*
X383888734Y-20595046D01*
X383888730Y-20595040D01*
X383660429Y-20339573D01*
X383660426Y-20339570D01*
X383404959Y-20111269D01*
X383125521Y-19912998D01*
X382825646Y-19747263D01*
X382760087Y-19720108D01*
X382509104Y-19616147D01*
X382424479Y-19591766D01*
X382179875Y-19521297D01*
X382179866Y-19521295D01*
X381842093Y-19463905D01*
X381842081Y-19463903D01*
X381500000Y-19444693D01*
X381157918Y-19463903D01*
X381157906Y-19463905D01*
X380820133Y-19521295D01*
X380820124Y-19521297D01*
X380551549Y-19598673D01*
X380490896Y-19616147D01*
X380398184Y-19654549D01*
X380174353Y-19747263D01*
X379874478Y-19912998D01*
X379595040Y-20111269D01*
X379339573Y-20339570D01*
X379339570Y-20339573D01*
X379111269Y-20595040D01*
X378912998Y-20874478D01*
X378747263Y-21174353D01*
X378616146Y-21490899D01*
X378521297Y-21820124D01*
X378521295Y-21820133D01*
X378463905Y-22157906D01*
X378463903Y-22157918D01*
X378444693Y-22500000D01*
X321800500Y-22500000D01*
X321800500Y-15749984D01*
X338474500Y-15749984D01*
X338474500Y-18050015D01*
X338485000Y-18152795D01*
X338485001Y-18152796D01*
X338540186Y-18319335D01*
X338540187Y-18319337D01*
X338632286Y-18468651D01*
X338632289Y-18468655D01*
X338756344Y-18592710D01*
X338756348Y-18592713D01*
X338905662Y-18684812D01*
X338905664Y-18684813D01*
X338905666Y-18684814D01*
X339072203Y-18739999D01*
X339174992Y-18750500D01*
X339174997Y-18750500D01*
X342075003Y-18750500D01*
X342075008Y-18750500D01*
X342177797Y-18739999D01*
X342344334Y-18684814D01*
X342493655Y-18592711D01*
X342617711Y-18468655D01*
X342709814Y-18319334D01*
X342764999Y-18152797D01*
X342775500Y-18050008D01*
X342775500Y-15749992D01*
X342764999Y-15647203D01*
X342709814Y-15480666D01*
X342617711Y-15331345D01*
X342493655Y-15207289D01*
X342493651Y-15207286D01*
X342344337Y-15115187D01*
X342344335Y-15115186D01*
X342261065Y-15087593D01*
X342177797Y-15060001D01*
X342177795Y-15060000D01*
X342075015Y-15049500D01*
X342075008Y-15049500D01*
X339174992Y-15049500D01*
X339174984Y-15049500D01*
X339072204Y-15060000D01*
X339072203Y-15060001D01*
X338905664Y-15115186D01*
X338905662Y-15115187D01*
X338756348Y-15207286D01*
X338756344Y-15207289D01*
X338632289Y-15331344D01*
X338632286Y-15331348D01*
X338540187Y-15480662D01*
X338540186Y-15480664D01*
X338485001Y-15647203D01*
X338485000Y-15647204D01*
X338474500Y-15749984D01*
X321800500Y-15749984D01*
X321800500Y-14299997D01*
X372444751Y-14299997D01*
X372444751Y-14300002D01*
X372463685Y-14468056D01*
X372519545Y-14627694D01*
X372519547Y-14627697D01*
X372609518Y-14770884D01*
X372609523Y-14770890D01*
X372729109Y-14890476D01*
X372729115Y-14890481D01*
X372872302Y-14980452D01*
X372872305Y-14980454D01*
X372872309Y-14980455D01*
X372872310Y-14980456D01*
X372944913Y-15005860D01*
X373031943Y-15036314D01*
X373199997Y-15055249D01*
X373200000Y-15055249D01*
X373200003Y-15055249D01*
X373368056Y-15036314D01*
X373368059Y-15036313D01*
X373527690Y-14980456D01*
X373527692Y-14980454D01*
X373527694Y-14980454D01*
X373527697Y-14980452D01*
X373670884Y-14890481D01*
X373670885Y-14890480D01*
X373670890Y-14890477D01*
X373790477Y-14770890D01*
X373880452Y-14627697D01*
X373880454Y-14627694D01*
X373880454Y-14627692D01*
X373880456Y-14627690D01*
X373936313Y-14468059D01*
X373936313Y-14468058D01*
X373936314Y-14468056D01*
X373955249Y-14300002D01*
X373955249Y-14299997D01*
X373936314Y-14131943D01*
X373880454Y-13972305D01*
X373880452Y-13972302D01*
X373790481Y-13829115D01*
X373790476Y-13829109D01*
X373670890Y-13709523D01*
X373670884Y-13709518D01*
X373527697Y-13619547D01*
X373527694Y-13619545D01*
X373368056Y-13563685D01*
X373200003Y-13544751D01*
X373199997Y-13544751D01*
X373031943Y-13563685D01*
X372872305Y-13619545D01*
X372872302Y-13619547D01*
X372729115Y-13709518D01*
X372729109Y-13709523D01*
X372609523Y-13829109D01*
X372609518Y-13829115D01*
X372519547Y-13972302D01*
X372519545Y-13972305D01*
X372463685Y-14131943D01*
X372444751Y-14299997D01*
X321800500Y-14299997D01*
X321800500Y-8378711D01*
X338474500Y-8378711D01*
X338474500Y-8621288D01*
X338506161Y-8861785D01*
X338568947Y-9096104D01*
X338646080Y-9282319D01*
X338661776Y-9320212D01*
X338783064Y-9530289D01*
X338783066Y-9530292D01*
X338783067Y-9530293D01*
X338930733Y-9722736D01*
X338930739Y-9722743D01*
X339102256Y-9894260D01*
X339102262Y-9894265D01*
X339294711Y-10041936D01*
X339504788Y-10163224D01*
X339728900Y-10256054D01*
X339963211Y-10318838D01*
X340143586Y-10342584D01*
X340203711Y-10350500D01*
X340203712Y-10350500D01*
X341046289Y-10350500D01*
X341094388Y-10344167D01*
X341286789Y-10318838D01*
X341521100Y-10256054D01*
X341745212Y-10163224D01*
X341955289Y-10041936D01*
X342147738Y-9894265D01*
X342319265Y-9722738D01*
X342466936Y-9530289D01*
X342588224Y-9320212D01*
X342681054Y-9096100D01*
X342743838Y-8861789D01*
X342775500Y-8621288D01*
X342775500Y-8378712D01*
X342775500Y-8378711D01*
X343974500Y-8378711D01*
X343974500Y-8621288D01*
X344006161Y-8861785D01*
X344068947Y-9096104D01*
X344146080Y-9282319D01*
X344161776Y-9320212D01*
X344283064Y-9530289D01*
X344283066Y-9530292D01*
X344283067Y-9530293D01*
X344430733Y-9722736D01*
X344430739Y-9722743D01*
X344602256Y-9894260D01*
X344602262Y-9894265D01*
X344794711Y-10041936D01*
X345004788Y-10163224D01*
X345228900Y-10256054D01*
X345463211Y-10318838D01*
X345643586Y-10342584D01*
X345703711Y-10350500D01*
X345703712Y-10350500D01*
X346546289Y-10350500D01*
X346594388Y-10344167D01*
X346786789Y-10318838D01*
X347021100Y-10256054D01*
X347245212Y-10163224D01*
X347455289Y-10041936D01*
X347647738Y-9894265D01*
X347819265Y-9722738D01*
X347966936Y-9530289D01*
X348088224Y-9320212D01*
X348181054Y-9096100D01*
X348243838Y-8861789D01*
X348275500Y-8621288D01*
X348275500Y-8378712D01*
X348243838Y-8138211D01*
X348181054Y-7903900D01*
X348088224Y-7679788D01*
X347966936Y-7469711D01*
X347819265Y-7277262D01*
X347819260Y-7277256D01*
X347647743Y-7105739D01*
X347647736Y-7105733D01*
X347455293Y-6958067D01*
X347455292Y-6958066D01*
X347455289Y-6958064D01*
X347245212Y-6836776D01*
X347245205Y-6836773D01*
X347021104Y-6743947D01*
X346786785Y-6681161D01*
X346546289Y-6649500D01*
X346546288Y-6649500D01*
X345703712Y-6649500D01*
X345703711Y-6649500D01*
X345463214Y-6681161D01*
X345228895Y-6743947D01*
X345004794Y-6836773D01*
X345004785Y-6836777D01*
X344794706Y-6958067D01*
X344602263Y-7105733D01*
X344602256Y-7105739D01*
X344430739Y-7277256D01*
X344430733Y-7277263D01*
X344283067Y-7469706D01*
X344161777Y-7679785D01*
X344161773Y-7679794D01*
X344068947Y-7903895D01*
X344006161Y-8138214D01*
X343974500Y-8378711D01*
X342775500Y-8378711D01*
X342743838Y-8138211D01*
X342681054Y-7903900D01*
X342588224Y-7679788D01*
X342466936Y-7469711D01*
X342319265Y-7277262D01*
X342319260Y-7277256D01*
X342147743Y-7105739D01*
X342147736Y-7105733D01*
X341955293Y-6958067D01*
X341955292Y-6958066D01*
X341955289Y-6958064D01*
X341745212Y-6836776D01*
X341745205Y-6836773D01*
X341521104Y-6743947D01*
X341286785Y-6681161D01*
X341046289Y-6649500D01*
X341046288Y-6649500D01*
X340203712Y-6649500D01*
X340203711Y-6649500D01*
X339963214Y-6681161D01*
X339728895Y-6743947D01*
X339504794Y-6836773D01*
X339504785Y-6836777D01*
X339294706Y-6958067D01*
X339102263Y-7105733D01*
X339102256Y-7105739D01*
X338930739Y-7277256D01*
X338930733Y-7277263D01*
X338783067Y-7469706D01*
X338661777Y-7679785D01*
X338661773Y-7679794D01*
X338568947Y-7903895D01*
X338506161Y-8138214D01*
X338474500Y-8378711D01*
X321800500Y-8378711D01*
X321800500Y-5169996D01*
X377194435Y-5169996D01*
X377194435Y-5170003D01*
X377214630Y-5349249D01*
X377214631Y-5349254D01*
X377274211Y-5519523D01*
X377370184Y-5672262D01*
X377380241Y-5682319D01*
X377413726Y-5743642D01*
X377408742Y-5813334D01*
X377380241Y-5857681D01*
X377370184Y-5867737D01*
X377274211Y-6020476D01*
X377214631Y-6190745D01*
X377214630Y-6190750D01*
X377194435Y-6369996D01*
X377194435Y-6370003D01*
X377214630Y-6549249D01*
X377214631Y-6549254D01*
X377274211Y-6719523D01*
X377370184Y-6872262D01*
X377380241Y-6882319D01*
X377413726Y-6943642D01*
X377408742Y-7013334D01*
X377380241Y-7057681D01*
X377370184Y-7067737D01*
X377274211Y-7220476D01*
X377214631Y-7390745D01*
X377214630Y-7390750D01*
X377194435Y-7569996D01*
X377194435Y-7570003D01*
X377214630Y-7749249D01*
X377214631Y-7749254D01*
X377274211Y-7919523D01*
X377370184Y-8072262D01*
X377380241Y-8082319D01*
X377413726Y-8143642D01*
X377408742Y-8213334D01*
X377380241Y-8257681D01*
X377370184Y-8267737D01*
X377274211Y-8420476D01*
X377214631Y-8590745D01*
X377214630Y-8590750D01*
X377194435Y-8769996D01*
X377194435Y-8770003D01*
X377214630Y-8949249D01*
X377214631Y-8949254D01*
X377274211Y-9119523D01*
X377370184Y-9272262D01*
X377380241Y-9282319D01*
X377413726Y-9343642D01*
X377408742Y-9413334D01*
X377380241Y-9457681D01*
X377370184Y-9467737D01*
X377274211Y-9620476D01*
X377214631Y-9790745D01*
X377214630Y-9790750D01*
X377194435Y-9969996D01*
X377194435Y-9970003D01*
X377214630Y-10149249D01*
X377214631Y-10149254D01*
X377274211Y-10319523D01*
X377370184Y-10472262D01*
X377380241Y-10482319D01*
X377413726Y-10543642D01*
X377408742Y-10613334D01*
X377380241Y-10657681D01*
X377370184Y-10667737D01*
X377274211Y-10820476D01*
X377214631Y-10990745D01*
X377214630Y-10990750D01*
X377194435Y-11169996D01*
X377194435Y-11170003D01*
X377214630Y-11349249D01*
X377214631Y-11349254D01*
X377274211Y-11519523D01*
X377370184Y-11672262D01*
X377497738Y-11799816D01*
X377650478Y-11895789D01*
X377820745Y-11955368D01*
X377820750Y-11955369D01*
X377999996Y-11975565D01*
X378000000Y-11975565D01*
X378000004Y-11975565D01*
X378179249Y-11955369D01*
X378179252Y-11955368D01*
X378179255Y-11955368D01*
X378349522Y-11895789D01*
X378502262Y-11799816D01*
X378512319Y-11789759D01*
X378573642Y-11756274D01*
X378643334Y-11761258D01*
X378687681Y-11789759D01*
X378697738Y-11799816D01*
X378850478Y-11895789D01*
X379020745Y-11955368D01*
X379020750Y-11955369D01*
X379199996Y-11975565D01*
X379200000Y-11975565D01*
X379200004Y-11975565D01*
X379379249Y-11955369D01*
X379379252Y-11955368D01*
X379379255Y-11955368D01*
X379549522Y-11895789D01*
X379702262Y-11799816D01*
X379712319Y-11789759D01*
X379773642Y-11756274D01*
X379843334Y-11761258D01*
X379887681Y-11789759D01*
X379897738Y-11799816D01*
X380050478Y-11895789D01*
X380220745Y-11955368D01*
X380220750Y-11955369D01*
X380399996Y-11975565D01*
X380400000Y-11975565D01*
X380400004Y-11975565D01*
X380579249Y-11955369D01*
X380579252Y-11955368D01*
X380579255Y-11955368D01*
X380749522Y-11895789D01*
X380902262Y-11799816D01*
X380912319Y-11789759D01*
X380973642Y-11756274D01*
X381043334Y-11761258D01*
X381087681Y-11789759D01*
X381097738Y-11799816D01*
X381250478Y-11895789D01*
X381420745Y-11955368D01*
X381420750Y-11955369D01*
X381599996Y-11975565D01*
X381600000Y-11975565D01*
X381600004Y-11975565D01*
X381779249Y-11955369D01*
X381779252Y-11955368D01*
X381779255Y-11955368D01*
X381949522Y-11895789D01*
X382102262Y-11799816D01*
X382112319Y-11789759D01*
X382173642Y-11756274D01*
X382243334Y-11761258D01*
X382287681Y-11789759D01*
X382297738Y-11799816D01*
X382450478Y-11895789D01*
X382620745Y-11955368D01*
X382620750Y-11955369D01*
X382799996Y-11975565D01*
X382800000Y-11975565D01*
X382800004Y-11975565D01*
X382979249Y-11955369D01*
X382979252Y-11955368D01*
X382979255Y-11955368D01*
X383149522Y-11895789D01*
X383302262Y-11799816D01*
X383312319Y-11789759D01*
X383373642Y-11756274D01*
X383443334Y-11761258D01*
X383487681Y-11789759D01*
X383497738Y-11799816D01*
X383650478Y-11895789D01*
X383820745Y-11955368D01*
X383820750Y-11955369D01*
X383999996Y-11975565D01*
X384000000Y-11975565D01*
X384000004Y-11975565D01*
X384179249Y-11955369D01*
X384179252Y-11955368D01*
X384179255Y-11955368D01*
X384349522Y-11895789D01*
X384502262Y-11799816D01*
X384512319Y-11789759D01*
X384573642Y-11756274D01*
X384643334Y-11761258D01*
X384687681Y-11789759D01*
X384697738Y-11799816D01*
X384850478Y-11895789D01*
X385020745Y-11955368D01*
X385020750Y-11955369D01*
X385199996Y-11975565D01*
X385200000Y-11975565D01*
X385200004Y-11975565D01*
X385379249Y-11955369D01*
X385379252Y-11955368D01*
X385379255Y-11955368D01*
X385549522Y-11895789D01*
X385702262Y-11799816D01*
X385829816Y-11672262D01*
X385925789Y-11519522D01*
X385985368Y-11349255D01*
X386005565Y-11170000D01*
X385985368Y-10990745D01*
X385925789Y-10820478D01*
X385829816Y-10667738D01*
X385819759Y-10657681D01*
X385786274Y-10596358D01*
X385791258Y-10526666D01*
X385819759Y-10482319D01*
X385829816Y-10472262D01*
X385925789Y-10319522D01*
X385985368Y-10149255D01*
X385997460Y-10041936D01*
X386005565Y-9970003D01*
X386005565Y-9969996D01*
X385985369Y-9790750D01*
X385985368Y-9790745D01*
X385925788Y-9620476D01*
X385829815Y-9467737D01*
X385819759Y-9457681D01*
X385786274Y-9396358D01*
X385791258Y-9326666D01*
X385819759Y-9282319D01*
X385829816Y-9272262D01*
X385925789Y-9119522D01*
X385985368Y-8949255D01*
X385995223Y-8861789D01*
X386005565Y-8770003D01*
X386005565Y-8769996D01*
X385985369Y-8590750D01*
X385985368Y-8590745D01*
X385925788Y-8420476D01*
X385829815Y-8267737D01*
X385819759Y-8257681D01*
X385786274Y-8196358D01*
X385791258Y-8126666D01*
X385819759Y-8082319D01*
X385829816Y-8072262D01*
X385925789Y-7919522D01*
X385985368Y-7749255D01*
X385985369Y-7749249D01*
X386005565Y-7570003D01*
X386005565Y-7569996D01*
X385985369Y-7390750D01*
X385985368Y-7390745D01*
X385945659Y-7277263D01*
X385925789Y-7220478D01*
X385829816Y-7067738D01*
X385819759Y-7057681D01*
X385786274Y-6996358D01*
X385791258Y-6926666D01*
X385819759Y-6882319D01*
X385829816Y-6872262D01*
X385925789Y-6719522D01*
X385985368Y-6549255D01*
X385994198Y-6470890D01*
X386005565Y-6370003D01*
X386005565Y-6369996D01*
X385985369Y-6190750D01*
X385985368Y-6190745D01*
X385925788Y-6020476D01*
X385829815Y-5867737D01*
X385819759Y-5857681D01*
X385786274Y-5796358D01*
X385791258Y-5726666D01*
X385819759Y-5682319D01*
X385829816Y-5672262D01*
X385925789Y-5519522D01*
X385985368Y-5349255D01*
X385985369Y-5349249D01*
X386005565Y-5170003D01*
X386005565Y-5169996D01*
X389594435Y-5169996D01*
X389594435Y-5170003D01*
X389614630Y-5349249D01*
X389614631Y-5349254D01*
X389674211Y-5519523D01*
X389770184Y-5672262D01*
X389780241Y-5682319D01*
X389813726Y-5743642D01*
X389808742Y-5813334D01*
X389780241Y-5857681D01*
X389770184Y-5867737D01*
X389674211Y-6020476D01*
X389614631Y-6190745D01*
X389614630Y-6190750D01*
X389594435Y-6369996D01*
X389594435Y-6370003D01*
X389614630Y-6549249D01*
X389614631Y-6549254D01*
X389674211Y-6719523D01*
X389770184Y-6872262D01*
X389780241Y-6882319D01*
X389813726Y-6943642D01*
X389808742Y-7013334D01*
X389780241Y-7057681D01*
X389770184Y-7067737D01*
X389674211Y-7220476D01*
X389614631Y-7390745D01*
X389614630Y-7390750D01*
X389594435Y-7569996D01*
X389594435Y-7570003D01*
X389614630Y-7749249D01*
X389614631Y-7749254D01*
X389674211Y-7919523D01*
X389770184Y-8072262D01*
X389780241Y-8082319D01*
X389813726Y-8143642D01*
X389808742Y-8213334D01*
X389780241Y-8257681D01*
X389770184Y-8267737D01*
X389674211Y-8420476D01*
X389614631Y-8590745D01*
X389614630Y-8590750D01*
X389594435Y-8769996D01*
X389594435Y-8770003D01*
X389614630Y-8949249D01*
X389614631Y-8949254D01*
X389674211Y-9119523D01*
X389770184Y-9272262D01*
X389780241Y-9282319D01*
X389813726Y-9343642D01*
X389808742Y-9413334D01*
X389780241Y-9457681D01*
X389770184Y-9467737D01*
X389674211Y-9620476D01*
X389614631Y-9790745D01*
X389614630Y-9790750D01*
X389594435Y-9969996D01*
X389594435Y-9970003D01*
X389614630Y-10149249D01*
X389614631Y-10149254D01*
X389674211Y-10319523D01*
X389770184Y-10472262D01*
X389780241Y-10482319D01*
X389813726Y-10543642D01*
X389808742Y-10613334D01*
X389780241Y-10657681D01*
X389770184Y-10667737D01*
X389674211Y-10820476D01*
X389614631Y-10990745D01*
X389614630Y-10990750D01*
X389594435Y-11169996D01*
X389594435Y-11170003D01*
X389614630Y-11349249D01*
X389614631Y-11349254D01*
X389674211Y-11519523D01*
X389770184Y-11672262D01*
X389897738Y-11799816D01*
X390050478Y-11895789D01*
X390220745Y-11955368D01*
X390220750Y-11955369D01*
X390399996Y-11975565D01*
X390400000Y-11975565D01*
X390400004Y-11975565D01*
X390579249Y-11955369D01*
X390579252Y-11955368D01*
X390579255Y-11955368D01*
X390749522Y-11895789D01*
X390902262Y-11799816D01*
X390912319Y-11789759D01*
X390973642Y-11756274D01*
X391043334Y-11761258D01*
X391087681Y-11789759D01*
X391097738Y-11799816D01*
X391250478Y-11895789D01*
X391420745Y-11955368D01*
X391420750Y-11955369D01*
X391599996Y-11975565D01*
X391600000Y-11975565D01*
X391600004Y-11975565D01*
X391779249Y-11955369D01*
X391779252Y-11955368D01*
X391779255Y-11955368D01*
X391949522Y-11895789D01*
X392102262Y-11799816D01*
X392112319Y-11789759D01*
X392173642Y-11756274D01*
X392243334Y-11761258D01*
X392287681Y-11789759D01*
X392297738Y-11799816D01*
X392450478Y-11895789D01*
X392620745Y-11955368D01*
X392620750Y-11955369D01*
X392799996Y-11975565D01*
X392800000Y-11975565D01*
X392800004Y-11975565D01*
X392979249Y-11955369D01*
X392979252Y-11955368D01*
X392979255Y-11955368D01*
X393149522Y-11895789D01*
X393302262Y-11799816D01*
X393312319Y-11789759D01*
X393373642Y-11756274D01*
X393443334Y-11761258D01*
X393487681Y-11789759D01*
X393497738Y-11799816D01*
X393650478Y-11895789D01*
X393820745Y-11955368D01*
X393820750Y-11955369D01*
X393999996Y-11975565D01*
X394000000Y-11975565D01*
X394000004Y-11975565D01*
X394179249Y-11955369D01*
X394179252Y-11955368D01*
X394179255Y-11955368D01*
X394349522Y-11895789D01*
X394502262Y-11799816D01*
X394512319Y-11789759D01*
X394573642Y-11756274D01*
X394643334Y-11761258D01*
X394687681Y-11789759D01*
X394697738Y-11799816D01*
X394850478Y-11895789D01*
X395020745Y-11955368D01*
X395020750Y-11955369D01*
X395199996Y-11975565D01*
X395200000Y-11975565D01*
X395200004Y-11975565D01*
X395379249Y-11955369D01*
X395379252Y-11955368D01*
X395379255Y-11955368D01*
X395549522Y-11895789D01*
X395702262Y-11799816D01*
X395712319Y-11789759D01*
X395773642Y-11756274D01*
X395843334Y-11761258D01*
X395887681Y-11789759D01*
X395897738Y-11799816D01*
X396050478Y-11895789D01*
X396220745Y-11955368D01*
X396220750Y-11955369D01*
X396399996Y-11975565D01*
X396400000Y-11975565D01*
X396400004Y-11975565D01*
X396579249Y-11955369D01*
X396579252Y-11955368D01*
X396579255Y-11955368D01*
X396749522Y-11895789D01*
X396902262Y-11799816D01*
X396912319Y-11789759D01*
X396973642Y-11756274D01*
X397043334Y-11761258D01*
X397087681Y-11789759D01*
X397097738Y-11799816D01*
X397250478Y-11895789D01*
X397420745Y-11955368D01*
X397420750Y-11955369D01*
X397599996Y-11975565D01*
X397600000Y-11975565D01*
X397600004Y-11975565D01*
X397779249Y-11955369D01*
X397779252Y-11955368D01*
X397779255Y-11955368D01*
X397949522Y-11895789D01*
X398102262Y-11799816D01*
X398229816Y-11672262D01*
X398325789Y-11519522D01*
X398385368Y-11349255D01*
X398405565Y-11170000D01*
X398385368Y-10990745D01*
X398325789Y-10820478D01*
X398229816Y-10667738D01*
X398219759Y-10657681D01*
X398186274Y-10596358D01*
X398191258Y-10526666D01*
X398219759Y-10482319D01*
X398229816Y-10472262D01*
X398325789Y-10319522D01*
X398385368Y-10149255D01*
X398397460Y-10041936D01*
X398405565Y-9970003D01*
X398405565Y-9969996D01*
X398385369Y-9790750D01*
X398385368Y-9790745D01*
X398325788Y-9620476D01*
X398229815Y-9467737D01*
X398219759Y-9457681D01*
X398186274Y-9396358D01*
X398191258Y-9326666D01*
X398219759Y-9282319D01*
X398229816Y-9272262D01*
X398325789Y-9119522D01*
X398385368Y-8949255D01*
X398395223Y-8861789D01*
X398405565Y-8770003D01*
X398405565Y-8769996D01*
X398385369Y-8590750D01*
X398385368Y-8590745D01*
X398325788Y-8420476D01*
X398229815Y-8267737D01*
X398219759Y-8257681D01*
X398186274Y-8196358D01*
X398191258Y-8126666D01*
X398219759Y-8082319D01*
X398229816Y-8072262D01*
X398325789Y-7919522D01*
X398385368Y-7749255D01*
X398385369Y-7749249D01*
X398405565Y-7570003D01*
X398405565Y-7569996D01*
X398385369Y-7390750D01*
X398385368Y-7390745D01*
X398345659Y-7277263D01*
X398325789Y-7220478D01*
X398229816Y-7067738D01*
X398219759Y-7057681D01*
X398186274Y-6996358D01*
X398191258Y-6926666D01*
X398219759Y-6882319D01*
X398229816Y-6872262D01*
X398325789Y-6719522D01*
X398385368Y-6549255D01*
X398394198Y-6470890D01*
X398405565Y-6370003D01*
X398405565Y-6369996D01*
X398385369Y-6190750D01*
X398385368Y-6190745D01*
X398325788Y-6020476D01*
X398229815Y-5867737D01*
X398219759Y-5857681D01*
X398186274Y-5796358D01*
X398191258Y-5726666D01*
X398219759Y-5682319D01*
X398229816Y-5672262D01*
X398325789Y-5519522D01*
X398385368Y-5349255D01*
X398385369Y-5349249D01*
X398405565Y-5170003D01*
X398405565Y-5169996D01*
X401594435Y-5169996D01*
X401594435Y-5170003D01*
X401614630Y-5349249D01*
X401614631Y-5349254D01*
X401674211Y-5519523D01*
X401770184Y-5672262D01*
X401780241Y-5682319D01*
X401813726Y-5743642D01*
X401808742Y-5813334D01*
X401780241Y-5857681D01*
X401770184Y-5867737D01*
X401674211Y-6020476D01*
X401614631Y-6190745D01*
X401614630Y-6190750D01*
X401594435Y-6369996D01*
X401594435Y-6370003D01*
X401614630Y-6549249D01*
X401614631Y-6549254D01*
X401674211Y-6719523D01*
X401770184Y-6872262D01*
X401780241Y-6882319D01*
X401813726Y-6943642D01*
X401808742Y-7013334D01*
X401780241Y-7057681D01*
X401770184Y-7067737D01*
X401674211Y-7220476D01*
X401614631Y-7390745D01*
X401614630Y-7390750D01*
X401594435Y-7569996D01*
X401594435Y-7570003D01*
X401614630Y-7749249D01*
X401614631Y-7749254D01*
X401674211Y-7919523D01*
X401770184Y-8072262D01*
X401780241Y-8082319D01*
X401813726Y-8143642D01*
X401808742Y-8213334D01*
X401780241Y-8257681D01*
X401770184Y-8267737D01*
X401674211Y-8420476D01*
X401614631Y-8590745D01*
X401614630Y-8590750D01*
X401594435Y-8769996D01*
X401594435Y-8770003D01*
X401614630Y-8949249D01*
X401614631Y-8949254D01*
X401674211Y-9119523D01*
X401770184Y-9272262D01*
X401780241Y-9282319D01*
X401813726Y-9343642D01*
X401808742Y-9413334D01*
X401780241Y-9457681D01*
X401770184Y-9467737D01*
X401674211Y-9620476D01*
X401614631Y-9790745D01*
X401614630Y-9790750D01*
X401594435Y-9969996D01*
X401594435Y-9970003D01*
X401614630Y-10149249D01*
X401614631Y-10149254D01*
X401674211Y-10319523D01*
X401770184Y-10472262D01*
X401780241Y-10482319D01*
X401813726Y-10543642D01*
X401808742Y-10613334D01*
X401780241Y-10657681D01*
X401770184Y-10667737D01*
X401674211Y-10820476D01*
X401614631Y-10990745D01*
X401614630Y-10990750D01*
X401594435Y-11169996D01*
X401594435Y-11170003D01*
X401614630Y-11349249D01*
X401614631Y-11349254D01*
X401674211Y-11519523D01*
X401770184Y-11672262D01*
X401897738Y-11799816D01*
X402050478Y-11895789D01*
X402220745Y-11955368D01*
X402220750Y-11955369D01*
X402399996Y-11975565D01*
X402400000Y-11975565D01*
X402400004Y-11975565D01*
X402579249Y-11955369D01*
X402579252Y-11955368D01*
X402579255Y-11955368D01*
X402749522Y-11895789D01*
X402902262Y-11799816D01*
X402912319Y-11789759D01*
X402973642Y-11756274D01*
X403043334Y-11761258D01*
X403087681Y-11789759D01*
X403097738Y-11799816D01*
X403250478Y-11895789D01*
X403420745Y-11955368D01*
X403420750Y-11955369D01*
X403599996Y-11975565D01*
X403600000Y-11975565D01*
X403600004Y-11975565D01*
X403779249Y-11955369D01*
X403779252Y-11955368D01*
X403779255Y-11955368D01*
X403949522Y-11895789D01*
X404102262Y-11799816D01*
X404112319Y-11789759D01*
X404173642Y-11756274D01*
X404243334Y-11761258D01*
X404287681Y-11789759D01*
X404297738Y-11799816D01*
X404450478Y-11895789D01*
X404620745Y-11955368D01*
X404620750Y-11955369D01*
X404799996Y-11975565D01*
X404800000Y-11975565D01*
X404800004Y-11975565D01*
X404979249Y-11955369D01*
X404979252Y-11955368D01*
X404979255Y-11955368D01*
X405149522Y-11895789D01*
X405302262Y-11799816D01*
X405312319Y-11789759D01*
X405373642Y-11756274D01*
X405443334Y-11761258D01*
X405487681Y-11789759D01*
X405497738Y-11799816D01*
X405650478Y-11895789D01*
X405820745Y-11955368D01*
X405820750Y-11955369D01*
X405999996Y-11975565D01*
X406000000Y-11975565D01*
X406000004Y-11975565D01*
X406179249Y-11955369D01*
X406179252Y-11955368D01*
X406179255Y-11955368D01*
X406349522Y-11895789D01*
X406502262Y-11799816D01*
X406512319Y-11789759D01*
X406573642Y-11756274D01*
X406643334Y-11761258D01*
X406687681Y-11789759D01*
X406697738Y-11799816D01*
X406850478Y-11895789D01*
X407020745Y-11955368D01*
X407020750Y-11955369D01*
X407199996Y-11975565D01*
X407200000Y-11975565D01*
X407200004Y-11975565D01*
X407379249Y-11955369D01*
X407379252Y-11955368D01*
X407379255Y-11955368D01*
X407549522Y-11895789D01*
X407702262Y-11799816D01*
X407712319Y-11789759D01*
X407773642Y-11756274D01*
X407843334Y-11761258D01*
X407887681Y-11789759D01*
X407897738Y-11799816D01*
X408050478Y-11895789D01*
X408220745Y-11955368D01*
X408220750Y-11955369D01*
X408399996Y-11975565D01*
X408400000Y-11975565D01*
X408400004Y-11975565D01*
X408579249Y-11955369D01*
X408579252Y-11955368D01*
X408579255Y-11955368D01*
X408749522Y-11895789D01*
X408902262Y-11799816D01*
X408912319Y-11789759D01*
X408973642Y-11756274D01*
X409043334Y-11761258D01*
X409087681Y-11789759D01*
X409097738Y-11799816D01*
X409250478Y-11895789D01*
X409420745Y-11955368D01*
X409420750Y-11955369D01*
X409599996Y-11975565D01*
X409600000Y-11975565D01*
X409600004Y-11975565D01*
X409779249Y-11955369D01*
X409779252Y-11955368D01*
X409779255Y-11955368D01*
X409949522Y-11895789D01*
X410102262Y-11799816D01*
X410229816Y-11672262D01*
X410325789Y-11519522D01*
X410385368Y-11349255D01*
X410405565Y-11170000D01*
X410385368Y-10990745D01*
X410325789Y-10820478D01*
X410229816Y-10667738D01*
X410219759Y-10657681D01*
X410186274Y-10596358D01*
X410191258Y-10526666D01*
X410219759Y-10482319D01*
X410229816Y-10472262D01*
X410325789Y-10319522D01*
X410385368Y-10149255D01*
X410397460Y-10041936D01*
X410405565Y-9970003D01*
X410405565Y-9969996D01*
X410385369Y-9790750D01*
X410385368Y-9790745D01*
X410325788Y-9620476D01*
X410229815Y-9467737D01*
X410219759Y-9457681D01*
X410186274Y-9396358D01*
X410191258Y-9326666D01*
X410219759Y-9282319D01*
X410229816Y-9272262D01*
X410325789Y-9119522D01*
X410385368Y-8949255D01*
X410395223Y-8861789D01*
X410405565Y-8770003D01*
X410405565Y-8769996D01*
X410385369Y-8590750D01*
X410385368Y-8590745D01*
X410325788Y-8420476D01*
X410229815Y-8267737D01*
X410219759Y-8257681D01*
X410186274Y-8196358D01*
X410191258Y-8126666D01*
X410219759Y-8082319D01*
X410229816Y-8072262D01*
X410325789Y-7919522D01*
X410385368Y-7749255D01*
X410385369Y-7749249D01*
X410405565Y-7570003D01*
X410405565Y-7569996D01*
X410385369Y-7390750D01*
X410385368Y-7390745D01*
X410345659Y-7277263D01*
X410325789Y-7220478D01*
X410229816Y-7067738D01*
X410219759Y-7057681D01*
X410186274Y-6996358D01*
X410191258Y-6926666D01*
X410219759Y-6882319D01*
X410229816Y-6872262D01*
X410325789Y-6719522D01*
X410385368Y-6549255D01*
X410394198Y-6470890D01*
X410405565Y-6370003D01*
X410405565Y-6369996D01*
X410385369Y-6190750D01*
X410385368Y-6190745D01*
X410325788Y-6020476D01*
X410312920Y-5999997D01*
X441144751Y-5999997D01*
X441144751Y-6000002D01*
X441163685Y-6168056D01*
X441219545Y-6327694D01*
X441219547Y-6327697D01*
X441309518Y-6470884D01*
X441309523Y-6470890D01*
X441429109Y-6590476D01*
X441429115Y-6590481D01*
X441572302Y-6680452D01*
X441572305Y-6680454D01*
X441572309Y-6680455D01*
X441572310Y-6680456D01*
X441574325Y-6681161D01*
X441731943Y-6736314D01*
X441899997Y-6755249D01*
X441900000Y-6755249D01*
X441900003Y-6755249D01*
X442068056Y-6736314D01*
X442116045Y-6719522D01*
X442227690Y-6680456D01*
X442227692Y-6680454D01*
X442227694Y-6680454D01*
X442227697Y-6680452D01*
X442370884Y-6590481D01*
X442370885Y-6590480D01*
X442370890Y-6590477D01*
X442490477Y-6470890D01*
X442553871Y-6370000D01*
X442580452Y-6327697D01*
X442580454Y-6327694D01*
X442580454Y-6327692D01*
X442580456Y-6327690D01*
X442636313Y-6168059D01*
X442636313Y-6168058D01*
X442636314Y-6168056D01*
X442655249Y-6000002D01*
X442655249Y-5999997D01*
X442636314Y-5831943D01*
X442580454Y-5672305D01*
X442580452Y-5672302D01*
X442490481Y-5529115D01*
X442490476Y-5529109D01*
X442370890Y-5409523D01*
X442370884Y-5409518D01*
X442227697Y-5319547D01*
X442227694Y-5319545D01*
X442068056Y-5263685D01*
X441900003Y-5244751D01*
X441899997Y-5244751D01*
X441731943Y-5263685D01*
X441572305Y-5319545D01*
X441572302Y-5319547D01*
X441429115Y-5409518D01*
X441429109Y-5409523D01*
X441309523Y-5529109D01*
X441309518Y-5529115D01*
X441219547Y-5672302D01*
X441219545Y-5672305D01*
X441163685Y-5831943D01*
X441144751Y-5999997D01*
X410312920Y-5999997D01*
X410229815Y-5867737D01*
X410219759Y-5857681D01*
X410186274Y-5796358D01*
X410191258Y-5726666D01*
X410219759Y-5682319D01*
X410229816Y-5672262D01*
X410325789Y-5519522D01*
X410385368Y-5349255D01*
X410385369Y-5349249D01*
X410405565Y-5170003D01*
X410405565Y-5169996D01*
X410385369Y-4990750D01*
X410385368Y-4990745D01*
X410325788Y-4820476D01*
X410229815Y-4667737D01*
X410102262Y-4540184D01*
X409949523Y-4444211D01*
X409779254Y-4384631D01*
X409779249Y-4384630D01*
X409600004Y-4364435D01*
X409599996Y-4364435D01*
X409420750Y-4384630D01*
X409420745Y-4384631D01*
X409250476Y-4444211D01*
X409097737Y-4540184D01*
X409087681Y-4550241D01*
X409026358Y-4583726D01*
X408956666Y-4578742D01*
X408912319Y-4550241D01*
X408902262Y-4540184D01*
X408749523Y-4444211D01*
X408579254Y-4384631D01*
X408579249Y-4384630D01*
X408400004Y-4364435D01*
X408399996Y-4364435D01*
X408220750Y-4384630D01*
X408220745Y-4384631D01*
X408050476Y-4444211D01*
X407897737Y-4540184D01*
X407887681Y-4550241D01*
X407826358Y-4583726D01*
X407756666Y-4578742D01*
X407712319Y-4550241D01*
X407702262Y-4540184D01*
X407549523Y-4444211D01*
X407379254Y-4384631D01*
X407379249Y-4384630D01*
X407200004Y-4364435D01*
X407199996Y-4364435D01*
X407020750Y-4384630D01*
X407020745Y-4384631D01*
X406850476Y-4444211D01*
X406697737Y-4540184D01*
X406687681Y-4550241D01*
X406626358Y-4583726D01*
X406556666Y-4578742D01*
X406512319Y-4550241D01*
X406502262Y-4540184D01*
X406349523Y-4444211D01*
X406179254Y-4384631D01*
X406179249Y-4384630D01*
X406000004Y-4364435D01*
X405999996Y-4364435D01*
X405820750Y-4384630D01*
X405820745Y-4384631D01*
X405650476Y-4444211D01*
X405497737Y-4540184D01*
X405487681Y-4550241D01*
X405426358Y-4583726D01*
X405356666Y-4578742D01*
X405312319Y-4550241D01*
X405302262Y-4540184D01*
X405149523Y-4444211D01*
X404979254Y-4384631D01*
X404979249Y-4384630D01*
X404800004Y-4364435D01*
X404799996Y-4364435D01*
X404620750Y-4384630D01*
X404620745Y-4384631D01*
X404450476Y-4444211D01*
X404297737Y-4540184D01*
X404287681Y-4550241D01*
X404226358Y-4583726D01*
X404156666Y-4578742D01*
X404112319Y-4550241D01*
X404102262Y-4540184D01*
X403949523Y-4444211D01*
X403779254Y-4384631D01*
X403779249Y-4384630D01*
X403600004Y-4364435D01*
X403599996Y-4364435D01*
X403420750Y-4384630D01*
X403420745Y-4384631D01*
X403250476Y-4444211D01*
X403097737Y-4540184D01*
X403087681Y-4550241D01*
X403026358Y-4583726D01*
X402956666Y-4578742D01*
X402912319Y-4550241D01*
X402902262Y-4540184D01*
X402749523Y-4444211D01*
X402579254Y-4384631D01*
X402579249Y-4384630D01*
X402400004Y-4364435D01*
X402399996Y-4364435D01*
X402220750Y-4384630D01*
X402220745Y-4384631D01*
X402050476Y-4444211D01*
X401897737Y-4540184D01*
X401770184Y-4667737D01*
X401674211Y-4820476D01*
X401614631Y-4990745D01*
X401614630Y-4990750D01*
X401594435Y-5169996D01*
X398405565Y-5169996D01*
X398385369Y-4990750D01*
X398385368Y-4990745D01*
X398325788Y-4820476D01*
X398229815Y-4667737D01*
X398102262Y-4540184D01*
X397949523Y-4444211D01*
X397779254Y-4384631D01*
X397779249Y-4384630D01*
X397600004Y-4364435D01*
X397599996Y-4364435D01*
X397420750Y-4384630D01*
X397420745Y-4384631D01*
X397250476Y-4444211D01*
X397097737Y-4540184D01*
X397087681Y-4550241D01*
X397026358Y-4583726D01*
X396956666Y-4578742D01*
X396912319Y-4550241D01*
X396902262Y-4540184D01*
X396749523Y-4444211D01*
X396579254Y-4384631D01*
X396579249Y-4384630D01*
X396400004Y-4364435D01*
X396399996Y-4364435D01*
X396220750Y-4384630D01*
X396220745Y-4384631D01*
X396050476Y-4444211D01*
X395897737Y-4540184D01*
X395887681Y-4550241D01*
X395826358Y-4583726D01*
X395756666Y-4578742D01*
X395712319Y-4550241D01*
X395702262Y-4540184D01*
X395549523Y-4444211D01*
X395379254Y-4384631D01*
X395379249Y-4384630D01*
X395200004Y-4364435D01*
X395199996Y-4364435D01*
X395020750Y-4384630D01*
X395020745Y-4384631D01*
X394850476Y-4444211D01*
X394697737Y-4540184D01*
X394687681Y-4550241D01*
X394626358Y-4583726D01*
X394556666Y-4578742D01*
X394512319Y-4550241D01*
X394502262Y-4540184D01*
X394349523Y-4444211D01*
X394179254Y-4384631D01*
X394179249Y-4384630D01*
X394000004Y-4364435D01*
X393999996Y-4364435D01*
X393820750Y-4384630D01*
X393820745Y-4384631D01*
X393650476Y-4444211D01*
X393497737Y-4540184D01*
X393487681Y-4550241D01*
X393426358Y-4583726D01*
X393356666Y-4578742D01*
X393312319Y-4550241D01*
X393302262Y-4540184D01*
X393149523Y-4444211D01*
X392979254Y-4384631D01*
X392979249Y-4384630D01*
X392800004Y-4364435D01*
X392799996Y-4364435D01*
X392620750Y-4384630D01*
X392620745Y-4384631D01*
X392450476Y-4444211D01*
X392297737Y-4540184D01*
X392287681Y-4550241D01*
X392226358Y-4583726D01*
X392156666Y-4578742D01*
X392112319Y-4550241D01*
X392102262Y-4540184D01*
X391949523Y-4444211D01*
X391779254Y-4384631D01*
X391779249Y-4384630D01*
X391600004Y-4364435D01*
X391599996Y-4364435D01*
X391420750Y-4384630D01*
X391420745Y-4384631D01*
X391250476Y-4444211D01*
X391097737Y-4540184D01*
X391087681Y-4550241D01*
X391026358Y-4583726D01*
X390956666Y-4578742D01*
X390912319Y-4550241D01*
X390902262Y-4540184D01*
X390749523Y-4444211D01*
X390579254Y-4384631D01*
X390579249Y-4384630D01*
X390400004Y-4364435D01*
X390399996Y-4364435D01*
X390220750Y-4384630D01*
X390220745Y-4384631D01*
X390050476Y-4444211D01*
X389897737Y-4540184D01*
X389770184Y-4667737D01*
X389674211Y-4820476D01*
X389614631Y-4990745D01*
X389614630Y-4990750D01*
X389594435Y-5169996D01*
X386005565Y-5169996D01*
X385985369Y-4990750D01*
X385985368Y-4990745D01*
X385925788Y-4820476D01*
X385829815Y-4667737D01*
X385702262Y-4540184D01*
X385549523Y-4444211D01*
X385379254Y-4384631D01*
X385379249Y-4384630D01*
X385200004Y-4364435D01*
X385199996Y-4364435D01*
X385020750Y-4384630D01*
X385020745Y-4384631D01*
X384850476Y-4444211D01*
X384697737Y-4540184D01*
X384687681Y-4550241D01*
X384626358Y-4583726D01*
X384556666Y-4578742D01*
X384512319Y-4550241D01*
X384502262Y-4540184D01*
X384349523Y-4444211D01*
X384179254Y-4384631D01*
X384179249Y-4384630D01*
X384000004Y-4364435D01*
X383999996Y-4364435D01*
X383820750Y-4384630D01*
X383820745Y-4384631D01*
X383650476Y-4444211D01*
X383497737Y-4540184D01*
X383487681Y-4550241D01*
X383426358Y-4583726D01*
X383356666Y-4578742D01*
X383312319Y-4550241D01*
X383302262Y-4540184D01*
X383149523Y-4444211D01*
X382979254Y-4384631D01*
X382979249Y-4384630D01*
X382800004Y-4364435D01*
X382799996Y-4364435D01*
X382620750Y-4384630D01*
X382620745Y-4384631D01*
X382450476Y-4444211D01*
X382297737Y-4540184D01*
X382287681Y-4550241D01*
X382226358Y-4583726D01*
X382156666Y-4578742D01*
X382112319Y-4550241D01*
X382102262Y-4540184D01*
X381949523Y-4444211D01*
X381779254Y-4384631D01*
X381779249Y-4384630D01*
X381600004Y-4364435D01*
X381599996Y-4364435D01*
X381420750Y-4384630D01*
X381420745Y-4384631D01*
X381250476Y-4444211D01*
X381097737Y-4540184D01*
X381087681Y-4550241D01*
X381026358Y-4583726D01*
X380956666Y-4578742D01*
X380912319Y-4550241D01*
X380902262Y-4540184D01*
X380749523Y-4444211D01*
X380579254Y-4384631D01*
X380579249Y-4384630D01*
X380400004Y-4364435D01*
X380399996Y-4364435D01*
X380220750Y-4384630D01*
X380220745Y-4384631D01*
X380050476Y-4444211D01*
X379897737Y-4540184D01*
X379887681Y-4550241D01*
X379826358Y-4583726D01*
X379756666Y-4578742D01*
X379712319Y-4550241D01*
X379702262Y-4540184D01*
X379549523Y-4444211D01*
X379379254Y-4384631D01*
X379379249Y-4384630D01*
X379200004Y-4364435D01*
X379199996Y-4364435D01*
X379020750Y-4384630D01*
X379020745Y-4384631D01*
X378850476Y-4444211D01*
X378697737Y-4540184D01*
X378687681Y-4550241D01*
X378626358Y-4583726D01*
X378556666Y-4578742D01*
X378512319Y-4550241D01*
X378502262Y-4540184D01*
X378349523Y-4444211D01*
X378179254Y-4384631D01*
X378179249Y-4384630D01*
X378000004Y-4364435D01*
X377999996Y-4364435D01*
X377820750Y-4384630D01*
X377820745Y-4384631D01*
X377650476Y-4444211D01*
X377497737Y-4540184D01*
X377370184Y-4667737D01*
X377274211Y-4820476D01*
X377214631Y-4990745D01*
X377214630Y-4990750D01*
X377194435Y-5169996D01*
X321800500Y-5169996D01*
X321800500Y-3899997D01*
X331244751Y-3899997D01*
X331244751Y-3900002D01*
X331263685Y-4068056D01*
X331319545Y-4227694D01*
X331319547Y-4227697D01*
X331409518Y-4370884D01*
X331409523Y-4370890D01*
X331529109Y-4490476D01*
X331529115Y-4490481D01*
X331672302Y-4580452D01*
X331672305Y-4580454D01*
X331672309Y-4580455D01*
X331672310Y-4580456D01*
X331744913Y-4605860D01*
X331831943Y-4636314D01*
X331999997Y-4655249D01*
X332000000Y-4655249D01*
X332000003Y-4655249D01*
X332168056Y-4636314D01*
X332168059Y-4636313D01*
X332327690Y-4580456D01*
X332327692Y-4580454D01*
X332327694Y-4580454D01*
X332327697Y-4580452D01*
X332470884Y-4490481D01*
X332470885Y-4490480D01*
X332470890Y-4490477D01*
X332590477Y-4370890D01*
X332680452Y-4227697D01*
X332680454Y-4227694D01*
X332680454Y-4227692D01*
X332680456Y-4227690D01*
X332736313Y-4068059D01*
X332736313Y-4068058D01*
X332736314Y-4068056D01*
X332755249Y-3900002D01*
X332755249Y-3899997D01*
X332736314Y-3731943D01*
X332680454Y-3572305D01*
X332680452Y-3572302D01*
X332590481Y-3429115D01*
X332590476Y-3429109D01*
X332470890Y-3309523D01*
X332470884Y-3309518D01*
X332327697Y-3219547D01*
X332327694Y-3219545D01*
X332168056Y-3163685D01*
X332000003Y-3144751D01*
X331999997Y-3144751D01*
X331831943Y-3163685D01*
X331672305Y-3219545D01*
X331672302Y-3219547D01*
X331529115Y-3309518D01*
X331529109Y-3309523D01*
X331409523Y-3429109D01*
X331409518Y-3429115D01*
X331319547Y-3572302D01*
X331319545Y-3572305D01*
X331263685Y-3731943D01*
X331244751Y-3899997D01*
X321800500Y-3899997D01*
X321800500Y-2399997D01*
X431944751Y-2399997D01*
X431944751Y-2400002D01*
X431963685Y-2568056D01*
X432019545Y-2727694D01*
X432019547Y-2727697D01*
X432109518Y-2870884D01*
X432109523Y-2870890D01*
X432229109Y-2990476D01*
X432229115Y-2990481D01*
X432372302Y-3080452D01*
X432372305Y-3080454D01*
X432372309Y-3080455D01*
X432372310Y-3080456D01*
X432444913Y-3105860D01*
X432531943Y-3136314D01*
X432699997Y-3155249D01*
X432700000Y-3155249D01*
X432700003Y-3155249D01*
X432868056Y-3136314D01*
X432868059Y-3136313D01*
X433027690Y-3080456D01*
X433027692Y-3080454D01*
X433027694Y-3080454D01*
X433027697Y-3080452D01*
X433170884Y-2990481D01*
X433170885Y-2990480D01*
X433170890Y-2990477D01*
X433290477Y-2870890D01*
X433380452Y-2727697D01*
X433380454Y-2727694D01*
X433380454Y-2727692D01*
X433380456Y-2727690D01*
X433436313Y-2568059D01*
X433436313Y-2568058D01*
X433436314Y-2568056D01*
X433455249Y-2400002D01*
X433455249Y-2399997D01*
X433436314Y-2231943D01*
X433380454Y-2072305D01*
X433380452Y-2072302D01*
X433290481Y-1929115D01*
X433290476Y-1929109D01*
X433170890Y-1809523D01*
X433170884Y-1809518D01*
X433027697Y-1719547D01*
X433027694Y-1719545D01*
X432868056Y-1663685D01*
X432700003Y-1644751D01*
X432699997Y-1644751D01*
X432531943Y-1663685D01*
X432372305Y-1719545D01*
X432372302Y-1719547D01*
X432229115Y-1809518D01*
X432229109Y-1809523D01*
X432109523Y-1929109D01*
X432109518Y-1929115D01*
X432019547Y-2072302D01*
X432019545Y-2072305D01*
X431963685Y-2231943D01*
X431944751Y-2399997D01*
X321800500Y-2399997D01*
X321800500Y21288D01*
X338474500Y21288D01*
X338474500Y-221288D01*
X338506161Y-461785D01*
X338568947Y-696104D01*
X338661773Y-920205D01*
X338661776Y-920212D01*
X338783064Y-1130289D01*
X338783066Y-1130292D01*
X338783067Y-1130293D01*
X338930733Y-1322736D01*
X338930739Y-1322743D01*
X339102256Y-1494260D01*
X339102262Y-1494265D01*
X339294711Y-1641936D01*
X339504788Y-1763224D01*
X339728900Y-1856054D01*
X339963211Y-1918838D01*
X340143586Y-1942584D01*
X340203711Y-1950500D01*
X340203712Y-1950500D01*
X341046289Y-1950500D01*
X341094388Y-1944167D01*
X341286789Y-1918838D01*
X341521100Y-1856054D01*
X341745212Y-1763224D01*
X341955289Y-1641936D01*
X342147738Y-1494265D01*
X342319265Y-1322738D01*
X342466936Y-1130289D01*
X342588224Y-920212D01*
X342681054Y-696100D01*
X342743838Y-461789D01*
X342775500Y-221288D01*
X342775500Y21288D01*
X343974500Y21288D01*
X343974500Y-221288D01*
X344006161Y-461785D01*
X344068947Y-696104D01*
X344161773Y-920205D01*
X344161776Y-920212D01*
X344283064Y-1130289D01*
X344283066Y-1130292D01*
X344283067Y-1130293D01*
X344430733Y-1322736D01*
X344430739Y-1322743D01*
X344602256Y-1494260D01*
X344602262Y-1494265D01*
X344794711Y-1641936D01*
X345004788Y-1763224D01*
X345228900Y-1856054D01*
X345463211Y-1918838D01*
X345643586Y-1942584D01*
X345703711Y-1950500D01*
X345703712Y-1950500D01*
X346546289Y-1950500D01*
X346594388Y-1944167D01*
X346786789Y-1918838D01*
X347021100Y-1856054D01*
X347245212Y-1763224D01*
X347455289Y-1641936D01*
X347647738Y-1494265D01*
X347819265Y-1322738D01*
X347966936Y-1130289D01*
X348088224Y-920212D01*
X348181054Y-696100D01*
X348243838Y-461789D01*
X348275500Y-221288D01*
X348275500Y21288D01*
X348243838Y261789D01*
X348181054Y496100D01*
X348088224Y720212D01*
X347966936Y930289D01*
X347836711Y1100002D01*
X441644751Y1100002D01*
X441644751Y1099997D01*
X441663685Y931943D01*
X441719545Y772305D01*
X441719547Y772302D01*
X441809518Y629115D01*
X441809523Y629109D01*
X441929109Y509523D01*
X441929115Y509518D01*
X442072302Y419547D01*
X442072305Y419545D01*
X442231943Y363685D01*
X442399997Y344751D01*
X442400000Y344751D01*
X442400003Y344751D01*
X442568056Y363685D01*
X442727694Y419545D01*
X442727697Y419547D01*
X442870884Y509518D01*
X442870890Y509523D01*
X442990476Y629109D01*
X442990481Y629115D01*
X443080452Y772302D01*
X443080454Y772305D01*
X443136314Y931943D01*
X443155249Y1099997D01*
X443155249Y1100002D01*
X443136314Y1268056D01*
X443127143Y1294266D01*
X443080456Y1427690D01*
X443080454Y1427692D01*
X443080454Y1427694D01*
X443080452Y1427697D01*
X442990481Y1570884D01*
X442990480Y1570885D01*
X442990477Y1570890D01*
X442870890Y1690477D01*
X442825754Y1718838D01*
X442727697Y1780452D01*
X442727694Y1780454D01*
X442727692Y1780454D01*
X442727690Y1780456D01*
X442568059Y1836313D01*
X442568058Y1836313D01*
X442568056Y1836314D01*
X442400003Y1855249D01*
X442399997Y1855249D01*
X442231943Y1836314D01*
X442144913Y1805860D01*
X442072310Y1780456D01*
X442072309Y1780455D01*
X442072305Y1780454D01*
X442072302Y1780452D01*
X441929115Y1690481D01*
X441929109Y1690476D01*
X441809523Y1570890D01*
X441809518Y1570884D01*
X441719547Y1427697D01*
X441719545Y1427694D01*
X441663685Y1268056D01*
X441644751Y1100002D01*
X347836711Y1100002D01*
X347819265Y1122738D01*
X347647738Y1294265D01*
X347455289Y1441936D01*
X347245212Y1563224D01*
X347021100Y1656054D01*
X346786789Y1718838D01*
X346594388Y1744167D01*
X346546289Y1750500D01*
X346546288Y1750500D01*
X345703712Y1750500D01*
X345703711Y1750500D01*
X345643586Y1742584D01*
X345463211Y1718838D01*
X345228900Y1656054D01*
X345004788Y1563224D01*
X344794711Y1441936D01*
X344776145Y1427690D01*
X344602263Y1294266D01*
X344602256Y1294260D01*
X344430739Y1122743D01*
X344430733Y1122736D01*
X344413285Y1099997D01*
X344283064Y930289D01*
X344191855Y772310D01*
X344161777Y720214D01*
X344161773Y720205D01*
X344068947Y496104D01*
X344006161Y261785D01*
X343974500Y21288D01*
X342775500Y21288D01*
X342743838Y261789D01*
X342681054Y496100D01*
X342588224Y720212D01*
X342466936Y930289D01*
X342319265Y1122738D01*
X342147738Y1294265D01*
X341955289Y1441936D01*
X341745212Y1563224D01*
X341521100Y1656054D01*
X341286789Y1718838D01*
X341094388Y1744167D01*
X341046289Y1750500D01*
X341046288Y1750500D01*
X340203712Y1750500D01*
X340203711Y1750500D01*
X340143586Y1742584D01*
X339963211Y1718838D01*
X339728900Y1656054D01*
X339504788Y1563224D01*
X339294711Y1441936D01*
X339276145Y1427690D01*
X339102263Y1294266D01*
X339102256Y1294260D01*
X338930739Y1122743D01*
X338930733Y1122736D01*
X338913285Y1099997D01*
X338783064Y930289D01*
X338691855Y772310D01*
X338661777Y720214D01*
X338661773Y720205D01*
X338568947Y496104D01*
X338506161Y261785D01*
X338474500Y21288D01*
X321800500Y21288D01*
X321800500Y7000003D01*
X388994661Y7000003D01*
X388994661Y6999996D01*
X389014005Y6569262D01*
X389014006Y6569253D01*
X389071885Y6141972D01*
X389167830Y5721608D01*
X389301073Y5311527D01*
X389301076Y5311519D01*
X389470533Y4915052D01*
X389470537Y4915044D01*
X389674867Y4535338D01*
X389674867Y4535337D01*
X389912394Y4175498D01*
X389912404Y4175485D01*
X390181225Y3838392D01*
X390181237Y3838379D01*
X390479205Y3526730D01*
X390479210Y3526726D01*
X390803914Y3243039D01*
X390803931Y3243026D01*
X391152743Y2989599D01*
X391522904Y2768437D01*
X391522906Y2768436D01*
X391911372Y2581360D01*
X391911386Y2581354D01*
X392315055Y2429855D01*
X392315080Y2429847D01*
X392730704Y2315142D01*
X393154956Y2238151D01*
X393154960Y2238150D01*
X393154964Y2238150D01*
X393584409Y2199500D01*
X393584412Y2199500D01*
X394015587Y2199500D01*
X394015591Y2199500D01*
X394445036Y2238150D01*
X394445040Y2238150D01*
X394445043Y2238151D01*
X394869295Y2315142D01*
X395284919Y2429847D01*
X395284944Y2429855D01*
X395688613Y2581354D01*
X395688627Y2581360D01*
X396077093Y2768436D01*
X396077095Y2768437D01*
X396084454Y2772834D01*
X396447247Y2989593D01*
X396447251Y2989596D01*
X396447256Y2989599D01*
X396796068Y3243026D01*
X396796085Y3243039D01*
X396892387Y3327176D01*
X397120790Y3526726D01*
X397418764Y3838381D01*
X397418764Y3838382D01*
X397418774Y3838392D01*
X397687595Y4175485D01*
X397687605Y4175498D01*
X397925132Y4535337D01*
X397925132Y4535338D01*
X397925137Y4535345D01*
X398067555Y4800002D01*
X447444751Y4800002D01*
X447444751Y4799997D01*
X447463685Y4631943D01*
X447519545Y4472305D01*
X447519547Y4472302D01*
X447609518Y4329115D01*
X447609523Y4329109D01*
X447729109Y4209523D01*
X447729115Y4209518D01*
X447872302Y4119547D01*
X447872305Y4119545D01*
X448031943Y4063685D01*
X448199997Y4044751D01*
X448200000Y4044751D01*
X448200003Y4044751D01*
X448368056Y4063685D01*
X448527694Y4119545D01*
X448527697Y4119547D01*
X448670884Y4209518D01*
X448670890Y4209523D01*
X448790476Y4329109D01*
X448790481Y4329115D01*
X448880452Y4472302D01*
X448880454Y4472305D01*
X448936314Y4631943D01*
X448955249Y4799997D01*
X448955249Y4800002D01*
X450544751Y4800002D01*
X450544751Y4799997D01*
X450563685Y4631943D01*
X450619545Y4472305D01*
X450619547Y4472302D01*
X450709518Y4329115D01*
X450709523Y4329109D01*
X450829109Y4209523D01*
X450829115Y4209518D01*
X450972302Y4119547D01*
X450972305Y4119545D01*
X451131943Y4063685D01*
X451299997Y4044751D01*
X451300000Y4044751D01*
X451300003Y4044751D01*
X451468056Y4063685D01*
X451627694Y4119545D01*
X451627697Y4119547D01*
X451770884Y4209518D01*
X451770890Y4209523D01*
X451890476Y4329109D01*
X451890481Y4329115D01*
X451980452Y4472302D01*
X451980454Y4472305D01*
X452036314Y4631943D01*
X452055249Y4799997D01*
X452055249Y4800002D01*
X452036314Y4968056D01*
X452036313Y4968059D01*
X451980456Y5127690D01*
X451980454Y5127692D01*
X451980454Y5127694D01*
X451980452Y5127697D01*
X451890481Y5270884D01*
X451890480Y5270885D01*
X451890477Y5270890D01*
X451770890Y5390477D01*
X451770884Y5390481D01*
X451627697Y5480452D01*
X451627694Y5480454D01*
X451627692Y5480454D01*
X451627690Y5480456D01*
X451468059Y5536313D01*
X451468058Y5536313D01*
X451468056Y5536314D01*
X451300003Y5555249D01*
X451299997Y5555249D01*
X451131943Y5536314D01*
X451044913Y5505860D01*
X450972310Y5480456D01*
X450972309Y5480455D01*
X450972305Y5480454D01*
X450972302Y5480452D01*
X450829115Y5390481D01*
X450829109Y5390476D01*
X450709523Y5270890D01*
X450709518Y5270884D01*
X450619547Y5127697D01*
X450619545Y5127694D01*
X450563685Y4968056D01*
X450544751Y4800002D01*
X448955249Y4800002D01*
X448936314Y4968056D01*
X448936313Y4968059D01*
X448880456Y5127690D01*
X448880454Y5127692D01*
X448880454Y5127694D01*
X448880452Y5127697D01*
X448790481Y5270884D01*
X448790480Y5270885D01*
X448790477Y5270890D01*
X448670890Y5390477D01*
X448670884Y5390481D01*
X448527697Y5480452D01*
X448527694Y5480454D01*
X448527692Y5480454D01*
X448527690Y5480456D01*
X448368059Y5536313D01*
X448368058Y5536313D01*
X448368056Y5536314D01*
X448200003Y5555249D01*
X448199997Y5555249D01*
X448031943Y5536314D01*
X447944913Y5505860D01*
X447872310Y5480456D01*
X447872309Y5480455D01*
X447872305Y5480454D01*
X447872302Y5480452D01*
X447729115Y5390481D01*
X447729109Y5390476D01*
X447609523Y5270890D01*
X447609518Y5270884D01*
X447519547Y5127697D01*
X447519545Y5127694D01*
X447463685Y4968056D01*
X447444751Y4800002D01*
X398067555Y4800002D01*
X398129461Y4915042D01*
X398129462Y4915044D01*
X398129466Y4915052D01*
X398281555Y5270884D01*
X398298926Y5311525D01*
X398432168Y5721603D01*
X398528115Y6141974D01*
X398585994Y6569253D01*
X398587375Y6600002D01*
X442699751Y6600002D01*
X442699751Y6599997D01*
X442718685Y6431943D01*
X442774545Y6272305D01*
X442774547Y6272302D01*
X442864518Y6129115D01*
X442864523Y6129109D01*
X442984109Y6009523D01*
X442984115Y6009518D01*
X443127302Y5919547D01*
X443127305Y5919545D01*
X443286943Y5863685D01*
X443454997Y5844751D01*
X443455000Y5844751D01*
X443455003Y5844751D01*
X443623056Y5863685D01*
X443782694Y5919545D01*
X443782697Y5919547D01*
X443925884Y6009518D01*
X443925890Y6009523D01*
X444045476Y6129109D01*
X444045481Y6129115D01*
X444135452Y6272302D01*
X444135454Y6272305D01*
X444191314Y6431943D01*
X444210249Y6599997D01*
X444210249Y6600002D01*
X444191314Y6768056D01*
X444191313Y6768059D01*
X444135456Y6927690D01*
X444135454Y6927692D01*
X444135454Y6927694D01*
X444135452Y6927697D01*
X444045481Y7070884D01*
X444045480Y7070885D01*
X444045477Y7070890D01*
X443925890Y7190477D01*
X443895579Y7209523D01*
X443782697Y7280452D01*
X443782694Y7280454D01*
X443782692Y7280454D01*
X443782690Y7280456D01*
X443623059Y7336313D01*
X443623058Y7336313D01*
X443623056Y7336314D01*
X443455003Y7355249D01*
X443454997Y7355249D01*
X443286943Y7336314D01*
X443199913Y7305860D01*
X443127310Y7280456D01*
X443127309Y7280455D01*
X443127305Y7280454D01*
X443127302Y7280452D01*
X442984115Y7190481D01*
X442984109Y7190476D01*
X442864523Y7070890D01*
X442864518Y7070884D01*
X442774547Y6927697D01*
X442774545Y6927694D01*
X442718685Y6768056D01*
X442699751Y6600002D01*
X398587375Y6600002D01*
X398605339Y7000000D01*
X398585994Y7430747D01*
X398535975Y7800002D01*
X444444751Y7800002D01*
X444444751Y7799997D01*
X444463685Y7631943D01*
X444519545Y7472305D01*
X444519547Y7472302D01*
X444609518Y7329115D01*
X444609523Y7329109D01*
X444729109Y7209523D01*
X444729115Y7209518D01*
X444872302Y7119547D01*
X444872305Y7119545D01*
X445031943Y7063685D01*
X445199997Y7044751D01*
X445200000Y7044751D01*
X445200003Y7044751D01*
X445368056Y7063685D01*
X445527694Y7119545D01*
X445527697Y7119547D01*
X445670884Y7209518D01*
X445670890Y7209523D01*
X445790476Y7329109D01*
X445790481Y7329115D01*
X445880452Y7472302D01*
X445880454Y7472305D01*
X445936314Y7631943D01*
X445955249Y7799997D01*
X445955249Y7800002D01*
X445936314Y7968056D01*
X445893145Y8091426D01*
X445889584Y8161205D01*
X445924313Y8221833D01*
X445986306Y8254060D01*
X445996303Y8255601D01*
X446068055Y8263685D01*
X446227694Y8319545D01*
X446227697Y8319547D01*
X446370884Y8409518D01*
X446370890Y8409523D01*
X446490476Y8529109D01*
X446490481Y8529115D01*
X446580452Y8672302D01*
X446580454Y8672305D01*
X446593145Y8708572D01*
X446636313Y8831941D01*
X446636314Y8831943D01*
X446655249Y8999997D01*
X446655249Y9000002D01*
X446636314Y9168056D01*
X446636313Y9168059D01*
X446580456Y9327690D01*
X446580454Y9327692D01*
X446580454Y9327694D01*
X446580452Y9327697D01*
X446490481Y9470884D01*
X446490480Y9470885D01*
X446490477Y9470890D01*
X446370890Y9590477D01*
X446370884Y9590481D01*
X446227697Y9680452D01*
X446227694Y9680454D01*
X446227692Y9680454D01*
X446227690Y9680456D01*
X446068059Y9736313D01*
X446068058Y9736313D01*
X446068056Y9736314D01*
X445900003Y9755249D01*
X445899997Y9755249D01*
X445731943Y9736314D01*
X445644913Y9705860D01*
X445572310Y9680456D01*
X445572309Y9680455D01*
X445572305Y9680454D01*
X445572302Y9680452D01*
X445429115Y9590481D01*
X445429109Y9590476D01*
X445309523Y9470890D01*
X445309518Y9470884D01*
X445219547Y9327697D01*
X445219545Y9327694D01*
X445163685Y9168056D01*
X445144751Y9000002D01*
X445144751Y8999997D01*
X445163686Y8831942D01*
X445206855Y8708572D01*
X445210416Y8638794D01*
X445175687Y8578166D01*
X445113694Y8545939D01*
X445103696Y8544398D01*
X445031944Y8536314D01*
X445031941Y8536313D01*
X444872310Y8480456D01*
X444872309Y8480455D01*
X444872305Y8480454D01*
X444872302Y8480452D01*
X444729115Y8390481D01*
X444729109Y8390476D01*
X444609523Y8270890D01*
X444609518Y8270884D01*
X444519547Y8127697D01*
X444519545Y8127694D01*
X444463685Y7968056D01*
X444444751Y7800002D01*
X398535975Y7800002D01*
X398528115Y7858026D01*
X398432168Y8278397D01*
X398298926Y8688475D01*
X398129461Y9084958D01*
X397925137Y9464655D01*
X397687601Y9824507D01*
X397418764Y10161619D01*
X397120790Y10473274D01*
X396796080Y10756965D01*
X396447247Y11010407D01*
X396077100Y11231560D01*
X395688619Y11418643D01*
X395284931Y11570149D01*
X394869289Y11684859D01*
X394445036Y11761850D01*
X394015591Y11800500D01*
X393584409Y11800500D01*
X393154964Y11761850D01*
X392730711Y11684859D01*
X392315069Y11570149D01*
X392315059Y11570145D01*
X392315055Y11570144D01*
X391911386Y11418645D01*
X391911372Y11418639D01*
X391522906Y11231563D01*
X391522900Y11231560D01*
X391152753Y11010407D01*
X390803920Y10756965D01*
X390479210Y10473274D01*
X390479205Y10473269D01*
X390181237Y10161620D01*
X390181225Y10161607D01*
X389912404Y9824514D01*
X389912394Y9824501D01*
X389674867Y9464662D01*
X389674867Y9464661D01*
X389674863Y9464655D01*
X389601163Y9327697D01*
X389470537Y9084955D01*
X389470533Y9084947D01*
X389301076Y8688480D01*
X389301073Y8688472D01*
X389167830Y8278391D01*
X389071885Y7858027D01*
X389071885Y7858026D01*
X389019636Y7472305D01*
X389014006Y7430746D01*
X389014005Y7430737D01*
X388994661Y7000003D01*
X321800500Y7000003D01*
X321800500Y17907501D01*
X324444532Y17907501D01*
X324444532Y17907498D01*
X324464364Y17680813D01*
X324464366Y17680802D01*
X324523258Y17461011D01*
X324523261Y17461002D01*
X324619431Y17254767D01*
X324619432Y17254765D01*
X324749954Y17068358D01*
X324910858Y16907454D01*
X325097264Y16776933D01*
X325097265Y16776932D01*
X325097266Y16776932D01*
X325112387Y16769880D01*
X325164825Y16723709D01*
X325183976Y16656515D01*
X325163760Y16589634D01*
X325112387Y16545119D01*
X325097266Y16538068D01*
X324937640Y16426298D01*
X324910858Y16407545D01*
X324749954Y16246641D01*
X324619432Y16060234D01*
X324619431Y16060232D01*
X324523261Y15853997D01*
X324523258Y15853988D01*
X324464366Y15634197D01*
X324464364Y15634186D01*
X324444532Y15407501D01*
X324444532Y15407498D01*
X324464364Y15180813D01*
X324464366Y15180802D01*
X324523258Y14961011D01*
X324523261Y14961002D01*
X324619431Y14754767D01*
X324619432Y14754765D01*
X324749954Y14568358D01*
X324910858Y14407454D01*
X325097264Y14276933D01*
X325097265Y14276932D01*
X325097266Y14276932D01*
X325112387Y14269880D01*
X325164825Y14223709D01*
X325183976Y14156515D01*
X325163760Y14089634D01*
X325112387Y14045119D01*
X325097266Y14038068D01*
X324937640Y13926298D01*
X324910858Y13907545D01*
X324749954Y13746641D01*
X324619432Y13560234D01*
X324619431Y13560232D01*
X324523261Y13353997D01*
X324523258Y13353988D01*
X324464366Y13134197D01*
X324464364Y13134186D01*
X324444532Y12907501D01*
X324444532Y12907498D01*
X324464364Y12680813D01*
X324464366Y12680802D01*
X324523258Y12461011D01*
X324523261Y12461002D01*
X324619431Y12254767D01*
X324619432Y12254765D01*
X324749954Y12068358D01*
X324910858Y11907454D01*
X325097265Y11776932D01*
X325097267Y11776931D01*
X325303502Y11680761D01*
X325303511Y11680758D01*
X325523302Y11621866D01*
X325523313Y11621864D01*
X325749998Y11602032D01*
X325750000Y11602032D01*
X325750002Y11602032D01*
X325976686Y11621864D01*
X325976697Y11621866D01*
X326196488Y11680758D01*
X326196497Y11680761D01*
X326402732Y11776931D01*
X326402734Y11776932D01*
X326589141Y11907454D01*
X326750045Y12068358D01*
X326880567Y12254765D01*
X326880568Y12254766D01*
X326976739Y12461004D01*
X327035635Y12680808D01*
X327055468Y12907500D01*
X327035635Y13134192D01*
X326976739Y13353996D01*
X326880568Y13560234D01*
X326750047Y13746639D01*
X326589139Y13907547D01*
X326402734Y14038068D01*
X326387614Y14045118D01*
X326335176Y14091289D01*
X326316023Y14158482D01*
X326336238Y14225364D01*
X326387615Y14269882D01*
X326402734Y14276932D01*
X326589141Y14407454D01*
X326750045Y14568358D01*
X326782839Y14615193D01*
X326880568Y14754766D01*
X326976739Y14961004D01*
X327035635Y15180808D01*
X327055468Y15407500D01*
X327055468Y15407501D01*
X327644532Y15407501D01*
X327644532Y15407498D01*
X327664364Y15180813D01*
X327664366Y15180802D01*
X327723258Y14961011D01*
X327723261Y14961002D01*
X327819431Y14754767D01*
X327819432Y14754765D01*
X327949954Y14568358D01*
X328110858Y14407454D01*
X328297264Y14276933D01*
X328297265Y14276932D01*
X328297266Y14276932D01*
X328312387Y14269880D01*
X328364825Y14223709D01*
X328383976Y14156515D01*
X328363760Y14089634D01*
X328312387Y14045119D01*
X328297266Y14038068D01*
X328137640Y13926298D01*
X328110858Y13907545D01*
X327949954Y13746641D01*
X327819432Y13560234D01*
X327819431Y13560232D01*
X327723261Y13353997D01*
X327723258Y13353988D01*
X327664366Y13134197D01*
X327664364Y13134186D01*
X327644532Y12907501D01*
X327644532Y12907498D01*
X327664364Y12680813D01*
X327664366Y12680802D01*
X327723258Y12461011D01*
X327723261Y12461002D01*
X327819431Y12254767D01*
X327819432Y12254765D01*
X327949954Y12068358D01*
X328110858Y11907454D01*
X328297265Y11776932D01*
X328297267Y11776931D01*
X328503502Y11680761D01*
X328503511Y11680758D01*
X328723302Y11621866D01*
X328723313Y11621864D01*
X328949998Y11602032D01*
X328950000Y11602032D01*
X328950002Y11602032D01*
X329176686Y11621864D01*
X329176697Y11621866D01*
X329396488Y11680758D01*
X329396497Y11680761D01*
X329602732Y11776931D01*
X329602734Y11776932D01*
X329789141Y11907454D01*
X329950045Y12068358D01*
X330080567Y12254765D01*
X330080568Y12254766D01*
X330176739Y12461004D01*
X330235635Y12680808D01*
X330255468Y12907500D01*
X330235635Y13134192D01*
X330176739Y13353996D01*
X330080568Y13560234D01*
X329950047Y13746639D01*
X329789139Y13907547D01*
X329602734Y14038068D01*
X329587614Y14045118D01*
X329535176Y14091289D01*
X329516023Y14158482D01*
X329536238Y14225364D01*
X329587615Y14269882D01*
X329602734Y14276932D01*
X329789141Y14407454D01*
X329950045Y14568358D01*
X329982839Y14615193D01*
X330080568Y14754766D01*
X330176739Y14961004D01*
X330235635Y15180808D01*
X330255468Y15407500D01*
X330235635Y15634192D01*
X330176739Y15853996D01*
X330080568Y16060234D01*
X329950047Y16246639D01*
X329789139Y16407547D01*
X329602734Y16538068D01*
X329396496Y16634239D01*
X329176692Y16693135D01*
X329006673Y16708009D01*
X328950002Y16712968D01*
X328949998Y16712968D01*
X328885230Y16707301D01*
X328723308Y16693135D01*
X328503504Y16634239D01*
X328297266Y16538068D01*
X328157693Y16440339D01*
X328110858Y16407545D01*
X327949954Y16246641D01*
X327819432Y16060234D01*
X327819431Y16060232D01*
X327723261Y15853997D01*
X327723258Y15853988D01*
X327664366Y15634197D01*
X327664364Y15634186D01*
X327644532Y15407501D01*
X327055468Y15407501D01*
X327035635Y15634192D01*
X326976739Y15853996D01*
X326880568Y16060234D01*
X326750047Y16246639D01*
X326589139Y16407547D01*
X326402734Y16538068D01*
X326387614Y16545118D01*
X326335176Y16591289D01*
X326316023Y16658482D01*
X326336238Y16725364D01*
X326387615Y16769882D01*
X326402734Y16776932D01*
X326589141Y16907454D01*
X326750045Y17068358D01*
X326880567Y17254765D01*
X326880568Y17254766D01*
X326976739Y17461004D01*
X327035635Y17680808D01*
X327054174Y17892713D01*
X327055468Y17907498D01*
X327055468Y17907501D01*
X332344532Y17907501D01*
X332344532Y17907498D01*
X332364364Y17680813D01*
X332364366Y17680802D01*
X332423258Y17461011D01*
X332423261Y17461002D01*
X332519431Y17254767D01*
X332519432Y17254765D01*
X332649954Y17068358D01*
X332810858Y16907454D01*
X332997264Y16776933D01*
X332997265Y16776932D01*
X332997266Y16776932D01*
X333012387Y16769880D01*
X333064825Y16723709D01*
X333083976Y16656515D01*
X333063760Y16589634D01*
X333012387Y16545119D01*
X332997266Y16538068D01*
X332837640Y16426298D01*
X332810858Y16407545D01*
X332649954Y16246641D01*
X332519432Y16060234D01*
X332519431Y16060232D01*
X332423261Y15853997D01*
X332423258Y15853988D01*
X332364366Y15634197D01*
X332364364Y15634186D01*
X332344532Y15407501D01*
X332344532Y15407498D01*
X332364364Y15180813D01*
X332364366Y15180802D01*
X332423258Y14961011D01*
X332423261Y14961002D01*
X332519431Y14754767D01*
X332519432Y14754765D01*
X332649954Y14568358D01*
X332810858Y14407454D01*
X332997264Y14276933D01*
X332997265Y14276932D01*
X332997266Y14276932D01*
X333012387Y14269880D01*
X333064825Y14223709D01*
X333083976Y14156515D01*
X333063760Y14089634D01*
X333012387Y14045119D01*
X332997266Y14038068D01*
X332837640Y13926298D01*
X332810858Y13907545D01*
X332649954Y13746641D01*
X332519432Y13560234D01*
X332519431Y13560232D01*
X332423261Y13353997D01*
X332423258Y13353988D01*
X332364366Y13134197D01*
X332364364Y13134186D01*
X332344532Y12907501D01*
X332344532Y12907498D01*
X332364364Y12680813D01*
X332364366Y12680802D01*
X332423258Y12461011D01*
X332423261Y12461002D01*
X332519431Y12254767D01*
X332519432Y12254765D01*
X332649954Y12068358D01*
X332810858Y11907454D01*
X332997265Y11776932D01*
X332997267Y11776931D01*
X333203502Y11680761D01*
X333203511Y11680758D01*
X333423302Y11621866D01*
X333423313Y11621864D01*
X333649998Y11602032D01*
X333650000Y11602032D01*
X333650002Y11602032D01*
X333876686Y11621864D01*
X333876697Y11621866D01*
X334096488Y11680758D01*
X334096497Y11680761D01*
X334302732Y11776931D01*
X334302734Y11776932D01*
X334489141Y11907454D01*
X334650045Y12068358D01*
X334780567Y12254765D01*
X334780568Y12254766D01*
X334876739Y12461004D01*
X334935635Y12680808D01*
X334955468Y12907500D01*
X334935635Y13134192D01*
X334876739Y13353996D01*
X334780568Y13560234D01*
X334650047Y13746639D01*
X334489139Y13907547D01*
X334302734Y14038068D01*
X334287614Y14045118D01*
X334235176Y14091289D01*
X334216023Y14158482D01*
X334236238Y14225364D01*
X334287615Y14269882D01*
X334302734Y14276932D01*
X334489141Y14407454D01*
X334650045Y14568358D01*
X334682839Y14615193D01*
X334780568Y14754766D01*
X334876739Y14961004D01*
X334935635Y15180808D01*
X334955468Y15407500D01*
X334955468Y15407501D01*
X335544532Y15407501D01*
X335544532Y15407498D01*
X335564364Y15180813D01*
X335564366Y15180802D01*
X335623258Y14961011D01*
X335623261Y14961002D01*
X335719431Y14754767D01*
X335719432Y14754765D01*
X335849954Y14568358D01*
X336010858Y14407454D01*
X336197264Y14276933D01*
X336197265Y14276932D01*
X336197266Y14276932D01*
X336212387Y14269880D01*
X336264825Y14223709D01*
X336283976Y14156515D01*
X336263760Y14089634D01*
X336212387Y14045119D01*
X336197266Y14038068D01*
X336037640Y13926298D01*
X336010858Y13907545D01*
X335849954Y13746641D01*
X335719432Y13560234D01*
X335719431Y13560232D01*
X335623261Y13353997D01*
X335623258Y13353988D01*
X335564366Y13134197D01*
X335564364Y13134186D01*
X335544532Y12907501D01*
X335544532Y12907498D01*
X335564364Y12680813D01*
X335564366Y12680802D01*
X335623258Y12461011D01*
X335623261Y12461002D01*
X335719431Y12254767D01*
X335719432Y12254765D01*
X335849954Y12068358D01*
X336010858Y11907454D01*
X336197265Y11776932D01*
X336197267Y11776931D01*
X336403502Y11680761D01*
X336403511Y11680758D01*
X336623302Y11621866D01*
X336623313Y11621864D01*
X336849998Y11602032D01*
X336850000Y11602032D01*
X336850002Y11602032D01*
X337076686Y11621864D01*
X337076697Y11621866D01*
X337296488Y11680758D01*
X337296497Y11680761D01*
X337502732Y11776931D01*
X337502734Y11776932D01*
X337689141Y11907454D01*
X337850045Y12068358D01*
X337980567Y12254765D01*
X337980568Y12254766D01*
X338076739Y12461004D01*
X338135635Y12680808D01*
X338155468Y12907500D01*
X338135635Y13134192D01*
X338076739Y13353996D01*
X337980568Y13560234D01*
X337850047Y13746639D01*
X337689139Y13907547D01*
X337502734Y14038068D01*
X337487614Y14045118D01*
X337435176Y14091289D01*
X337416023Y14158482D01*
X337436238Y14225364D01*
X337487615Y14269882D01*
X337502734Y14276932D01*
X337689141Y14407454D01*
X337850045Y14568358D01*
X337882839Y14615193D01*
X337980568Y14754766D01*
X338076739Y14961004D01*
X338135635Y15180808D01*
X338155468Y15407500D01*
X338140376Y15580001D01*
X354244532Y15580001D01*
X354244532Y15579998D01*
X354264364Y15353313D01*
X354264366Y15353302D01*
X354323258Y15133511D01*
X354323261Y15133502D01*
X354419431Y14927267D01*
X354419432Y14927265D01*
X354549954Y14740858D01*
X354710858Y14579954D01*
X354897265Y14449432D01*
X354897267Y14449431D01*
X355103502Y14353261D01*
X355103511Y14353258D01*
X355323302Y14294366D01*
X355323313Y14294364D01*
X355549998Y14274532D01*
X355550000Y14274532D01*
X355550002Y14274532D01*
X355776686Y14294364D01*
X355776697Y14294366D01*
X355996488Y14353258D01*
X355996497Y14353261D01*
X356202732Y14449431D01*
X356202734Y14449432D01*
X356389141Y14579954D01*
X356550045Y14740858D01*
X356680567Y14927265D01*
X356680568Y14927266D01*
X356776739Y15133504D01*
X356835635Y15353308D01*
X356855468Y15580000D01*
X356835635Y15806692D01*
X356776739Y16026496D01*
X356680568Y16232734D01*
X356550047Y16419139D01*
X356389139Y16580047D01*
X356202734Y16710568D01*
X355996496Y16806739D01*
X355776692Y16865635D01*
X355606673Y16880509D01*
X355550002Y16885468D01*
X355549998Y16885468D01*
X355485230Y16879801D01*
X355323308Y16865635D01*
X355103504Y16806739D01*
X354897266Y16710568D01*
X354757693Y16612839D01*
X354710858Y16580045D01*
X354549954Y16419141D01*
X354419432Y16232734D01*
X354419431Y16232732D01*
X354323261Y16026497D01*
X354323258Y16026488D01*
X354264366Y15806697D01*
X354264364Y15806686D01*
X354244532Y15580001D01*
X338140376Y15580001D01*
X338135635Y15634192D01*
X338076739Y15853996D01*
X337980568Y16060234D01*
X337850047Y16246639D01*
X337689139Y16407547D01*
X337502734Y16538068D01*
X337296496Y16634239D01*
X337076692Y16693135D01*
X336906673Y16708009D01*
X336850002Y16712968D01*
X336849998Y16712968D01*
X336785230Y16707301D01*
X336623308Y16693135D01*
X336403504Y16634239D01*
X336197266Y16538068D01*
X336057693Y16440339D01*
X336010858Y16407545D01*
X335849954Y16246641D01*
X335719432Y16060234D01*
X335719431Y16060232D01*
X335623261Y15853997D01*
X335623258Y15853988D01*
X335564366Y15634197D01*
X335564364Y15634186D01*
X335544532Y15407501D01*
X334955468Y15407501D01*
X334935635Y15634192D01*
X334876739Y15853996D01*
X334780568Y16060234D01*
X334650047Y16246639D01*
X334489139Y16407547D01*
X334302734Y16538068D01*
X334287614Y16545118D01*
X334235176Y16591289D01*
X334216023Y16658482D01*
X334236238Y16725364D01*
X334287615Y16769882D01*
X334302734Y16776932D01*
X334489141Y16907454D01*
X334650045Y17068358D01*
X334780567Y17254765D01*
X334780568Y17254766D01*
X334876739Y17461004D01*
X334935635Y17680808D01*
X334954174Y17892713D01*
X334955468Y17907498D01*
X334955468Y17907501D01*
X334945968Y18016080D01*
X334935635Y18134192D01*
X334876739Y18353996D01*
X334780568Y18560234D01*
X334650047Y18746639D01*
X334489139Y18907547D01*
X334302734Y19038068D01*
X334096496Y19134239D01*
X333876692Y19193135D01*
X333706673Y19208009D01*
X333650002Y19212968D01*
X333649998Y19212968D01*
X333585230Y19207301D01*
X333423308Y19193135D01*
X333203504Y19134239D01*
X332997266Y19038068D01*
X332997265Y19038067D01*
X332810858Y18907545D01*
X332649954Y18746641D01*
X332519432Y18560234D01*
X332519431Y18560232D01*
X332423261Y18353997D01*
X332423258Y18353988D01*
X332364366Y18134197D01*
X332364364Y18134186D01*
X332344532Y17907501D01*
X327055468Y17907501D01*
X327045968Y18016080D01*
X327035635Y18134192D01*
X326976739Y18353996D01*
X326880568Y18560234D01*
X326750047Y18746639D01*
X326589139Y18907547D01*
X326402734Y19038068D01*
X326196496Y19134239D01*
X325976692Y19193135D01*
X325806673Y19208009D01*
X325750002Y19212968D01*
X325749998Y19212968D01*
X325685230Y19207301D01*
X325523308Y19193135D01*
X325303504Y19134239D01*
X325097266Y19038068D01*
X325097265Y19038067D01*
X324910858Y18907545D01*
X324749954Y18746641D01*
X324619432Y18560234D01*
X324619431Y18560232D01*
X324523261Y18353997D01*
X324523258Y18353988D01*
X324464366Y18134197D01*
X324464364Y18134186D01*
X324444532Y17907501D01*
X321800500Y17907501D01*
X321800500Y19907351D01*
X345374500Y19907351D01*
X345374500Y18902648D01*
X345406522Y18700465D01*
X345469781Y18505776D01*
X345562715Y18323386D01*
X345683028Y18157786D01*
X345827786Y18013028D01*
X345993386Y17892715D01*
X346175776Y17799781D01*
X346370465Y17736522D01*
X346548329Y17708351D01*
X346572648Y17704500D01*
X346572649Y17704500D01*
X346777351Y17704500D01*
X346777352Y17704500D01*
X346804995Y17708878D01*
X346979534Y17736522D01*
X347174223Y17799781D01*
X347299653Y17863691D01*
X347356610Y17892713D01*
X347376963Y17907500D01*
X347522213Y18013028D01*
X347666971Y18157786D01*
X347787284Y18323386D01*
X347787287Y18323390D01*
X347878624Y18502648D01*
X347880218Y18505776D01*
X347943477Y18700465D01*
X347975500Y18902648D01*
X347975500Y19507351D01*
X419234500Y19507351D01*
X419234500Y18502648D01*
X419266522Y18300465D01*
X419329781Y18105776D01*
X419422715Y17923386D01*
X419543028Y17757786D01*
X419687786Y17613028D01*
X419853386Y17492715D01*
X420035776Y17399781D01*
X420230465Y17336522D01*
X420408329Y17308351D01*
X420432648Y17304500D01*
X420432649Y17304500D01*
X420637351Y17304500D01*
X420637352Y17304500D01*
X420664995Y17308878D01*
X420839534Y17336522D01*
X421034223Y17399781D01*
X421159653Y17463691D01*
X421216610Y17492713D01*
X421216613Y17492715D01*
X421382213Y17613028D01*
X421526971Y17757786D01*
X421647284Y17923386D01*
X421647287Y17923390D01*
X421694515Y18016080D01*
X421742490Y18066876D01*
X421810311Y18083671D01*
X421876446Y18061134D01*
X421915485Y18016080D01*
X421962715Y17923386D01*
X422083028Y17757786D01*
X422227786Y17613028D01*
X422393386Y17492715D01*
X422575776Y17399781D01*
X422770465Y17336522D01*
X422948329Y17308351D01*
X422972648Y17304500D01*
X422972649Y17304500D01*
X423177351Y17304500D01*
X423177352Y17304500D01*
X423204995Y17308878D01*
X423379534Y17336522D01*
X423574223Y17399781D01*
X423699653Y17463691D01*
X423756610Y17492713D01*
X423756613Y17492715D01*
X423922213Y17613028D01*
X424066971Y17757786D01*
X424187284Y17923386D01*
X424187287Y17923390D01*
X424260397Y18066876D01*
X424280218Y18105776D01*
X424343477Y18300465D01*
X424375500Y18502648D01*
X424375500Y19507351D01*
X429174500Y19507351D01*
X429174500Y18502648D01*
X429206522Y18300465D01*
X429269781Y18105776D01*
X429362715Y17923386D01*
X429483028Y17757786D01*
X429627786Y17613028D01*
X429793386Y17492715D01*
X429975776Y17399781D01*
X430170465Y17336522D01*
X430348329Y17308351D01*
X430372648Y17304500D01*
X430372649Y17304500D01*
X430577351Y17304500D01*
X430577352Y17304500D01*
X430604995Y17308878D01*
X430779534Y17336522D01*
X430974223Y17399781D01*
X431099653Y17463691D01*
X431156610Y17492713D01*
X431156613Y17492715D01*
X431322213Y17613028D01*
X431466971Y17757786D01*
X431587284Y17923386D01*
X431587287Y17923390D01*
X431660397Y18066876D01*
X431680218Y18105776D01*
X431743477Y18300465D01*
X431775500Y18502648D01*
X431775500Y19507351D01*
X431758550Y19614365D01*
X431743477Y19709534D01*
X431680220Y19904219D01*
X431587287Y20086610D01*
X431519732Y20179590D01*
X431466971Y20252213D01*
X431466968Y20252215D01*
X431466966Y20252219D01*
X431322219Y20396966D01*
X431322215Y20396968D01*
X431322213Y20396971D01*
X431244391Y20453511D01*
X431156610Y20517287D01*
X430974219Y20610220D01*
X430779534Y20673477D01*
X430577352Y20705500D01*
X430372648Y20705500D01*
X430271557Y20689488D01*
X430170465Y20673477D01*
X430105022Y20652213D01*
X429975781Y20610220D01*
X429975778Y20610218D01*
X429975776Y20610218D01*
X429909607Y20576503D01*
X429793390Y20517287D01*
X429793386Y20517284D01*
X429627786Y20396971D01*
X429483028Y20252213D01*
X429362715Y20086613D01*
X429269781Y19904223D01*
X429206522Y19709534D01*
X429174500Y19507351D01*
X424375500Y19507351D01*
X424358550Y19614365D01*
X424343477Y19709534D01*
X424280220Y19904219D01*
X424187287Y20086610D01*
X424119732Y20179590D01*
X424066971Y20252213D01*
X424066968Y20252215D01*
X424066966Y20252219D01*
X423922219Y20396966D01*
X423922215Y20396968D01*
X423922213Y20396971D01*
X423844391Y20453511D01*
X423756610Y20517287D01*
X423574219Y20610220D01*
X423379534Y20673477D01*
X423177352Y20705500D01*
X422972648Y20705500D01*
X422871557Y20689488D01*
X422770465Y20673477D01*
X422705022Y20652213D01*
X422575781Y20610220D01*
X422575778Y20610218D01*
X422575776Y20610218D01*
X422509607Y20576503D01*
X422393390Y20517287D01*
X422393386Y20517284D01*
X422227786Y20396971D01*
X422083028Y20252213D01*
X421962715Y20086614D01*
X421915485Y19993919D01*
X421867511Y19943123D01*
X421799690Y19926328D01*
X421733555Y19948865D01*
X421694515Y19993919D01*
X421647287Y20086610D01*
X421630632Y20109534D01*
X421526971Y20252213D01*
X421526968Y20252215D01*
X421526966Y20252219D01*
X421382219Y20396966D01*
X421382215Y20396968D01*
X421382213Y20396971D01*
X421304391Y20453511D01*
X421216610Y20517287D01*
X421034219Y20610220D01*
X420839534Y20673477D01*
X420637352Y20705500D01*
X420432648Y20705500D01*
X420331557Y20689488D01*
X420230465Y20673477D01*
X420165022Y20652213D01*
X420035781Y20610220D01*
X420035778Y20610218D01*
X420035776Y20610218D01*
X419969607Y20576503D01*
X419853390Y20517287D01*
X419853386Y20517284D01*
X419687786Y20396971D01*
X419543028Y20252213D01*
X419422715Y20086613D01*
X419329781Y19904223D01*
X419266522Y19709534D01*
X419234500Y19507351D01*
X347975500Y19507351D01*
X347975500Y19907351D01*
X347943477Y20109534D01*
X347898725Y20247266D01*
X347880220Y20304219D01*
X347787287Y20486610D01*
X347719732Y20579590D01*
X347666971Y20652213D01*
X347666968Y20652215D01*
X347666966Y20652219D01*
X347522219Y20796966D01*
X347522215Y20796968D01*
X347522213Y20796971D01*
X347380406Y20899998D01*
X347380402Y20900001D01*
X350494532Y20900001D01*
X350494532Y20899998D01*
X350514364Y20673313D01*
X350514366Y20673302D01*
X350573258Y20453511D01*
X350573261Y20453502D01*
X350669431Y20247267D01*
X350669432Y20247265D01*
X350799954Y20060858D01*
X350960858Y19899954D01*
X351147265Y19769432D01*
X351147267Y19769431D01*
X351353502Y19673261D01*
X351353511Y19673258D01*
X351573302Y19614366D01*
X351573313Y19614364D01*
X351799998Y19594532D01*
X351800000Y19594532D01*
X351800002Y19594532D01*
X352026686Y19614364D01*
X352026697Y19614366D01*
X352246488Y19673258D01*
X352246497Y19673261D01*
X352452732Y19769431D01*
X352452734Y19769432D01*
X352639141Y19899954D01*
X352800045Y20060858D01*
X352930567Y20247265D01*
X352930568Y20247266D01*
X353026739Y20453504D01*
X353035611Y20486613D01*
X353043829Y20517284D01*
X353085635Y20673308D01*
X353105468Y20900000D01*
X353085635Y21126692D01*
X353026739Y21346496D01*
X352930568Y21552734D01*
X352800047Y21739139D01*
X352639139Y21900047D01*
X352452734Y22030568D01*
X352246496Y22126739D01*
X352026692Y22185635D01*
X351856673Y22200509D01*
X351800002Y22205468D01*
X351799998Y22205468D01*
X351735230Y22199801D01*
X351573308Y22185635D01*
X351353504Y22126739D01*
X351147266Y22030568D01*
X351147265Y22030567D01*
X350960858Y21900045D01*
X350799954Y21739141D01*
X350669432Y21552734D01*
X350669431Y21552732D01*
X350573261Y21346497D01*
X350573258Y21346488D01*
X350514366Y21126697D01*
X350514364Y21126686D01*
X350494532Y20900001D01*
X347380402Y20900001D01*
X347356610Y20917287D01*
X347174219Y21010220D01*
X346979534Y21073477D01*
X346777352Y21105500D01*
X346572648Y21105500D01*
X346471557Y21089488D01*
X346370465Y21073477D01*
X346280137Y21044127D01*
X346175781Y21010220D01*
X346175778Y21010218D01*
X346175776Y21010218D01*
X346109607Y20976503D01*
X345993390Y20917287D01*
X345993386Y20917284D01*
X345827786Y20796971D01*
X345683028Y20652213D01*
X345562715Y20486613D01*
X345469781Y20304223D01*
X345406522Y20109534D01*
X345374500Y19907351D01*
X321800500Y19907351D01*
X321800500Y22370500D01*
X321820185Y22437539D01*
X321872989Y22483294D01*
X321924500Y22494500D01*
X465675500Y22494500D01*
X465742539Y22474815D01*
G37*
%TD.AperFunction*%
%TD*%
%TA.AperFunction,Conductor*%
%TO.N,GND*%
G36*
X456301941Y45299439D02*
G01*
X456892582Y45280877D01*
X456900356Y45280388D01*
X457486732Y45224959D01*
X457494461Y45223982D01*
X458076169Y45131849D01*
X458083821Y45130390D01*
X458658638Y45001903D01*
X458666183Y44999965D01*
X459231765Y44835648D01*
X459239168Y44833242D01*
X459411504Y44771198D01*
X459793323Y44633735D01*
X459800565Y44630868D01*
X460341113Y44396952D01*
X460348162Y44393635D01*
X460872951Y44126241D01*
X460879777Y44122488D01*
X461386734Y43822675D01*
X461393311Y43818501D01*
X461880446Y43487444D01*
X461886748Y43482865D01*
X462352118Y43121887D01*
X462358121Y43116922D01*
X462799940Y42727406D01*
X462805618Y42722073D01*
X463222073Y42305618D01*
X463227406Y42299940D01*
X463616922Y41858121D01*
X463621887Y41852118D01*
X463982865Y41386748D01*
X463987444Y41380446D01*
X464318501Y40893311D01*
X464322675Y40886734D01*
X464622488Y40379777D01*
X464626241Y40372951D01*
X464893635Y39848162D01*
X464896952Y39841113D01*
X465130868Y39300565D01*
X465133735Y39293323D01*
X465333241Y38739174D01*
X465335648Y38731765D01*
X465499965Y38166183D01*
X465501903Y38158638D01*
X465630390Y37583821D01*
X465631849Y37576169D01*
X465723982Y36994461D01*
X465724959Y36986732D01*
X465780388Y36400356D01*
X465780877Y36392582D01*
X465799439Y35801941D01*
X465799500Y35798046D01*
X465799500Y23124000D01*
X465779815Y23056961D01*
X465727011Y23011206D01*
X465675500Y23000000D01*
X321924500Y23000000D01*
X321857461Y23019685D01*
X321811706Y23072489D01*
X321800500Y23124000D01*
X321800500Y28272864D01*
X345374500Y28272864D01*
X345374500Y25777129D01*
X345374501Y25777123D01*
X345380908Y25717516D01*
X345431202Y25582671D01*
X345431206Y25582664D01*
X345517452Y25467455D01*
X345517455Y25467452D01*
X345632664Y25381206D01*
X345632671Y25381202D01*
X345767517Y25330908D01*
X345767516Y25330908D01*
X345827116Y25324501D01*
X345827119Y25324500D01*
X345827127Y25324500D01*
X345827134Y25324500D01*
X345827135Y25324500D01*
X347522870Y25324500D01*
X347522876Y25324501D01*
X347582483Y25330908D01*
X347717328Y25381202D01*
X347717335Y25381206D01*
X347832544Y25467452D01*
X347832547Y25467455D01*
X347918793Y25582664D01*
X347918797Y25582671D01*
X347969091Y25717517D01*
X347975500Y25777127D01*
X347975499Y27872864D01*
X421774500Y27872864D01*
X421774500Y25377129D01*
X421774501Y25377123D01*
X421780908Y25317516D01*
X421831202Y25182671D01*
X421831206Y25182664D01*
X421917452Y25067455D01*
X421917455Y25067452D01*
X422032664Y24981206D01*
X422032671Y24981202D01*
X422167517Y24930908D01*
X422167516Y24930908D01*
X422227116Y24924501D01*
X422227119Y24924500D01*
X422227127Y24924500D01*
X422227134Y24924500D01*
X422227135Y24924500D01*
X423922870Y24924500D01*
X423922876Y24924501D01*
X423982483Y24930908D01*
X424117328Y24981202D01*
X424117335Y24981206D01*
X424232544Y25067452D01*
X424232547Y25067455D01*
X424318793Y25182664D01*
X424318797Y25182671D01*
X424369091Y25317517D01*
X424370531Y25330909D01*
X424375500Y25377127D01*
X424375499Y27872864D01*
X429174500Y27872864D01*
X429174500Y25377129D01*
X429174501Y25377123D01*
X429180908Y25317516D01*
X429231202Y25182671D01*
X429231206Y25182664D01*
X429317452Y25067455D01*
X429317455Y25067452D01*
X429432664Y24981206D01*
X429432671Y24981202D01*
X429567517Y24930908D01*
X429567516Y24930908D01*
X429627116Y24924501D01*
X429627119Y24924500D01*
X429627127Y24924500D01*
X429627134Y24924500D01*
X429627135Y24924500D01*
X431322870Y24924500D01*
X431322876Y24924501D01*
X431382483Y24930908D01*
X431517328Y24981202D01*
X431517335Y24981206D01*
X431632544Y25067452D01*
X431632547Y25067455D01*
X431718793Y25182664D01*
X431718797Y25182671D01*
X431769091Y25317517D01*
X431770531Y25330909D01*
X431775500Y25377127D01*
X431775499Y27872872D01*
X431769091Y27932483D01*
X431718796Y28067331D01*
X431632546Y28182546D01*
X431517331Y28268796D01*
X431382483Y28319091D01*
X431322873Y28325500D01*
X429627128Y28325499D01*
X429578757Y28320299D01*
X429567516Y28319091D01*
X429432671Y28268797D01*
X429432664Y28268793D01*
X429317455Y28182547D01*
X429317452Y28182544D01*
X429231206Y28067335D01*
X429231202Y28067328D01*
X429180908Y27932482D01*
X429174501Y27872883D01*
X429174501Y27872876D01*
X429174500Y27872864D01*
X424375499Y27872864D01*
X424375499Y27872872D01*
X424369091Y27932483D01*
X424318796Y28067331D01*
X424232546Y28182546D01*
X424117331Y28268796D01*
X423982483Y28319091D01*
X423922873Y28325500D01*
X422227128Y28325499D01*
X422178757Y28320299D01*
X422167516Y28319091D01*
X422032671Y28268797D01*
X422032664Y28268793D01*
X421917455Y28182547D01*
X421917452Y28182544D01*
X421831206Y28067335D01*
X421831202Y28067328D01*
X421780908Y27932482D01*
X421774501Y27872883D01*
X421774501Y27872876D01*
X421774500Y27872864D01*
X347975499Y27872864D01*
X347975499Y28272872D01*
X347969091Y28332483D01*
X347918796Y28467331D01*
X347832546Y28582546D01*
X347717331Y28668796D01*
X347582483Y28719091D01*
X347522873Y28725500D01*
X345827128Y28725499D01*
X345778757Y28720299D01*
X345767516Y28719091D01*
X345632671Y28668797D01*
X345632664Y28668793D01*
X345517455Y28582547D01*
X345517452Y28582544D01*
X345431206Y28467335D01*
X345431202Y28467328D01*
X345380908Y28332482D01*
X345374501Y28272883D01*
X345374501Y28272876D01*
X345374500Y28272864D01*
X321800500Y28272864D01*
X321800500Y32400002D01*
X345844751Y32400002D01*
X345844751Y32399997D01*
X345863685Y32231943D01*
X345919545Y32072305D01*
X345919547Y32072302D01*
X346009518Y31929115D01*
X346009523Y31929109D01*
X346129109Y31809523D01*
X346129115Y31809518D01*
X346272302Y31719547D01*
X346272305Y31719545D01*
X346431943Y31663685D01*
X346599997Y31644751D01*
X346600000Y31644751D01*
X346600003Y31644751D01*
X346768056Y31663685D01*
X346927694Y31719545D01*
X346927697Y31719547D01*
X347070884Y31809518D01*
X347070890Y31809523D01*
X347190476Y31929109D01*
X347190481Y31929115D01*
X347280452Y32072302D01*
X347280454Y32072305D01*
X347336314Y32231943D01*
X347355249Y32399997D01*
X347355249Y32400002D01*
X347336314Y32568056D01*
X347336313Y32568059D01*
X347280456Y32727690D01*
X347280454Y32727692D01*
X347280454Y32727694D01*
X347280452Y32727697D01*
X347190481Y32870884D01*
X347190480Y32870885D01*
X347190477Y32870890D01*
X347070890Y32990477D01*
X347070884Y32990481D01*
X346927697Y33080452D01*
X346927694Y33080454D01*
X346927692Y33080454D01*
X346927690Y33080456D01*
X346768059Y33136313D01*
X346768058Y33136313D01*
X346768056Y33136314D01*
X346600003Y33155249D01*
X346599997Y33155249D01*
X346431943Y33136314D01*
X346398927Y33124761D01*
X346272310Y33080456D01*
X346272309Y33080455D01*
X346272305Y33080454D01*
X346272302Y33080452D01*
X346129115Y32990481D01*
X346129109Y32990476D01*
X346009523Y32870890D01*
X346009518Y32870884D01*
X345919547Y32727697D01*
X345919545Y32727694D01*
X345863685Y32568056D01*
X345844751Y32400002D01*
X321800500Y32400002D01*
X321800500Y35147513D01*
X330749500Y35147513D01*
X330749500Y34852486D01*
X330788006Y34560015D01*
X330788008Y34560004D01*
X330864361Y34275048D01*
X330864364Y34275038D01*
X330977254Y34002499D01*
X330977258Y34002489D01*
X331124761Y33747006D01*
X331304352Y33512959D01*
X331304358Y33512952D01*
X331512952Y33304358D01*
X331512959Y33304352D01*
X331747006Y33124761D01*
X332002489Y32977258D01*
X332002499Y32977254D01*
X332275038Y32864364D01*
X332275048Y32864361D01*
X332560007Y32788007D01*
X332560015Y32788006D01*
X332852486Y32749500D01*
X332852494Y32749500D01*
X333147513Y32749500D01*
X333391113Y32781571D01*
X333439993Y32788007D01*
X333724952Y32864361D01*
X333724954Y32864362D01*
X333724961Y32864364D01*
X333997500Y32977254D01*
X333997510Y32977258D01*
X334252993Y33124761D01*
X334487040Y33304352D01*
X334487047Y33304358D01*
X334695641Y33512952D01*
X334695647Y33512959D01*
X334875238Y33747006D01*
X335022741Y34002489D01*
X335022745Y34002499D01*
X335135635Y34275038D01*
X335135635Y34275039D01*
X335135639Y34275048D01*
X335211993Y34560007D01*
X335250500Y34852494D01*
X335250500Y35147506D01*
X335250499Y35147513D01*
X452749500Y35147513D01*
X452749500Y34852486D01*
X452788006Y34560015D01*
X452788008Y34560004D01*
X452864361Y34275048D01*
X452864364Y34275038D01*
X452977254Y34002499D01*
X452977258Y34002489D01*
X453124761Y33747006D01*
X453304352Y33512959D01*
X453304358Y33512952D01*
X453512952Y33304358D01*
X453512959Y33304352D01*
X453747006Y33124761D01*
X454002489Y32977258D01*
X454002499Y32977254D01*
X454275038Y32864364D01*
X454275048Y32864361D01*
X454560007Y32788007D01*
X454560015Y32788006D01*
X454852486Y32749500D01*
X454852494Y32749500D01*
X455147513Y32749500D01*
X455391113Y32781571D01*
X455439993Y32788007D01*
X455724952Y32864361D01*
X455724954Y32864362D01*
X455724961Y32864364D01*
X455997500Y32977254D01*
X455997510Y32977258D01*
X456252993Y33124761D01*
X456487040Y33304352D01*
X456487047Y33304358D01*
X456695641Y33512952D01*
X456695647Y33512959D01*
X456875238Y33747006D01*
X457022741Y34002489D01*
X457022745Y34002499D01*
X457135635Y34275038D01*
X457135635Y34275039D01*
X457135639Y34275048D01*
X457211993Y34560007D01*
X457250500Y34852494D01*
X457250500Y35147506D01*
X457211993Y35439993D01*
X457135639Y35724952D01*
X457022743Y35997507D01*
X456875238Y36252994D01*
X456695646Y36487042D01*
X456487042Y36695646D01*
X456252994Y36875238D01*
X455997507Y37022743D01*
X455724952Y37135639D01*
X455439993Y37211993D01*
X455147506Y37250500D01*
X454852494Y37250500D01*
X454560007Y37211993D01*
X454275048Y37135639D01*
X454002493Y37022743D01*
X454002490Y37022741D01*
X454002489Y37022741D01*
X453747006Y36875238D01*
X453512959Y36695647D01*
X453512952Y36695641D01*
X453304358Y36487047D01*
X453304352Y36487040D01*
X453124761Y36252993D01*
X452977258Y35997510D01*
X452977254Y35997500D01*
X452864364Y35724961D01*
X452864362Y35724954D01*
X452864361Y35724952D01*
X452788007Y35439993D01*
X452788006Y35439984D01*
X452749500Y35147513D01*
X335250499Y35147513D01*
X335211993Y35439993D01*
X335135639Y35724952D01*
X335022743Y35997507D01*
X334875238Y36252994D01*
X334695646Y36487042D01*
X334487042Y36695646D01*
X334252994Y36875238D01*
X333997507Y37022743D01*
X333724952Y37135639D01*
X333439993Y37211993D01*
X333147506Y37250500D01*
X332852494Y37250500D01*
X332560007Y37211993D01*
X332275048Y37135639D01*
X332002493Y37022743D01*
X332002490Y37022741D01*
X332002489Y37022741D01*
X331747006Y36875238D01*
X331512959Y36695647D01*
X331512952Y36695641D01*
X331304358Y36487047D01*
X331304352Y36487040D01*
X331124761Y36252993D01*
X330977258Y35997510D01*
X330977254Y35997500D01*
X330864364Y35724961D01*
X330864362Y35724954D01*
X330864361Y35724952D01*
X330788007Y35439993D01*
X330788006Y35439984D01*
X330749500Y35147513D01*
X321800500Y35147513D01*
X321800500Y35798046D01*
X321800561Y35801941D01*
X321802571Y35865892D01*
X321819123Y36392598D01*
X321819611Y36400356D01*
X321827806Y36487042D01*
X321875040Y36986734D01*
X321876017Y36994461D01*
X321903450Y37167664D01*
X321968153Y37576188D01*
X321969605Y37583802D01*
X322098098Y38158649D01*
X322100034Y38166183D01*
X322264358Y38731789D01*
X322266746Y38739139D01*
X322466270Y39293338D01*
X322469131Y39300565D01*
X322568417Y39530000D01*
X322703048Y39841115D01*
X322706364Y39848162D01*
X322973758Y40372951D01*
X322977511Y40379777D01*
X323226030Y40800000D01*
X383569341Y40800000D01*
X383569341Y40799999D01*
X383589936Y40564596D01*
X383589938Y40564586D01*
X383651094Y40336344D01*
X383651098Y40336335D01*
X383750965Y40122169D01*
X383750967Y40122165D01*
X383886501Y39928604D01*
X383886501Y39928603D01*
X384008431Y39806673D01*
X384041915Y39745350D01*
X384036931Y39675658D01*
X383995059Y39619725D01*
X383964082Y39602810D01*
X383832671Y39553797D01*
X383832664Y39553793D01*
X383717455Y39467547D01*
X383717452Y39467544D01*
X383631206Y39352335D01*
X383631202Y39352328D01*
X383580908Y39217482D01*
X383574501Y39157883D01*
X383574501Y39157876D01*
X383574500Y39157864D01*
X383574500Y37362129D01*
X383574501Y37362123D01*
X383580908Y37302516D01*
X383631202Y37167671D01*
X383631206Y37167664D01*
X383717452Y37052455D01*
X383717455Y37052452D01*
X383832664Y36966206D01*
X383832671Y36966202D01*
X383967517Y36915908D01*
X383967516Y36915908D01*
X384027116Y36909501D01*
X384027119Y36909500D01*
X384027127Y36909500D01*
X384027134Y36909500D01*
X384027135Y36909500D01*
X385822870Y36909500D01*
X385822876Y36909501D01*
X385882483Y36915908D01*
X386017328Y36966202D01*
X386017335Y36966206D01*
X386132544Y37052452D01*
X386132547Y37052455D01*
X386218793Y37167664D01*
X386218797Y37167671D01*
X386269091Y37302517D01*
X386275500Y37362127D01*
X386275499Y39157872D01*
X386269091Y39217483D01*
X386218796Y39352331D01*
X386132546Y39467546D01*
X386017331Y39553796D01*
X385885916Y39602810D01*
X385829984Y39644681D01*
X385805566Y39710145D01*
X385820417Y39778418D01*
X385841569Y39806673D01*
X385963493Y39928597D01*
X385963495Y39928599D01*
X386093425Y40114158D01*
X386099032Y40122165D01*
X386099034Y40122169D01*
X386099035Y40122170D01*
X386198903Y40336337D01*
X386260063Y40564592D01*
X386280659Y40800000D01*
X388649341Y40800000D01*
X388649341Y40799999D01*
X388669936Y40564596D01*
X388669938Y40564586D01*
X388731094Y40336344D01*
X388731098Y40336335D01*
X388830965Y40122169D01*
X388830967Y40122165D01*
X388966501Y39928604D01*
X388966506Y39928597D01*
X389133597Y39761506D01*
X389133599Y39761505D01*
X389319159Y39631574D01*
X389362784Y39576997D01*
X389369976Y39507498D01*
X389338454Y39445144D01*
X389319158Y39428424D01*
X389133596Y39298493D01*
X388966505Y39131402D01*
X388830965Y38937830D01*
X388830964Y38937828D01*
X388811003Y38895021D01*
X388731097Y38723663D01*
X388731096Y38723659D01*
X388731094Y38723655D01*
X388669938Y38495413D01*
X388669936Y38495403D01*
X388649341Y38260000D01*
X388649341Y38259999D01*
X388669936Y38024596D01*
X388669938Y38024586D01*
X388731094Y37796344D01*
X388731098Y37796335D01*
X388830965Y37582169D01*
X388830967Y37582165D01*
X388966501Y37388604D01*
X388966506Y37388597D01*
X389133597Y37221506D01*
X389133604Y37221501D01*
X389327165Y37085967D01*
X389327169Y37085965D01*
X389541335Y36986098D01*
X389541344Y36986094D01*
X389769586Y36924938D01*
X389769596Y36924936D01*
X390004999Y36904341D01*
X390005000Y36904341D01*
X390005001Y36904341D01*
X390240403Y36924936D01*
X390240413Y36924938D01*
X390468655Y36986094D01*
X390468659Y36986096D01*
X390468663Y36986097D01*
X390682830Y37085965D01*
X390682834Y37085967D01*
X390837521Y37194281D01*
X390876401Y37221505D01*
X391043495Y37388599D01*
X391173425Y37574158D01*
X391179032Y37582165D01*
X391179034Y37582169D01*
X391179035Y37582170D01*
X391278903Y37796337D01*
X391340063Y38024592D01*
X391360659Y38260000D01*
X391340063Y38495408D01*
X391278903Y38723663D01*
X391179035Y38937829D01*
X391043495Y39131401D01*
X390876401Y39298495D01*
X390690842Y39428425D01*
X390647217Y39483002D01*
X390640023Y39552500D01*
X390671546Y39614855D01*
X390690842Y39631575D01*
X390876396Y39761501D01*
X390876402Y39761506D01*
X391043493Y39928597D01*
X391043495Y39928599D01*
X391173425Y40114158D01*
X391179032Y40122165D01*
X391179034Y40122169D01*
X391179035Y40122170D01*
X391278903Y40336337D01*
X391340063Y40564592D01*
X391360659Y40800000D01*
X393729341Y40800000D01*
X393729341Y40799999D01*
X393749936Y40564596D01*
X393749938Y40564586D01*
X393811094Y40336344D01*
X393811098Y40336335D01*
X393910965Y40122169D01*
X393910967Y40122165D01*
X394046501Y39928604D01*
X394046506Y39928597D01*
X394213597Y39761506D01*
X394213599Y39761505D01*
X394399159Y39631574D01*
X394442784Y39576997D01*
X394449976Y39507498D01*
X394418454Y39445144D01*
X394399158Y39428424D01*
X394213596Y39298493D01*
X394046505Y39131402D01*
X393910965Y38937830D01*
X393910964Y38937828D01*
X393891003Y38895021D01*
X393811097Y38723663D01*
X393811096Y38723659D01*
X393811094Y38723655D01*
X393749938Y38495413D01*
X393749936Y38495403D01*
X393729341Y38260000D01*
X393729341Y38259999D01*
X393749936Y38024596D01*
X393749938Y38024586D01*
X393811094Y37796344D01*
X393811098Y37796335D01*
X393910965Y37582169D01*
X393910967Y37582165D01*
X394046501Y37388604D01*
X394046506Y37388597D01*
X394213597Y37221506D01*
X394213604Y37221501D01*
X394407165Y37085967D01*
X394407169Y37085965D01*
X394621335Y36986098D01*
X394621344Y36986094D01*
X394849586Y36924938D01*
X394849596Y36924936D01*
X395084999Y36904341D01*
X395085000Y36904341D01*
X395085001Y36904341D01*
X395320403Y36924936D01*
X395320413Y36924938D01*
X395548655Y36986094D01*
X395548659Y36986096D01*
X395548663Y36986097D01*
X395762830Y37085965D01*
X395762834Y37085967D01*
X395917521Y37194281D01*
X395956401Y37221505D01*
X396123495Y37388599D01*
X396253425Y37574158D01*
X396308002Y37617782D01*
X396377501Y37624975D01*
X396439855Y37593453D01*
X396456575Y37574158D01*
X396586505Y37388599D01*
X396586506Y37388597D01*
X396753597Y37221506D01*
X396753604Y37221501D01*
X396947165Y37085967D01*
X396947169Y37085965D01*
X397161335Y36986098D01*
X397161344Y36986094D01*
X397389586Y36924938D01*
X397389596Y36924936D01*
X397624999Y36904341D01*
X397625000Y36904341D01*
X397625001Y36904341D01*
X397860403Y36924936D01*
X397860413Y36924938D01*
X398088655Y36986094D01*
X398088659Y36986096D01*
X398088663Y36986097D01*
X398302830Y37085965D01*
X398302834Y37085967D01*
X398457521Y37194281D01*
X398496401Y37221505D01*
X398663495Y37388599D01*
X398793425Y37574158D01*
X398848002Y37617782D01*
X398917501Y37624975D01*
X398979855Y37593453D01*
X398996575Y37574158D01*
X399126505Y37388599D01*
X399126506Y37388597D01*
X399293597Y37221506D01*
X399293604Y37221501D01*
X399487165Y37085967D01*
X399487169Y37085965D01*
X399701335Y36986098D01*
X399701344Y36986094D01*
X399929586Y36924938D01*
X399929596Y36924936D01*
X400164999Y36904341D01*
X400165000Y36904341D01*
X400165001Y36904341D01*
X400400403Y36924936D01*
X400400413Y36924938D01*
X400628655Y36986094D01*
X400628659Y36986096D01*
X400628663Y36986097D01*
X400842830Y37085965D01*
X400842834Y37085967D01*
X400997521Y37194281D01*
X401036401Y37221505D01*
X401203495Y37388599D01*
X401333425Y37574158D01*
X401388002Y37617782D01*
X401457501Y37624975D01*
X401519855Y37593453D01*
X401536575Y37574158D01*
X401666505Y37388599D01*
X401666506Y37388597D01*
X401833597Y37221506D01*
X401833604Y37221501D01*
X402027165Y37085967D01*
X402027169Y37085965D01*
X402241335Y36986098D01*
X402241344Y36986094D01*
X402469586Y36924938D01*
X402469596Y36924936D01*
X402704999Y36904341D01*
X402705000Y36904341D01*
X402705001Y36904341D01*
X402940403Y36924936D01*
X402940413Y36924938D01*
X403168655Y36986094D01*
X403168659Y36986096D01*
X403168663Y36986097D01*
X403382830Y37085965D01*
X403382834Y37085967D01*
X403537521Y37194281D01*
X403576401Y37221505D01*
X403743495Y37388599D01*
X403873425Y37574158D01*
X403879032Y37582165D01*
X403879034Y37582169D01*
X403879035Y37582170D01*
X403978903Y37796337D01*
X404040063Y38024592D01*
X404060659Y38260000D01*
X404040063Y38495408D01*
X403978903Y38723663D01*
X403879035Y38937829D01*
X403743495Y39131401D01*
X403576401Y39298495D01*
X403390842Y39428425D01*
X403347217Y39483002D01*
X403340023Y39552500D01*
X403371546Y39614855D01*
X403390842Y39631575D01*
X403576396Y39761501D01*
X403576402Y39761506D01*
X403743493Y39928597D01*
X403743495Y39928599D01*
X403873425Y40114158D01*
X403879032Y40122165D01*
X403879034Y40122169D01*
X403879035Y40122170D01*
X403978903Y40336337D01*
X404040063Y40564592D01*
X404060659Y40800000D01*
X404040063Y41035408D01*
X403978903Y41263663D01*
X403879035Y41477829D01*
X403743495Y41671401D01*
X403576401Y41838495D01*
X403382830Y41974035D01*
X403168663Y42073903D01*
X402940408Y42135063D01*
X402744234Y42152226D01*
X402705001Y42155659D01*
X402704999Y42155659D01*
X402657918Y42151539D01*
X402469592Y42135063D01*
X402241337Y42073903D01*
X402027171Y41974035D01*
X402027169Y41974034D01*
X401833597Y41838494D01*
X401666506Y41671403D01*
X401666505Y41671401D01*
X401536573Y41485838D01*
X401481999Y41442215D01*
X401412500Y41435021D01*
X401350145Y41466543D01*
X401333428Y41485836D01*
X401203495Y41671401D01*
X401036401Y41838495D01*
X400842830Y41974035D01*
X400628663Y42073903D01*
X400400408Y42135063D01*
X400204234Y42152226D01*
X400165001Y42155659D01*
X400164999Y42155659D01*
X400117918Y42151539D01*
X399929592Y42135063D01*
X399701337Y42073903D01*
X399487171Y41974035D01*
X399487169Y41974034D01*
X399293597Y41838494D01*
X399126506Y41671403D01*
X399126505Y41671401D01*
X398996573Y41485838D01*
X398941999Y41442215D01*
X398872500Y41435021D01*
X398810145Y41466543D01*
X398793428Y41485836D01*
X398663495Y41671401D01*
X398496401Y41838495D01*
X398302830Y41974035D01*
X398088663Y42073903D01*
X397860408Y42135063D01*
X397664234Y42152226D01*
X397625001Y42155659D01*
X397624999Y42155659D01*
X397577918Y42151539D01*
X397389592Y42135063D01*
X397161337Y42073903D01*
X396947171Y41974035D01*
X396947169Y41974034D01*
X396753597Y41838494D01*
X396586506Y41671403D01*
X396586505Y41671401D01*
X396456573Y41485838D01*
X396401999Y41442215D01*
X396332500Y41435021D01*
X396270145Y41466543D01*
X396253428Y41485836D01*
X396123495Y41671401D01*
X395956401Y41838495D01*
X395762830Y41974035D01*
X395548663Y42073903D01*
X395320408Y42135063D01*
X395124234Y42152226D01*
X395085001Y42155659D01*
X395084999Y42155659D01*
X395037918Y42151539D01*
X394849592Y42135063D01*
X394621337Y42073903D01*
X394407171Y41974035D01*
X394407169Y41974034D01*
X394213597Y41838494D01*
X394046505Y41671402D01*
X393910965Y41477830D01*
X393910964Y41477828D01*
X393891003Y41435021D01*
X393811097Y41263663D01*
X393811096Y41263659D01*
X393811094Y41263655D01*
X393749938Y41035413D01*
X393749936Y41035403D01*
X393729341Y40800000D01*
X391360659Y40800000D01*
X391340063Y41035408D01*
X391278903Y41263663D01*
X391179035Y41477829D01*
X391043495Y41671401D01*
X390876401Y41838495D01*
X390682830Y41974035D01*
X390468663Y42073903D01*
X390240408Y42135063D01*
X390044234Y42152226D01*
X390005001Y42155659D01*
X390004999Y42155659D01*
X389957918Y42151539D01*
X389769592Y42135063D01*
X389541337Y42073903D01*
X389327171Y41974035D01*
X389327169Y41974034D01*
X389133597Y41838494D01*
X388966505Y41671402D01*
X388830965Y41477830D01*
X388830964Y41477828D01*
X388811003Y41435021D01*
X388731097Y41263663D01*
X388731096Y41263659D01*
X388731094Y41263655D01*
X388669938Y41035413D01*
X388669936Y41035403D01*
X388649341Y40800000D01*
X386280659Y40800000D01*
X386260063Y41035408D01*
X386198903Y41263663D01*
X386099035Y41477829D01*
X385963495Y41671401D01*
X385796401Y41838495D01*
X385602830Y41974035D01*
X385388663Y42073903D01*
X385160408Y42135063D01*
X384964234Y42152226D01*
X384925001Y42155659D01*
X384924999Y42155659D01*
X384877918Y42151539D01*
X384689592Y42135063D01*
X384461337Y42073903D01*
X384247171Y41974035D01*
X384247169Y41974034D01*
X384053597Y41838494D01*
X383886505Y41671402D01*
X383750965Y41477830D01*
X383750964Y41477828D01*
X383731003Y41435021D01*
X383651097Y41263663D01*
X383651096Y41263659D01*
X383651094Y41263655D01*
X383589938Y41035413D01*
X383589936Y41035403D01*
X383569341Y40800000D01*
X323226030Y40800000D01*
X323277324Y40886734D01*
X323281498Y40893311D01*
X323612555Y41380446D01*
X323617134Y41386748D01*
X323978112Y41852118D01*
X323983077Y41858121D01*
X324372593Y42299940D01*
X324377926Y42305618D01*
X324794381Y42722073D01*
X324800059Y42727406D01*
X325241878Y43116922D01*
X325247881Y43121887D01*
X325713251Y43482865D01*
X325719553Y43487444D01*
X326206688Y43818501D01*
X326213265Y43822675D01*
X326720222Y44122488D01*
X326727048Y44126241D01*
X327251837Y44393635D01*
X327258886Y44396952D01*
X327799434Y44630868D01*
X327806676Y44633735D01*
X327874492Y44658150D01*
X328360840Y44833246D01*
X328368234Y44835648D01*
X328933816Y44999965D01*
X328941361Y45001903D01*
X329516178Y45130390D01*
X329523830Y45131849D01*
X330105538Y45223982D01*
X330113267Y45224959D01*
X330699643Y45280388D01*
X330707417Y45280877D01*
X331298059Y45299439D01*
X331301954Y45299500D01*
X331365892Y45299500D01*
X456234108Y45299500D01*
X456298046Y45299500D01*
X456301941Y45299439D01*
G37*
%TD.AperFunction*%
%TD*%
M02*
