%TF.GenerationSoftware,KiCad,Pcbnew,8.0.3*%
%TF.CreationDate,2024-09-30T04:18:30-05:00*%
%TF.ProjectId,Project Lab 4,50726f6a-6563-4742-904c-616220342e6b,rev?*%
%TF.SameCoordinates,Original*%
%TF.FileFunction,Soldermask,Bot*%
%TF.FilePolarity,Negative*%
%FSLAX46Y46*%
G04 Gerber Fmt 4.6, Leading zero omitted, Abs format (unit mm)*
G04 Created by KiCad (PCBNEW 8.0.3) date 2024-09-30 04:18:30*
%MOMM*%
%LPD*%
G01*
G04 APERTURE LIST*
G04 Aperture macros list*
%AMRoundRect*
0 Rectangle with rounded corners*
0 $1 Rounding radius*
0 $2 $3 $4 $5 $6 $7 $8 $9 X,Y pos of 4 corners*
0 Add a 4 corners polygon primitive as box body*
4,1,4,$2,$3,$4,$5,$6,$7,$8,$9,$2,$3,0*
0 Add four circle primitives for the rounded corners*
1,1,$1+$1,$2,$3*
1,1,$1+$1,$4,$5*
1,1,$1+$1,$6,$7*
1,1,$1+$1,$8,$9*
0 Add four rect primitives between the rounded corners*
20,1,$1+$1,$2,$3,$4,$5,0*
20,1,$1+$1,$4,$5,$6,$7,0*
20,1,$1+$1,$6,$7,$8,$9,0*
20,1,$1+$1,$8,$9,$2,$3,0*%
G04 Aperture macros list end*
%ADD10C,0.100000*%
%ADD11R,3.150000X3.150000*%
%ADD12C,3.150000*%
%ADD13C,5.100000*%
%ADD14R,1.600000X2.400000*%
%ADD15O,1.600000X2.400000*%
%ADD16R,1.600000X1.600000*%
%ADD17C,1.600000*%
%ADD18C,10.200000*%
%ADD19R,1.800000X1.800000*%
%ADD20C,1.800000*%
%ADD21RoundRect,0.250001X1.399999X-1.099999X1.399999X1.099999X-1.399999X1.099999X-1.399999X-1.099999X0*%
%ADD22O,3.300000X2.700000*%
%ADD23R,1.700000X1.700000*%
%ADD24O,1.700000X1.700000*%
%ADD25C,4.000000*%
%ADD26O,1.600000X1.600000*%
%ADD27C,8.600000*%
%ADD28RoundRect,0.160000X-0.197500X-0.160000X0.197500X-0.160000X0.197500X0.160000X-0.197500X0.160000X0*%
G04 APERTURE END LIST*
D10*
X376400000Y-3200000D02*
X411400000Y-3200000D01*
X411400000Y-12600000D01*
X376400000Y-12600000D01*
X376400000Y-3200000D01*
G36*
X376400000Y-3200000D02*
G01*
X411400000Y-3200000D01*
X411400000Y-12600000D01*
X376400000Y-12600000D01*
X376400000Y-3200000D01*
G37*
D11*
%TO.C,C6*%
X326500000Y-42000000D03*
D12*
X326500000Y-52000000D03*
%TD*%
D11*
%TO.C,C20*%
X461000000Y-42000000D03*
D12*
X461000000Y-52000000D03*
%TD*%
D13*
%TO.C,H8*%
X381500000Y-22500000D03*
X406500000Y-22500000D03*
%TD*%
D14*
%TO.C,OC4*%
X423075000Y26625000D03*
D15*
X420535000Y26625000D03*
X420535000Y19005000D03*
X423075000Y19005000D03*
%TD*%
D11*
%TO.C,C22*%
X326500000Y-188800000D03*
D12*
X326500000Y-198800000D03*
%TD*%
D11*
%TO.C,C18*%
X326500000Y-152100000D03*
D12*
X326500000Y-162100000D03*
%TD*%
D16*
%TO.C,SW2*%
X336850000Y17907500D03*
D17*
X336850000Y15407500D03*
X336850000Y12907500D03*
X333650000Y17907500D03*
X333650000Y15407500D03*
X333650000Y12907500D03*
%TD*%
D14*
%TO.C,OC1*%
X346675000Y27025000D03*
D15*
X344135000Y27025000D03*
X344135000Y19405000D03*
X346675000Y19405000D03*
%TD*%
D11*
%TO.C,C21*%
X360000000Y-59600000D03*
D12*
X360000000Y-69600000D03*
%TD*%
D11*
%TO.C,C13*%
X360000000Y-133000000D03*
D12*
X360000000Y-143000000D03*
%TD*%
D18*
%TO.C,R24*%
X393800000Y-76800000D03*
D19*
X393800000Y-54700000D03*
D20*
X393800000Y-46900000D03*
D18*
X393800000Y-24800000D03*
%TD*%
D21*
%TO.C,J2*%
X340625000Y-16900000D03*
D22*
X340625000Y-12700000D03*
X340625000Y-8500000D03*
X340625000Y-4300000D03*
X340625000Y-100000D03*
X346125000Y-16900000D03*
X346125000Y-12700000D03*
X346125000Y-8500000D03*
X346125000Y-4300000D03*
X346125000Y-100000D03*
%TD*%
D11*
%TO.C,C5*%
X360000000Y-206400000D03*
D12*
X360000000Y-216400000D03*
%TD*%
D18*
%TO.C,H7*%
X393800000Y-108575000D03*
X393800000Y-148575000D03*
X393800000Y-188575000D03*
%TD*%
D17*
%TO.C,C29*%
X351800000Y20900000D03*
X351800000Y25900000D03*
%TD*%
D11*
%TO.C,C11*%
X427500000Y-133000000D03*
D12*
X427500000Y-143000000D03*
%TD*%
D23*
%TO.C,J4*%
X384925000Y38260000D03*
D24*
X384925000Y40800000D03*
X387465000Y38260000D03*
X387465000Y40800000D03*
X390005000Y38260000D03*
X390005000Y40800000D03*
X392545000Y38260000D03*
X392545000Y40800000D03*
X395085000Y38260000D03*
X395085000Y40800000D03*
X397625000Y38260000D03*
X397625000Y40800000D03*
X400165000Y38260000D03*
X400165000Y40800000D03*
X402705000Y38260000D03*
X402705000Y40800000D03*
%TD*%
D25*
%TO.C,H6*%
X455000000Y-218800000D03*
%TD*%
D11*
%TO.C,C14*%
X326500000Y-115400000D03*
D12*
X326500000Y-125400000D03*
%TD*%
D11*
%TO.C,C12*%
X461000000Y-115400000D03*
D12*
X461000000Y-125400000D03*
%TD*%
D11*
%TO.C,C19*%
X427500000Y-59600000D03*
D12*
X427500000Y-69600000D03*
%TD*%
D11*
%TO.C,C15*%
X427500000Y-96300000D03*
D12*
X427500000Y-106300000D03*
%TD*%
D11*
%TO.C,C3*%
X427500000Y-206400000D03*
D12*
X427500000Y-216400000D03*
%TD*%
D17*
%TO.C,R8*%
X355550000Y15580000D03*
D26*
X355550000Y30820000D03*
%TD*%
D14*
%TO.C,OC2*%
X430475000Y26625000D03*
D15*
X427935000Y26625000D03*
X427935000Y19005000D03*
X430475000Y19005000D03*
%TD*%
D27*
%TO.C,H1*%
X393800000Y7000000D03*
%TD*%
D11*
%TO.C,C9*%
X360000000Y-169700000D03*
D12*
X360000000Y-179700000D03*
%TD*%
D11*
%TO.C,C10*%
X326500000Y-78700000D03*
D12*
X326500000Y-88700000D03*
%TD*%
D11*
%TO.C,C8*%
X461000000Y-152100000D03*
D12*
X461000000Y-162100000D03*
%TD*%
D11*
%TO.C,C7*%
X427500000Y-169700000D03*
D12*
X427500000Y-179700000D03*
%TD*%
D27*
%TO.C,H2*%
X393800000Y17600000D03*
%TD*%
D25*
%TO.C,H4*%
X455000000Y35000000D03*
%TD*%
D11*
%TO.C,C4*%
X461000000Y-188800000D03*
D12*
X461000000Y-198800000D03*
%TD*%
D25*
%TO.C,H3*%
X333000000Y35000000D03*
%TD*%
D11*
%TO.C,C17*%
X360000000Y-96300000D03*
D12*
X360000000Y-106300000D03*
%TD*%
D25*
%TO.C,H5*%
X333000000Y-218800000D03*
%TD*%
D16*
%TO.C,SW1*%
X328950000Y17907500D03*
D17*
X328950000Y15407500D03*
X328950000Y12907500D03*
X325750000Y17907500D03*
X325750000Y15407500D03*
X325750000Y12907500D03*
%TD*%
D11*
%TO.C,C16*%
X461000000Y-78700000D03*
D12*
X461000000Y-88700000D03*
%TD*%
D28*
%TO.C,TH1*%
X393402500Y-14300000D03*
X394597500Y-14300000D03*
%TD*%
%TO.C,TH2*%
X393202500Y-168300000D03*
X394397500Y-168300000D03*
%TD*%
M02*
