M48
; DRILL file {KiCad 8.0.3} date 2024-09-30T04:18:27-0500
; FORMAT={-:-/ absolute / inch / decimal}
; #@! TF.CreationDate,2024-09-30T04:18:27-05:00
; #@! TF.GenerationSoftware,Kicad,Pcbnew,8.0.3
; #@! TF.FileFunction,Plated,1,4,PTH
FMAT,2
INCH
; #@! TA.AperFunction,Plated,PTH,ViaDrill
T1C0.0118
; #@! TA.AperFunction,Plated,PTH,ComponentDrill
T2C0.0118
; #@! TA.AperFunction,Plated,PTH,ComponentDrill
T3C0.0315
; #@! TA.AperFunction,Plated,PTH,ComponentDrill
T4C0.0394
; #@! TA.AperFunction,Plated,PTH,ComponentDrill
T5C0.0472
; #@! TA.AperFunction,Plated,PTH,ComponentDrill
T6C0.0551
; #@! TA.AperFunction,Plated,PTH,ComponentDrill
T7C0.0827
; #@! TA.AperFunction,Plated,PTH,ComponentDrill
T8C0.1339
; #@! TA.AperFunction,Plated,PTH,ComponentDrill
T9C0.1693
; #@! TA.AperFunction,Plated,PTH,ComponentDrill
T10C0.2677
%
G90
G05
T1
X12.8346Y0.1378
X13.0669Y0.1339
X13.0709Y-0.1535
X13.6457Y1.2756
X14.063Y-0.5039
X14.063Y-0.8898
X14.0945Y-1.1614
X14.0945Y-1.248
X14.1575Y-0.6693
X14.1575Y-0.7008
X14.1575Y-0.7323
X14.3346Y-1.252
X14.3425Y-1.2205
X14.4252Y1.3071
X14.5591Y1.0394
X14.5591Y0.7402
X14.5669Y-1.1535
X14.5669Y-1.2402
X14.5748Y-1.0433
X14.5906Y-0.2638
X14.5984Y-1.1811
X14.6378Y-1.374
X14.6457Y-1.2205
X14.6732Y-0.2598
X14.6929Y-0.563
X14.7244Y0.7165
X15.374Y-1.3346
X15.378Y-1.6417
X16.4252Y-0.2362
X16.5512Y0.5118
X16.8386Y-0.0276
X16.937Y-0.4213
X17.0354Y0.0315
X17.0354Y-0.0945
X17.1693Y0.185
X17.1732Y-0.1181
X17.2953Y0.7126
X17.2992Y1.0827
X17.3976Y-0.2362
X17.3976Y-0.2874
X17.4173Y0.0433
X17.4589Y0.2598
X17.4803Y-0.0669
X17.5276Y0.3071
X17.5551Y0.3543
X17.5984Y1.0827
X17.5984Y0.7126
X17.6457Y0.189
X17.6614Y0.0945
X17.7677Y0.9724
X17.7677Y0.815
X17.7677Y0.189
X17.7717Y0.1063
X17.8346Y-0.1417
X18.2598Y-0.9528
T2
X14.8819Y-0.2035
X14.8819Y-0.2508
X14.8819Y-0.298
X14.8819Y-0.3453
X14.8819Y-0.3925
X14.8819Y-0.4398
X14.9291Y-0.2035
X14.9291Y-0.2508
X14.9291Y-0.298
X14.9291Y-0.3453
X14.9291Y-0.3925
X14.9291Y-0.4398
X14.9764Y-0.2035
X14.9764Y-0.2508
X14.9764Y-0.298
X14.9764Y-0.3453
X14.9764Y-0.3925
X14.9764Y-0.4398
X15.0236Y-0.2035
X15.0236Y-0.2508
X15.0236Y-0.298
X15.0236Y-0.3453
X15.0236Y-0.3925
X15.0236Y-0.4398
X15.0709Y-0.2035
X15.0709Y-0.2508
X15.0709Y-0.298
X15.0709Y-0.3453
X15.0709Y-0.3925
X15.0709Y-0.4398
X15.1181Y-0.2035
X15.1181Y-0.2508
X15.1181Y-0.298
X15.1181Y-0.3453
X15.1181Y-0.3925
X15.1181Y-0.4398
X15.1654Y-0.2035
X15.1654Y-0.2508
X15.1654Y-0.298
X15.1654Y-0.3453
X15.1654Y-0.3925
X15.1654Y-0.4398
X15.3701Y-0.2035
X15.3701Y-0.2508
X15.3701Y-0.298
X15.3701Y-0.3453
X15.3701Y-0.3925
X15.3701Y-0.4398
X15.4173Y-0.2035
X15.4173Y-0.2508
X15.4173Y-0.298
X15.4173Y-0.3453
X15.4173Y-0.3925
X15.4173Y-0.4398
X15.4646Y-0.2035
X15.4646Y-0.2508
X15.4646Y-0.298
X15.4646Y-0.3453
X15.4646Y-0.3925
X15.4646Y-0.4398
X15.5118Y-0.2035
X15.5118Y-0.2508
X15.5118Y-0.298
X15.5118Y-0.3453
X15.5118Y-0.3925
X15.5118Y-0.4398
X15.5591Y-0.2035
X15.5591Y-0.2508
X15.5591Y-0.298
X15.5591Y-0.3453
X15.5591Y-0.3925
X15.5591Y-0.4398
X15.6063Y-0.2035
X15.6063Y-0.2508
X15.6063Y-0.298
X15.6063Y-0.3453
X15.6063Y-0.3925
X15.6063Y-0.4398
X15.6535Y-0.2035
X15.6535Y-0.2508
X15.6535Y-0.298
X15.6535Y-0.3453
X15.6535Y-0.3925
X15.6535Y-0.4398
X15.8425Y-0.2035
X15.8425Y-0.2508
X15.8425Y-0.298
X15.8425Y-0.3453
X15.8425Y-0.3925
X15.8425Y-0.4398
X15.8898Y-0.2035
X15.8898Y-0.2508
X15.8898Y-0.298
X15.8898Y-0.3453
X15.8898Y-0.3925
X15.8898Y-0.4398
X15.937Y-0.2035
X15.937Y-0.2508
X15.937Y-0.298
X15.937Y-0.3453
X15.937Y-0.3925
X15.937Y-0.4398
X15.9843Y-0.2035
X15.9843Y-0.2508
X15.9843Y-0.298
X15.9843Y-0.3453
X15.9843Y-0.3925
X15.9843Y-0.4398
X16.0315Y-0.2035
X16.0315Y-0.2508
X16.0315Y-0.298
X16.0315Y-0.3453
X16.0315Y-0.3925
X16.0315Y-0.4398
X16.0787Y-0.2035
X16.0787Y-0.2508
X16.0787Y-0.298
X16.0787Y-0.3453
X16.0787Y-0.3925
X16.0787Y-0.4398
X16.126Y-0.2035
X16.126Y-0.2508
X16.126Y-0.298
X16.126Y-0.3453
X16.126Y-0.3925
X16.126Y-0.4398
T3
X12.8248Y0.705
X12.8248Y0.6066
X12.8248Y0.5082
X12.9508Y0.705
X12.9508Y0.6066
X12.9508Y0.5082
X13.1358Y0.705
X13.1358Y0.6066
X13.1358Y0.5082
X13.2618Y0.705
X13.2618Y0.6066
X13.2618Y0.5082
X13.5486Y1.064
X13.5486Y0.764
X13.6486Y1.064
X13.6486Y0.764
X13.8504Y1.0197
X13.8504Y0.8228
X13.998Y1.2134
X13.998Y0.6134
X16.5565Y1.0482
X16.5565Y0.7482
X16.6565Y1.0482
X16.6565Y0.7482
X16.8478Y1.0482
X16.8478Y0.7482
X16.9478Y1.0482
X16.9478Y0.7482
T4
X15.1545Y1.6063
X15.1545Y1.5063
X15.2545Y1.6063
X15.2545Y1.5063
X15.3545Y1.6063
X15.3545Y1.5063
X15.4545Y1.6063
X15.4545Y1.5063
X15.5545Y1.6063
X15.5545Y1.5063
X15.6545Y1.6063
X15.6545Y1.5063
X15.7545Y1.6063
X15.7545Y1.5063
X15.8545Y1.6063
X15.8545Y1.5063
T5
X15.5039Y-1.8465
X15.5039Y-2.1535
T6
X13.4104Y-0.0039
X13.4104Y-0.1693
X13.4104Y-0.3346
X13.4104Y-0.5
X13.4104Y-0.6654
X13.627Y-0.0039
X13.627Y-0.1693
X13.627Y-0.3346
X13.627Y-0.5
X13.627Y-0.6654
T7
X12.8543Y-1.6535
X12.8543Y-2.0472
X12.8543Y-3.0984
X12.8543Y-3.4921
X12.8543Y-4.5433
X12.8543Y-4.937
X12.8543Y-5.9882
X12.8543Y-6.3819
X12.8543Y-7.4331
X12.8543Y-7.8268
X14.1732Y-2.3465
X14.1732Y-2.7402
X14.1732Y-3.7913
X14.1732Y-4.185
X14.1732Y-5.2362
X14.1732Y-5.6299
X14.1732Y-6.6811
X14.1732Y-7.0748
X14.1732Y-8.126
X14.1732Y-8.5197
X16.8307Y-2.3465
X16.8307Y-2.7402
X16.8307Y-3.7913
X16.8307Y-4.185
X16.8307Y-5.2362
X16.8307Y-5.6299
X16.8307Y-6.6811
X16.8307Y-7.0748
X16.8307Y-8.126
X16.8307Y-8.5197
X18.1496Y-1.6535
X18.1496Y-2.0472
X18.1496Y-3.0984
X18.1496Y-3.4921
X18.1496Y-4.5433
X18.1496Y-4.937
X18.1496Y-5.9882
X18.1496Y-6.3819
X18.1496Y-7.4331
X18.1496Y-7.8268
T8
X15.0197Y-0.8858
X16.0039Y-0.8858
T9
X15.5039Y0.6929
X15.5039Y0.2756
T10
X15.5039Y-0.9764
X15.5039Y-3.0236
X15.5039Y-4.2746
X15.5039Y-5.8494
X15.5039Y-7.4242
M30
