%TF.GenerationSoftware,KiCad,Pcbnew,8.0.3*%
%TF.CreationDate,2024-09-30T04:18:30-05:00*%
%TF.ProjectId,Project Lab 4,50726f6a-6563-4742-904c-616220342e6b,rev?*%
%TF.SameCoordinates,Original*%
%TF.FileFunction,Copper,L4,Bot*%
%TF.FilePolarity,Positive*%
%FSLAX46Y46*%
G04 Gerber Fmt 4.6, Leading zero omitted, Abs format (unit mm)*
G04 Created by KiCad (PCBNEW 8.0.3) date 2024-09-30 04:18:30*
%MOMM*%
%LPD*%
G01*
G04 APERTURE LIST*
G04 Aperture macros list*
%AMRoundRect*
0 Rectangle with rounded corners*
0 $1 Rounding radius*
0 $2 $3 $4 $5 $6 $7 $8 $9 X,Y pos of 4 corners*
0 Add a 4 corners polygon primitive as box body*
4,1,4,$2,$3,$4,$5,$6,$7,$8,$9,$2,$3,0*
0 Add four circle primitives for the rounded corners*
1,1,$1+$1,$2,$3*
1,1,$1+$1,$4,$5*
1,1,$1+$1,$6,$7*
1,1,$1+$1,$8,$9*
0 Add four rect primitives between the rounded corners*
20,1,$1+$1,$2,$3,$4,$5,0*
20,1,$1+$1,$4,$5,$6,$7,0*
20,1,$1+$1,$6,$7,$8,$9,0*
20,1,$1+$1,$8,$9,$2,$3,0*%
G04 Aperture macros list end*
%TA.AperFunction,ComponentPad*%
%ADD10R,3.150000X3.150000*%
%TD*%
%TA.AperFunction,ComponentPad*%
%ADD11C,3.150000*%
%TD*%
%TA.AperFunction,ComponentPad*%
%ADD12C,5.100000*%
%TD*%
%TA.AperFunction,ComponentPad*%
%ADD13R,1.600000X2.400000*%
%TD*%
%TA.AperFunction,ComponentPad*%
%ADD14O,1.600000X2.400000*%
%TD*%
%TA.AperFunction,ComponentPad*%
%ADD15R,1.600000X1.600000*%
%TD*%
%TA.AperFunction,ComponentPad*%
%ADD16C,1.600000*%
%TD*%
%TA.AperFunction,ComponentPad*%
%ADD17C,10.200000*%
%TD*%
%TA.AperFunction,ComponentPad*%
%ADD18R,1.800000X1.800000*%
%TD*%
%TA.AperFunction,ComponentPad*%
%ADD19C,1.800000*%
%TD*%
%TA.AperFunction,ComponentPad*%
%ADD20RoundRect,0.250001X1.399999X-1.099999X1.399999X1.099999X-1.399999X1.099999X-1.399999X-1.099999X0*%
%TD*%
%TA.AperFunction,ComponentPad*%
%ADD21O,3.300000X2.700000*%
%TD*%
%TA.AperFunction,ComponentPad*%
%ADD22R,1.700000X1.700000*%
%TD*%
%TA.AperFunction,ComponentPad*%
%ADD23O,1.700000X1.700000*%
%TD*%
%TA.AperFunction,ComponentPad*%
%ADD24C,0.600000*%
%TD*%
%TA.AperFunction,ComponentPad*%
%ADD25O,1.600000X1.600000*%
%TD*%
%TA.AperFunction,ComponentPad*%
%ADD26C,8.600000*%
%TD*%
%TA.AperFunction,SMDPad,CuDef*%
%ADD27RoundRect,0.160000X-0.197500X-0.160000X0.197500X-0.160000X0.197500X0.160000X-0.197500X0.160000X0*%
%TD*%
%TA.AperFunction,ViaPad*%
%ADD28C,0.500000*%
%TD*%
%TA.AperFunction,Conductor*%
%ADD29C,0.200000*%
%TD*%
%TA.AperFunction,Conductor*%
%ADD30C,0.150000*%
%TD*%
%TA.AperFunction,Conductor*%
%ADD31C,0.100000*%
%TD*%
G04 APERTURE END LIST*
D10*
%TO.P,C6,1*%
%TO.N,+40V*%
X326500000Y-42000000D03*
D11*
%TO.P,C6,2*%
%TO.N,GNDPWR*%
X326500000Y-52000000D03*
%TD*%
D10*
%TO.P,C20,1*%
%TO.N,+40V*%
X461000000Y-42000000D03*
D11*
%TO.P,C20,2*%
%TO.N,GNDPWR*%
X461000000Y-52000000D03*
%TD*%
D12*
%TO.P,H8,1,1*%
%TO.N,/-SHUNT*%
X381500000Y-22500000D03*
X406500000Y-22500000D03*
%TD*%
D13*
%TO.P,OC4,1*%
%TO.N,Net-(OC4-Pad1)*%
X423075000Y26625000D03*
D14*
%TO.P,OC4,2*%
%TO.N,GND*%
X420535000Y26625000D03*
%TO.P,OC4,3*%
%TO.N,/DISCHARGE*%
X420535000Y19005000D03*
%TO.P,OC4,4*%
%TO.N,+12V*%
X423075000Y19005000D03*
%TD*%
D10*
%TO.P,C22,1*%
%TO.N,+40V*%
X326500000Y-188800000D03*
D11*
%TO.P,C22,2*%
%TO.N,GNDPWR*%
X326500000Y-198800000D03*
%TD*%
D10*
%TO.P,C18,1*%
%TO.N,+40V*%
X326500000Y-152100000D03*
D11*
%TO.P,C18,2*%
%TO.N,GNDPWR*%
X326500000Y-162100000D03*
%TD*%
D15*
%TO.P,SW2,1,A*%
%TO.N,GNDPWR*%
X336850000Y17907500D03*
D16*
%TO.P,SW2,2,B*%
%TO.N,/GAIN2*%
X336850000Y15407500D03*
%TO.P,SW2,3,C*%
%TO.N,+5V*%
X336850000Y12907500D03*
%TO.P,SW2,4*%
%TO.N,N/C*%
X333650000Y17907500D03*
%TO.P,SW2,5*%
X333650000Y15407500D03*
%TO.P,SW2,6*%
X333650000Y12907500D03*
%TD*%
D13*
%TO.P,OC1,1*%
%TO.N,Net-(OC1-Pad1)*%
X346675000Y27025000D03*
D14*
%TO.P,OC1,2*%
%TO.N,GND*%
X344135000Y27025000D03*
%TO.P,OC1,3*%
%TO.N,GNDPWR*%
X344135000Y19405000D03*
%TO.P,OC1,4*%
%TO.N,HV_RELAY*%
X346675000Y19405000D03*
%TD*%
D10*
%TO.P,C21,1*%
%TO.N,+40V*%
X360000000Y-59600000D03*
D11*
%TO.P,C21,2*%
%TO.N,GNDPWR*%
X360000000Y-69600000D03*
%TD*%
D10*
%TO.P,C13,1*%
%TO.N,+40V*%
X360000000Y-133000000D03*
D11*
%TO.P,C13,2*%
%TO.N,GNDPWR*%
X360000000Y-143000000D03*
%TD*%
D17*
%TO.P,R24,1,1*%
%TO.N,+40V*%
X393800000Y-76800000D03*
D18*
%TO.P,R24,2,2*%
%TO.N,/+RS*%
X393800000Y-54700000D03*
D19*
%TO.P,R24,3,3*%
%TO.N,/-RS*%
X393800000Y-46900000D03*
D17*
%TO.P,R24,4,4*%
%TO.N,/-SHUNT*%
X393800000Y-24800000D03*
%TD*%
D20*
%TO.P,J2,1,Pin_1*%
%TO.N,+40V*%
X340625000Y-16900000D03*
D21*
%TO.P,J2,2,Pin_2*%
%TO.N,GNDPWR*%
X340625000Y-12700000D03*
%TO.P,J2,3,Pin_3*%
%TO.N,-13.8V*%
X340625000Y-8500000D03*
%TO.P,J2,4,Pin_4*%
%TO.N,GNDPWR*%
X340625000Y-4300000D03*
%TO.P,J2,5,Pin_5*%
%TO.N,+13.8V*%
X340625000Y-100000D03*
%TO.P,J2,6,Pin_6*%
%TO.N,GNDPWR*%
X346125000Y-16900000D03*
%TO.P,J2,7,Pin_7*%
X346125000Y-12700000D03*
%TO.P,J2,8,Pin_8*%
%TO.N,HV_RELAY*%
X346125000Y-8500000D03*
%TO.P,J2,9,Pin_9*%
%TO.N,GNDPWR*%
X346125000Y-4300000D03*
%TO.P,J2,10,Pin_10*%
%TO.N,+12V*%
X346125000Y-100000D03*
%TD*%
D10*
%TO.P,C5,1*%
%TO.N,+40V*%
X360000000Y-206400000D03*
D11*
%TO.P,C5,2*%
%TO.N,GNDPWR*%
X360000000Y-216400000D03*
%TD*%
D17*
%TO.P,H7,1,1*%
%TO.N,+40V*%
X393800000Y-108575000D03*
X393800000Y-148575000D03*
X393800000Y-188575000D03*
%TD*%
D16*
%TO.P,C29,1*%
%TO.N,+12V*%
X351800000Y20900000D03*
%TO.P,C29,2*%
%TO.N,GND*%
X351800000Y25900000D03*
%TD*%
D10*
%TO.P,C11,1*%
%TO.N,+40V*%
X427500000Y-133000000D03*
D11*
%TO.P,C11,2*%
%TO.N,GNDPWR*%
X427500000Y-143000000D03*
%TD*%
D22*
%TO.P,J4,1,Pin_1*%
%TO.N,+5V_ISO*%
X384925000Y38260000D03*
D23*
%TO.P,J4,2,Pin_2*%
X384925000Y40800000D03*
%TO.P,J4,3,Pin_3*%
%TO.N,GND*%
X387465000Y38260000D03*
%TO.P,J4,4,Pin_4*%
X387465000Y40800000D03*
%TO.P,J4,5,Pin_5*%
%TO.N,+5V_ISO*%
X390005000Y38260000D03*
%TO.P,J4,6,Pin_6*%
X390005000Y40800000D03*
%TO.P,J4,7,Pin_7*%
%TO.N,GND*%
X392545000Y38260000D03*
%TO.P,J4,8,Pin_8*%
X392545000Y40800000D03*
%TO.P,J4,9,Pin_9*%
%TO.N,unconnected-(J4-Pin_9-Pad9)*%
X395085000Y38260000D03*
%TO.P,J4,10,Pin_10*%
%TO.N,/~CS*%
X395085000Y40800000D03*
%TO.P,J4,11,Pin_11*%
%TO.N,~BLEED*%
X397625000Y38260000D03*
%TO.P,J4,12,Pin_12*%
%TO.N,/SCLK*%
X397625000Y40800000D03*
%TO.P,J4,13,Pin_13*%
%TO.N,HV_EN*%
X400165000Y38260000D03*
%TO.P,J4,14,Pin_14*%
%TO.N,/MOSI*%
X400165000Y40800000D03*
%TO.P,J4,15,Pin_15*%
%TO.N,TRIG*%
X402705000Y38260000D03*
%TO.P,J4,16,Pin_16*%
%TO.N,/MISO*%
X402705000Y40800000D03*
%TD*%
D10*
%TO.P,C14,1*%
%TO.N,+40V*%
X326500000Y-115400000D03*
D11*
%TO.P,C14,2*%
%TO.N,GNDPWR*%
X326500000Y-125400000D03*
%TD*%
D10*
%TO.P,C12,1*%
%TO.N,+40V*%
X461000000Y-115400000D03*
D11*
%TO.P,C12,2*%
%TO.N,GNDPWR*%
X461000000Y-125400000D03*
%TD*%
D10*
%TO.P,C19,1*%
%TO.N,+40V*%
X427500000Y-59600000D03*
D11*
%TO.P,C19,2*%
%TO.N,GNDPWR*%
X427500000Y-69600000D03*
%TD*%
D10*
%TO.P,C15,1*%
%TO.N,+40V*%
X427500000Y-96300000D03*
D11*
%TO.P,C15,2*%
%TO.N,GNDPWR*%
X427500000Y-106300000D03*
%TD*%
D24*
%TO.P,Q1,3,D*%
%TO.N,/-SHUNT*%
X409600000Y-5170000D03*
X408400000Y-5170000D03*
X407200000Y-5170000D03*
X406000000Y-5170000D03*
X404800000Y-5170000D03*
X403600000Y-5170000D03*
X402400000Y-5170000D03*
X409600000Y-6370000D03*
X408400000Y-6370000D03*
X407200000Y-6370000D03*
X406000000Y-6370000D03*
X404800000Y-6370000D03*
X403600000Y-6370000D03*
X402400000Y-6370000D03*
X409600000Y-7570000D03*
X408400000Y-7570000D03*
X407200000Y-7570000D03*
X406000000Y-7570000D03*
X404800000Y-7570000D03*
X403600000Y-7570000D03*
X402400000Y-7570000D03*
X409600000Y-8770000D03*
X408400000Y-8770000D03*
X407200000Y-8770000D03*
X406000000Y-8770000D03*
X404800000Y-8770000D03*
X403600000Y-8770000D03*
X402400000Y-8770000D03*
X409600000Y-9970000D03*
X408400000Y-9970000D03*
X407200000Y-9970000D03*
X406000000Y-9970000D03*
X404800000Y-9970000D03*
X403600000Y-9970000D03*
X402400000Y-9970000D03*
X409600000Y-11170000D03*
X408400000Y-11170000D03*
X407200000Y-11170000D03*
X406000000Y-11170000D03*
X404800000Y-11170000D03*
X403600000Y-11170000D03*
X402400000Y-11170000D03*
%TD*%
D10*
%TO.P,C3,1*%
%TO.N,+40V*%
X427500000Y-206400000D03*
D11*
%TO.P,C3,2*%
%TO.N,GNDPWR*%
X427500000Y-216400000D03*
%TD*%
D16*
%TO.P,R8,1*%
%TO.N,+12V*%
X355550000Y15580000D03*
D25*
%TO.P,R8,2*%
%TO.N,GND*%
X355550000Y30820000D03*
%TD*%
D13*
%TO.P,OC2,1*%
%TO.N,Net-(OC2-Pad1)*%
X430475000Y26625000D03*
D14*
%TO.P,OC2,2*%
%TO.N,GND*%
X427935000Y26625000D03*
%TO.P,OC2,3*%
%TO.N,GNDPWR*%
X427935000Y19005000D03*
%TO.P,OC2,4*%
%TO.N,/cap_bank/bleed_gate*%
X430475000Y19005000D03*
%TD*%
D24*
%TO.P,Q3,3,D*%
%TO.N,/-SHUNT*%
X385200000Y-5170000D03*
X384000000Y-5170000D03*
X382800000Y-5170000D03*
X381600000Y-5170000D03*
X380400000Y-5170000D03*
X379200000Y-5170000D03*
X378000000Y-5170000D03*
X385200000Y-6370000D03*
X384000000Y-6370000D03*
X382800000Y-6370000D03*
X381600000Y-6370000D03*
X380400000Y-6370000D03*
X379200000Y-6370000D03*
X378000000Y-6370000D03*
X385200000Y-7570000D03*
X384000000Y-7570000D03*
X382800000Y-7570000D03*
X381600000Y-7570000D03*
X380400000Y-7570000D03*
X379200000Y-7570000D03*
X378000000Y-7570000D03*
X385200000Y-8770000D03*
X384000000Y-8770000D03*
X382800000Y-8770000D03*
X381600000Y-8770000D03*
X380400000Y-8770000D03*
X379200000Y-8770000D03*
X378000000Y-8770000D03*
X385200000Y-9970000D03*
X384000000Y-9970000D03*
X382800000Y-9970000D03*
X381600000Y-9970000D03*
X380400000Y-9970000D03*
X379200000Y-9970000D03*
X378000000Y-9970000D03*
X385200000Y-11170000D03*
X384000000Y-11170000D03*
X382800000Y-11170000D03*
X381600000Y-11170000D03*
X380400000Y-11170000D03*
X379200000Y-11170000D03*
X378000000Y-11170000D03*
%TD*%
D26*
%TO.P,H1,1,1*%
%TO.N,/power_stage/+TWEEZER*%
X393800000Y7000000D03*
%TD*%
D10*
%TO.P,C9,1*%
%TO.N,+40V*%
X360000000Y-169700000D03*
D11*
%TO.P,C9,2*%
%TO.N,GNDPWR*%
X360000000Y-179700000D03*
%TD*%
D10*
%TO.P,C10,1*%
%TO.N,+40V*%
X326500000Y-78700000D03*
D11*
%TO.P,C10,2*%
%TO.N,GNDPWR*%
X326500000Y-88700000D03*
%TD*%
D10*
%TO.P,C8,1*%
%TO.N,+40V*%
X461000000Y-152100000D03*
D11*
%TO.P,C8,2*%
%TO.N,GNDPWR*%
X461000000Y-162100000D03*
%TD*%
D10*
%TO.P,C7,1*%
%TO.N,+40V*%
X427500000Y-169700000D03*
D11*
%TO.P,C7,2*%
%TO.N,GNDPWR*%
X427500000Y-179700000D03*
%TD*%
D26*
%TO.P,H2,1,1*%
%TO.N,GNDPWR*%
X393800000Y17600000D03*
%TD*%
D10*
%TO.P,C4,1*%
%TO.N,+40V*%
X461000000Y-188800000D03*
D11*
%TO.P,C4,2*%
%TO.N,GNDPWR*%
X461000000Y-198800000D03*
%TD*%
D10*
%TO.P,C17,1*%
%TO.N,+40V*%
X360000000Y-96300000D03*
D11*
%TO.P,C17,2*%
%TO.N,GNDPWR*%
X360000000Y-106300000D03*
%TD*%
D15*
%TO.P,SW1,1,A*%
%TO.N,GNDPWR*%
X328950000Y17907500D03*
D16*
%TO.P,SW1,2,B*%
%TO.N,/GAIN1*%
X328950000Y15407500D03*
%TO.P,SW1,3,C*%
%TO.N,+5V*%
X328950000Y12907500D03*
%TO.P,SW1,4*%
%TO.N,N/C*%
X325750000Y17907500D03*
%TO.P,SW1,5*%
X325750000Y15407500D03*
%TO.P,SW1,6*%
X325750000Y12907500D03*
%TD*%
D24*
%TO.P,Q2,3,D*%
%TO.N,/-SHUNT*%
X397600000Y-5170000D03*
X396400000Y-5170000D03*
X395200000Y-5170000D03*
X394000000Y-5170000D03*
X392800000Y-5170000D03*
X391600000Y-5170000D03*
X390400000Y-5170000D03*
X397600000Y-6370000D03*
X396400000Y-6370000D03*
X395200000Y-6370000D03*
X394000000Y-6370000D03*
X392800000Y-6370000D03*
X391600000Y-6370000D03*
X390400000Y-6370000D03*
X397600000Y-7570000D03*
X396400000Y-7570000D03*
X395200000Y-7570000D03*
X394000000Y-7570000D03*
X392800000Y-7570000D03*
X391600000Y-7570000D03*
X390400000Y-7570000D03*
X397600000Y-8770000D03*
X396400000Y-8770000D03*
X395200000Y-8770000D03*
X394000000Y-8770000D03*
X392800000Y-8770000D03*
X391600000Y-8770000D03*
X390400000Y-8770000D03*
X397600000Y-9970000D03*
X396400000Y-9970000D03*
X395200000Y-9970000D03*
X394000000Y-9970000D03*
X392800000Y-9970000D03*
X391600000Y-9970000D03*
X390400000Y-9970000D03*
X397600000Y-11170000D03*
X396400000Y-11170000D03*
X395200000Y-11170000D03*
X394000000Y-11170000D03*
X392800000Y-11170000D03*
X391600000Y-11170000D03*
X390400000Y-11170000D03*
%TD*%
D10*
%TO.P,C16,1*%
%TO.N,+40V*%
X461000000Y-78700000D03*
D11*
%TO.P,C16,2*%
%TO.N,GNDPWR*%
X461000000Y-88700000D03*
%TD*%
D27*
%TO.P,TH1,1*%
%TO.N,+5V*%
X393402500Y-14300000D03*
%TO.P,TH1,2*%
%TO.N,THERM1*%
X394597500Y-14300000D03*
%TD*%
%TO.P,TH2,1*%
%TO.N,+5V*%
X393202500Y-168300000D03*
%TO.P,TH2,2*%
%TO.N,THERM2*%
X394397500Y-168300000D03*
%TD*%
D28*
%TO.N,GND*%
X447000000Y27500000D03*
%TO.N,GNDPWR*%
X420400000Y13000000D03*
X463800000Y-24200000D03*
X374000000Y18200000D03*
X369800000Y18800000D03*
%TO.N,Net-(U2-OUTB)*%
X443455000Y6600000D03*
X445200000Y7800000D03*
%TO.N,Net-(U2-OUTA)*%
X445900000Y9000000D03*
%TO.N,/+i_sens*%
X441900000Y-6000000D03*
%TO.N,/GAIN1*%
X364100000Y-31800000D03*
%TO.N,/GAIN2*%
X364300000Y-31000000D03*
%TO.N,GNDPWR*%
X444000000Y-1700000D03*
%TO.N,Net-(U2-OUTA)*%
X442400000Y1100000D03*
%TO.N,GND*%
X366400000Y33200000D03*
%TO.N,HV_EN*%
X346600000Y32400000D03*
%TO.N,GNDPWR*%
X326000000Y3500000D03*
X331900000Y3400000D03*
%TO.N,+12V*%
X332000000Y-3900000D03*
%TO.N,GNDPWR*%
X357200000Y-12800000D03*
%TO.N,THERM1*%
X448200000Y4800000D03*
%TO.N,THERM2*%
X451300000Y4800000D03*
%TO.N,+5V*%
X371800000Y-34900000D03*
%TO.N,/+RS*%
X370000000Y-31500000D03*
%TO.N,/-RS*%
X372000000Y-31000000D03*
%TO.N,/+i_sens*%
X370800000Y-30000000D03*
%TO.N,/-RS*%
X390500000Y-33900000D03*
%TO.N,/+RS*%
X390600000Y-41700000D03*
%TO.N,GND*%
X369800000Y26400000D03*
X439400000Y27500000D03*
X451300000Y24700000D03*
%TO.N,GNDPWR*%
X451300000Y20700000D03*
X447000000Y18100000D03*
X439300000Y18100000D03*
X427700000Y-700000D03*
X417200000Y-6000000D03*
X430200000Y-10700000D03*
X448600000Y2400000D03*
X451400000Y2700000D03*
X453000000Y-3600000D03*
X441900000Y-7300000D03*
X436200000Y-3000000D03*
X432700000Y800000D03*
X436100000Y4700000D03*
%TO.N,+12V*%
X432700000Y-2400000D03*
%TO.N,GNDPWR*%
X370600000Y-6700000D03*
X372700000Y-6600000D03*
%TO.N,+5V*%
X373200000Y-14300000D03*
%TO.N,GNDPWR*%
X357200000Y-22600000D03*
X358000000Y-31700000D03*
X358000000Y-29500000D03*
X370000000Y-29300000D03*
X370200000Y-26500000D03*
X359600000Y-18600000D03*
X359600000Y-17800000D03*
X359600000Y-17000000D03*
%TD*%
D29*
%TO.N,Net-(U2-OUTA)*%
X442400000Y4100000D02*
X442400000Y1100000D01*
X445900000Y7600000D02*
X442400000Y4100000D01*
X445900000Y9000000D02*
X445900000Y7600000D01*
%TO.N,/+i_sens*%
X373950000Y-30000000D02*
X370850000Y-30000000D01*
X375550000Y-31600000D02*
X373950000Y-30000000D01*
X414650000Y-31600000D02*
X375550000Y-31600000D01*
X440250000Y-6000000D02*
X414650000Y-31600000D01*
X441850000Y-6050000D02*
X441900000Y-6000000D01*
X441900000Y-6000000D02*
X440250000Y-6000000D01*
D30*
%TO.N,/GAIN2*%
X339687475Y15407500D02*
X336850000Y15407500D01*
X364100000Y-9005025D02*
X339687475Y15407500D01*
X364100000Y-30800000D02*
X364100000Y-9005025D01*
X364300000Y-31000000D02*
X364100000Y-30800000D01*
D29*
%TO.N,+5V*%
X371800000Y-34900000D02*
X371750000Y-164400000D01*
D31*
%TO.N,/-RS*%
X390600000Y-34000000D02*
X390600000Y-37650000D01*
X390500000Y-33900000D02*
X390600000Y-34000000D01*
X390600000Y-33800000D02*
X390500000Y-33900000D01*
%TO.N,/+RS*%
X390600000Y-41700000D02*
X390600000Y-38900000D01*
D29*
%TO.N,+5V*%
X373200000Y-14300000D02*
X393402500Y-14300000D01*
X371750000Y-164400000D02*
X375650000Y-168300000D01*
X371750000Y-34950000D02*
X371800000Y-34900000D01*
X375650000Y-168300000D02*
X393202500Y-168300000D01*
X373150000Y-14300000D02*
X373200000Y-14300000D01*
%TO.N,THERM1*%
X430542893Y-14300000D02*
X394597500Y-14300000D01*
X448200000Y3357107D02*
X430542893Y-14300000D01*
X448200000Y4750000D02*
X448200000Y3357107D01*
%TO.N,THERM2*%
X450450000Y4000000D02*
X451200000Y4750000D01*
X394397500Y-168300000D02*
X421950000Y-168300000D01*
X450450000Y-139800000D02*
X450450000Y4000000D01*
X421950000Y-168300000D02*
X450450000Y-139800000D01*
%TO.N,HV_EN*%
X400165000Y38260000D02*
X398505000Y36600000D01*
X398505000Y36600000D02*
X350800000Y36600000D01*
X350800000Y36600000D02*
X346600000Y32400000D01*
D31*
%TO.N,/+RS*%
X389950000Y-38250000D02*
X378500000Y-38250000D01*
X371750000Y-31500000D02*
X370250000Y-31500000D01*
X378500000Y-38250000D02*
X371750000Y-31500000D01*
X393800000Y-54700000D02*
X390600000Y-51500000D01*
X390600000Y-41825000D02*
X390600000Y-41700000D01*
X390600000Y-38900000D02*
X389950000Y-38250000D01*
X390600000Y-51500000D02*
X390600000Y-41825000D01*
X370250000Y-31500000D02*
X370000000Y-31500000D01*
%TO.N,/-RS*%
X390600000Y-37875000D02*
X378875000Y-37875000D01*
X390600000Y-33775000D02*
X390600000Y-33800000D01*
X390600000Y-37850000D02*
X390600000Y-37650000D01*
X393800000Y-41050000D02*
X390600000Y-37850000D01*
X393800000Y-46900000D02*
X393800000Y-41050000D01*
X378875000Y-37875000D02*
X372000000Y-31000000D01*
X390600000Y-37650000D02*
X390600000Y-37875000D01*
D30*
%TO.N,/GAIN1*%
X333707500Y10650000D02*
X328950000Y15407500D01*
X364078248Y-31800000D02*
X363625000Y-31346752D01*
X363625000Y-31346752D02*
X363625000Y-9175000D01*
X343800000Y10650000D02*
X333707500Y10650000D01*
X363625000Y-9175000D02*
X343800000Y10650000D01*
D29*
%TO.N,Net-(U2-OUTB)*%
X444000000Y6600000D02*
X443505000Y6600000D01*
X445100000Y7700000D02*
X444000000Y6600000D01*
%TD*%
%TA.AperFunction,Conductor*%
%TO.N,+12V*%
G36*
X465742539Y22980315D02*
G01*
X465788294Y22927511D01*
X465799500Y22876000D01*
X465799500Y-35876000D01*
X465779815Y-35943039D01*
X465727011Y-35988794D01*
X465675500Y-36000000D01*
X450924500Y-36000000D01*
X450857461Y-35980315D01*
X450811706Y-35927511D01*
X450800500Y-35876000D01*
X450800500Y-24200000D01*
X463294353Y-24200000D01*
X463314834Y-24342456D01*
X463316384Y-24345849D01*
X463374623Y-24473373D01*
X463468872Y-24582143D01*
X463589947Y-24659953D01*
X463589950Y-24659954D01*
X463589949Y-24659954D01*
X463728036Y-24700499D01*
X463728038Y-24700500D01*
X463728039Y-24700500D01*
X463871962Y-24700500D01*
X463871962Y-24700499D01*
X464010053Y-24659953D01*
X464131128Y-24582143D01*
X464225377Y-24473373D01*
X464285165Y-24342457D01*
X464305647Y-24200000D01*
X464285165Y-24057543D01*
X464225377Y-23926627D01*
X464131128Y-23817857D01*
X464010053Y-23740047D01*
X464010051Y-23740046D01*
X464010049Y-23740045D01*
X464010050Y-23740045D01*
X463871963Y-23699500D01*
X463871961Y-23699500D01*
X463728039Y-23699500D01*
X463728036Y-23699500D01*
X463589949Y-23740045D01*
X463468873Y-23817856D01*
X463374623Y-23926626D01*
X463374622Y-23926628D01*
X463314834Y-24057543D01*
X463294353Y-24200000D01*
X450800500Y-24200000D01*
X450800500Y-3600000D01*
X452494353Y-3600000D01*
X452514834Y-3742456D01*
X452574622Y-3873371D01*
X452574623Y-3873373D01*
X452668872Y-3982143D01*
X452789947Y-4059953D01*
X452789950Y-4059954D01*
X452789949Y-4059954D01*
X452928036Y-4100499D01*
X452928038Y-4100500D01*
X452928039Y-4100500D01*
X453071962Y-4100500D01*
X453071962Y-4100499D01*
X453210053Y-4059953D01*
X453331128Y-3982143D01*
X453425377Y-3873373D01*
X453485165Y-3742457D01*
X453505647Y-3600000D01*
X453485165Y-3457543D01*
X453425377Y-3326627D01*
X453331128Y-3217857D01*
X453210053Y-3140047D01*
X453210051Y-3140046D01*
X453210049Y-3140045D01*
X453210050Y-3140045D01*
X453071963Y-3099500D01*
X453071961Y-3099500D01*
X452928039Y-3099500D01*
X452928036Y-3099500D01*
X452789949Y-3140045D01*
X452668873Y-3217856D01*
X452574623Y-3326626D01*
X452574622Y-3326628D01*
X452514834Y-3457543D01*
X452494353Y-3600000D01*
X450800500Y-3600000D01*
X450800500Y2295118D01*
X450820185Y2362157D01*
X450872989Y2407912D01*
X450942147Y2417856D01*
X451005703Y2388831D01*
X451018213Y2376321D01*
X451068873Y2317856D01*
X451189950Y2240045D01*
X451189949Y2240045D01*
X451328036Y2199500D01*
X451328039Y2199500D01*
X451471963Y2199500D01*
X451610050Y2240045D01*
X451731126Y2317856D01*
X451731128Y2317857D01*
X451825377Y2426627D01*
X451885165Y2557543D01*
X451905647Y2700000D01*
X451885165Y2842457D01*
X451825377Y2973373D01*
X451731128Y3082143D01*
X451610053Y3159953D01*
X451471962Y3200499D01*
X451471962Y3200500D01*
X451471961Y3200500D01*
X451328039Y3200500D01*
X451328038Y3200500D01*
X451328036Y3200499D01*
X451189949Y3159954D01*
X451189947Y3159953D01*
X451068872Y3082143D01*
X451068870Y3082141D01*
X451018213Y3023679D01*
X450959435Y2985904D01*
X450889566Y2985904D01*
X450830787Y3023678D01*
X450801762Y3087233D01*
X450800500Y3104881D01*
X450800500Y3803456D01*
X450820185Y3870495D01*
X450836819Y3891137D01*
X451208863Y4263181D01*
X451270186Y4296666D01*
X451296544Y4299500D01*
X451371963Y4299500D01*
X451510050Y4340045D01*
X451631126Y4417856D01*
X451631128Y4417857D01*
X451725377Y4526627D01*
X451785165Y4657543D01*
X451805647Y4800000D01*
X451785165Y4942457D01*
X451725377Y5073373D01*
X451631128Y5182143D01*
X451510053Y5259953D01*
X451371962Y5300499D01*
X451371962Y5300500D01*
X451371961Y5300500D01*
X451228039Y5300500D01*
X451228038Y5300500D01*
X451228036Y5300499D01*
X451089949Y5259954D01*
X451089947Y5259953D01*
X450968872Y5182143D01*
X450882222Y5082143D01*
X450874623Y5073373D01*
X450874622Y5073371D01*
X450814835Y4942458D01*
X450814834Y4942453D01*
X450806948Y4887606D01*
X450777922Y4824051D01*
X450771891Y4817573D01*
X450169531Y4215213D01*
X450169529Y4215210D01*
X450129656Y4146147D01*
X450129654Y4146145D01*
X450123386Y4135290D01*
X450123386Y4135289D01*
X450099500Y4046143D01*
X450099500Y-35876000D01*
X450079815Y-35943039D01*
X450027011Y-35988794D01*
X449975500Y-36000000D01*
X391024500Y-36000000D01*
X390957461Y-35980315D01*
X390911706Y-35927511D01*
X390900500Y-35876000D01*
X390900500Y-34248332D01*
X390920185Y-34181293D01*
X390920901Y-34180336D01*
X390925368Y-34173382D01*
X390925377Y-34173373D01*
X390985165Y-34042457D01*
X391005647Y-33900000D01*
X390985165Y-33757543D01*
X390925377Y-33626627D01*
X390831128Y-33517857D01*
X390710053Y-33440047D01*
X390710051Y-33440046D01*
X390710049Y-33440045D01*
X390710050Y-33440045D01*
X390571963Y-33399500D01*
X390571961Y-33399500D01*
X390428039Y-33399500D01*
X390428036Y-33399500D01*
X390289949Y-33440045D01*
X390168873Y-33517856D01*
X390074623Y-33626626D01*
X390074622Y-33626628D01*
X390014834Y-33757543D01*
X389994353Y-33900000D01*
X390014834Y-34042456D01*
X390074621Y-34173368D01*
X390074623Y-34173373D01*
X390168872Y-34282143D01*
X390242540Y-34329486D01*
X390288294Y-34382289D01*
X390299500Y-34433801D01*
X390299500Y-35876000D01*
X390279815Y-35943039D01*
X390227011Y-35988794D01*
X390175500Y-36000000D01*
X377476333Y-36000000D01*
X377409294Y-35980315D01*
X377388652Y-35963681D01*
X372539395Y-31114424D01*
X372505910Y-31053101D01*
X372504339Y-31009094D01*
X372505647Y-31000000D01*
X372485165Y-30857543D01*
X372425377Y-30726627D01*
X372331128Y-30617857D01*
X372331125Y-30617855D01*
X372331126Y-30617855D01*
X372270378Y-30578815D01*
X372224624Y-30526011D01*
X372214680Y-30456853D01*
X372243705Y-30393297D01*
X372302483Y-30355523D01*
X372337418Y-30350500D01*
X373753456Y-30350500D01*
X373820495Y-30370185D01*
X373841137Y-30386819D01*
X375334788Y-31880470D01*
X375334790Y-31880471D01*
X375334794Y-31880474D01*
X375378122Y-31905489D01*
X375378124Y-31905490D01*
X375378128Y-31905492D01*
X375414712Y-31926614D01*
X375503856Y-31950500D01*
X375503857Y-31950500D01*
X375503858Y-31950500D01*
X414696142Y-31950500D01*
X414696144Y-31950500D01*
X414785288Y-31926614D01*
X414821871Y-31905492D01*
X414821873Y-31905492D01*
X414865205Y-31880474D01*
X414865204Y-31880474D01*
X414865212Y-31880470D01*
X439445682Y-7300000D01*
X441394353Y-7300000D01*
X441414834Y-7442456D01*
X441421634Y-7457345D01*
X441474623Y-7573373D01*
X441568872Y-7682143D01*
X441689947Y-7759953D01*
X441689950Y-7759954D01*
X441689949Y-7759954D01*
X441828036Y-7800499D01*
X441828038Y-7800500D01*
X441828039Y-7800500D01*
X441971962Y-7800500D01*
X441971962Y-7800499D01*
X442110053Y-7759953D01*
X442231128Y-7682143D01*
X442325377Y-7573373D01*
X442385165Y-7442457D01*
X442405647Y-7300000D01*
X442385165Y-7157543D01*
X442325377Y-7026627D01*
X442231128Y-6917857D01*
X442110053Y-6840047D01*
X442110051Y-6840046D01*
X442110049Y-6840045D01*
X442110050Y-6840045D01*
X441971963Y-6799500D01*
X441971961Y-6799500D01*
X441828039Y-6799500D01*
X441828036Y-6799500D01*
X441689949Y-6840045D01*
X441568873Y-6917856D01*
X441474623Y-7026626D01*
X441474622Y-7026628D01*
X441414834Y-7157543D01*
X441394353Y-7300000D01*
X439445682Y-7300000D01*
X440358863Y-6386819D01*
X440420186Y-6353334D01*
X440446544Y-6350500D01*
X441486105Y-6350500D01*
X441553144Y-6370185D01*
X441567312Y-6380790D01*
X441568866Y-6382137D01*
X441568872Y-6382143D01*
X441689947Y-6459953D01*
X441689950Y-6459954D01*
X441689949Y-6459954D01*
X441828036Y-6500499D01*
X441828038Y-6500500D01*
X441828039Y-6500500D01*
X441971962Y-6500500D01*
X441971962Y-6500499D01*
X442110053Y-6459953D01*
X442231128Y-6382143D01*
X442325377Y-6273373D01*
X442385165Y-6142457D01*
X442405647Y-6000000D01*
X442385165Y-5857543D01*
X442325377Y-5726627D01*
X442231128Y-5617857D01*
X442110053Y-5540047D01*
X442110051Y-5540046D01*
X442110049Y-5540045D01*
X442110050Y-5540045D01*
X441971963Y-5499500D01*
X441971961Y-5499500D01*
X441828039Y-5499500D01*
X441828036Y-5499500D01*
X441689949Y-5540045D01*
X441568876Y-5617854D01*
X441568874Y-5617855D01*
X441568872Y-5617857D01*
X441568870Y-5617858D01*
X441567312Y-5619210D01*
X441565427Y-5620070D01*
X441561411Y-5622652D01*
X441561039Y-5622074D01*
X441503757Y-5648237D01*
X441486105Y-5649500D01*
X440203856Y-5649500D01*
X440120073Y-5671948D01*
X440120074Y-5671949D01*
X440114712Y-5673385D01*
X440114708Y-5673387D01*
X440034791Y-5719527D01*
X440034786Y-5719531D01*
X414541137Y-31213181D01*
X414479814Y-31246666D01*
X414453456Y-31249500D01*
X375746544Y-31249500D01*
X375679505Y-31229815D01*
X375658863Y-31213181D01*
X374165213Y-29719531D01*
X374165208Y-29719527D01*
X374085291Y-29673387D01*
X374085287Y-29673385D01*
X374079926Y-29671949D01*
X374079926Y-29671948D01*
X374011476Y-29653608D01*
X373996144Y-29649500D01*
X373996143Y-29649500D01*
X371213895Y-29649500D01*
X371146856Y-29629815D01*
X371132688Y-29619210D01*
X371131132Y-29617862D01*
X371131128Y-29617857D01*
X371010053Y-29540047D01*
X371010051Y-29540046D01*
X371010049Y-29540045D01*
X371010050Y-29540045D01*
X370871963Y-29499500D01*
X370871961Y-29499500D01*
X370728039Y-29499500D01*
X370651026Y-29522112D01*
X370581157Y-29522111D01*
X370522379Y-29484335D01*
X370493355Y-29420779D01*
X370493355Y-29385493D01*
X370505647Y-29300000D01*
X370485165Y-29157543D01*
X370425377Y-29026627D01*
X370331128Y-28917857D01*
X370210053Y-28840047D01*
X370210051Y-28840046D01*
X370210049Y-28840045D01*
X370210050Y-28840045D01*
X370071963Y-28799500D01*
X370071961Y-28799500D01*
X369928039Y-28799500D01*
X369928036Y-28799500D01*
X369789949Y-28840045D01*
X369668873Y-28917856D01*
X369574623Y-29026626D01*
X369574622Y-29026628D01*
X369514834Y-29157543D01*
X369494353Y-29300000D01*
X369514834Y-29442456D01*
X369559402Y-29540045D01*
X369574623Y-29573373D01*
X369668872Y-29682143D01*
X369789947Y-29759953D01*
X369789950Y-29759954D01*
X369789949Y-29759954D01*
X369928036Y-29800499D01*
X369928038Y-29800500D01*
X369928039Y-29800500D01*
X370071961Y-29800500D01*
X370148971Y-29777888D01*
X370218841Y-29777888D01*
X370277619Y-29815662D01*
X370306644Y-29879218D01*
X370306644Y-29914512D01*
X370294353Y-29999999D01*
X370314834Y-30142456D01*
X370318508Y-30150500D01*
X370374623Y-30273373D01*
X370468872Y-30382143D01*
X370589947Y-30459953D01*
X370589950Y-30459954D01*
X370589949Y-30459954D01*
X370697107Y-30491417D01*
X370724633Y-30499500D01*
X370728036Y-30500499D01*
X370728038Y-30500500D01*
X370728039Y-30500500D01*
X370871962Y-30500500D01*
X370871962Y-30500499D01*
X371010053Y-30459953D01*
X371131128Y-30382143D01*
X371131136Y-30382133D01*
X371132688Y-30380790D01*
X371134572Y-30379929D01*
X371138589Y-30377348D01*
X371138960Y-30377925D01*
X371196243Y-30351763D01*
X371213895Y-30350500D01*
X371662582Y-30350500D01*
X371729621Y-30370185D01*
X371775376Y-30422989D01*
X371785320Y-30492147D01*
X371756295Y-30555703D01*
X371729622Y-30578815D01*
X371668874Y-30617855D01*
X371574623Y-30726626D01*
X371574622Y-30726628D01*
X371514834Y-30857543D01*
X371494353Y-30999999D01*
X371502671Y-31057853D01*
X371492727Y-31127012D01*
X371446972Y-31179816D01*
X371379933Y-31199500D01*
X370458501Y-31199500D01*
X370391462Y-31179815D01*
X370364788Y-31156703D01*
X370331128Y-31117857D01*
X370210053Y-31040047D01*
X370210051Y-31040046D01*
X370210049Y-31040045D01*
X370210050Y-31040045D01*
X370071963Y-30999500D01*
X370071961Y-30999500D01*
X369928039Y-30999500D01*
X369928036Y-30999500D01*
X369789949Y-31040045D01*
X369668873Y-31117856D01*
X369574623Y-31226626D01*
X369574622Y-31226628D01*
X369514834Y-31357543D01*
X369494353Y-31500000D01*
X369514834Y-31642456D01*
X369541114Y-31700000D01*
X369574623Y-31773373D01*
X369668872Y-31882143D01*
X369789947Y-31959953D01*
X369789950Y-31959954D01*
X369789949Y-31959954D01*
X369928036Y-32000499D01*
X369928038Y-32000500D01*
X369928039Y-32000500D01*
X370071962Y-32000500D01*
X370071962Y-32000499D01*
X370210053Y-31959953D01*
X370331128Y-31882143D01*
X370364788Y-31843296D01*
X370423567Y-31805523D01*
X370458501Y-31800500D01*
X371574167Y-31800500D01*
X371641206Y-31820185D01*
X371661848Y-31836819D01*
X375613348Y-35788319D01*
X375646833Y-35849642D01*
X375641849Y-35919334D01*
X375599977Y-35975267D01*
X375534513Y-35999684D01*
X375525667Y-36000000D01*
X372274123Y-36000000D01*
X372207084Y-35980315D01*
X372161329Y-35927511D01*
X372150123Y-35875952D01*
X372150343Y-35306168D01*
X372170053Y-35239136D01*
X372180625Y-35225018D01*
X372225377Y-35173373D01*
X372285165Y-35042457D01*
X372305647Y-34900000D01*
X372285165Y-34757543D01*
X372225377Y-34626627D01*
X372131128Y-34517857D01*
X372010053Y-34440047D01*
X372010051Y-34440046D01*
X372010049Y-34440045D01*
X372010050Y-34440045D01*
X371871963Y-34399500D01*
X371871961Y-34399500D01*
X371728039Y-34399500D01*
X371728036Y-34399500D01*
X371589949Y-34440045D01*
X371468873Y-34517856D01*
X371374623Y-34626626D01*
X371374622Y-34626628D01*
X371314834Y-34757543D01*
X371294353Y-34900000D01*
X371314834Y-35042456D01*
X371374622Y-35173371D01*
X371374623Y-35173373D01*
X371419056Y-35224652D01*
X371448081Y-35288207D01*
X371449343Y-35305902D01*
X371449123Y-35876048D01*
X371429413Y-35943080D01*
X371376591Y-35988814D01*
X371325123Y-36000000D01*
X321924500Y-36000000D01*
X321857461Y-35980315D01*
X321811706Y-35927511D01*
X321800500Y-35876000D01*
X321800500Y-31700000D01*
X357494353Y-31700000D01*
X357514834Y-31842456D01*
X357560504Y-31942457D01*
X357574623Y-31973373D01*
X357668872Y-32082143D01*
X357789947Y-32159953D01*
X357789950Y-32159954D01*
X357789949Y-32159954D01*
X357928036Y-32200499D01*
X357928038Y-32200500D01*
X357928039Y-32200500D01*
X358071962Y-32200500D01*
X358071962Y-32200499D01*
X358210053Y-32159953D01*
X358331128Y-32082143D01*
X358425377Y-31973373D01*
X358485165Y-31842457D01*
X358505647Y-31700000D01*
X358485165Y-31557543D01*
X358425377Y-31426627D01*
X358331128Y-31317857D01*
X358210053Y-31240047D01*
X358210051Y-31240046D01*
X358210049Y-31240045D01*
X358210050Y-31240045D01*
X358071963Y-31199500D01*
X358071961Y-31199500D01*
X357928039Y-31199500D01*
X357928036Y-31199500D01*
X357789949Y-31240045D01*
X357668873Y-31317856D01*
X357574623Y-31426626D01*
X357574622Y-31426628D01*
X357514834Y-31557543D01*
X357494353Y-31700000D01*
X321800500Y-31700000D01*
X321800500Y-29500000D01*
X357494353Y-29500000D01*
X357514834Y-29642456D01*
X357568494Y-29759953D01*
X357574623Y-29773373D01*
X357668872Y-29882143D01*
X357789947Y-29959953D01*
X357789950Y-29959954D01*
X357789949Y-29959954D01*
X357897107Y-29991417D01*
X357926336Y-30000000D01*
X357928036Y-30000499D01*
X357928038Y-30000500D01*
X357928039Y-30000500D01*
X358071962Y-30000500D01*
X358071962Y-30000499D01*
X358210053Y-29959953D01*
X358331128Y-29882143D01*
X358425377Y-29773373D01*
X358485165Y-29642457D01*
X358505647Y-29500000D01*
X358485165Y-29357543D01*
X358425377Y-29226627D01*
X358331128Y-29117857D01*
X358210053Y-29040047D01*
X358210051Y-29040046D01*
X358210049Y-29040045D01*
X358210050Y-29040045D01*
X358071963Y-28999500D01*
X358071961Y-28999500D01*
X357928039Y-28999500D01*
X357928036Y-28999500D01*
X357789949Y-29040045D01*
X357668873Y-29117856D01*
X357574623Y-29226626D01*
X357574622Y-29226628D01*
X357514834Y-29357543D01*
X357494353Y-29500000D01*
X321800500Y-29500000D01*
X321800500Y-22600000D01*
X356694353Y-22600000D01*
X356714834Y-22742456D01*
X356752837Y-22825669D01*
X356774623Y-22873373D01*
X356868872Y-22982143D01*
X356989947Y-23059953D01*
X356989950Y-23059954D01*
X356989949Y-23059954D01*
X357128036Y-23100499D01*
X357128038Y-23100500D01*
X357128039Y-23100500D01*
X357271962Y-23100500D01*
X357271962Y-23100499D01*
X357410053Y-23059953D01*
X357531128Y-22982143D01*
X357625377Y-22873373D01*
X357685165Y-22742457D01*
X357705647Y-22600000D01*
X357685165Y-22457543D01*
X357625377Y-22326627D01*
X357531128Y-22217857D01*
X357410053Y-22140047D01*
X357410051Y-22140046D01*
X357410049Y-22140045D01*
X357410050Y-22140045D01*
X357271963Y-22099500D01*
X357271961Y-22099500D01*
X357128039Y-22099500D01*
X357128036Y-22099500D01*
X356989949Y-22140045D01*
X356868873Y-22217856D01*
X356774623Y-22326626D01*
X356774622Y-22326628D01*
X356714834Y-22457543D01*
X356694353Y-22600000D01*
X321800500Y-22600000D01*
X321800500Y-15752136D01*
X338724500Y-15752136D01*
X338724500Y-18047863D01*
X338724501Y-18047882D01*
X338730908Y-18107481D01*
X338781202Y-18242327D01*
X338781203Y-18242328D01*
X338781204Y-18242330D01*
X338867454Y-18357546D01*
X338982670Y-18443796D01*
X338982671Y-18443796D01*
X338982672Y-18443797D01*
X339117518Y-18494091D01*
X339117517Y-18494091D01*
X339124445Y-18494835D01*
X339177128Y-18500500D01*
X339177137Y-18500500D01*
X342072863Y-18500500D01*
X342072872Y-18500500D01*
X342132482Y-18494091D01*
X342267330Y-18443796D01*
X342382546Y-18357546D01*
X342468796Y-18242330D01*
X342519091Y-18107482D01*
X342525500Y-18047872D01*
X342525500Y-16774038D01*
X344224500Y-16774038D01*
X344224500Y-17025961D01*
X344263910Y-17274785D01*
X344341760Y-17514383D01*
X344456132Y-17738848D01*
X344604201Y-17942649D01*
X344604205Y-17942654D01*
X344782345Y-18120794D01*
X344782350Y-18120798D01*
X344820464Y-18148489D01*
X344986155Y-18268870D01*
X345099500Y-18326622D01*
X345210616Y-18383239D01*
X345210618Y-18383239D01*
X345210621Y-18383241D01*
X345450215Y-18461090D01*
X345699038Y-18500500D01*
X345699039Y-18500500D01*
X346550961Y-18500500D01*
X346550962Y-18500500D01*
X346799785Y-18461090D01*
X347039379Y-18383241D01*
X347263845Y-18268870D01*
X347467656Y-18120793D01*
X347645793Y-17942656D01*
X347793870Y-17738845D01*
X347908241Y-17514379D01*
X347986090Y-17274785D01*
X348025500Y-17025962D01*
X348025500Y-17000000D01*
X359094353Y-17000000D01*
X359114834Y-17142456D01*
X359174622Y-17273371D01*
X359174625Y-17273377D01*
X359213983Y-17318798D01*
X359243008Y-17382353D01*
X359233064Y-17451512D01*
X359213983Y-17481202D01*
X359174625Y-17526622D01*
X359174622Y-17526628D01*
X359114834Y-17657543D01*
X359094353Y-17800000D01*
X359114834Y-17942456D01*
X359174622Y-18073371D01*
X359174625Y-18073377D01*
X359213983Y-18118798D01*
X359243008Y-18182353D01*
X359233064Y-18251512D01*
X359213983Y-18281202D01*
X359174625Y-18326622D01*
X359174622Y-18326628D01*
X359114834Y-18457543D01*
X359094353Y-18600000D01*
X359114834Y-18742456D01*
X359174622Y-18873371D01*
X359174623Y-18873373D01*
X359268872Y-18982143D01*
X359389947Y-19059953D01*
X359389950Y-19059954D01*
X359389949Y-19059954D01*
X359528036Y-19100499D01*
X359528038Y-19100500D01*
X359528039Y-19100500D01*
X359671962Y-19100500D01*
X359671962Y-19100499D01*
X359810053Y-19059953D01*
X359931128Y-18982143D01*
X360025377Y-18873373D01*
X360085165Y-18742457D01*
X360105647Y-18600000D01*
X360085165Y-18457543D01*
X360025377Y-18326627D01*
X360025375Y-18326625D01*
X360025374Y-18326622D01*
X359986017Y-18281203D01*
X359956991Y-18217648D01*
X359966934Y-18148489D01*
X359986017Y-18118797D01*
X360025374Y-18073377D01*
X360025374Y-18073375D01*
X360025377Y-18073373D01*
X360085165Y-17942457D01*
X360105647Y-17800000D01*
X360085165Y-17657543D01*
X360025377Y-17526627D01*
X360025375Y-17526625D01*
X360025374Y-17526622D01*
X359986017Y-17481203D01*
X359956991Y-17417648D01*
X359966934Y-17348489D01*
X359986017Y-17318797D01*
X360025374Y-17273377D01*
X360025374Y-17273375D01*
X360025377Y-17273373D01*
X360085165Y-17142457D01*
X360105647Y-17000000D01*
X360085165Y-16857543D01*
X360025377Y-16726627D01*
X359931128Y-16617857D01*
X359810053Y-16540047D01*
X359810051Y-16540046D01*
X359810049Y-16540045D01*
X359810050Y-16540045D01*
X359671963Y-16499500D01*
X359671961Y-16499500D01*
X359528039Y-16499500D01*
X359528036Y-16499500D01*
X359389949Y-16540045D01*
X359268873Y-16617856D01*
X359174623Y-16726626D01*
X359174622Y-16726628D01*
X359114834Y-16857543D01*
X359094353Y-17000000D01*
X348025500Y-17000000D01*
X348025500Y-16774038D01*
X347986090Y-16525215D01*
X347908241Y-16285621D01*
X347908239Y-16285618D01*
X347908239Y-16285616D01*
X347866747Y-16204184D01*
X347793870Y-16061155D01*
X347774952Y-16035117D01*
X347645798Y-15857350D01*
X347645794Y-15857345D01*
X347467654Y-15679205D01*
X347467649Y-15679201D01*
X347263848Y-15531132D01*
X347263847Y-15531131D01*
X347263845Y-15531130D01*
X347193747Y-15495413D01*
X347039383Y-15416760D01*
X346799785Y-15338910D01*
X346550962Y-15299500D01*
X345699038Y-15299500D01*
X345574626Y-15319205D01*
X345450214Y-15338910D01*
X345210616Y-15416760D01*
X344986151Y-15531132D01*
X344782350Y-15679201D01*
X344782345Y-15679205D01*
X344604205Y-15857345D01*
X344604201Y-15857350D01*
X344456132Y-16061151D01*
X344341760Y-16285616D01*
X344263910Y-16525214D01*
X344224500Y-16774038D01*
X342525500Y-16774038D01*
X342525500Y-15752128D01*
X342519091Y-15692518D01*
X342468796Y-15557670D01*
X342382546Y-15442454D01*
X342267330Y-15356204D01*
X342267328Y-15356203D01*
X342267327Y-15356202D01*
X342132481Y-15305908D01*
X342132482Y-15305908D01*
X342072882Y-15299501D01*
X342072880Y-15299500D01*
X342072872Y-15299500D01*
X339177128Y-15299500D01*
X339177120Y-15299500D01*
X339177117Y-15299501D01*
X339117518Y-15305908D01*
X338982672Y-15356202D01*
X338982670Y-15356204D01*
X338867454Y-15442454D01*
X338781204Y-15557670D01*
X338781202Y-15557672D01*
X338730908Y-15692518D01*
X338724501Y-15752117D01*
X338724500Y-15752136D01*
X321800500Y-15752136D01*
X321800500Y-12574038D01*
X338724500Y-12574038D01*
X338724500Y-12825962D01*
X338742951Y-12942456D01*
X338763910Y-13074785D01*
X338841760Y-13314383D01*
X338956132Y-13538848D01*
X339104201Y-13742649D01*
X339104205Y-13742654D01*
X339282345Y-13920794D01*
X339282350Y-13920798D01*
X339407284Y-14011567D01*
X339486155Y-14068870D01*
X339629184Y-14141747D01*
X339710616Y-14183239D01*
X339710618Y-14183239D01*
X339710621Y-14183241D01*
X339950215Y-14261090D01*
X340199038Y-14300500D01*
X340199039Y-14300500D01*
X341050961Y-14300500D01*
X341050962Y-14300500D01*
X341299785Y-14261090D01*
X341539379Y-14183241D01*
X341763845Y-14068870D01*
X341967656Y-13920793D01*
X342145793Y-13742656D01*
X342293870Y-13538845D01*
X342408241Y-13314379D01*
X342486090Y-13074785D01*
X342525500Y-12825962D01*
X342525500Y-12574038D01*
X344224500Y-12574038D01*
X344224500Y-12825962D01*
X344242951Y-12942456D01*
X344263910Y-13074785D01*
X344341760Y-13314383D01*
X344456132Y-13538848D01*
X344604201Y-13742649D01*
X344604205Y-13742654D01*
X344782345Y-13920794D01*
X344782350Y-13920798D01*
X344907284Y-14011567D01*
X344986155Y-14068870D01*
X345129184Y-14141747D01*
X345210616Y-14183239D01*
X345210618Y-14183239D01*
X345210621Y-14183241D01*
X345450215Y-14261090D01*
X345699038Y-14300500D01*
X345699039Y-14300500D01*
X346550961Y-14300500D01*
X346550962Y-14300500D01*
X346799785Y-14261090D01*
X347039379Y-14183241D01*
X347263845Y-14068870D01*
X347467656Y-13920793D01*
X347645793Y-13742656D01*
X347793870Y-13538845D01*
X347908241Y-13314379D01*
X347986090Y-13074785D01*
X348025500Y-12825962D01*
X348025500Y-12800000D01*
X356694353Y-12800000D01*
X356714834Y-12942456D01*
X356750032Y-13019527D01*
X356774623Y-13073373D01*
X356868872Y-13182143D01*
X356989947Y-13259953D01*
X356989950Y-13259954D01*
X356989949Y-13259954D01*
X357128036Y-13300499D01*
X357128038Y-13300500D01*
X357128039Y-13300500D01*
X357271962Y-13300500D01*
X357271962Y-13300499D01*
X357410053Y-13259953D01*
X357531128Y-13182143D01*
X357625377Y-13073373D01*
X357685165Y-12942457D01*
X357705647Y-12800000D01*
X357685165Y-12657543D01*
X357625377Y-12526627D01*
X357531128Y-12417857D01*
X357410053Y-12340047D01*
X357410051Y-12340046D01*
X357410049Y-12340045D01*
X357410050Y-12340045D01*
X357271963Y-12299500D01*
X357271961Y-12299500D01*
X357128039Y-12299500D01*
X357128036Y-12299500D01*
X356989949Y-12340045D01*
X356868873Y-12417856D01*
X356774623Y-12526626D01*
X356774622Y-12526628D01*
X356714834Y-12657543D01*
X356694353Y-12800000D01*
X348025500Y-12800000D01*
X348025500Y-12574038D01*
X347986090Y-12325215D01*
X347908241Y-12085621D01*
X347908239Y-12085618D01*
X347908239Y-12085616D01*
X347866747Y-12004184D01*
X347793870Y-11861155D01*
X347774952Y-11835117D01*
X347645798Y-11657350D01*
X347645794Y-11657345D01*
X347467654Y-11479205D01*
X347467649Y-11479201D01*
X347263848Y-11331132D01*
X347263847Y-11331131D01*
X347263845Y-11331130D01*
X347193747Y-11295413D01*
X347039383Y-11216760D01*
X346799785Y-11138910D01*
X346550962Y-11099500D01*
X345699038Y-11099500D01*
X345574626Y-11119205D01*
X345450214Y-11138910D01*
X345210616Y-11216760D01*
X344986151Y-11331132D01*
X344782350Y-11479201D01*
X344782345Y-11479205D01*
X344604205Y-11657345D01*
X344604201Y-11657350D01*
X344456132Y-11861151D01*
X344341760Y-12085616D01*
X344263910Y-12325214D01*
X344240028Y-12476000D01*
X344224500Y-12574038D01*
X342525500Y-12574038D01*
X342486090Y-12325215D01*
X342408241Y-12085621D01*
X342408239Y-12085618D01*
X342408239Y-12085616D01*
X342366747Y-12004184D01*
X342293870Y-11861155D01*
X342274952Y-11835117D01*
X342145798Y-11657350D01*
X342145794Y-11657345D01*
X341967654Y-11479205D01*
X341967649Y-11479201D01*
X341763848Y-11331132D01*
X341763847Y-11331131D01*
X341763845Y-11331130D01*
X341693747Y-11295413D01*
X341539383Y-11216760D01*
X341299785Y-11138910D01*
X341050962Y-11099500D01*
X340199038Y-11099500D01*
X340074626Y-11119205D01*
X339950214Y-11138910D01*
X339710616Y-11216760D01*
X339486151Y-11331132D01*
X339282350Y-11479201D01*
X339282345Y-11479205D01*
X339104205Y-11657345D01*
X339104201Y-11657350D01*
X338956132Y-11861151D01*
X338841760Y-12085616D01*
X338763910Y-12325214D01*
X338740028Y-12476000D01*
X338724500Y-12574038D01*
X321800500Y-12574038D01*
X321800500Y-8374038D01*
X338724500Y-8374038D01*
X338724500Y-8625961D01*
X338763910Y-8874785D01*
X338841760Y-9114383D01*
X338956132Y-9338848D01*
X339104201Y-9542649D01*
X339104205Y-9542654D01*
X339282345Y-9720794D01*
X339282350Y-9720798D01*
X339460117Y-9849952D01*
X339486155Y-9868870D01*
X339629184Y-9941747D01*
X339710616Y-9983239D01*
X339710618Y-9983239D01*
X339710621Y-9983241D01*
X339950215Y-10061090D01*
X340199038Y-10100500D01*
X340199039Y-10100500D01*
X341050961Y-10100500D01*
X341050962Y-10100500D01*
X341299785Y-10061090D01*
X341539379Y-9983241D01*
X341763845Y-9868870D01*
X341967656Y-9720793D01*
X342145793Y-9542656D01*
X342293870Y-9338845D01*
X342408241Y-9114379D01*
X342486090Y-8874785D01*
X342525500Y-8625962D01*
X342525500Y-8374038D01*
X344224500Y-8374038D01*
X344224500Y-8625961D01*
X344263910Y-8874785D01*
X344341760Y-9114383D01*
X344456132Y-9338848D01*
X344604201Y-9542649D01*
X344604205Y-9542654D01*
X344782345Y-9720794D01*
X344782350Y-9720798D01*
X344960117Y-9849952D01*
X344986155Y-9868870D01*
X345129184Y-9941747D01*
X345210616Y-9983239D01*
X345210618Y-9983239D01*
X345210621Y-9983241D01*
X345450215Y-10061090D01*
X345699038Y-10100500D01*
X345699039Y-10100500D01*
X346550961Y-10100500D01*
X346550962Y-10100500D01*
X346799785Y-10061090D01*
X347039379Y-9983241D01*
X347263845Y-9868870D01*
X347467656Y-9720793D01*
X347645793Y-9542656D01*
X347793870Y-9338845D01*
X347908241Y-9114379D01*
X347986090Y-8874785D01*
X348025500Y-8625962D01*
X348025500Y-8374038D01*
X347986090Y-8125215D01*
X347908241Y-7885621D01*
X347908239Y-7885618D01*
X347908239Y-7885616D01*
X347864869Y-7800499D01*
X347793870Y-7661155D01*
X347730093Y-7573373D01*
X347645798Y-7457350D01*
X347645794Y-7457345D01*
X347467654Y-7279205D01*
X347467649Y-7279201D01*
X347263848Y-7131132D01*
X347263847Y-7131131D01*
X347263845Y-7131130D01*
X347193747Y-7095413D01*
X347039383Y-7016760D01*
X346799785Y-6938910D01*
X346550962Y-6899500D01*
X345699038Y-6899500D01*
X345583144Y-6917856D01*
X345450214Y-6938910D01*
X345210616Y-7016760D01*
X344986151Y-7131132D01*
X344782350Y-7279201D01*
X344782345Y-7279205D01*
X344604205Y-7457345D01*
X344604201Y-7457350D01*
X344456132Y-7661151D01*
X344341760Y-7885616D01*
X344263910Y-8125214D01*
X344224500Y-8374038D01*
X342525500Y-8374038D01*
X342486090Y-8125215D01*
X342408241Y-7885621D01*
X342408239Y-7885618D01*
X342408239Y-7885616D01*
X342364869Y-7800499D01*
X342293870Y-7661155D01*
X342230093Y-7573373D01*
X342145798Y-7457350D01*
X342145794Y-7457345D01*
X341967654Y-7279205D01*
X341967649Y-7279201D01*
X341763848Y-7131132D01*
X341763847Y-7131131D01*
X341763845Y-7131130D01*
X341693747Y-7095413D01*
X341539383Y-7016760D01*
X341299785Y-6938910D01*
X341050962Y-6899500D01*
X340199038Y-6899500D01*
X340083144Y-6917856D01*
X339950214Y-6938910D01*
X339710616Y-7016760D01*
X339486151Y-7131132D01*
X339282350Y-7279201D01*
X339282345Y-7279205D01*
X339104205Y-7457345D01*
X339104201Y-7457350D01*
X338956132Y-7661151D01*
X338841760Y-7885616D01*
X338763910Y-8125214D01*
X338724500Y-8374038D01*
X321800500Y-8374038D01*
X321800500Y-4174038D01*
X338724500Y-4174038D01*
X338724500Y-4425961D01*
X338763910Y-4674785D01*
X338841760Y-4914383D01*
X338956132Y-5138848D01*
X339104201Y-5342649D01*
X339104205Y-5342654D01*
X339282345Y-5520794D01*
X339282350Y-5520798D01*
X339422541Y-5622652D01*
X339486155Y-5668870D01*
X339599508Y-5726626D01*
X339710616Y-5783239D01*
X339710618Y-5783239D01*
X339710621Y-5783241D01*
X339950215Y-5861090D01*
X340199038Y-5900500D01*
X340199039Y-5900500D01*
X341050961Y-5900500D01*
X341050962Y-5900500D01*
X341299785Y-5861090D01*
X341539379Y-5783241D01*
X341763845Y-5668870D01*
X341967656Y-5520793D01*
X342145793Y-5342656D01*
X342293870Y-5138845D01*
X342408241Y-4914379D01*
X342486090Y-4674785D01*
X342525500Y-4425962D01*
X342525500Y-4174038D01*
X344224500Y-4174038D01*
X344224500Y-4425961D01*
X344263910Y-4674785D01*
X344341760Y-4914383D01*
X344456132Y-5138848D01*
X344604201Y-5342649D01*
X344604205Y-5342654D01*
X344782345Y-5520794D01*
X344782350Y-5520798D01*
X344922541Y-5622652D01*
X344986155Y-5668870D01*
X345099508Y-5726626D01*
X345210616Y-5783239D01*
X345210618Y-5783239D01*
X345210621Y-5783241D01*
X345450215Y-5861090D01*
X345699038Y-5900500D01*
X345699039Y-5900500D01*
X346550961Y-5900500D01*
X346550962Y-5900500D01*
X346799785Y-5861090D01*
X347039379Y-5783241D01*
X347263845Y-5668870D01*
X347467656Y-5520793D01*
X347645793Y-5342656D01*
X347793870Y-5138845D01*
X347908241Y-4914379D01*
X347986090Y-4674785D01*
X348025500Y-4425962D01*
X348025500Y-4174038D01*
X347986090Y-3925215D01*
X347908241Y-3685621D01*
X347908239Y-3685618D01*
X347908239Y-3685616D01*
X347813917Y-3500500D01*
X347793870Y-3461155D01*
X347696130Y-3326627D01*
X347645798Y-3257350D01*
X347645794Y-3257345D01*
X347467654Y-3079205D01*
X347467649Y-3079201D01*
X347263848Y-2931132D01*
X347263847Y-2931131D01*
X347263845Y-2931130D01*
X347193747Y-2895413D01*
X347039383Y-2816760D01*
X346799785Y-2738910D01*
X346722240Y-2726628D01*
X346550962Y-2699500D01*
X345699038Y-2699500D01*
X345574626Y-2719205D01*
X345450214Y-2738910D01*
X345210616Y-2816760D01*
X344986151Y-2931132D01*
X344782350Y-3079201D01*
X344782345Y-3079205D01*
X344604205Y-3257345D01*
X344604201Y-3257350D01*
X344456132Y-3461151D01*
X344341760Y-3685616D01*
X344263910Y-3925214D01*
X344224500Y-4174038D01*
X342525500Y-4174038D01*
X342486090Y-3925215D01*
X342408241Y-3685621D01*
X342408239Y-3685618D01*
X342408239Y-3685616D01*
X342313917Y-3500500D01*
X342293870Y-3461155D01*
X342196130Y-3326627D01*
X342145798Y-3257350D01*
X342145794Y-3257345D01*
X341967654Y-3079205D01*
X341967649Y-3079201D01*
X341763848Y-2931132D01*
X341763847Y-2931131D01*
X341763845Y-2931130D01*
X341693747Y-2895413D01*
X341539383Y-2816760D01*
X341299785Y-2738910D01*
X341222240Y-2726628D01*
X341050962Y-2699500D01*
X340199038Y-2699500D01*
X340074626Y-2719205D01*
X339950214Y-2738910D01*
X339710616Y-2816760D01*
X339486151Y-2931132D01*
X339282350Y-3079201D01*
X339282345Y-3079205D01*
X339104205Y-3257345D01*
X339104201Y-3257350D01*
X338956132Y-3461151D01*
X338841760Y-3685616D01*
X338763910Y-3925214D01*
X338724500Y-4174038D01*
X321800500Y-4174038D01*
X321800500Y25961D01*
X338724500Y25961D01*
X338724500Y-225961D01*
X338763910Y-474785D01*
X338841760Y-714383D01*
X338871678Y-773099D01*
X338946524Y-919993D01*
X338956132Y-938848D01*
X339104201Y-1142649D01*
X339104205Y-1142654D01*
X339282345Y-1320794D01*
X339282350Y-1320798D01*
X339428011Y-1426626D01*
X339486155Y-1468870D01*
X339629184Y-1541747D01*
X339710616Y-1583239D01*
X339710618Y-1583239D01*
X339710621Y-1583241D01*
X339950215Y-1661090D01*
X340199038Y-1700500D01*
X340199039Y-1700500D01*
X341050961Y-1700500D01*
X341050962Y-1700500D01*
X341299785Y-1661090D01*
X341539379Y-1583241D01*
X341763845Y-1468870D01*
X341967656Y-1320793D01*
X342145793Y-1142656D01*
X342293870Y-938845D01*
X342408241Y-714379D01*
X342486090Y-474785D01*
X342525500Y-225962D01*
X342525500Y25962D01*
X342505854Y150000D01*
X343991950Y150000D01*
X345470879Y150000D01*
X345451901Y104182D01*
X345425000Y-31056D01*
X345425000Y-168944D01*
X345451901Y-304182D01*
X345470879Y-350000D01*
X343991950Y-350000D01*
X344006653Y-461687D01*
X344069421Y-695939D01*
X344162220Y-919978D01*
X344162227Y-919993D01*
X344283480Y-1130009D01*
X344431110Y-1322405D01*
X344431116Y-1322412D01*
X344602587Y-1493883D01*
X344602594Y-1493889D01*
X344794990Y-1641519D01*
X345005006Y-1762772D01*
X345005021Y-1762779D01*
X345229060Y-1855578D01*
X345463312Y-1918346D01*
X345703735Y-1949998D01*
X345703752Y-1950000D01*
X345875000Y-1950000D01*
X345875000Y-754120D01*
X345920818Y-773099D01*
X346056056Y-800000D01*
X346193944Y-800000D01*
X346329182Y-773099D01*
X346375000Y-754120D01*
X346375000Y-1950000D01*
X346546248Y-1950000D01*
X346546264Y-1949998D01*
X346786687Y-1918346D01*
X347020939Y-1855578D01*
X347244978Y-1762779D01*
X347244993Y-1762772D01*
X347455009Y-1641519D01*
X347647405Y-1493889D01*
X347647412Y-1493883D01*
X347818883Y-1322412D01*
X347818889Y-1322405D01*
X347966519Y-1130009D01*
X348087772Y-919993D01*
X348087779Y-919978D01*
X348180578Y-695939D01*
X348243346Y-461687D01*
X348258050Y-350000D01*
X346779121Y-350000D01*
X346798099Y-304182D01*
X346825000Y-168944D01*
X346825000Y-31056D01*
X346798099Y104182D01*
X346779121Y150000D01*
X348258050Y150000D01*
X348243346Y261687D01*
X348180578Y495939D01*
X348087779Y719978D01*
X348087772Y719993D01*
X347966519Y930009D01*
X347818889Y1122405D01*
X347818883Y1122412D01*
X347647412Y1293883D01*
X347647405Y1293889D01*
X347455009Y1441519D01*
X347244993Y1562772D01*
X347244978Y1562779D01*
X347020939Y1655578D01*
X346786687Y1718346D01*
X346546264Y1749998D01*
X346546248Y1750000D01*
X346375000Y1750000D01*
X346375000Y554120D01*
X346329182Y573099D01*
X346193944Y600000D01*
X346056056Y600000D01*
X345920818Y573099D01*
X345875000Y554120D01*
X345875000Y1750000D01*
X345703752Y1750000D01*
X345703735Y1749998D01*
X345463312Y1718346D01*
X345229060Y1655578D01*
X345005021Y1562779D01*
X345005006Y1562772D01*
X344794990Y1441519D01*
X344602594Y1293889D01*
X344602587Y1293883D01*
X344431116Y1122412D01*
X344431110Y1122405D01*
X344283480Y930009D01*
X344162227Y719993D01*
X344162220Y719978D01*
X344069421Y495939D01*
X344006653Y261687D01*
X343991950Y150000D01*
X342505854Y150000D01*
X342486090Y274785D01*
X342408241Y514379D01*
X342293870Y738845D01*
X342145793Y942656D01*
X341967656Y1120793D01*
X341763845Y1268870D01*
X341539379Y1383241D01*
X341299785Y1461090D01*
X341050962Y1500500D01*
X340199038Y1500500D01*
X339950215Y1461090D01*
X339710621Y1383241D01*
X339710618Y1383239D01*
X339710616Y1383239D01*
X339629184Y1341747D01*
X339486155Y1268870D01*
X339486151Y1268867D01*
X339282350Y1120798D01*
X339282345Y1120794D01*
X339104205Y942654D01*
X339104201Y942649D01*
X338956132Y738848D01*
X338956130Y738845D01*
X338946517Y719978D01*
X338841760Y514383D01*
X338763910Y274785D01*
X338724500Y25961D01*
X321800500Y25961D01*
X321800500Y3500000D01*
X325494353Y3500000D01*
X325514834Y3357543D01*
X325574622Y3226628D01*
X325574623Y3226626D01*
X325648043Y3141895D01*
X325660989Y3126954D01*
X325668873Y3117856D01*
X325789950Y3040045D01*
X325789949Y3040045D01*
X325928036Y2999500D01*
X325928039Y2999500D01*
X326071963Y2999500D01*
X326210050Y3040045D01*
X326331126Y3117856D01*
X326331128Y3117857D01*
X326425377Y3226627D01*
X326485165Y3357543D01*
X326491269Y3400000D01*
X331394353Y3400000D01*
X331407154Y3310963D01*
X331414835Y3257544D01*
X331414834Y3257544D01*
X331474622Y3126628D01*
X331474623Y3126626D01*
X331568873Y3017856D01*
X331689950Y2940045D01*
X331689949Y2940045D01*
X331828036Y2899500D01*
X331828039Y2899500D01*
X331971963Y2899500D01*
X332110050Y2940045D01*
X332231126Y3017856D01*
X332231128Y3017857D01*
X332325377Y3126627D01*
X332385165Y3257543D01*
X332405647Y3400000D01*
X332385165Y3542457D01*
X332325377Y3673373D01*
X332231128Y3782143D01*
X332110053Y3859953D01*
X331971962Y3900499D01*
X331971962Y3900500D01*
X331971961Y3900500D01*
X331828039Y3900500D01*
X331828038Y3900500D01*
X331828036Y3900499D01*
X331689949Y3859954D01*
X331689947Y3859953D01*
X331568872Y3782143D01*
X331474623Y3673373D01*
X331474622Y3673371D01*
X331414834Y3542456D01*
X331403838Y3465970D01*
X331394353Y3400000D01*
X326491269Y3400000D01*
X326505647Y3500000D01*
X326485165Y3642457D01*
X326425377Y3773373D01*
X326331128Y3882143D01*
X326210053Y3959953D01*
X326071962Y4000499D01*
X326071962Y4000500D01*
X326071961Y4000500D01*
X325928039Y4000500D01*
X325928038Y4000500D01*
X325928036Y4000499D01*
X325789949Y3959954D01*
X325789947Y3959953D01*
X325668872Y3882143D01*
X325600690Y3803456D01*
X325574623Y3773373D01*
X325574622Y3773371D01*
X325514834Y3642456D01*
X325494353Y3500000D01*
X321800500Y3500000D01*
X321800500Y12907500D01*
X324694417Y12907500D01*
X324714699Y12701567D01*
X324774769Y12503543D01*
X324831212Y12397947D01*
X324866086Y12332703D01*
X324872317Y12321047D01*
X325003589Y12161089D01*
X325163547Y12029817D01*
X325163548Y12029816D01*
X325163550Y12029815D01*
X325235898Y11991143D01*
X325346043Y11932269D01*
X325544069Y11872199D01*
X325544065Y11872199D01*
X325750000Y11851917D01*
X325955932Y11872199D01*
X326054944Y11902234D01*
X326153954Y11932268D01*
X326336450Y12029815D01*
X326378677Y12064469D01*
X326496410Y12161089D01*
X326603297Y12291333D01*
X326627685Y12321050D01*
X326725232Y12503546D01*
X326785300Y12701566D01*
X326805583Y12907500D01*
X327894417Y12907500D01*
X327914699Y12701567D01*
X327974769Y12503543D01*
X328031212Y12397947D01*
X328066086Y12332703D01*
X328072317Y12321047D01*
X328203589Y12161089D01*
X328363547Y12029817D01*
X328363548Y12029816D01*
X328363550Y12029815D01*
X328435898Y11991143D01*
X328546043Y11932269D01*
X328744069Y11872199D01*
X328744065Y11872199D01*
X328950000Y11851917D01*
X329155932Y11872199D01*
X329254944Y11902234D01*
X329353954Y11932268D01*
X329536450Y12029815D01*
X329578677Y12064469D01*
X329696410Y12161089D01*
X329803297Y12291333D01*
X329827685Y12321050D01*
X329925232Y12503546D01*
X329985300Y12701566D01*
X330005583Y12907500D01*
X329985300Y13113434D01*
X329925232Y13311454D01*
X329827685Y13493950D01*
X329696410Y13653910D01*
X329536450Y13785185D01*
X329353954Y13882732D01*
X329155934Y13942800D01*
X328950000Y13963083D01*
X328744066Y13942800D01*
X328546046Y13882732D01*
X328363550Y13785185D01*
X328300209Y13733202D01*
X328203589Y13653910D01*
X328106969Y13536177D01*
X328072315Y13493950D01*
X327974768Y13311454D01*
X327963216Y13273371D01*
X327914699Y13113432D01*
X327894417Y12907500D01*
X326805583Y12907500D01*
X326785300Y13113434D01*
X326725232Y13311454D01*
X326627685Y13493950D01*
X326496410Y13653910D01*
X326336450Y13785185D01*
X326153954Y13882732D01*
X325955934Y13942800D01*
X325750000Y13963083D01*
X325544066Y13942800D01*
X325346046Y13882732D01*
X325163550Y13785185D01*
X325100209Y13733202D01*
X325003589Y13653910D01*
X324906969Y13536177D01*
X324872315Y13493950D01*
X324774768Y13311454D01*
X324763216Y13273371D01*
X324714699Y13113432D01*
X324694417Y12907500D01*
X321800500Y12907500D01*
X321800500Y15407500D01*
X324694417Y15407500D01*
X324714699Y15201567D01*
X324774769Y15003543D01*
X324815407Y14927516D01*
X324854286Y14854779D01*
X324872317Y14821047D01*
X325003589Y14661089D01*
X325163547Y14529817D01*
X325163548Y14529816D01*
X325163550Y14529815D01*
X325217507Y14500974D01*
X325346043Y14432269D01*
X325544069Y14372199D01*
X325544065Y14372199D01*
X325750000Y14351917D01*
X325955932Y14372199D01*
X326078053Y14409244D01*
X326153954Y14432268D01*
X326336450Y14529815D01*
X326378677Y14564469D01*
X326496410Y14661089D01*
X326575702Y14757709D01*
X326627685Y14821050D01*
X326725232Y15003546D01*
X326785300Y15201566D01*
X326805583Y15407500D01*
X327894417Y15407500D01*
X327914699Y15201567D01*
X327974769Y15003543D01*
X328015407Y14927516D01*
X328054286Y14854779D01*
X328072317Y14821047D01*
X328203589Y14661089D01*
X328363547Y14529817D01*
X328363548Y14529816D01*
X328363550Y14529815D01*
X328417507Y14500974D01*
X328546043Y14432269D01*
X328744069Y14372199D01*
X328744065Y14372199D01*
X328950000Y14351917D01*
X329155932Y14372199D01*
X329353958Y14432269D01*
X329355869Y14433061D01*
X329356949Y14433177D01*
X329359784Y14434037D01*
X329359947Y14433499D01*
X329425339Y14440524D01*
X329487816Y14409244D01*
X329490994Y14406177D01*
X333507635Y10389537D01*
X333507638Y10389535D01*
X333581859Y10346682D01*
X333664647Y10324500D01*
X343613811Y10324500D01*
X343680850Y10304815D01*
X343701492Y10288181D01*
X363263181Y-9273508D01*
X363296666Y-9334831D01*
X363299500Y-9361189D01*
X363299500Y-31389604D01*
X363321682Y-31472392D01*
X363335340Y-31496047D01*
X363364535Y-31546614D01*
X363364537Y-31546616D01*
X363561211Y-31743290D01*
X363594696Y-31804613D01*
X363596268Y-31813324D01*
X363614834Y-31942456D01*
X363674622Y-32073371D01*
X363674623Y-32073373D01*
X363768872Y-32182143D01*
X363889947Y-32259953D01*
X363889950Y-32259954D01*
X363889949Y-32259954D01*
X364028036Y-32300499D01*
X364028038Y-32300500D01*
X364028039Y-32300500D01*
X364171962Y-32300500D01*
X364171962Y-32300499D01*
X364310053Y-32259953D01*
X364431128Y-32182143D01*
X364525377Y-32073373D01*
X364585165Y-31942457D01*
X364605647Y-31800000D01*
X364585165Y-31657543D01*
X364542994Y-31565204D01*
X364533051Y-31496047D01*
X364562076Y-31432491D01*
X364588747Y-31409379D01*
X364631128Y-31382143D01*
X364725377Y-31273373D01*
X364785165Y-31142457D01*
X364805647Y-31000000D01*
X364785165Y-30857543D01*
X364725377Y-30726627D01*
X364631128Y-30617857D01*
X364510053Y-30540047D01*
X364510051Y-30540046D01*
X364510049Y-30540045D01*
X364501983Y-30536361D01*
X364503068Y-30533984D01*
X364455780Y-30503589D01*
X364426761Y-30440030D01*
X364425500Y-30422394D01*
X364425500Y-26500000D01*
X369694353Y-26500000D01*
X369714834Y-26642456D01*
X369774622Y-26773371D01*
X369774623Y-26773373D01*
X369868872Y-26882143D01*
X369989947Y-26959953D01*
X369989950Y-26959954D01*
X369989949Y-26959954D01*
X370128036Y-27000499D01*
X370128038Y-27000500D01*
X370128039Y-27000500D01*
X370271962Y-27000500D01*
X370271962Y-27000499D01*
X370410053Y-26959953D01*
X370531128Y-26882143D01*
X370625377Y-26773373D01*
X370685165Y-26642457D01*
X370705647Y-26500000D01*
X370685165Y-26357543D01*
X370625377Y-26226627D01*
X370531128Y-26117857D01*
X370410053Y-26040047D01*
X370410051Y-26040046D01*
X370410049Y-26040045D01*
X370410050Y-26040045D01*
X370271963Y-25999500D01*
X370271961Y-25999500D01*
X370128039Y-25999500D01*
X370128036Y-25999500D01*
X369989949Y-26040045D01*
X369868873Y-26117856D01*
X369774623Y-26226626D01*
X369774622Y-26226628D01*
X369714834Y-26357543D01*
X369694353Y-26500000D01*
X364425500Y-26500000D01*
X364425500Y-22499996D01*
X378694754Y-22499996D01*
X378694754Y-22500003D01*
X378713722Y-22825669D01*
X378713723Y-22825680D01*
X378770367Y-23146924D01*
X378770369Y-23146932D01*
X378863931Y-23459452D01*
X378993137Y-23758983D01*
X378993143Y-23758996D01*
X379156251Y-24041509D01*
X379351045Y-24303162D01*
X379351050Y-24303168D01*
X379351057Y-24303177D01*
X379574923Y-24540462D01*
X379574929Y-24540467D01*
X379574930Y-24540468D01*
X379574931Y-24540469D01*
X379824815Y-24750147D01*
X379824818Y-24750149D01*
X379824823Y-24750153D01*
X380097377Y-24929414D01*
X380388899Y-25075822D01*
X380695446Y-25187396D01*
X380695452Y-25187397D01*
X380695454Y-25187398D01*
X381012858Y-25262625D01*
X381012865Y-25262626D01*
X381012874Y-25262628D01*
X381336889Y-25300500D01*
X381336896Y-25300500D01*
X381663104Y-25300500D01*
X381663111Y-25300500D01*
X381987126Y-25262628D01*
X381987135Y-25262625D01*
X381987141Y-25262625D01*
X382243176Y-25201942D01*
X382304554Y-25187396D01*
X382611101Y-25075822D01*
X382902623Y-24929414D01*
X383099399Y-24799993D01*
X388444675Y-24799993D01*
X388444675Y-24800006D01*
X388463966Y-25254150D01*
X388521706Y-25705055D01*
X388617476Y-26149424D01*
X388617478Y-26149432D01*
X388750585Y-26584074D01*
X388750587Y-26584079D01*
X388920070Y-27005854D01*
X388920074Y-27005865D01*
X389124716Y-27411747D01*
X389124726Y-27411765D01*
X389363062Y-27798847D01*
X389633366Y-28164322D01*
X389633369Y-28164326D01*
X389633371Y-28164328D01*
X389933689Y-28505557D01*
X390261871Y-28820093D01*
X390261881Y-28820102D01*
X390615543Y-29105664D01*
X390615544Y-29105665D01*
X390760000Y-29203300D01*
X390992164Y-29360215D01*
X391100579Y-29420779D01*
X391389003Y-29581903D01*
X391389025Y-29581914D01*
X391803226Y-29769145D01*
X391803232Y-29769147D01*
X392231839Y-29920584D01*
X392671744Y-30035126D01*
X393119778Y-30111949D01*
X393259993Y-30123883D01*
X393572695Y-30150499D01*
X393572712Y-30150499D01*
X393572714Y-30150500D01*
X393572715Y-30150500D01*
X394027285Y-30150500D01*
X394027286Y-30150500D01*
X394027287Y-30150499D01*
X394027304Y-30150499D01*
X394296880Y-30127553D01*
X394480222Y-30111949D01*
X394928256Y-30035126D01*
X395368161Y-29920584D01*
X395796768Y-29769147D01*
X395796770Y-29769145D01*
X395796773Y-29769145D01*
X396210974Y-29581914D01*
X396210976Y-29581912D01*
X396210987Y-29581908D01*
X396607836Y-29360215D01*
X396984454Y-29105666D01*
X397338128Y-28820094D01*
X397666310Y-28505558D01*
X397966634Y-28164322D01*
X398236938Y-27798847D01*
X398475274Y-27411765D01*
X398679925Y-27005865D01*
X398849415Y-26584072D01*
X398982524Y-26149424D01*
X399078294Y-25705054D01*
X399136032Y-25254163D01*
X399138869Y-25187398D01*
X399155325Y-24800006D01*
X399155325Y-24799993D01*
X399136033Y-24345849D01*
X399136032Y-24345843D01*
X399136032Y-24345837D01*
X399078294Y-23894946D01*
X398982524Y-23450576D01*
X398849415Y-23015928D01*
X398679925Y-22594135D01*
X398679925Y-22594134D01*
X398632461Y-22499996D01*
X403694754Y-22499996D01*
X403694754Y-22500003D01*
X403713722Y-22825669D01*
X403713723Y-22825680D01*
X403770367Y-23146924D01*
X403770369Y-23146932D01*
X403863931Y-23459452D01*
X403993137Y-23758983D01*
X403993143Y-23758996D01*
X404156251Y-24041509D01*
X404351045Y-24303162D01*
X404351050Y-24303168D01*
X404351057Y-24303177D01*
X404574923Y-24540462D01*
X404574929Y-24540467D01*
X404574930Y-24540468D01*
X404574931Y-24540469D01*
X404824815Y-24750147D01*
X404824818Y-24750149D01*
X404824823Y-24750153D01*
X405097377Y-24929414D01*
X405388899Y-25075822D01*
X405695446Y-25187396D01*
X405695452Y-25187397D01*
X405695454Y-25187398D01*
X406012858Y-25262625D01*
X406012865Y-25262626D01*
X406012874Y-25262628D01*
X406336889Y-25300500D01*
X406336896Y-25300500D01*
X406663104Y-25300500D01*
X406663111Y-25300500D01*
X406987126Y-25262628D01*
X406987135Y-25262625D01*
X406987141Y-25262625D01*
X407243176Y-25201942D01*
X407304554Y-25187396D01*
X407611101Y-25075822D01*
X407902623Y-24929414D01*
X408175177Y-24750153D01*
X408425077Y-24540462D01*
X408648943Y-24303177D01*
X408843749Y-24041508D01*
X409006859Y-23758992D01*
X409136069Y-23459451D01*
X409229630Y-23146934D01*
X409252732Y-23015920D01*
X409286276Y-22825680D01*
X409286275Y-22825680D01*
X409286278Y-22825669D01*
X409305246Y-22500000D01*
X409286278Y-22174331D01*
X409280233Y-22140047D01*
X409229632Y-21853075D01*
X409229630Y-21853067D01*
X409229630Y-21853066D01*
X409136069Y-21540549D01*
X409006859Y-21241008D01*
X408843749Y-20958492D01*
X408843748Y-20958490D01*
X408648954Y-20696837D01*
X408648947Y-20696829D01*
X408648943Y-20696823D01*
X408425077Y-20459538D01*
X408425069Y-20459531D01*
X408425068Y-20459530D01*
X408175184Y-20249852D01*
X408175179Y-20249848D01*
X408175177Y-20249847D01*
X407902623Y-20070586D01*
X407798085Y-20018085D01*
X407611108Y-19924181D01*
X407611102Y-19924178D01*
X407304566Y-19812608D01*
X407304545Y-19812601D01*
X406987141Y-19737374D01*
X406987126Y-19737372D01*
X406663111Y-19699500D01*
X406336889Y-19699500D01*
X406053375Y-19732638D01*
X406012873Y-19737372D01*
X406012858Y-19737374D01*
X405695454Y-19812601D01*
X405695433Y-19812608D01*
X405388897Y-19924178D01*
X405388891Y-19924181D01*
X405097380Y-20070584D01*
X404824815Y-20249852D01*
X404574931Y-20459530D01*
X404574930Y-20459531D01*
X404574924Y-20459536D01*
X404574923Y-20459538D01*
X404351057Y-20696823D01*
X404351054Y-20696826D01*
X404351052Y-20696829D01*
X404351045Y-20696837D01*
X404156251Y-20958490D01*
X403993143Y-21241003D01*
X403993137Y-21241016D01*
X403863931Y-21540547D01*
X403770369Y-21853067D01*
X403770367Y-21853075D01*
X403713723Y-22174319D01*
X403713722Y-22174330D01*
X403694754Y-22499996D01*
X398632461Y-22499996D01*
X398475283Y-22188252D01*
X398475272Y-22188232D01*
X398466712Y-22174330D01*
X398236938Y-21801153D01*
X397966634Y-21435678D01*
X397666310Y-21094442D01*
X397338128Y-20779906D01*
X397338118Y-20779897D01*
X396984456Y-20494335D01*
X396984455Y-20494334D01*
X396706893Y-20306736D01*
X396607836Y-20239785D01*
X396597412Y-20233962D01*
X396210996Y-20018096D01*
X396210974Y-20018085D01*
X395796773Y-19830854D01*
X395796767Y-19830852D01*
X395368156Y-19679414D01*
X394928254Y-19564873D01*
X394480232Y-19488052D01*
X394480206Y-19488049D01*
X394027304Y-19449500D01*
X394027286Y-19449500D01*
X393572714Y-19449500D01*
X393572695Y-19449500D01*
X393119793Y-19488049D01*
X393119767Y-19488052D01*
X392671745Y-19564873D01*
X392231843Y-19679414D01*
X391803232Y-19830852D01*
X391803226Y-19830854D01*
X391389025Y-20018085D01*
X391389003Y-20018096D01*
X390992172Y-20239780D01*
X390992153Y-20239792D01*
X390615544Y-20494334D01*
X390615543Y-20494335D01*
X390261881Y-20779897D01*
X390261871Y-20779906D01*
X389933689Y-21094442D01*
X389633371Y-21435671D01*
X389363061Y-21801154D01*
X389124727Y-22188232D01*
X389124716Y-22188252D01*
X388920074Y-22594134D01*
X388920070Y-22594145D01*
X388750587Y-23015920D01*
X388750585Y-23015925D01*
X388617478Y-23450567D01*
X388617476Y-23450575D01*
X388521706Y-23894944D01*
X388463966Y-24345849D01*
X388444675Y-24799993D01*
X383099399Y-24799993D01*
X383175177Y-24750153D01*
X383425077Y-24540462D01*
X383648943Y-24303177D01*
X383843749Y-24041508D01*
X384006859Y-23758992D01*
X384136069Y-23459451D01*
X384229630Y-23146934D01*
X384252732Y-23015920D01*
X384286276Y-22825680D01*
X384286275Y-22825680D01*
X384286278Y-22825669D01*
X384305246Y-22500000D01*
X384286278Y-22174331D01*
X384280233Y-22140047D01*
X384229632Y-21853075D01*
X384229630Y-21853067D01*
X384229630Y-21853066D01*
X384136069Y-21540549D01*
X384006859Y-21241008D01*
X383843749Y-20958492D01*
X383843748Y-20958490D01*
X383648954Y-20696837D01*
X383648947Y-20696829D01*
X383648943Y-20696823D01*
X383425077Y-20459538D01*
X383425069Y-20459531D01*
X383425068Y-20459530D01*
X383175184Y-20249852D01*
X383175179Y-20249848D01*
X383175177Y-20249847D01*
X382902623Y-20070586D01*
X382798085Y-20018085D01*
X382611108Y-19924181D01*
X382611102Y-19924178D01*
X382304566Y-19812608D01*
X382304545Y-19812601D01*
X381987141Y-19737374D01*
X381987126Y-19737372D01*
X381663111Y-19699500D01*
X381336889Y-19699500D01*
X381053375Y-19732638D01*
X381012873Y-19737372D01*
X381012858Y-19737374D01*
X380695454Y-19812601D01*
X380695433Y-19812608D01*
X380388897Y-19924178D01*
X380388891Y-19924181D01*
X380097380Y-20070584D01*
X379824815Y-20249852D01*
X379574931Y-20459530D01*
X379574930Y-20459531D01*
X379574924Y-20459536D01*
X379574923Y-20459538D01*
X379351057Y-20696823D01*
X379351054Y-20696826D01*
X379351052Y-20696829D01*
X379351045Y-20696837D01*
X379156251Y-20958490D01*
X378993143Y-21241003D01*
X378993137Y-21241016D01*
X378863931Y-21540547D01*
X378770369Y-21853067D01*
X378770367Y-21853075D01*
X378713723Y-22174319D01*
X378713722Y-22174330D01*
X378694754Y-22499996D01*
X364425500Y-22499996D01*
X364425500Y-14300000D01*
X372694353Y-14300000D01*
X372714834Y-14442456D01*
X372767876Y-14558599D01*
X372774623Y-14573373D01*
X372868872Y-14682143D01*
X372989947Y-14759953D01*
X372989950Y-14759954D01*
X372989949Y-14759954D01*
X373128036Y-14800499D01*
X373128038Y-14800500D01*
X373128039Y-14800500D01*
X373271962Y-14800500D01*
X373271962Y-14800499D01*
X373410053Y-14759953D01*
X373531128Y-14682143D01*
X373531136Y-14682133D01*
X373532688Y-14680790D01*
X373534572Y-14679929D01*
X373538589Y-14677348D01*
X373538960Y-14677925D01*
X373596243Y-14651763D01*
X373613895Y-14650500D01*
X392766494Y-14650500D01*
X392833533Y-14670185D01*
X392866810Y-14701611D01*
X392868757Y-14704291D01*
X392868759Y-14704294D01*
X392960706Y-14796241D01*
X393076567Y-14855275D01*
X393076569Y-14855275D01*
X393076571Y-14855276D01*
X393105728Y-14859893D01*
X393172693Y-14870500D01*
X393632306Y-14870499D01*
X393632311Y-14870499D01*
X393632311Y-14870498D01*
X393680369Y-14862887D01*
X393728428Y-14855276D01*
X393728429Y-14855276D01*
X393728430Y-14855275D01*
X393728433Y-14855275D01*
X393844294Y-14796241D01*
X393844299Y-14796236D01*
X393912319Y-14728217D01*
X393973642Y-14694732D01*
X394043334Y-14699716D01*
X394087681Y-14728217D01*
X394155700Y-14796236D01*
X394155704Y-14796239D01*
X394155706Y-14796241D01*
X394271567Y-14855275D01*
X394271569Y-14855275D01*
X394271571Y-14855276D01*
X394300728Y-14859893D01*
X394367693Y-14870500D01*
X394827306Y-14870499D01*
X394827311Y-14870499D01*
X394827311Y-14870498D01*
X394875369Y-14862887D01*
X394923428Y-14855276D01*
X394923429Y-14855276D01*
X394923430Y-14855275D01*
X394923433Y-14855275D01*
X395039294Y-14796241D01*
X395131241Y-14704294D01*
X395131244Y-14704287D01*
X395133190Y-14701611D01*
X395136391Y-14699142D01*
X395138141Y-14697393D01*
X395138367Y-14697619D01*
X395188522Y-14658947D01*
X395233506Y-14650500D01*
X430589035Y-14650500D01*
X430589037Y-14650500D01*
X430678181Y-14626614D01*
X430758105Y-14580470D01*
X443383886Y-1954687D01*
X443445207Y-1921204D01*
X443514899Y-1926188D01*
X443570832Y-1968060D01*
X443574111Y-1972782D01*
X443574622Y-1973372D01*
X443574623Y-1973373D01*
X443668872Y-2082143D01*
X443789947Y-2159953D01*
X443789950Y-2159954D01*
X443789949Y-2159954D01*
X443897107Y-2191417D01*
X443907829Y-2194566D01*
X443928036Y-2200499D01*
X443928038Y-2200500D01*
X443928039Y-2200500D01*
X444071962Y-2200500D01*
X444071962Y-2200499D01*
X444210053Y-2159953D01*
X444331128Y-2082143D01*
X444425377Y-1973373D01*
X444485165Y-1842457D01*
X444505647Y-1700000D01*
X444485165Y-1557543D01*
X444425377Y-1426627D01*
X444331128Y-1317857D01*
X444331125Y-1317855D01*
X444271606Y-1279604D01*
X444225851Y-1226800D01*
X444215908Y-1157642D01*
X444244933Y-1094086D01*
X444250951Y-1087622D01*
X447890656Y2552081D01*
X447951979Y2585566D01*
X448021671Y2580582D01*
X448077604Y2538710D01*
X448102021Y2473246D01*
X448101075Y2446753D01*
X448094353Y2400000D01*
X448114834Y2257543D01*
X448174622Y2126628D01*
X448174623Y2126626D01*
X448268873Y2017856D01*
X448389950Y1940045D01*
X448389949Y1940045D01*
X448528036Y1899500D01*
X448528039Y1899500D01*
X448671963Y1899500D01*
X448810050Y1940045D01*
X448931126Y2017856D01*
X448931128Y2017857D01*
X449025377Y2126627D01*
X449085165Y2257543D01*
X449105647Y2400000D01*
X449085165Y2542457D01*
X449025377Y2673373D01*
X448931128Y2782143D01*
X448810053Y2859953D01*
X448671962Y2900499D01*
X448671962Y2900500D01*
X448671961Y2900500D01*
X448538437Y2900500D01*
X448471398Y2920185D01*
X448425643Y2972989D01*
X448415699Y3042147D01*
X448444724Y3105703D01*
X448450756Y3112181D01*
X448480468Y3141893D01*
X448480472Y3141898D01*
X448514305Y3200499D01*
X448526614Y3221819D01*
X448530659Y3236919D01*
X448536187Y3257544D01*
X448542235Y3280121D01*
X448550500Y3310963D01*
X448550500Y4393963D01*
X448570185Y4461002D01*
X448580786Y4475164D01*
X448625374Y4526623D01*
X448625376Y4526626D01*
X448625377Y4526627D01*
X448685165Y4657543D01*
X448705647Y4800000D01*
X448685165Y4942457D01*
X448625377Y5073373D01*
X448531128Y5182143D01*
X448410053Y5259953D01*
X448271962Y5300499D01*
X448271962Y5300500D01*
X448271961Y5300500D01*
X448128039Y5300500D01*
X448128038Y5300500D01*
X448128036Y5300499D01*
X447989949Y5259954D01*
X447989947Y5259953D01*
X447868872Y5182143D01*
X447782222Y5082143D01*
X447774623Y5073373D01*
X447774622Y5073371D01*
X447714834Y4942456D01*
X447694353Y4800000D01*
X447714834Y4657543D01*
X447774622Y4526628D01*
X447774625Y4526623D01*
X447819214Y4475164D01*
X447848238Y4411608D01*
X447849500Y4393963D01*
X447849500Y3553651D01*
X447829815Y3486612D01*
X447813181Y3465970D01*
X430434030Y-13913181D01*
X430372707Y-13946666D01*
X430346349Y-13949500D01*
X395233506Y-13949500D01*
X395166467Y-13929815D01*
X395133190Y-13898389D01*
X395131242Y-13895709D01*
X395131241Y-13895706D01*
X395052716Y-13817181D01*
X395019232Y-13755857D01*
X395024216Y-13686166D01*
X395066088Y-13630232D01*
X395131553Y-13605816D01*
X395140398Y-13605500D01*
X411275990Y-13605500D01*
X411276000Y-13605500D01*
X411287588Y-13605433D01*
X411489743Y-13582519D01*
X411541254Y-13571313D01*
X411632938Y-13546784D01*
X411819527Y-13465692D01*
X411985974Y-13348700D01*
X412038778Y-13302945D01*
X412155179Y-13183832D01*
X412268308Y-13014736D01*
X412345083Y-12826329D01*
X412364768Y-12759290D01*
X412384917Y-12678406D01*
X412405500Y-12476000D01*
X412405500Y-10700000D01*
X429694353Y-10700000D01*
X429714834Y-10842456D01*
X429774622Y-10973371D01*
X429774623Y-10973373D01*
X429868872Y-11082143D01*
X429989947Y-11159953D01*
X429989950Y-11159954D01*
X429989949Y-11159954D01*
X430128036Y-11200499D01*
X430128038Y-11200500D01*
X430128039Y-11200500D01*
X430271962Y-11200500D01*
X430271962Y-11200499D01*
X430410053Y-11159953D01*
X430531128Y-11082143D01*
X430625377Y-10973373D01*
X430685165Y-10842457D01*
X430705647Y-10700000D01*
X430685165Y-10557543D01*
X430625377Y-10426627D01*
X430531128Y-10317857D01*
X430410053Y-10240047D01*
X430410051Y-10240046D01*
X430410049Y-10240045D01*
X430410050Y-10240045D01*
X430271963Y-10199500D01*
X430271961Y-10199500D01*
X430128039Y-10199500D01*
X430128036Y-10199500D01*
X429989949Y-10240045D01*
X429868873Y-10317856D01*
X429774623Y-10426626D01*
X429774622Y-10426628D01*
X429714834Y-10557543D01*
X429694353Y-10700000D01*
X412405500Y-10700000D01*
X412405500Y-6000000D01*
X416694353Y-6000000D01*
X416714834Y-6142456D01*
X416740886Y-6199500D01*
X416774623Y-6273373D01*
X416868872Y-6382143D01*
X416989947Y-6459953D01*
X416989950Y-6459954D01*
X416989949Y-6459954D01*
X417128036Y-6500499D01*
X417128038Y-6500500D01*
X417128039Y-6500500D01*
X417271962Y-6500500D01*
X417271962Y-6500499D01*
X417410053Y-6459953D01*
X417531128Y-6382143D01*
X417625377Y-6273373D01*
X417685165Y-6142457D01*
X417705647Y-6000000D01*
X417685165Y-5857543D01*
X417625377Y-5726627D01*
X417531128Y-5617857D01*
X417410053Y-5540047D01*
X417410051Y-5540046D01*
X417410049Y-5540045D01*
X417410050Y-5540045D01*
X417271963Y-5499500D01*
X417271961Y-5499500D01*
X417128039Y-5499500D01*
X417128036Y-5499500D01*
X416989949Y-5540045D01*
X416868873Y-5617856D01*
X416868872Y-5617856D01*
X416868872Y-5617857D01*
X416865218Y-5622074D01*
X416774623Y-5726626D01*
X416774622Y-5726628D01*
X416714834Y-5857543D01*
X416694353Y-6000000D01*
X412405500Y-6000000D01*
X412405500Y-3324000D01*
X412405433Y-3312412D01*
X412382519Y-3110257D01*
X412371313Y-3058746D01*
X412355596Y-3000000D01*
X435694353Y-3000000D01*
X435714834Y-3142456D01*
X435749269Y-3217856D01*
X435774623Y-3273373D01*
X435868872Y-3382143D01*
X435989947Y-3459953D01*
X435989950Y-3459954D01*
X435989949Y-3459954D01*
X436128036Y-3500499D01*
X436128038Y-3500500D01*
X436128039Y-3500500D01*
X436271962Y-3500500D01*
X436271962Y-3500499D01*
X436379121Y-3469035D01*
X436410050Y-3459954D01*
X436410050Y-3459953D01*
X436410053Y-3459953D01*
X436531128Y-3382143D01*
X436625377Y-3273373D01*
X436685165Y-3142457D01*
X436705647Y-3000000D01*
X436685165Y-2857543D01*
X436625377Y-2726627D01*
X436531128Y-2617857D01*
X436410053Y-2540047D01*
X436410051Y-2540046D01*
X436410049Y-2540045D01*
X436410050Y-2540045D01*
X436271963Y-2499500D01*
X436271961Y-2499500D01*
X436128039Y-2499500D01*
X436128036Y-2499500D01*
X435989949Y-2540045D01*
X435868873Y-2617856D01*
X435774623Y-2726626D01*
X435774622Y-2726628D01*
X435714834Y-2857543D01*
X435694353Y-3000000D01*
X412355596Y-3000000D01*
X412346784Y-2967062D01*
X412265692Y-2780473D01*
X412265691Y-2780471D01*
X412265689Y-2780468D01*
X412148705Y-2614033D01*
X412148704Y-2614032D01*
X412148700Y-2614026D01*
X412102945Y-2561222D01*
X411983832Y-2444821D01*
X411983830Y-2444819D01*
X411814738Y-2331693D01*
X411814731Y-2331690D01*
X411626328Y-2254916D01*
X411626322Y-2254914D01*
X411559293Y-2235233D01*
X411559295Y-2235233D01*
X411559290Y-2235232D01*
X411478406Y-2215083D01*
X411478402Y-2215082D01*
X411478403Y-2215082D01*
X411276001Y-2194500D01*
X411276000Y-2194500D01*
X376524000Y-2194500D01*
X376523347Y-2194503D01*
X376512420Y-2194566D01*
X376512406Y-2194567D01*
X376310254Y-2217481D01*
X376258753Y-2228685D01*
X376167058Y-2253217D01*
X375980475Y-2334306D01*
X375980468Y-2334310D01*
X375814033Y-2451294D01*
X375814020Y-2451305D01*
X375761225Y-2497052D01*
X375644819Y-2616169D01*
X375531693Y-2785261D01*
X375531690Y-2785268D01*
X375454916Y-2973671D01*
X375454914Y-2973677D01*
X375435233Y-3040706D01*
X375415082Y-3121597D01*
X375394500Y-3323998D01*
X375394500Y-12475989D01*
X375394566Y-12487579D01*
X375394567Y-12487593D01*
X375416196Y-12678406D01*
X375417481Y-12689743D01*
X375428687Y-12741254D01*
X375451349Y-12825961D01*
X375453217Y-12832941D01*
X375534306Y-13019524D01*
X375534310Y-13019531D01*
X375648607Y-13182143D01*
X375651300Y-13185974D01*
X375697055Y-13238778D01*
X375816168Y-13355179D01*
X375985264Y-13468308D01*
X376158363Y-13538845D01*
X376173671Y-13545083D01*
X376173677Y-13545085D01*
X376188687Y-13549492D01*
X376240710Y-13564768D01*
X376321594Y-13584917D01*
X376456531Y-13598639D01*
X376523999Y-13605500D01*
X392859602Y-13605500D01*
X392926641Y-13625185D01*
X392972396Y-13677989D01*
X392982340Y-13747147D01*
X392953315Y-13810703D01*
X392947284Y-13817181D01*
X392868758Y-13895707D01*
X392866810Y-13898389D01*
X392863608Y-13900857D01*
X392861859Y-13902607D01*
X392861632Y-13902380D01*
X392811478Y-13941053D01*
X392766494Y-13949500D01*
X373613895Y-13949500D01*
X373546856Y-13929815D01*
X373532688Y-13919210D01*
X373531132Y-13917862D01*
X373531128Y-13917857D01*
X373410053Y-13840047D01*
X373410051Y-13840046D01*
X373410049Y-13840045D01*
X373410050Y-13840045D01*
X373271963Y-13799500D01*
X373271961Y-13799500D01*
X373128039Y-13799500D01*
X373128036Y-13799500D01*
X372989949Y-13840045D01*
X372868873Y-13917856D01*
X372774623Y-14026626D01*
X372774622Y-14026628D01*
X372714834Y-14157543D01*
X372694353Y-14300000D01*
X364425500Y-14300000D01*
X364425500Y-8962174D01*
X364425499Y-8962170D01*
X364412736Y-8914535D01*
X364403318Y-8879386D01*
X364360465Y-8805163D01*
X362255302Y-6700000D01*
X370094353Y-6700000D01*
X370114834Y-6842456D01*
X370128953Y-6873371D01*
X370174623Y-6973373D01*
X370268872Y-7082143D01*
X370389947Y-7159953D01*
X370389950Y-7159954D01*
X370389949Y-7159954D01*
X370528036Y-7200499D01*
X370528038Y-7200500D01*
X370528039Y-7200500D01*
X370671962Y-7200500D01*
X370671962Y-7200499D01*
X370810053Y-7159953D01*
X370931128Y-7082143D01*
X371025377Y-6973373D01*
X371085165Y-6842457D01*
X371105647Y-6700000D01*
X371091269Y-6600000D01*
X372194353Y-6600000D01*
X372214834Y-6742456D01*
X372260504Y-6842457D01*
X372274623Y-6873373D01*
X372368872Y-6982143D01*
X372489947Y-7059953D01*
X372489950Y-7059954D01*
X372489949Y-7059954D01*
X372628036Y-7100499D01*
X372628038Y-7100500D01*
X372628039Y-7100500D01*
X372771962Y-7100500D01*
X372771962Y-7100499D01*
X372910053Y-7059953D01*
X373031128Y-6982143D01*
X373125377Y-6873373D01*
X373185165Y-6742457D01*
X373205647Y-6600000D01*
X373185165Y-6457543D01*
X373125377Y-6326627D01*
X373031128Y-6217857D01*
X372910053Y-6140047D01*
X372910051Y-6140046D01*
X372910049Y-6140045D01*
X372910050Y-6140045D01*
X372771963Y-6099500D01*
X372771961Y-6099500D01*
X372628039Y-6099500D01*
X372628036Y-6099500D01*
X372489949Y-6140045D01*
X372368873Y-6217856D01*
X372274623Y-6326626D01*
X372274622Y-6326628D01*
X372214834Y-6457543D01*
X372194353Y-6600000D01*
X371091269Y-6600000D01*
X371085165Y-6557543D01*
X371025377Y-6426627D01*
X370931128Y-6317857D01*
X370810053Y-6240047D01*
X370810051Y-6240046D01*
X370810049Y-6240045D01*
X370810050Y-6240045D01*
X370671963Y-6199500D01*
X370671961Y-6199500D01*
X370528039Y-6199500D01*
X370528036Y-6199500D01*
X370389949Y-6240045D01*
X370268873Y-6317856D01*
X370174623Y-6426626D01*
X370174622Y-6426628D01*
X370114834Y-6557543D01*
X370094353Y-6700000D01*
X362255302Y-6700000D01*
X356255302Y-700000D01*
X427194353Y-700000D01*
X427214834Y-842456D01*
X427250238Y-919978D01*
X427274623Y-973373D01*
X427368872Y-1082143D01*
X427489947Y-1159953D01*
X427489950Y-1159954D01*
X427489949Y-1159954D01*
X427628036Y-1200499D01*
X427628038Y-1200500D01*
X427628039Y-1200500D01*
X427771962Y-1200500D01*
X427771962Y-1200499D01*
X427910053Y-1159953D01*
X428031128Y-1082143D01*
X428125377Y-973373D01*
X428185165Y-842457D01*
X428205647Y-700000D01*
X428185165Y-557543D01*
X428125377Y-426627D01*
X428031128Y-317857D01*
X427910053Y-240047D01*
X427910051Y-240046D01*
X427910049Y-240045D01*
X427910050Y-240045D01*
X427771963Y-199500D01*
X427771961Y-199500D01*
X427628039Y-199500D01*
X427628036Y-199500D01*
X427489949Y-240045D01*
X427368873Y-317856D01*
X427274623Y-426626D01*
X427274622Y-426628D01*
X427214834Y-557543D01*
X427194353Y-700000D01*
X356255302Y-700000D01*
X354755302Y800000D01*
X432194353Y800000D01*
X432214834Y657543D01*
X432274622Y526628D01*
X432274623Y526626D01*
X432368873Y417856D01*
X432489950Y340045D01*
X432489949Y340045D01*
X432628036Y299500D01*
X432628039Y299500D01*
X432771963Y299500D01*
X432910050Y340045D01*
X433031126Y417856D01*
X433031128Y417857D01*
X433125377Y526627D01*
X433185165Y657543D01*
X433205647Y800000D01*
X433185165Y942457D01*
X433125377Y1073373D01*
X433102305Y1100000D01*
X441894353Y1100000D01*
X441914834Y957543D01*
X441974622Y826628D01*
X441974623Y826626D01*
X442068873Y717856D01*
X442189950Y640045D01*
X442189949Y640045D01*
X442328036Y599500D01*
X442328039Y599500D01*
X442471963Y599500D01*
X442610050Y640045D01*
X442731126Y717856D01*
X442731128Y717857D01*
X442825377Y826627D01*
X442885165Y957543D01*
X442905647Y1100000D01*
X442885165Y1242457D01*
X442825377Y1373373D01*
X442780786Y1424833D01*
X442751762Y1488388D01*
X442750500Y1506035D01*
X442750500Y3903456D01*
X442770185Y3970495D01*
X442786819Y3991137D01*
X446180466Y7384784D01*
X446180469Y7384787D01*
X446226614Y7464712D01*
X446231991Y7484783D01*
X446231993Y7484786D01*
X446231993Y7484787D01*
X446235903Y7499383D01*
X446250500Y7553856D01*
X446250500Y8593963D01*
X446270185Y8661002D01*
X446280786Y8675164D01*
X446325374Y8726623D01*
X446325375Y8726624D01*
X446325377Y8726627D01*
X446385165Y8857543D01*
X446405647Y9000000D01*
X446385165Y9142457D01*
X446325377Y9273373D01*
X446231128Y9382143D01*
X446110053Y9459953D01*
X445971962Y9500499D01*
X445971962Y9500500D01*
X445971961Y9500500D01*
X445828039Y9500500D01*
X445828038Y9500500D01*
X445828036Y9500499D01*
X445689949Y9459954D01*
X445689947Y9459953D01*
X445568872Y9382143D01*
X445474623Y9273373D01*
X445474622Y9273371D01*
X445414834Y9142456D01*
X445394353Y9000000D01*
X445414834Y8857543D01*
X445474622Y8726628D01*
X445474625Y8726623D01*
X445519214Y8675164D01*
X445548238Y8611608D01*
X445549500Y8593963D01*
X445549500Y8384652D01*
X445529815Y8317613D01*
X445477011Y8271858D01*
X445407853Y8261914D01*
X445390565Y8265675D01*
X445271962Y8300500D01*
X445271961Y8300500D01*
X445128039Y8300500D01*
X445128038Y8300500D01*
X445128036Y8300499D01*
X444989949Y8259954D01*
X444989947Y8259953D01*
X444868872Y8182143D01*
X444850500Y8160940D01*
X444774623Y8073373D01*
X444774622Y8073371D01*
X444714834Y7942456D01*
X444698552Y7829210D01*
X444669527Y7765655D01*
X444663495Y7759177D01*
X443917865Y7013547D01*
X443856542Y6980062D01*
X443786850Y6985046D01*
X443763150Y6996909D01*
X443665053Y7059953D01*
X443665052Y7059953D01*
X443665051Y7059954D01*
X443596007Y7080226D01*
X443526962Y7100499D01*
X443526962Y7100500D01*
X443526961Y7100500D01*
X443383039Y7100500D01*
X443383038Y7100500D01*
X443383036Y7100499D01*
X443244949Y7059954D01*
X443244947Y7059953D01*
X443123872Y6982143D01*
X443029623Y6873373D01*
X443029622Y6873371D01*
X442969834Y6742456D01*
X442949353Y6600000D01*
X442969834Y6457543D01*
X443029622Y6326628D01*
X443029623Y6326626D01*
X443123873Y6217856D01*
X443244950Y6140045D01*
X443244949Y6140045D01*
X443383036Y6099500D01*
X443383039Y6099500D01*
X443526964Y6099500D01*
X443594323Y6119278D01*
X443664193Y6119278D01*
X443722971Y6081503D01*
X443751995Y6017947D01*
X443742051Y5948789D01*
X443716938Y5912620D01*
X442119530Y4315212D01*
X442089491Y4263181D01*
X442084642Y4254783D01*
X442084640Y4254782D01*
X442084641Y4254782D01*
X442073386Y4235289D01*
X442073386Y4235288D01*
X442049500Y4146144D01*
X442049500Y4146142D01*
X442049500Y1506035D01*
X442029815Y1438996D01*
X442019217Y1424837D01*
X441974623Y1373373D01*
X441974623Y1373372D01*
X441974622Y1373371D01*
X441914834Y1242456D01*
X441894353Y1100000D01*
X433102305Y1100000D01*
X433031128Y1182143D01*
X432910053Y1259953D01*
X432771962Y1300499D01*
X432771962Y1300500D01*
X432771961Y1300500D01*
X432628039Y1300500D01*
X432628038Y1300500D01*
X432628036Y1300499D01*
X432489949Y1259954D01*
X432489947Y1259953D01*
X432368872Y1182143D01*
X432297695Y1100000D01*
X432274623Y1073373D01*
X432274622Y1073371D01*
X432214834Y942456D01*
X432194353Y800000D01*
X354755302Y800000D01*
X348555302Y7000000D01*
X389244639Y7000000D01*
X389264071Y6579684D01*
X389264071Y6579677D01*
X389264072Y6579675D01*
X389322203Y6162955D01*
X389322204Y6162949D01*
X389418536Y5753368D01*
X389552256Y5354402D01*
X389552257Y5354398D01*
X389722199Y4969519D01*
X389722213Y4969491D01*
X389926949Y4601918D01*
X389926953Y4601912D01*
X390164743Y4254782D01*
X390164752Y4254769D01*
X390433538Y3931084D01*
X390433556Y3931064D01*
X390731064Y3633556D01*
X390731084Y3633538D01*
X391054769Y3364752D01*
X391054779Y3364745D01*
X391401912Y3126953D01*
X391401918Y3126949D01*
X391769491Y2922213D01*
X391769519Y2922199D01*
X392154398Y2752257D01*
X392154402Y2752256D01*
X392553368Y2618536D01*
X392962949Y2522204D01*
X392962955Y2522203D01*
X393379675Y2464072D01*
X393379677Y2464071D01*
X393379684Y2464071D01*
X393800000Y2444639D01*
X394220316Y2464071D01*
X394220322Y2464071D01*
X394220324Y2464072D01*
X394409493Y2490460D01*
X394637045Y2522203D01*
X394637047Y2522203D01*
X394637050Y2522204D01*
X395046631Y2618536D01*
X395046634Y2618537D01*
X395445586Y2752252D01*
X395445588Y2752253D01*
X395445597Y2752256D01*
X395445601Y2752257D01*
X395830480Y2922199D01*
X395830490Y2922204D01*
X395830499Y2922208D01*
X395862526Y2940047D01*
X396198081Y3126949D01*
X396198087Y3126953D01*
X396198089Y3126954D01*
X396545218Y3364743D01*
X396545222Y3364746D01*
X396545230Y3364752D01*
X396868915Y3633538D01*
X396868927Y3633548D01*
X397166452Y3931073D01*
X397262006Y4046144D01*
X397435247Y4254769D01*
X397435257Y4254782D01*
X397463948Y4296666D01*
X397673046Y4601911D01*
X397727681Y4700000D01*
X435594353Y4700000D01*
X435614834Y4557543D01*
X435674622Y4426628D01*
X435674623Y4426626D01*
X435768873Y4317856D01*
X435889950Y4240045D01*
X435889949Y4240045D01*
X436028036Y4199500D01*
X436028039Y4199500D01*
X436171963Y4199500D01*
X436310050Y4240045D01*
X436427012Y4315212D01*
X436431128Y4317857D01*
X436525377Y4426627D01*
X436585165Y4557543D01*
X436605647Y4700000D01*
X436585165Y4842457D01*
X436525377Y4973373D01*
X436431128Y5082143D01*
X436310053Y5159953D01*
X436171962Y5200499D01*
X436171962Y5200500D01*
X436171961Y5200500D01*
X436028039Y5200500D01*
X436028038Y5200500D01*
X436028036Y5200499D01*
X435889949Y5159954D01*
X435889947Y5159953D01*
X435768872Y5082143D01*
X435674623Y4973373D01*
X435674622Y4973371D01*
X435614834Y4842456D01*
X435594353Y4700000D01*
X397727681Y4700000D01*
X397877792Y4969501D01*
X397923656Y5073373D01*
X398047742Y5354398D01*
X398047743Y5354402D01*
X398047743Y5354404D01*
X398047748Y5354414D01*
X398181463Y5753366D01*
X398277797Y6162955D01*
X398335929Y6579684D01*
X398355361Y7000000D01*
X398335929Y7420316D01*
X398277797Y7837045D01*
X398181463Y8246634D01*
X398047748Y8645586D01*
X398047742Y8645597D01*
X398047742Y8645601D01*
X397943147Y8882482D01*
X397877792Y9030499D01*
X397673046Y9398089D01*
X397435257Y9745218D01*
X397166452Y10068927D01*
X396868927Y10366452D01*
X396545218Y10635257D01*
X396198089Y10873046D01*
X395830499Y11077792D01*
X395682482Y11143147D01*
X395445601Y11247742D01*
X395445597Y11247743D01*
X395445586Y11247748D01*
X395046634Y11381463D01*
X394637045Y11477797D01*
X394220316Y11535929D01*
X393800000Y11555361D01*
X393379684Y11535929D01*
X392962955Y11477797D01*
X392553366Y11381463D01*
X392154414Y11247748D01*
X392154404Y11247743D01*
X392154402Y11247743D01*
X392154398Y11247742D01*
X391769519Y11077800D01*
X391769501Y11077792D01*
X391401911Y10873046D01*
X391054782Y10635257D01*
X391054775Y10635251D01*
X391054769Y10635247D01*
X390777857Y10405301D01*
X390731073Y10366452D01*
X390433548Y10068927D01*
X390433538Y10068915D01*
X390164752Y9745230D01*
X390164746Y9745222D01*
X390164743Y9745218D01*
X389997107Y9500499D01*
X389926953Y9398087D01*
X389926949Y9398081D01*
X389722213Y9030508D01*
X389722208Y9030499D01*
X389722204Y9030490D01*
X389722199Y9030480D01*
X389552257Y8645601D01*
X389552256Y8645597D01*
X389418536Y8246631D01*
X389346995Y7942456D01*
X389322203Y7837045D01*
X389264071Y7420316D01*
X389244639Y7000000D01*
X348555302Y7000000D01*
X342555302Y13000000D01*
X419894353Y13000000D01*
X419914834Y12857543D01*
X419974622Y12726628D01*
X419974623Y12726626D01*
X420068873Y12617856D01*
X420189950Y12540045D01*
X420189949Y12540045D01*
X420328036Y12499500D01*
X420328039Y12499500D01*
X420471963Y12499500D01*
X420610050Y12540045D01*
X420731126Y12617856D01*
X420731128Y12617857D01*
X420825377Y12726627D01*
X420885165Y12857543D01*
X420905647Y13000000D01*
X420885165Y13142457D01*
X420825377Y13273373D01*
X420731128Y13382143D01*
X420610053Y13459953D01*
X420471962Y13500499D01*
X420471962Y13500500D01*
X420471961Y13500500D01*
X420328039Y13500500D01*
X420328038Y13500500D01*
X420328036Y13500499D01*
X420297107Y13491417D01*
X420189949Y13459954D01*
X420189947Y13459953D01*
X420068872Y13382143D01*
X420042972Y13352252D01*
X419974623Y13273373D01*
X419974622Y13273371D01*
X419914834Y13142456D01*
X419894353Y13000000D01*
X342555302Y13000000D01*
X339975300Y15580002D01*
X354245034Y15580002D01*
X354245034Y15579997D01*
X354264858Y15353400D01*
X354264860Y15353389D01*
X354323730Y15133682D01*
X354323734Y15133673D01*
X354419866Y14927516D01*
X354419868Y14927512D01*
X354470973Y14854526D01*
X354470974Y14854526D01*
X355150000Y15533552D01*
X355150000Y15527339D01*
X355177259Y15425606D01*
X355229920Y15334394D01*
X355304394Y15259920D01*
X355395606Y15207259D01*
X355497339Y15180000D01*
X355503553Y15180000D01*
X354824526Y14500974D01*
X354824526Y14500973D01*
X354897512Y14449868D01*
X354897516Y14449866D01*
X355103673Y14353734D01*
X355103682Y14353730D01*
X355323389Y14294860D01*
X355323400Y14294858D01*
X355549998Y14275034D01*
X355550002Y14275034D01*
X355776599Y14294858D01*
X355776610Y14294860D01*
X355996317Y14353730D01*
X355996331Y14353735D01*
X356202478Y14449863D01*
X356275472Y14500974D01*
X355596448Y15180000D01*
X355602661Y15180000D01*
X355704394Y15207259D01*
X355795606Y15259920D01*
X355870080Y15334394D01*
X355922741Y15425606D01*
X355950000Y15527339D01*
X355950000Y15533551D01*
X356629025Y14854526D01*
X356680132Y14927513D01*
X356680136Y14927521D01*
X356776264Y15133668D01*
X356776269Y15133682D01*
X356835139Y15353389D01*
X356835141Y15353400D01*
X356854966Y15579997D01*
X356854966Y15580002D01*
X356835141Y15806599D01*
X356835139Y15806610D01*
X356776269Y16026317D01*
X356776264Y16026331D01*
X356680136Y16232478D01*
X356629024Y16305471D01*
X355950000Y15626447D01*
X355950000Y15632661D01*
X355922741Y15734394D01*
X355870080Y15825606D01*
X355795606Y15900080D01*
X355704394Y15952741D01*
X355602661Y15980000D01*
X355596447Y15980000D01*
X356275471Y16659024D01*
X356202478Y16710136D01*
X355996331Y16806264D01*
X355996317Y16806269D01*
X355776610Y16865139D01*
X355776599Y16865141D01*
X355550002Y16884966D01*
X355549998Y16884966D01*
X355323400Y16865141D01*
X355323389Y16865139D01*
X355103682Y16806269D01*
X355103668Y16806264D01*
X354897521Y16710136D01*
X354897513Y16710132D01*
X354824526Y16659025D01*
X355503553Y15980000D01*
X355497339Y15980000D01*
X355395606Y15952741D01*
X355304394Y15900080D01*
X355229920Y15825606D01*
X355177259Y15734394D01*
X355150000Y15632661D01*
X355150000Y15626446D01*
X354470974Y16305472D01*
X354419863Y16232478D01*
X354323735Y16026331D01*
X354323730Y16026317D01*
X354264860Y15806610D01*
X354264858Y15806599D01*
X354245034Y15580002D01*
X339975300Y15580002D01*
X339887337Y15667965D01*
X339813114Y15710818D01*
X339730328Y15733000D01*
X339730326Y15733000D01*
X337940583Y15733000D01*
X337873544Y15752685D01*
X337827789Y15805489D01*
X337826021Y15809549D01*
X337825234Y15811445D01*
X337825232Y15811454D01*
X337727685Y15993950D01*
X337596410Y16153910D01*
X337436450Y16285185D01*
X337253954Y16382732D01*
X337055934Y16442800D01*
X336850000Y16463083D01*
X336644066Y16442800D01*
X336446046Y16382732D01*
X336263550Y16285185D01*
X336200209Y16233202D01*
X336103589Y16153910D01*
X336006969Y16036177D01*
X335972315Y15993950D01*
X335874768Y15811454D01*
X335872959Y15805489D01*
X335814699Y15613432D01*
X335794417Y15407500D01*
X335814699Y15201567D01*
X335874769Y15003543D01*
X335915407Y14927516D01*
X335954286Y14854779D01*
X335972317Y14821047D01*
X336103589Y14661089D01*
X336263547Y14529817D01*
X336263548Y14529816D01*
X336263550Y14529815D01*
X336317507Y14500974D01*
X336446043Y14432269D01*
X336644069Y14372199D01*
X336644065Y14372199D01*
X336850000Y14351917D01*
X337055932Y14372199D01*
X337178053Y14409244D01*
X337253954Y14432268D01*
X337436450Y14529815D01*
X337478677Y14564469D01*
X337596410Y14661089D01*
X337675702Y14757709D01*
X337727685Y14821050D01*
X337825232Y15003546D01*
X337825233Y15003551D01*
X337826021Y15005451D01*
X337826701Y15006296D01*
X337828104Y15008919D01*
X337828601Y15008653D01*
X337869862Y15059855D01*
X337936156Y15081921D01*
X337940583Y15082000D01*
X339501286Y15082000D01*
X339568325Y15062315D01*
X339588967Y15045681D01*
X343447467Y11187181D01*
X343480952Y11125858D01*
X343475968Y11056166D01*
X343434096Y11000233D01*
X343368632Y10975816D01*
X343359786Y10975500D01*
X333893689Y10975500D01*
X333826650Y10995185D01*
X333806008Y11011819D01*
X333630646Y11187181D01*
X333062713Y11755112D01*
X333029231Y11816432D01*
X333034215Y11886123D01*
X333076086Y11942057D01*
X333141551Y11966474D01*
X333208848Y11952149D01*
X333246040Y11932270D01*
X333246045Y11932268D01*
X333246046Y11932268D01*
X333378059Y11892222D01*
X333444069Y11872199D01*
X333444065Y11872199D01*
X333650000Y11851917D01*
X333855932Y11872199D01*
X333954944Y11902234D01*
X334053954Y11932268D01*
X334236450Y12029815D01*
X334278677Y12064469D01*
X334396410Y12161089D01*
X334503297Y12291333D01*
X334527685Y12321050D01*
X334625232Y12503546D01*
X334685300Y12701566D01*
X334705583Y12907500D01*
X335794417Y12907500D01*
X335814699Y12701567D01*
X335874769Y12503543D01*
X335931212Y12397947D01*
X335966086Y12332703D01*
X335972317Y12321047D01*
X336103589Y12161089D01*
X336263547Y12029817D01*
X336263548Y12029816D01*
X336263550Y12029815D01*
X336335898Y11991143D01*
X336446043Y11932269D01*
X336644069Y11872199D01*
X336644065Y11872199D01*
X336850000Y11851917D01*
X337055932Y11872199D01*
X337154944Y11902234D01*
X337253954Y11932268D01*
X337436450Y12029815D01*
X337478677Y12064469D01*
X337596410Y12161089D01*
X337703297Y12291333D01*
X337727685Y12321050D01*
X337825232Y12503546D01*
X337885300Y12701566D01*
X337905583Y12907500D01*
X337885300Y13113434D01*
X337825232Y13311454D01*
X337727685Y13493950D01*
X337596410Y13653910D01*
X337436450Y13785185D01*
X337253954Y13882732D01*
X337055934Y13942800D01*
X336850000Y13963083D01*
X336644066Y13942800D01*
X336446046Y13882732D01*
X336263550Y13785185D01*
X336200209Y13733202D01*
X336103589Y13653910D01*
X336006969Y13536177D01*
X335972315Y13493950D01*
X335874768Y13311454D01*
X335863216Y13273371D01*
X335814699Y13113432D01*
X335794417Y12907500D01*
X334705583Y12907500D01*
X334685300Y13113434D01*
X334625232Y13311454D01*
X334527685Y13493950D01*
X334396410Y13653910D01*
X334236450Y13785185D01*
X334053954Y13882732D01*
X333855934Y13942800D01*
X333650000Y13963083D01*
X333444066Y13942800D01*
X333246046Y13882732D01*
X333063550Y13785185D01*
X333000209Y13733202D01*
X332903589Y13653910D01*
X332806969Y13536177D01*
X332772315Y13493950D01*
X332674768Y13311454D01*
X332663216Y13273371D01*
X332614699Y13113432D01*
X332594417Y12907500D01*
X332614699Y12701567D01*
X332674769Y12503541D01*
X332694649Y12466350D01*
X332708891Y12397947D01*
X332683891Y12332703D01*
X332627586Y12291333D01*
X332557852Y12286971D01*
X332497611Y12320215D01*
X329951319Y14866506D01*
X329917836Y14927827D01*
X329922820Y14997519D01*
X329924444Y15001644D01*
X329925230Y15003541D01*
X329925810Y15005451D01*
X329985300Y15201566D01*
X330005583Y15407500D01*
X332594417Y15407500D01*
X332614699Y15201567D01*
X332674769Y15003543D01*
X332715407Y14927516D01*
X332754286Y14854779D01*
X332772317Y14821047D01*
X332903589Y14661089D01*
X333063547Y14529817D01*
X333063548Y14529816D01*
X333063550Y14529815D01*
X333117507Y14500974D01*
X333246043Y14432269D01*
X333444069Y14372199D01*
X333444065Y14372199D01*
X333650000Y14351917D01*
X333855932Y14372199D01*
X333978053Y14409244D01*
X334053954Y14432268D01*
X334236450Y14529815D01*
X334278677Y14564469D01*
X334396410Y14661089D01*
X334475702Y14757709D01*
X334527685Y14821050D01*
X334625232Y15003546D01*
X334685300Y15201566D01*
X334705583Y15407500D01*
X334685300Y15613434D01*
X334625232Y15811454D01*
X334527685Y15993950D01*
X334396410Y16153910D01*
X334236450Y16285185D01*
X334053954Y16382732D01*
X333855934Y16442800D01*
X333650000Y16463083D01*
X333444066Y16442800D01*
X333246046Y16382732D01*
X333063550Y16285185D01*
X333000209Y16233202D01*
X332903589Y16153910D01*
X332806969Y16036177D01*
X332772315Y15993950D01*
X332674768Y15811454D01*
X332672959Y15805489D01*
X332614699Y15613432D01*
X332594417Y15407500D01*
X330005583Y15407500D01*
X329985300Y15613434D01*
X329925232Y15811454D01*
X329827685Y15993950D01*
X329696410Y16153910D01*
X329536450Y16285185D01*
X329353954Y16382732D01*
X329155934Y16442800D01*
X328950000Y16463083D01*
X328744066Y16442800D01*
X328546046Y16382732D01*
X328363550Y16285185D01*
X328300209Y16233202D01*
X328203589Y16153910D01*
X328106969Y16036177D01*
X328072315Y15993950D01*
X327974768Y15811454D01*
X327972959Y15805489D01*
X327914699Y15613432D01*
X327894417Y15407500D01*
X326805583Y15407500D01*
X326785300Y15613434D01*
X326725232Y15811454D01*
X326627685Y15993950D01*
X326496410Y16153910D01*
X326336450Y16285185D01*
X326153954Y16382732D01*
X325955934Y16442800D01*
X325750000Y16463083D01*
X325544066Y16442800D01*
X325346046Y16382732D01*
X325163550Y16285185D01*
X325100209Y16233202D01*
X325003589Y16153910D01*
X324906969Y16036177D01*
X324872315Y15993950D01*
X324774768Y15811454D01*
X324772959Y15805489D01*
X324714699Y15613432D01*
X324694417Y15407500D01*
X321800500Y15407500D01*
X321800500Y17907500D01*
X324694417Y17907500D01*
X324714699Y17701567D01*
X324774769Y17503543D01*
X324872317Y17321047D01*
X325003589Y17161089D01*
X325163547Y17029817D01*
X325163548Y17029816D01*
X325163550Y17029815D01*
X325201070Y17009760D01*
X325346043Y16932269D01*
X325346045Y16932268D01*
X325346046Y16932268D01*
X325445056Y16902234D01*
X325544069Y16872199D01*
X325544065Y16872199D01*
X325750000Y16851917D01*
X325955932Y16872199D01*
X326054944Y16902234D01*
X326153954Y16932268D01*
X326336450Y17029815D01*
X326378677Y17064469D01*
X326496410Y17161089D01*
X326575702Y17257709D01*
X326627685Y17321050D01*
X326725232Y17503546D01*
X326785300Y17701566D01*
X326805583Y17907500D01*
X326785300Y18113434D01*
X326725232Y18311454D01*
X326627685Y18493950D01*
X326496410Y18653910D01*
X326401040Y18732178D01*
X327899500Y18732178D01*
X327899500Y17082821D01*
X327914032Y17009764D01*
X327914033Y17009760D01*
X327969399Y16926899D01*
X328052260Y16871533D01*
X328052264Y16871532D01*
X328125321Y16857000D01*
X328125326Y16857000D01*
X329774678Y16857000D01*
X329847735Y16871532D01*
X329847739Y16871533D01*
X329875235Y16889905D01*
X329930601Y16926899D01*
X329985966Y17009760D01*
X330000499Y17082821D01*
X330000500Y17082823D01*
X330000500Y17907500D01*
X332594417Y17907500D01*
X332614699Y17701567D01*
X332674769Y17503543D01*
X332772317Y17321047D01*
X332903589Y17161089D01*
X333063547Y17029817D01*
X333063548Y17029816D01*
X333063550Y17029815D01*
X333101070Y17009760D01*
X333246043Y16932269D01*
X333246045Y16932268D01*
X333246046Y16932268D01*
X333345056Y16902234D01*
X333444069Y16872199D01*
X333444065Y16872199D01*
X333650000Y16851917D01*
X333855932Y16872199D01*
X333954944Y16902234D01*
X334053954Y16932268D01*
X334236450Y17029815D01*
X334278677Y17064469D01*
X334396410Y17161089D01*
X334475702Y17257709D01*
X334527685Y17321050D01*
X334625232Y17503546D01*
X334685300Y17701566D01*
X334705583Y17907500D01*
X334685300Y18113434D01*
X334625232Y18311454D01*
X334527685Y18493950D01*
X334396410Y18653910D01*
X334301040Y18732178D01*
X335799500Y18732178D01*
X335799500Y17082821D01*
X335814032Y17009764D01*
X335814033Y17009760D01*
X335869399Y16926899D01*
X335952260Y16871533D01*
X335952264Y16871532D01*
X336025321Y16857000D01*
X336025326Y16857000D01*
X337674678Y16857000D01*
X337747735Y16871532D01*
X337747739Y16871533D01*
X337775235Y16889905D01*
X337830601Y16926899D01*
X337885966Y17009760D01*
X337900499Y17082821D01*
X337900500Y17082823D01*
X337900500Y17600000D01*
X389244639Y17600000D01*
X389264071Y17179684D01*
X389264071Y17179677D01*
X389264072Y17179675D01*
X389322203Y16762955D01*
X389322204Y16762949D01*
X389418536Y16353368D01*
X389552256Y15954402D01*
X389552257Y15954398D01*
X389722199Y15569519D01*
X389722213Y15569491D01*
X389926949Y15201918D01*
X389926953Y15201912D01*
X390164745Y14854779D01*
X390164752Y14854769D01*
X390433538Y14531084D01*
X390433556Y14531064D01*
X390731064Y14233556D01*
X390731084Y14233538D01*
X391054769Y13964752D01*
X391054779Y13964745D01*
X391401912Y13726953D01*
X391401918Y13726949D01*
X391769491Y13522213D01*
X391769519Y13522199D01*
X392154398Y13352257D01*
X392154402Y13352256D01*
X392553368Y13218536D01*
X392962949Y13122204D01*
X392962955Y13122203D01*
X393379675Y13064072D01*
X393379677Y13064071D01*
X393379684Y13064071D01*
X393800000Y13044639D01*
X394220316Y13064071D01*
X394220322Y13064071D01*
X394220324Y13064072D01*
X394409493Y13090460D01*
X394637045Y13122203D01*
X394637047Y13122203D01*
X394637050Y13122204D01*
X395046631Y13218536D01*
X395046634Y13218537D01*
X395445586Y13352252D01*
X395445588Y13352253D01*
X395445597Y13352256D01*
X395445601Y13352257D01*
X395830480Y13522199D01*
X395830490Y13522204D01*
X395830499Y13522208D01*
X396066950Y13653910D01*
X396198081Y13726949D01*
X396198087Y13726953D01*
X396198089Y13726954D01*
X396545218Y13964743D01*
X396545222Y13964746D01*
X396545230Y13964752D01*
X396868915Y14233538D01*
X396868927Y14233548D01*
X397166452Y14531073D01*
X397407244Y14821047D01*
X397435247Y14854769D01*
X397435251Y14854775D01*
X397435257Y14854782D01*
X397673046Y15201911D01*
X397686713Y15226447D01*
X397746838Y15334394D01*
X397877792Y15569501D01*
X397877800Y15569519D01*
X398047742Y15954398D01*
X398047743Y15954402D01*
X398047743Y15954404D01*
X398047748Y15954414D01*
X398181463Y16353366D01*
X398277797Y16762955D01*
X398335929Y17179684D01*
X398355361Y17600000D01*
X398335929Y18020316D01*
X398277797Y18437045D01*
X398181463Y18846634D01*
X398047748Y19245586D01*
X398047742Y19245597D01*
X398047742Y19245601D01*
X397931673Y19508469D01*
X419484500Y19508469D01*
X419484500Y18501530D01*
X419524868Y18298587D01*
X419524870Y18298579D01*
X419604058Y18107403D01*
X419719024Y17935342D01*
X419865342Y17789024D01*
X420037403Y17674058D01*
X420228579Y17594870D01*
X420228587Y17594868D01*
X420431530Y17554500D01*
X420431535Y17554500D01*
X420638469Y17554500D01*
X420841412Y17594868D01*
X420841420Y17594870D01*
X421032596Y17674058D01*
X421032598Y17674059D01*
X421158383Y17758105D01*
X421204657Y17789024D01*
X421350975Y17935342D01*
X421365809Y17957543D01*
X421465941Y18107402D01*
X421545130Y18298580D01*
X421553378Y18340047D01*
X421555633Y18351381D01*
X421588017Y18413292D01*
X421648733Y18447866D01*
X421718502Y18444127D01*
X421775175Y18403261D01*
X421799723Y18346589D01*
X421807010Y18300581D01*
X421870244Y18105968D01*
X421963140Y17923650D01*
X422083417Y17758105D01*
X422083417Y17758104D01*
X422228104Y17613417D01*
X422393650Y17493140D01*
X422575970Y17400244D01*
X422770586Y17337009D01*
X422825000Y17328390D01*
X422825000Y18689314D01*
X422829394Y18684920D01*
X422920606Y18632259D01*
X423022339Y18605000D01*
X423127661Y18605000D01*
X423229394Y18632259D01*
X423320606Y18684920D01*
X423325000Y18689314D01*
X423325000Y17328390D01*
X423379413Y17337009D01*
X423574029Y17400244D01*
X423756349Y17493140D01*
X423921894Y17613417D01*
X423921895Y17613417D01*
X424066582Y17758104D01*
X424066582Y17758105D01*
X424186859Y17923650D01*
X424279755Y18105968D01*
X424342990Y18300582D01*
X424375000Y18502682D01*
X424375000Y18755000D01*
X423390686Y18755000D01*
X423395080Y18759394D01*
X423447741Y18850606D01*
X423475000Y18952339D01*
X423475000Y19057661D01*
X423447741Y19159394D01*
X423395080Y19250606D01*
X423390686Y19255000D01*
X424375000Y19255000D01*
X424375000Y19507317D01*
X424374818Y19508469D01*
X426884500Y19508469D01*
X426884500Y18501530D01*
X426924868Y18298587D01*
X426924870Y18298579D01*
X427004058Y18107403D01*
X427119024Y17935342D01*
X427265342Y17789024D01*
X427437403Y17674058D01*
X427628579Y17594870D01*
X427628587Y17594868D01*
X427831530Y17554500D01*
X427831535Y17554500D01*
X428038469Y17554500D01*
X428241412Y17594868D01*
X428241420Y17594870D01*
X428432596Y17674058D01*
X428432598Y17674059D01*
X428558383Y17758105D01*
X428604657Y17789024D01*
X428750975Y17935342D01*
X428765809Y17957543D01*
X428865941Y18107402D01*
X428945130Y18298580D01*
X428985500Y18501535D01*
X428985500Y19508465D01*
X428985499Y19508469D01*
X429424500Y19508469D01*
X429424500Y18501530D01*
X429464868Y18298587D01*
X429464870Y18298579D01*
X429544058Y18107403D01*
X429659024Y17935342D01*
X429805342Y17789024D01*
X429977403Y17674058D01*
X430168579Y17594870D01*
X430168587Y17594868D01*
X430371530Y17554500D01*
X430371535Y17554500D01*
X430578469Y17554500D01*
X430781412Y17594868D01*
X430781420Y17594870D01*
X430972596Y17674058D01*
X430972598Y17674059D01*
X431098383Y17758105D01*
X431144657Y17789024D01*
X431290975Y17935342D01*
X431305809Y17957543D01*
X431400995Y18100000D01*
X438794353Y18100000D01*
X438814834Y17957543D01*
X438874622Y17826628D01*
X438874623Y17826626D01*
X438968873Y17717856D01*
X439089950Y17640045D01*
X439089949Y17640045D01*
X439228036Y17599500D01*
X439228039Y17599500D01*
X439371963Y17599500D01*
X439510050Y17640045D01*
X439602564Y17699500D01*
X439631128Y17717857D01*
X439725377Y17826627D01*
X439785165Y17957543D01*
X439805647Y18100000D01*
X446494353Y18100000D01*
X446514834Y17957543D01*
X446574622Y17826628D01*
X446574623Y17826626D01*
X446668873Y17717856D01*
X446789950Y17640045D01*
X446789949Y17640045D01*
X446928036Y17599500D01*
X446928039Y17599500D01*
X447071963Y17599500D01*
X447210050Y17640045D01*
X447302564Y17699500D01*
X447331128Y17717857D01*
X447425377Y17826627D01*
X447485165Y17957543D01*
X447505647Y18100000D01*
X447485165Y18242457D01*
X447425377Y18373373D01*
X447331128Y18482143D01*
X447210053Y18559953D01*
X447071962Y18600499D01*
X447071962Y18600500D01*
X447071961Y18600500D01*
X446928039Y18600500D01*
X446928038Y18600500D01*
X446928036Y18600499D01*
X446789949Y18559954D01*
X446789947Y18559953D01*
X446668872Y18482143D01*
X446609213Y18413292D01*
X446574623Y18373373D01*
X446574622Y18373371D01*
X446514834Y18242456D01*
X446494353Y18100000D01*
X439805647Y18100000D01*
X439785165Y18242457D01*
X439725377Y18373373D01*
X439631128Y18482143D01*
X439510053Y18559953D01*
X439371962Y18600499D01*
X439371962Y18600500D01*
X439371961Y18600500D01*
X439228039Y18600500D01*
X439228038Y18600500D01*
X439228036Y18600499D01*
X439089949Y18559954D01*
X439089947Y18559953D01*
X438968872Y18482143D01*
X438909213Y18413292D01*
X438874623Y18373373D01*
X438874622Y18373371D01*
X438814834Y18242456D01*
X438794353Y18100000D01*
X431400995Y18100000D01*
X431405941Y18107402D01*
X431485130Y18298580D01*
X431525500Y18501535D01*
X431525500Y19508465D01*
X431485130Y19711420D01*
X431405941Y19902598D01*
X431290977Y20074655D01*
X431144655Y20220977D01*
X430972598Y20335941D01*
X430781420Y20415130D01*
X430578467Y20455499D01*
X430578466Y20455500D01*
X430578465Y20455500D01*
X430371535Y20455500D01*
X430371534Y20455500D01*
X430371530Y20455499D01*
X430168580Y20415130D01*
X429977402Y20335941D01*
X429806498Y20221747D01*
X429805342Y20220975D01*
X429659024Y20074657D01*
X429659023Y20074655D01*
X429545017Y19904031D01*
X429544058Y19902596D01*
X429464870Y19711420D01*
X429464868Y19711412D01*
X429424500Y19508469D01*
X428985499Y19508469D01*
X428945130Y19711420D01*
X428865941Y19902598D01*
X428750977Y20074655D01*
X428604655Y20220977D01*
X428432598Y20335941D01*
X428241420Y20415130D01*
X428038467Y20455499D01*
X428038466Y20455500D01*
X428038465Y20455500D01*
X427831535Y20455500D01*
X427831534Y20455500D01*
X427831530Y20455499D01*
X427628580Y20415130D01*
X427437402Y20335941D01*
X427266498Y20221747D01*
X427265342Y20220975D01*
X427119024Y20074657D01*
X427119023Y20074655D01*
X427005017Y19904031D01*
X427004058Y19902596D01*
X426924870Y19711420D01*
X426924868Y19711412D01*
X426884500Y19508469D01*
X424374818Y19508469D01*
X424342990Y19709417D01*
X424279755Y19904031D01*
X424186859Y20086349D01*
X424066582Y20251894D01*
X424066582Y20251895D01*
X423921895Y20396582D01*
X423756349Y20516859D01*
X423574031Y20609754D01*
X423379421Y20672988D01*
X423325000Y20681606D01*
X423325000Y19320686D01*
X423320606Y19325080D01*
X423229394Y19377741D01*
X423127661Y19405000D01*
X423022339Y19405000D01*
X422920606Y19377741D01*
X422829394Y19325080D01*
X422825000Y19320686D01*
X422825000Y20681607D01*
X422770578Y20672988D01*
X422575968Y20609754D01*
X422393650Y20516859D01*
X422228105Y20396582D01*
X422228104Y20396582D01*
X422083417Y20251895D01*
X422083417Y20251894D01*
X421963140Y20086349D01*
X421870244Y19904031D01*
X421807009Y19709417D01*
X421799723Y19663411D01*
X421769794Y19600276D01*
X421710482Y19563345D01*
X421640619Y19564343D01*
X421582387Y19602953D01*
X421555633Y19658616D01*
X421545130Y19711420D01*
X421465941Y19902598D01*
X421350977Y20074655D01*
X421204655Y20220977D01*
X421032598Y20335941D01*
X420841420Y20415130D01*
X420638467Y20455499D01*
X420638466Y20455500D01*
X420638465Y20455500D01*
X420431535Y20455500D01*
X420431534Y20455500D01*
X420431530Y20455499D01*
X420228580Y20415130D01*
X420037402Y20335941D01*
X419866498Y20221747D01*
X419865342Y20220975D01*
X419719024Y20074657D01*
X419719023Y20074655D01*
X419605017Y19904031D01*
X419604058Y19902596D01*
X419524870Y19711420D01*
X419524868Y19711412D01*
X419484500Y19508469D01*
X397931673Y19508469D01*
X397893451Y19595034D01*
X397877792Y19630499D01*
X397673046Y19998089D01*
X397435257Y20345218D01*
X397166452Y20668927D01*
X397135379Y20700000D01*
X450794353Y20700000D01*
X450814834Y20557543D01*
X450874622Y20426628D01*
X450874623Y20426626D01*
X450968873Y20317856D01*
X451089950Y20240045D01*
X451089949Y20240045D01*
X451228036Y20199500D01*
X451228039Y20199500D01*
X451371963Y20199500D01*
X451510050Y20240045D01*
X451631126Y20317856D01*
X451631128Y20317857D01*
X451725377Y20426627D01*
X451785165Y20557543D01*
X451805647Y20700000D01*
X451785165Y20842457D01*
X451725377Y20973373D01*
X451631128Y21082143D01*
X451510053Y21159953D01*
X451371962Y21200499D01*
X451371962Y21200500D01*
X451371961Y21200500D01*
X451228039Y21200500D01*
X451228038Y21200500D01*
X451228036Y21200499D01*
X451089949Y21159954D01*
X451089947Y21159953D01*
X450968872Y21082143D01*
X450944828Y21054394D01*
X450874623Y20973373D01*
X450874622Y20973371D01*
X450814834Y20842456D01*
X450794353Y20700000D01*
X397135379Y20700000D01*
X396868927Y20966452D01*
X396545218Y21235257D01*
X396198089Y21473046D01*
X395830499Y21677792D01*
X395682482Y21743147D01*
X395445601Y21847742D01*
X395445597Y21847743D01*
X395445586Y21847748D01*
X395046634Y21981463D01*
X394637045Y22077797D01*
X394220316Y22135929D01*
X393800000Y22155361D01*
X393379684Y22135929D01*
X392962955Y22077797D01*
X392553366Y21981463D01*
X392154414Y21847748D01*
X392154404Y21847743D01*
X392154402Y21847743D01*
X392154398Y21847742D01*
X391769519Y21677800D01*
X391769501Y21677792D01*
X391401911Y21473046D01*
X391054782Y21235257D01*
X391054775Y21235251D01*
X391054769Y21235247D01*
X390923930Y21126599D01*
X390731073Y20966452D01*
X390433548Y20668927D01*
X390433538Y20668915D01*
X390164752Y20345230D01*
X390164746Y20345222D01*
X390164743Y20345218D01*
X389979403Y20074655D01*
X389926953Y19998087D01*
X389926949Y19998081D01*
X389828301Y19820973D01*
X389722208Y19630499D01*
X389722204Y19630490D01*
X389722199Y19630480D01*
X389552257Y19245601D01*
X389552256Y19245597D01*
X389552253Y19245588D01*
X389552252Y19245586D01*
X389489266Y19057661D01*
X389418536Y18846631D01*
X389322204Y18437050D01*
X389322203Y18437045D01*
X389264071Y18020316D01*
X389244639Y17600000D01*
X337900500Y17600000D01*
X337900500Y18732176D01*
X337900499Y18732178D01*
X337895959Y18755000D01*
X337885966Y18805240D01*
X337830601Y18888101D01*
X337747740Y18943466D01*
X337747735Y18943467D01*
X337674677Y18958000D01*
X337674674Y18958000D01*
X336025326Y18958000D01*
X336025323Y18958000D01*
X335952264Y18943467D01*
X335952260Y18943466D01*
X335869399Y18888101D01*
X335844346Y18850606D01*
X335814033Y18805239D01*
X335814032Y18805235D01*
X335799500Y18732178D01*
X334301040Y18732178D01*
X334236450Y18785185D01*
X334053954Y18882732D01*
X333855934Y18942800D01*
X333650000Y18963083D01*
X333444066Y18942800D01*
X333246046Y18882732D01*
X333063550Y18785185D01*
X333000209Y18733202D01*
X332903589Y18653910D01*
X332826483Y18559954D01*
X332772315Y18493950D01*
X332674768Y18311454D01*
X332653838Y18242457D01*
X332614699Y18113432D01*
X332594417Y17907500D01*
X330000500Y17907500D01*
X330000500Y18732176D01*
X330000499Y18732178D01*
X329995959Y18755000D01*
X329985966Y18805240D01*
X329930601Y18888101D01*
X329847740Y18943466D01*
X329847735Y18943467D01*
X329774677Y18958000D01*
X329774674Y18958000D01*
X328125326Y18958000D01*
X328125323Y18958000D01*
X328052264Y18943467D01*
X328052260Y18943466D01*
X327969399Y18888101D01*
X327944346Y18850606D01*
X327914033Y18805239D01*
X327914032Y18805235D01*
X327899500Y18732178D01*
X326401040Y18732178D01*
X326336450Y18785185D01*
X326153954Y18882732D01*
X325955934Y18942800D01*
X325750000Y18963083D01*
X325544066Y18942800D01*
X325346046Y18882732D01*
X325163550Y18785185D01*
X325100209Y18733202D01*
X325003589Y18653910D01*
X324926483Y18559954D01*
X324872315Y18493950D01*
X324774768Y18311454D01*
X324753838Y18242457D01*
X324714699Y18113432D01*
X324694417Y17907500D01*
X321800500Y17907500D01*
X321800500Y19908469D01*
X343084500Y19908469D01*
X343084500Y18901530D01*
X343124868Y18698587D01*
X343124870Y18698579D01*
X343204058Y18507403D01*
X343319024Y18335342D01*
X343465342Y18189024D01*
X343637403Y18074058D01*
X343828579Y17994870D01*
X343828587Y17994868D01*
X344031530Y17954500D01*
X344031535Y17954500D01*
X344238469Y17954500D01*
X344441412Y17994868D01*
X344441420Y17994870D01*
X344632596Y18074058D01*
X344632598Y18074059D01*
X344718626Y18131541D01*
X344804657Y18189024D01*
X344950975Y18335342D01*
X344976386Y18373373D01*
X345065941Y18507402D01*
X345145130Y18698580D01*
X345185500Y18901535D01*
X345185500Y19908465D01*
X345185499Y19908469D01*
X345624500Y19908469D01*
X345624500Y18901530D01*
X345664868Y18698587D01*
X345664870Y18698579D01*
X345744058Y18507403D01*
X345859024Y18335342D01*
X346005342Y18189024D01*
X346177403Y18074058D01*
X346368579Y17994870D01*
X346368587Y17994868D01*
X346571530Y17954500D01*
X346571535Y17954500D01*
X346778469Y17954500D01*
X346981412Y17994868D01*
X346981420Y17994870D01*
X347172596Y18074058D01*
X347172598Y18074059D01*
X347258626Y18131541D01*
X347344657Y18189024D01*
X347355633Y18200000D01*
X373494353Y18200000D01*
X373514834Y18057543D01*
X373574622Y17926628D01*
X373574623Y17926626D01*
X373668873Y17817856D01*
X373789950Y17740045D01*
X373789949Y17740045D01*
X373928036Y17699500D01*
X373928039Y17699500D01*
X374071963Y17699500D01*
X374210050Y17740045D01*
X374331126Y17817856D01*
X374331128Y17817857D01*
X374425377Y17926627D01*
X374485165Y18057543D01*
X374505647Y18200000D01*
X374485165Y18342457D01*
X374425377Y18473373D01*
X374331128Y18582143D01*
X374210053Y18659953D01*
X374071962Y18700499D01*
X374071962Y18700500D01*
X374071961Y18700500D01*
X373928039Y18700500D01*
X373928038Y18700500D01*
X373928036Y18700499D01*
X373789949Y18659954D01*
X373789947Y18659953D01*
X373668872Y18582143D01*
X373599021Y18501530D01*
X373574623Y18473373D01*
X373574622Y18473371D01*
X373514834Y18342456D01*
X373494353Y18200000D01*
X347355633Y18200000D01*
X347490975Y18335342D01*
X347516386Y18373373D01*
X347605941Y18507402D01*
X347685130Y18698580D01*
X347705304Y18800000D01*
X369294353Y18800000D01*
X369314834Y18657543D01*
X369374622Y18526628D01*
X369374623Y18526626D01*
X369468873Y18417856D01*
X369589950Y18340045D01*
X369589949Y18340045D01*
X369728036Y18299500D01*
X369728039Y18299500D01*
X369871963Y18299500D01*
X370010050Y18340045D01*
X370108416Y18403261D01*
X370131128Y18417857D01*
X370225377Y18526627D01*
X370285165Y18657543D01*
X370305647Y18800000D01*
X370285165Y18942457D01*
X370225377Y19073373D01*
X370131128Y19182143D01*
X370010053Y19259953D01*
X369871962Y19300499D01*
X369871962Y19300500D01*
X369871961Y19300500D01*
X369728039Y19300500D01*
X369728038Y19300500D01*
X369728036Y19300499D01*
X369589949Y19259954D01*
X369589947Y19259953D01*
X369468872Y19182143D01*
X369374623Y19073373D01*
X369374622Y19073371D01*
X369314834Y18942456D01*
X369294353Y18800000D01*
X347705304Y18800000D01*
X347725500Y18901535D01*
X347725500Y19908465D01*
X347685130Y20111420D01*
X347605941Y20302598D01*
X347490977Y20474655D01*
X347344655Y20620977D01*
X347172598Y20735941D01*
X346981420Y20815130D01*
X346778467Y20855499D01*
X346778466Y20855500D01*
X346778465Y20855500D01*
X346571535Y20855500D01*
X346571534Y20855500D01*
X346571530Y20855499D01*
X346368580Y20815130D01*
X346177402Y20735941D01*
X346006498Y20621747D01*
X346005342Y20620975D01*
X345859024Y20474657D01*
X345744058Y20302596D01*
X345664870Y20111420D01*
X345664868Y20111412D01*
X345624500Y19908469D01*
X345185499Y19908469D01*
X345145130Y20111420D01*
X345065941Y20302598D01*
X344950977Y20474655D01*
X344804655Y20620977D01*
X344632598Y20735941D01*
X344441420Y20815130D01*
X344238467Y20855499D01*
X344238466Y20855500D01*
X344238465Y20855500D01*
X344031535Y20855500D01*
X344031534Y20855500D01*
X344031530Y20855499D01*
X343828580Y20815130D01*
X343637402Y20735941D01*
X343466498Y20621747D01*
X343465342Y20620975D01*
X343319024Y20474657D01*
X343204058Y20302596D01*
X343124870Y20111420D01*
X343124868Y20111412D01*
X343084500Y19908469D01*
X321800500Y19908469D01*
X321800500Y20900002D01*
X350495034Y20900002D01*
X350495034Y20899997D01*
X350514858Y20673400D01*
X350514860Y20673389D01*
X350573730Y20453682D01*
X350573734Y20453673D01*
X350669866Y20247516D01*
X350669868Y20247512D01*
X350720973Y20174526D01*
X350720974Y20174526D01*
X351400000Y20853552D01*
X351400000Y20847339D01*
X351427259Y20745606D01*
X351479920Y20654394D01*
X351554394Y20579920D01*
X351645606Y20527259D01*
X351747339Y20500000D01*
X351753553Y20500000D01*
X351074526Y19820974D01*
X351074526Y19820973D01*
X351147512Y19769868D01*
X351147516Y19769866D01*
X351353673Y19673734D01*
X351353682Y19673730D01*
X351573389Y19614860D01*
X351573400Y19614858D01*
X351799998Y19595034D01*
X351800002Y19595034D01*
X352026599Y19614858D01*
X352026610Y19614860D01*
X352246317Y19673730D01*
X352246331Y19673735D01*
X352452478Y19769863D01*
X352525472Y19820974D01*
X351846448Y20500000D01*
X351852661Y20500000D01*
X351954394Y20527259D01*
X352045606Y20579920D01*
X352120080Y20654394D01*
X352172741Y20745606D01*
X352200000Y20847339D01*
X352200000Y20853551D01*
X352879025Y20174526D01*
X352930132Y20247513D01*
X352930136Y20247521D01*
X353026264Y20453668D01*
X353026269Y20453682D01*
X353085139Y20673389D01*
X353085141Y20673400D01*
X353104966Y20899997D01*
X353104966Y20900002D01*
X353085141Y21126599D01*
X353085139Y21126610D01*
X353026269Y21346317D01*
X353026264Y21346331D01*
X352930136Y21552478D01*
X352879024Y21625471D01*
X352200000Y20946447D01*
X352200000Y20952661D01*
X352172741Y21054394D01*
X352120080Y21145606D01*
X352045606Y21220080D01*
X351954394Y21272741D01*
X351852661Y21300000D01*
X351846447Y21300000D01*
X352525471Y21979024D01*
X352452478Y22030136D01*
X352246331Y22126264D01*
X352246317Y22126269D01*
X352026610Y22185139D01*
X352026599Y22185141D01*
X351800002Y22204966D01*
X351799998Y22204966D01*
X351573400Y22185141D01*
X351573389Y22185139D01*
X351353682Y22126269D01*
X351353668Y22126264D01*
X351147521Y22030136D01*
X351147513Y22030132D01*
X351074526Y21979025D01*
X351753553Y21300000D01*
X351747339Y21300000D01*
X351645606Y21272741D01*
X351554394Y21220080D01*
X351479920Y21145606D01*
X351427259Y21054394D01*
X351400000Y20952661D01*
X351400000Y20946446D01*
X350720974Y21625472D01*
X350669863Y21552478D01*
X350573735Y21346331D01*
X350573730Y21346317D01*
X350514860Y21126610D01*
X350514858Y21126599D01*
X350495034Y20900002D01*
X321800500Y20900002D01*
X321800500Y22876000D01*
X321820185Y22943039D01*
X321872989Y22988794D01*
X321924500Y23000000D01*
X465675500Y23000000D01*
X465742539Y22980315D01*
G37*
%TD.AperFunction*%
%TD*%
%TA.AperFunction,Conductor*%
%TO.N,/-SHUNT*%
G36*
X411343039Y-3219685D02*
G01*
X411388794Y-3272489D01*
X411400000Y-3324000D01*
X411400000Y-12476000D01*
X411380315Y-12543039D01*
X411327511Y-12588794D01*
X411276000Y-12600000D01*
X376524000Y-12600000D01*
X376456961Y-12580315D01*
X376411206Y-12527511D01*
X376400000Y-12476000D01*
X376400000Y-3324000D01*
X376419685Y-3256961D01*
X376472489Y-3211206D01*
X376524000Y-3200000D01*
X411276000Y-3200000D01*
X411343039Y-3219685D01*
G37*
%TD.AperFunction*%
%TD*%
M02*
