%TF.GenerationSoftware,KiCad,Pcbnew,8.0.3*%
%TF.CreationDate,2024-09-30T04:18:30-05:00*%
%TF.ProjectId,Project Lab 4,50726f6a-6563-4742-904c-616220342e6b,rev?*%
%TF.SameCoordinates,Original*%
%TF.FileFunction,Paste,Top*%
%TF.FilePolarity,Positive*%
%FSLAX46Y46*%
G04 Gerber Fmt 4.6, Leading zero omitted, Abs format (unit mm)*
G04 Created by KiCad (PCBNEW 8.0.3) date 2024-09-30 04:18:30*
%MOMM*%
%LPD*%
G01*
G04 APERTURE LIST*
G04 Aperture macros list*
%AMRoundRect*
0 Rectangle with rounded corners*
0 $1 Rounding radius*
0 $2 $3 $4 $5 $6 $7 $8 $9 X,Y pos of 4 corners*
0 Add a 4 corners polygon primitive as box body*
4,1,4,$2,$3,$4,$5,$6,$7,$8,$9,$2,$3,0*
0 Add four circle primitives for the rounded corners*
1,1,$1+$1,$2,$3*
1,1,$1+$1,$4,$5*
1,1,$1+$1,$6,$7*
1,1,$1+$1,$8,$9*
0 Add four rect primitives between the rounded corners*
20,1,$1+$1,$2,$3,$4,$5,0*
20,1,$1+$1,$4,$5,$6,$7,0*
20,1,$1+$1,$6,$7,$8,$9,0*
20,1,$1+$1,$8,$9,$2,$3,0*%
G04 Aperture macros list end*
%ADD10C,0.010000*%
%ADD11R,35.000000X18.000000*%
%ADD12RoundRect,0.250000X-0.412500X-0.650000X0.412500X-0.650000X0.412500X0.650000X-0.412500X0.650000X0*%
%ADD13RoundRect,0.300000X-0.325000X-0.300000X0.325000X-0.300000X0.325000X0.300000X-0.325000X0.300000X0*%
%ADD14RoundRect,0.317500X0.382500X0.317500X-0.382500X0.317500X-0.382500X-0.317500X0.382500X-0.317500X0*%
%ADD15RoundRect,0.250000X-0.475000X0.337500X-0.475000X-0.337500X0.475000X-0.337500X0.475000X0.337500X0*%
%ADD16RoundRect,0.250000X-0.450000X0.350000X-0.450000X-0.350000X0.450000X-0.350000X0.450000X0.350000X0*%
%ADD17RoundRect,0.250000X0.412500X0.650000X-0.412500X0.650000X-0.412500X-0.650000X0.412500X-0.650000X0*%
%ADD18R,2.100000X1.000000*%
%ADD19R,1.425000X0.300000*%
%ADD20R,1.680000X1.880000*%
%ADD21R,28.000000X155.000000*%
%ADD22RoundRect,0.250000X0.350000X0.450000X-0.350000X0.450000X-0.350000X-0.450000X0.350000X-0.450000X0*%
%ADD23RoundRect,0.250000X0.650000X-0.412500X0.650000X0.412500X-0.650000X0.412500X-0.650000X-0.412500X0*%
%ADD24RoundRect,0.250000X2.125000X-0.362500X2.125000X0.362500X-2.125000X0.362500X-2.125000X-0.362500X0*%
%ADD25RoundRect,0.250000X-0.650000X0.412500X-0.650000X-0.412500X0.650000X-0.412500X0.650000X0.412500X0*%
%ADD26R,5.600000X2.550000*%
%ADD27R,0.900000X2.550000*%
%ADD28RoundRect,0.150000X-0.150000X0.875000X-0.150000X-0.875000X0.150000X-0.875000X0.150000X0.875000X0*%
%ADD29RoundRect,0.150000X0.150000X-0.512500X0.150000X0.512500X-0.150000X0.512500X-0.150000X-0.512500X0*%
%ADD30RoundRect,0.300000X0.325000X0.300000X-0.325000X0.300000X-0.325000X-0.300000X0.325000X-0.300000X0*%
%ADD31RoundRect,0.317500X-0.382500X-0.317500X0.382500X-0.317500X0.382500X0.317500X-0.382500X0.317500X0*%
%ADD32R,0.750000X0.300000*%
%ADD33R,1.600000X2.400000*%
%ADD34RoundRect,0.250000X-0.350000X-0.450000X0.350000X-0.450000X0.350000X0.450000X-0.350000X0.450000X0*%
%ADD35RoundRect,0.250000X0.700000X-0.362500X0.700000X0.362500X-0.700000X0.362500X-0.700000X-0.362500X0*%
%ADD36RoundRect,0.250001X-0.624999X0.462499X-0.624999X-0.462499X0.624999X-0.462499X0.624999X0.462499X0*%
%ADD37RoundRect,0.150000X0.512500X0.150000X-0.512500X0.150000X-0.512500X-0.150000X0.512500X-0.150000X0*%
%ADD38RoundRect,0.175000X0.225000X-0.175000X0.225000X0.175000X-0.225000X0.175000X-0.225000X-0.175000X0*%
%ADD39RoundRect,0.075000X0.075000X-0.662500X0.075000X0.662500X-0.075000X0.662500X-0.075000X-0.662500X0*%
%ADD40RoundRect,0.250000X0.450000X-0.350000X0.450000X0.350000X-0.450000X0.350000X-0.450000X-0.350000X0*%
%ADD41RoundRect,0.150000X-0.725000X-0.150000X0.725000X-0.150000X0.725000X0.150000X-0.725000X0.150000X0*%
%ADD42RoundRect,0.100000X-0.712500X-0.100000X0.712500X-0.100000X0.712500X0.100000X-0.712500X0.100000X0*%
G04 APERTURE END LIST*
D10*
%TO.C,Q1*%
X402200000Y-1820000D02*
X401400000Y-1820000D01*
X401400000Y880000D01*
X402200000Y880000D01*
X402200000Y-1820000D01*
G36*
X402200000Y-1820000D02*
G01*
X401400000Y-1820000D01*
X401400000Y880000D01*
X402200000Y880000D01*
X402200000Y-1820000D01*
G37*
X403400000Y-1820000D02*
X402600000Y-1820000D01*
X402600000Y880000D01*
X403400000Y880000D01*
X403400000Y-1820000D01*
G36*
X403400000Y-1820000D02*
G01*
X402600000Y-1820000D01*
X402600000Y880000D01*
X403400000Y880000D01*
X403400000Y-1820000D01*
G37*
X404600000Y-1820000D02*
X403800000Y-1820000D01*
X403800000Y880000D01*
X404600000Y880000D01*
X404600000Y-1820000D01*
G36*
X404600000Y-1820000D02*
G01*
X403800000Y-1820000D01*
X403800000Y880000D01*
X404600000Y880000D01*
X404600000Y-1820000D01*
G37*
X405750000Y-5045000D02*
X401250000Y-5045000D01*
X401250000Y-4195000D01*
X405750000Y-4195000D01*
X405750000Y-5045000D01*
G36*
X405750000Y-5045000D02*
G01*
X401250000Y-5045000D01*
X401250000Y-4195000D01*
X405750000Y-4195000D01*
X405750000Y-5045000D01*
G37*
X405750000Y-6845000D02*
X401250000Y-6845000D01*
X401250000Y-5745000D01*
X405750000Y-5745000D01*
X405750000Y-6845000D01*
G36*
X405750000Y-6845000D02*
G01*
X401250000Y-6845000D01*
X401250000Y-5745000D01*
X405750000Y-5745000D01*
X405750000Y-6845000D01*
G37*
X405750000Y-8645000D02*
X401750000Y-8645000D01*
X401750000Y-7545000D01*
X405750000Y-7545000D01*
X405750000Y-8645000D01*
G36*
X405750000Y-8645000D02*
G01*
X401750000Y-8645000D01*
X401750000Y-7545000D01*
X405750000Y-7545000D01*
X405750000Y-8645000D01*
G37*
X405750000Y-10445000D02*
X401750000Y-10445000D01*
X401750000Y-9345000D01*
X405750000Y-9345000D01*
X405750000Y-10445000D01*
G36*
X405750000Y-10445000D02*
G01*
X401750000Y-10445000D01*
X401750000Y-9345000D01*
X405750000Y-9345000D01*
X405750000Y-10445000D01*
G37*
X405750000Y-11995000D02*
X401250000Y-11995000D01*
X401250000Y-11145000D01*
X405750000Y-11145000D01*
X405750000Y-11995000D01*
G36*
X405750000Y-11995000D02*
G01*
X401250000Y-11995000D01*
X401250000Y-11145000D01*
X405750000Y-11145000D01*
X405750000Y-11995000D01*
G37*
X405800000Y-1820000D02*
X405000000Y-1820000D01*
X405000000Y880000D01*
X405800000Y880000D01*
X405800000Y-1820000D01*
G36*
X405800000Y-1820000D02*
G01*
X405000000Y-1820000D01*
X405000000Y880000D01*
X405800000Y880000D01*
X405800000Y-1820000D01*
G37*
X407000000Y-1820000D02*
X406200000Y-1820000D01*
X406200000Y880000D01*
X407000000Y880000D01*
X407000000Y-1820000D01*
G36*
X407000000Y-1820000D02*
G01*
X406200000Y-1820000D01*
X406200000Y880000D01*
X407000000Y880000D01*
X407000000Y-1820000D01*
G37*
X408200000Y-1820000D02*
X407400000Y-1820000D01*
X407400000Y880000D01*
X408200000Y880000D01*
X408200000Y-1820000D01*
G36*
X408200000Y-1820000D02*
G01*
X407400000Y-1820000D01*
X407400000Y880000D01*
X408200000Y880000D01*
X408200000Y-1820000D01*
G37*
X409400000Y-1820000D02*
X408600000Y-1820000D01*
X408600000Y880000D01*
X409400000Y880000D01*
X409400000Y-1820000D01*
G36*
X409400000Y-1820000D02*
G01*
X408600000Y-1820000D01*
X408600000Y880000D01*
X409400000Y880000D01*
X409400000Y-1820000D01*
G37*
X410250000Y-8645000D02*
X406250000Y-8645000D01*
X406250000Y-7545000D01*
X410250000Y-7545000D01*
X410250000Y-8645000D01*
G36*
X410250000Y-8645000D02*
G01*
X406250000Y-8645000D01*
X406250000Y-7545000D01*
X410250000Y-7545000D01*
X410250000Y-8645000D01*
G37*
X410250000Y-10445000D02*
X406250000Y-10445000D01*
X406250000Y-9345000D01*
X410250000Y-9345000D01*
X410250000Y-10445000D01*
G36*
X410250000Y-10445000D02*
G01*
X406250000Y-10445000D01*
X406250000Y-9345000D01*
X410250000Y-9345000D01*
X410250000Y-10445000D01*
G37*
X410600000Y-1820000D02*
X409800000Y-1820000D01*
X409800000Y880000D01*
X410600000Y880000D01*
X410600000Y-1820000D01*
G36*
X410600000Y-1820000D02*
G01*
X409800000Y-1820000D01*
X409800000Y880000D01*
X410600000Y880000D01*
X410600000Y-1820000D01*
G37*
X410750000Y-5045000D02*
X406250000Y-5045000D01*
X406250000Y-4195000D01*
X410750000Y-4195000D01*
X410750000Y-5045000D01*
G36*
X410750000Y-5045000D02*
G01*
X406250000Y-5045000D01*
X406250000Y-4195000D01*
X410750000Y-4195000D01*
X410750000Y-5045000D01*
G37*
X410750000Y-6845000D02*
X406250000Y-6845000D01*
X406250000Y-5745000D01*
X410750000Y-5745000D01*
X410750000Y-6845000D01*
G36*
X410750000Y-6845000D02*
G01*
X406250000Y-6845000D01*
X406250000Y-5745000D01*
X410750000Y-5745000D01*
X410750000Y-6845000D01*
G37*
X410750000Y-11995000D02*
X406250000Y-11995000D01*
X406250000Y-11145000D01*
X410750000Y-11145000D01*
X410750000Y-11995000D01*
G36*
X410750000Y-11995000D02*
G01*
X406250000Y-11995000D01*
X406250000Y-11145000D01*
X410750000Y-11145000D01*
X410750000Y-11995000D01*
G37*
%TO.C,Q3*%
X377800000Y-1820000D02*
X377000000Y-1820000D01*
X377000000Y880000D01*
X377800000Y880000D01*
X377800000Y-1820000D01*
G36*
X377800000Y-1820000D02*
G01*
X377000000Y-1820000D01*
X377000000Y880000D01*
X377800000Y880000D01*
X377800000Y-1820000D01*
G37*
X379000000Y-1820000D02*
X378200000Y-1820000D01*
X378200000Y880000D01*
X379000000Y880000D01*
X379000000Y-1820000D01*
G36*
X379000000Y-1820000D02*
G01*
X378200000Y-1820000D01*
X378200000Y880000D01*
X379000000Y880000D01*
X379000000Y-1820000D01*
G37*
X380200000Y-1820000D02*
X379400000Y-1820000D01*
X379400000Y880000D01*
X380200000Y880000D01*
X380200000Y-1820000D01*
G36*
X380200000Y-1820000D02*
G01*
X379400000Y-1820000D01*
X379400000Y880000D01*
X380200000Y880000D01*
X380200000Y-1820000D01*
G37*
X381350000Y-5045000D02*
X376850000Y-5045000D01*
X376850000Y-4195000D01*
X381350000Y-4195000D01*
X381350000Y-5045000D01*
G36*
X381350000Y-5045000D02*
G01*
X376850000Y-5045000D01*
X376850000Y-4195000D01*
X381350000Y-4195000D01*
X381350000Y-5045000D01*
G37*
X381350000Y-6845000D02*
X376850000Y-6845000D01*
X376850000Y-5745000D01*
X381350000Y-5745000D01*
X381350000Y-6845000D01*
G36*
X381350000Y-6845000D02*
G01*
X376850000Y-6845000D01*
X376850000Y-5745000D01*
X381350000Y-5745000D01*
X381350000Y-6845000D01*
G37*
X381350000Y-8645000D02*
X377350000Y-8645000D01*
X377350000Y-7545000D01*
X381350000Y-7545000D01*
X381350000Y-8645000D01*
G36*
X381350000Y-8645000D02*
G01*
X377350000Y-8645000D01*
X377350000Y-7545000D01*
X381350000Y-7545000D01*
X381350000Y-8645000D01*
G37*
X381350000Y-10445000D02*
X377350000Y-10445000D01*
X377350000Y-9345000D01*
X381350000Y-9345000D01*
X381350000Y-10445000D01*
G36*
X381350000Y-10445000D02*
G01*
X377350000Y-10445000D01*
X377350000Y-9345000D01*
X381350000Y-9345000D01*
X381350000Y-10445000D01*
G37*
X381350000Y-11995000D02*
X376850000Y-11995000D01*
X376850000Y-11145000D01*
X381350000Y-11145000D01*
X381350000Y-11995000D01*
G36*
X381350000Y-11995000D02*
G01*
X376850000Y-11995000D01*
X376850000Y-11145000D01*
X381350000Y-11145000D01*
X381350000Y-11995000D01*
G37*
X381400000Y-1820000D02*
X380600000Y-1820000D01*
X380600000Y880000D01*
X381400000Y880000D01*
X381400000Y-1820000D01*
G36*
X381400000Y-1820000D02*
G01*
X380600000Y-1820000D01*
X380600000Y880000D01*
X381400000Y880000D01*
X381400000Y-1820000D01*
G37*
X382600000Y-1820000D02*
X381800000Y-1820000D01*
X381800000Y880000D01*
X382600000Y880000D01*
X382600000Y-1820000D01*
G36*
X382600000Y-1820000D02*
G01*
X381800000Y-1820000D01*
X381800000Y880000D01*
X382600000Y880000D01*
X382600000Y-1820000D01*
G37*
X383800000Y-1820000D02*
X383000000Y-1820000D01*
X383000000Y880000D01*
X383800000Y880000D01*
X383800000Y-1820000D01*
G36*
X383800000Y-1820000D02*
G01*
X383000000Y-1820000D01*
X383000000Y880000D01*
X383800000Y880000D01*
X383800000Y-1820000D01*
G37*
X385000000Y-1820000D02*
X384200000Y-1820000D01*
X384200000Y880000D01*
X385000000Y880000D01*
X385000000Y-1820000D01*
G36*
X385000000Y-1820000D02*
G01*
X384200000Y-1820000D01*
X384200000Y880000D01*
X385000000Y880000D01*
X385000000Y-1820000D01*
G37*
X385850000Y-8645000D02*
X381850000Y-8645000D01*
X381850000Y-7545000D01*
X385850000Y-7545000D01*
X385850000Y-8645000D01*
G36*
X385850000Y-8645000D02*
G01*
X381850000Y-8645000D01*
X381850000Y-7545000D01*
X385850000Y-7545000D01*
X385850000Y-8645000D01*
G37*
X385850000Y-10445000D02*
X381850000Y-10445000D01*
X381850000Y-9345000D01*
X385850000Y-9345000D01*
X385850000Y-10445000D01*
G36*
X385850000Y-10445000D02*
G01*
X381850000Y-10445000D01*
X381850000Y-9345000D01*
X385850000Y-9345000D01*
X385850000Y-10445000D01*
G37*
X386200000Y-1820000D02*
X385400000Y-1820000D01*
X385400000Y880000D01*
X386200000Y880000D01*
X386200000Y-1820000D01*
G36*
X386200000Y-1820000D02*
G01*
X385400000Y-1820000D01*
X385400000Y880000D01*
X386200000Y880000D01*
X386200000Y-1820000D01*
G37*
X386350000Y-5045000D02*
X381850000Y-5045000D01*
X381850000Y-4195000D01*
X386350000Y-4195000D01*
X386350000Y-5045000D01*
G36*
X386350000Y-5045000D02*
G01*
X381850000Y-5045000D01*
X381850000Y-4195000D01*
X386350000Y-4195000D01*
X386350000Y-5045000D01*
G37*
X386350000Y-6845000D02*
X381850000Y-6845000D01*
X381850000Y-5745000D01*
X386350000Y-5745000D01*
X386350000Y-6845000D01*
G36*
X386350000Y-6845000D02*
G01*
X381850000Y-6845000D01*
X381850000Y-5745000D01*
X386350000Y-5745000D01*
X386350000Y-6845000D01*
G37*
X386350000Y-11995000D02*
X381850000Y-11995000D01*
X381850000Y-11145000D01*
X386350000Y-11145000D01*
X386350000Y-11995000D01*
G36*
X386350000Y-11995000D02*
G01*
X381850000Y-11995000D01*
X381850000Y-11145000D01*
X386350000Y-11145000D01*
X386350000Y-11995000D01*
G37*
%TO.C,Q2*%
X390200000Y-1820000D02*
X389400000Y-1820000D01*
X389400000Y880000D01*
X390200000Y880000D01*
X390200000Y-1820000D01*
G36*
X390200000Y-1820000D02*
G01*
X389400000Y-1820000D01*
X389400000Y880000D01*
X390200000Y880000D01*
X390200000Y-1820000D01*
G37*
X391400000Y-1820000D02*
X390600000Y-1820000D01*
X390600000Y880000D01*
X391400000Y880000D01*
X391400000Y-1820000D01*
G36*
X391400000Y-1820000D02*
G01*
X390600000Y-1820000D01*
X390600000Y880000D01*
X391400000Y880000D01*
X391400000Y-1820000D01*
G37*
X392600000Y-1820000D02*
X391800000Y-1820000D01*
X391800000Y880000D01*
X392600000Y880000D01*
X392600000Y-1820000D01*
G36*
X392600000Y-1820000D02*
G01*
X391800000Y-1820000D01*
X391800000Y880000D01*
X392600000Y880000D01*
X392600000Y-1820000D01*
G37*
X393750000Y-5045000D02*
X389250000Y-5045000D01*
X389250000Y-4195000D01*
X393750000Y-4195000D01*
X393750000Y-5045000D01*
G36*
X393750000Y-5045000D02*
G01*
X389250000Y-5045000D01*
X389250000Y-4195000D01*
X393750000Y-4195000D01*
X393750000Y-5045000D01*
G37*
X393750000Y-6845000D02*
X389250000Y-6845000D01*
X389250000Y-5745000D01*
X393750000Y-5745000D01*
X393750000Y-6845000D01*
G36*
X393750000Y-6845000D02*
G01*
X389250000Y-6845000D01*
X389250000Y-5745000D01*
X393750000Y-5745000D01*
X393750000Y-6845000D01*
G37*
X393750000Y-8645000D02*
X389750000Y-8645000D01*
X389750000Y-7545000D01*
X393750000Y-7545000D01*
X393750000Y-8645000D01*
G36*
X393750000Y-8645000D02*
G01*
X389750000Y-8645000D01*
X389750000Y-7545000D01*
X393750000Y-7545000D01*
X393750000Y-8645000D01*
G37*
X393750000Y-10445000D02*
X389750000Y-10445000D01*
X389750000Y-9345000D01*
X393750000Y-9345000D01*
X393750000Y-10445000D01*
G36*
X393750000Y-10445000D02*
G01*
X389750000Y-10445000D01*
X389750000Y-9345000D01*
X393750000Y-9345000D01*
X393750000Y-10445000D01*
G37*
X393750000Y-11995000D02*
X389250000Y-11995000D01*
X389250000Y-11145000D01*
X393750000Y-11145000D01*
X393750000Y-11995000D01*
G36*
X393750000Y-11995000D02*
G01*
X389250000Y-11995000D01*
X389250000Y-11145000D01*
X393750000Y-11145000D01*
X393750000Y-11995000D01*
G37*
X393800000Y-1820000D02*
X393000000Y-1820000D01*
X393000000Y880000D01*
X393800000Y880000D01*
X393800000Y-1820000D01*
G36*
X393800000Y-1820000D02*
G01*
X393000000Y-1820000D01*
X393000000Y880000D01*
X393800000Y880000D01*
X393800000Y-1820000D01*
G37*
X395000000Y-1820000D02*
X394200000Y-1820000D01*
X394200000Y880000D01*
X395000000Y880000D01*
X395000000Y-1820000D01*
G36*
X395000000Y-1820000D02*
G01*
X394200000Y-1820000D01*
X394200000Y880000D01*
X395000000Y880000D01*
X395000000Y-1820000D01*
G37*
X396200000Y-1820000D02*
X395400000Y-1820000D01*
X395400000Y880000D01*
X396200000Y880000D01*
X396200000Y-1820000D01*
G36*
X396200000Y-1820000D02*
G01*
X395400000Y-1820000D01*
X395400000Y880000D01*
X396200000Y880000D01*
X396200000Y-1820000D01*
G37*
X397400000Y-1820000D02*
X396600000Y-1820000D01*
X396600000Y880000D01*
X397400000Y880000D01*
X397400000Y-1820000D01*
G36*
X397400000Y-1820000D02*
G01*
X396600000Y-1820000D01*
X396600000Y880000D01*
X397400000Y880000D01*
X397400000Y-1820000D01*
G37*
X398250000Y-8645000D02*
X394250000Y-8645000D01*
X394250000Y-7545000D01*
X398250000Y-7545000D01*
X398250000Y-8645000D01*
G36*
X398250000Y-8645000D02*
G01*
X394250000Y-8645000D01*
X394250000Y-7545000D01*
X398250000Y-7545000D01*
X398250000Y-8645000D01*
G37*
X398250000Y-10445000D02*
X394250000Y-10445000D01*
X394250000Y-9345000D01*
X398250000Y-9345000D01*
X398250000Y-10445000D01*
G36*
X398250000Y-10445000D02*
G01*
X394250000Y-10445000D01*
X394250000Y-9345000D01*
X398250000Y-9345000D01*
X398250000Y-10445000D01*
G37*
X398600000Y-1820000D02*
X397800000Y-1820000D01*
X397800000Y880000D01*
X398600000Y880000D01*
X398600000Y-1820000D01*
G36*
X398600000Y-1820000D02*
G01*
X397800000Y-1820000D01*
X397800000Y880000D01*
X398600000Y880000D01*
X398600000Y-1820000D01*
G37*
X398750000Y-5045000D02*
X394250000Y-5045000D01*
X394250000Y-4195000D01*
X398750000Y-4195000D01*
X398750000Y-5045000D01*
G36*
X398750000Y-5045000D02*
G01*
X394250000Y-5045000D01*
X394250000Y-4195000D01*
X398750000Y-4195000D01*
X398750000Y-5045000D01*
G37*
X398750000Y-6845000D02*
X394250000Y-6845000D01*
X394250000Y-5745000D01*
X398750000Y-5745000D01*
X398750000Y-6845000D01*
G36*
X398750000Y-6845000D02*
G01*
X394250000Y-6845000D01*
X394250000Y-5745000D01*
X398750000Y-5745000D01*
X398750000Y-6845000D01*
G37*
X398750000Y-11995000D02*
X394250000Y-11995000D01*
X394250000Y-11145000D01*
X398750000Y-11145000D01*
X398750000Y-11995000D01*
G36*
X398750000Y-11995000D02*
G01*
X394250000Y-11995000D01*
X394250000Y-11145000D01*
X398750000Y-11145000D01*
X398750000Y-11995000D01*
G37*
%TD*%
D11*
%TO.C,H8*%
X394000000Y-22500000D03*
%TD*%
D12*
%TO.C,C32*%
X449837500Y-3600000D03*
X452962500Y-3600000D03*
%TD*%
D13*
%TO.C,D3*%
X373300000Y-3200000D03*
X373300000Y-1510000D03*
X373300000Y150000D03*
X371600000Y-3200000D03*
X371600000Y-1510000D03*
X371600000Y150000D03*
X369900000Y-3200000D03*
X369900000Y-1510000D03*
X369900000Y150000D03*
D14*
X372640000Y-5315000D03*
X370560000Y-5315000D03*
%TD*%
D15*
%TO.C,C26*%
X417202437Y337500D03*
X417202437Y-1737500D03*
%TD*%
D16*
%TO.C,R11*%
X423200000Y32800000D03*
X423200000Y30800000D03*
%TD*%
D17*
%TO.C,C2*%
X439262500Y-2900000D03*
X436137500Y-2900000D03*
%TD*%
D18*
%TO.C,U4*%
X369850000Y18790000D03*
X369850000Y21330000D03*
X369850000Y26410000D03*
X359750000Y26410000D03*
X359750000Y18790000D03*
%TD*%
D19*
%TO.C,IC1*%
X429826437Y-1700000D03*
X429826437Y-1200000D03*
X429826437Y-700000D03*
X429826437Y-200000D03*
X429826437Y300000D03*
X425402437Y300000D03*
X425402437Y-200000D03*
X425402437Y-700000D03*
X425402437Y-1200000D03*
X425402437Y-1700000D03*
D20*
X427614437Y-700000D03*
%TD*%
D21*
%TO.C,H7*%
X393800000Y-148575000D03*
%TD*%
D22*
%TO.C,R14*%
X348600000Y16100000D03*
X346600000Y16100000D03*
%TD*%
D23*
%TO.C,C24*%
X432700000Y-2362500D03*
X432700000Y762500D03*
%TD*%
D24*
%TO.C,R21*%
X439000000Y-19562500D03*
X439000000Y-16437500D03*
%TD*%
D25*
%TO.C,C33*%
X451300000Y27812500D03*
X451300000Y24687500D03*
%TD*%
D26*
%TO.C,R1*%
X394600000Y-41825000D03*
D27*
X390550000Y-41825000D03*
X390550000Y-33775000D03*
D26*
X394600000Y-33775000D03*
%TD*%
D28*
%TO.C,U2*%
X448245000Y27450000D03*
X446975000Y27450000D03*
X445705000Y27450000D03*
X444435000Y27450000D03*
X443165000Y27450000D03*
X441895000Y27450000D03*
X440625000Y27450000D03*
X439355000Y27450000D03*
X439355000Y18150000D03*
X440625000Y18150000D03*
X441895000Y18150000D03*
X443165000Y18150000D03*
X444435000Y18150000D03*
X445705000Y18150000D03*
X446975000Y18150000D03*
X448245000Y18150000D03*
%TD*%
D24*
%TO.C,R19*%
X455500000Y-19562500D03*
X455500000Y-16437500D03*
%TD*%
D25*
%TO.C,C28*%
X373950000Y21362500D03*
X373950000Y18237500D03*
%TD*%
D16*
%TO.C,R23*%
X451400000Y4732500D03*
X451400000Y2732500D03*
%TD*%
D17*
%TO.C,C31*%
X439262500Y4700000D03*
X436137500Y4700000D03*
%TD*%
D23*
%TO.C,C25*%
X422200000Y-2173573D03*
X422200000Y951427D03*
%TD*%
D29*
%TO.C,Q5*%
X429250000Y-14337500D03*
X431150000Y-14337500D03*
X430200000Y-12062500D03*
%TD*%
D22*
%TO.C,R17*%
X431200000Y-22400000D03*
X429200000Y-22400000D03*
%TD*%
D23*
%TO.C,C34*%
X451300000Y17637500D03*
X451300000Y20762500D03*
%TD*%
D24*
%TO.C,R20*%
X444500000Y-19562500D03*
X444500000Y-16437500D03*
%TD*%
D30*
%TO.C,D4*%
X406700000Y-37400000D03*
X406700000Y-39090000D03*
X406700000Y-40750000D03*
X408400000Y-37400000D03*
X408400000Y-39090000D03*
X408400000Y-40750000D03*
X410100000Y-37400000D03*
X410100000Y-39090000D03*
X410100000Y-40750000D03*
D31*
X407360000Y-35285000D03*
X409440000Y-35285000D03*
%TD*%
D32*
%TO.C,U1*%
X368750000Y-31500000D03*
X368750000Y-31000000D03*
X368750000Y-30500000D03*
X368750000Y-30000000D03*
X368750000Y-29500000D03*
X365750000Y-29500000D03*
X365750000Y-30000000D03*
X365750000Y-30500000D03*
X365750000Y-31000000D03*
X365750000Y-31500000D03*
D33*
X367250000Y-30500000D03*
%TD*%
D22*
%TO.C,R10*%
X463800000Y-24200000D03*
X461800000Y-24200000D03*
%TD*%
D34*
%TO.C,R9*%
X457200000Y-24200000D03*
X459200000Y-24200000D03*
%TD*%
D35*
%TO.C,L1*%
X439000000Y-762500D03*
X439000000Y2562500D03*
%TD*%
D16*
%TO.C,R13*%
X448200000Y4732500D03*
X448200000Y2732500D03*
%TD*%
%TO.C,R12*%
X420400000Y15000000D03*
X420400000Y13000000D03*
%TD*%
D12*
%TO.C,C27*%
X354037500Y-12800000D03*
X357162500Y-12800000D03*
%TD*%
D16*
%TO.C,R2*%
X417202437Y-4000000D03*
X417202437Y-6000000D03*
%TD*%
D36*
%TO.C,D5*%
X325900000Y-812500D03*
X325900000Y-3787500D03*
%TD*%
D24*
%TO.C,R22*%
X433500000Y-19562500D03*
X433500000Y-16437500D03*
%TD*%
D37*
%TO.C,D1*%
X428751937Y-6261073D03*
X428751937Y-4361073D03*
X426476937Y-5311073D03*
%TD*%
D38*
%TO.C,U5*%
X444010000Y2132500D03*
X445000000Y2132500D03*
X444010000Y2992500D03*
X445000000Y2992500D03*
D39*
X443505000Y400000D03*
X444005000Y400000D03*
X444505000Y400000D03*
X445005000Y400000D03*
X445505000Y400000D03*
X445505000Y4725000D03*
X445005000Y4725000D03*
X444505000Y4725000D03*
X444005000Y4725000D03*
X443505000Y4725000D03*
%TD*%
D12*
%TO.C,C23*%
X354037500Y-22600000D03*
X357162500Y-22600000D03*
%TD*%
D40*
%TO.C,R4*%
X325900000Y1487500D03*
X325900000Y3487500D03*
%TD*%
%TO.C,R3*%
X332004000Y1387500D03*
X332004000Y3387500D03*
%TD*%
D12*
%TO.C,C30*%
X363237500Y33200000D03*
X366362500Y33200000D03*
%TD*%
D16*
%TO.C,R15*%
X346600000Y32400000D03*
X346600000Y30400000D03*
%TD*%
D40*
%TO.C,R5*%
X419502437Y-1700000D03*
X419502437Y300000D03*
%TD*%
D22*
%TO.C,R7*%
X360000000Y-29500000D03*
X358000000Y-29500000D03*
%TD*%
D41*
%TO.C,U6*%
X441930000Y-3495000D03*
X441930000Y-4765000D03*
X441930000Y-6035000D03*
X441930000Y-7305000D03*
X447080000Y-7305000D03*
X447080000Y-6035000D03*
X447080000Y-4765000D03*
X447080000Y-3495000D03*
%TD*%
D12*
%TO.C,C1*%
X365687500Y-26500000D03*
X368812500Y-26500000D03*
%TD*%
D24*
%TO.C,R18*%
X450000000Y-19562500D03*
X450000000Y-16437500D03*
%TD*%
D42*
%TO.C,U3*%
X353887500Y-16825000D03*
X353887500Y-17475000D03*
X353887500Y-18125000D03*
X353887500Y-18775000D03*
X358112500Y-18775000D03*
X358112500Y-18125000D03*
X358112500Y-17475000D03*
X358112500Y-16825000D03*
%TD*%
D22*
%TO.C,R6*%
X360000000Y-31700000D03*
X358000000Y-31700000D03*
%TD*%
D36*
%TO.C,D2*%
X332004000Y-912500D03*
X332004000Y-3887500D03*
%TD*%
D16*
%TO.C,R16*%
X430800000Y32800000D03*
X430800000Y30800000D03*
%TD*%
M02*
